<?xml version="1.0" encoding="utf-8"?><!DOCTYPE svg PUBLIC "-//W3C//DTD SVG 1.1//EN" "http://www.w3.org/Graphics/SVG/1.1/DTD/svg11.dtd" [ <!ENTITY ns_flows "http://ns.adobe.com/Flows/1.0/">]><svg version="1.1"  xmlns="http://www.w3.org/2000/svg" xmlns:xlink="http://www.w3.org/1999/xlink" xmlns:a="http://ns.adobe.com/AdobeSVGViewerExtensions/3.0/"  x="0px" y="0px" width="82px" height="82px" viewBox="0 0 82 82" overflow="visible" enable-background="new 0 0 82 82"  xml:space="preserve"><defs></defs><linearGradient id="SVGID_1_" gradientUnits="userSpaceOnUse" x1="7.4121" y1="17.4814" x2="74.5906" y2="64.5203"> <stop  offset="0" style="stop-color:#702281"/> <stop  offset="0.2869" style="stop-color:#6C217E"/> <stop  offset="0.5856" style="stop-color:#5F1D77"/> <stop  offset="0.8886" style="stop-color:#4B166A"/> <stop  offset="1" style="stop-color:#411364"/></linearGradient><path fill="url(#SVGID_1_)" d="M82.003,41c0,22.646-18.357,41-41.001,41C18.357,82,0,63.646,0,41C0,18.356,18.357,0,41.002,0 C63.646,0,82.003,18.356,82.003,41"/><path fill="#FFFFFF" d="M77.231,42.993c-1.035,19.084-16.891,34.292-36.228,34.292c-19.339,0-35.194-15.208-36.229-34.292H2.147 c1.041,20.529,18.071,36.912,38.857,36.912c20.784,0,37.813-16.383,38.852-36.912H77.231z"/><path fill="#FFFFFF" d="M32.324,40.404c-3.199,0-5.79,2.672-5.79,5.968c0,3.298,2.591,5.973,5.79,5.973 c1.489,0,2.846-0.579,3.87-1.528v1.625l1.922-0.921v-5.138V46.38v-0.008C38.116,43.076,35.523,40.404,32.324,40.404 M32.324,50.402 c-2.156,0-3.907-1.803-3.907-4.03c0-2.224,1.751-4.027,3.907-4.027c2.16,0,3.909,1.803,3.909,4.027 C36.233,48.599,34.484,50.402,32.324,50.402 M52.324,33.079h-3.217v-1.781h4.217L52.324,33.079z M25.755,42.411L25.755,42.411 c-1.274,0-2.315,1.08-2.411,2.368v7.426H21.41V40.54h1.934v1.025c0.643-0.653,1.461-1.136,2.411-1.136c0.562,0,1.1,0.1,1.591,0.286 l-0.757,1.852C26.328,42.467,26.05,42.411,25.755,42.411 M43.894,38.212h-1.942V21.705l1.942-1.09V38.212z M18.562,48.958 l1.771,0.799c-1.042,1.564-2.791,2.588-4.769,2.588c-3.199,0-5.791-2.675-5.791-5.973c0-3.295,2.591-5.968,5.791-5.968 c1.862,0,3.518,0.905,4.579,2.316l-1.698,0.93c-0.718-0.801-1.742-1.305-2.88-1.305c-2.16,0-3.911,1.803-3.911,4.027 c0,2.227,1.751,4.03,3.911,4.03C16.768,50.402,17.848,49.84,18.562,48.958 M47.632,38.212h-1.943V21.705l1.943-1.09V38.212z  M68.262,35.699l1.94-1.092v17.599h-1.94V35.699z M57.518,40.404c-3.199,0-5.791,2.672-5.791,5.968c0,3.298,2.592,5.973,5.791,5.973 c2.025,0,3.807-1.075,4.841-2.697l-1.756-0.804c-0.714,0.949-1.83,1.559-3.085,1.559c-1.927,0-3.526-1.439-3.848-3.326h9.596h0.002 h-0.002c0.028-0.229,0.04-0.468,0.04-0.704C63.306,43.076,60.715,40.404,57.518,40.404 M53.753,45.292 c0.458-1.701,1.969-2.947,3.765-2.947c1.795,0,3.305,1.247,3.763,2.947H53.753z M64.522,35.699l1.942-1.092v17.599h-1.942V35.699z  M50.531,46.372v5.834h-1.938v-5.834h-0.001c0-2.202-1.273-3.991-3.409-3.991c-2.135,0-3.631,1.79-3.631,3.991v5.834h-1.937v-5.834 c0-3.301,2.368-5.971,5.567-5.971C48.383,40.401,50.531,43.071,50.531,46.372 M38.027,34.849c-0.714,0.949-1.826,1.559-3.084,1.559 c-1.925,0-3.523-1.436-3.847-3.329l9.599,0.003v-0.003c0.026-0.229,0.038-0.46,0.038-0.696c0-3.297-2.592-5.972-5.79-5.972 c-3.196,0-5.792,2.675-5.792,5.972s2.596,5.969,5.792,5.969c2.027,0,3.811-1.074,4.844-2.699L38.027,34.849z M34.943,28.349 c1.797,0,3.308,1.25,3.766,2.948h-7.528C31.637,29.599,33.148,28.349,34.943,28.349"/><path fill="#FFFFFF" d="M72.479,35.616c0.647,0,1.164,0.528,1.164,1.175c0,0.658-0.517,1.18-1.168,1.18 c-0.648,0-1.177-0.522-1.177-1.18c0-0.647,0.528-1.175,1.177-1.175H72.479z M72.468,35.851c-0.491,0-0.887,0.423-0.887,0.946 c0,0.527,0.396,0.938,0.894,0.938c0.494,0.006,0.897-0.412,0.897-0.938c0-0.523-0.403-0.946-0.897-0.946H72.468z M72.269,37.475 h-0.276v-1.307c0.104-0.014,0.22-0.037,0.419-0.037c0.224,0,0.36,0.037,0.448,0.106c0.072,0.057,0.115,0.147,0.115,0.282 c0,0.157-0.11,0.267-0.251,0.303v0.011c0.116,0.021,0.188,0.125,0.208,0.319c0.029,0.203,0.054,0.282,0.076,0.323h-0.289 c-0.031-0.047-0.052-0.162-0.08-0.34c-0.02-0.14-0.102-0.197-0.243-0.197h-0.127V37.475z M72.269,36.723h0.131 c0.163,0,0.288-0.053,0.288-0.188c0-0.11-0.079-0.193-0.267-0.193c-0.067,0-0.116,0-0.152,0.005V36.723z"/><linearGradient id="SVGID_2_" gradientUnits="userSpaceOnUse" x1="2.146" y1="20.583" x2="79.8604" y2="20.583"> <stop  offset="0" style="stop-color:#FFFFFF"/> <stop  offset="0.0947" style="stop-color:#CFCFCF"/> <stop  offset="0.1472" style="stop-color:#B2B2B2"/> <stop  offset="0.2332" style="stop-color:#CCCCCC"/> <stop  offset="0.411" style="stop-color:#FFFFFF"/> <stop  offset="0.4174" style="stop-color:#FCFCFC"/> <stop  offset="0.519" style="stop-color:#C9C9C8"/> <stop  offset="0.5957" style="stop-color:#A9A9A8"/> <stop  offset="0.638" style="stop-color:#9D9D9C"/> <stop  offset="0.7555" style="stop-color:#CECECD"/> <stop  offset="0.865" style="stop-color:#FFFFFF"/> <stop  offset="1" style="stop-color:#DADADA"/></linearGradient><path fill="url(#SVGID_2_)" d="M40.69,2.098C20.027,2.262,3.152,18.613,2.146,39.068h2.623C5.778,19.956,21.646,4.716,41.004,4.716 s35.224,15.24,36.23,34.352h2.626c-1.01-20.455-17.882-36.806-38.544-36.97H40.69z"/></svg>