<svg id="PLAN_DECOR" data-name="PLAN DECOR" xmlns="http://www.w3.org/2000/svg" viewBox="0 0 70.87 7.6"><defs><style>.cls-1{fill:#34468f;}.cls-2{fill:#0093be;}.cls-3{fill:none;}</style></defs><title>galderma</title><path class="cls-1" d="M18.09,6.57V4.09h.8V7a3.81,3.81,0,0,1-2.21.61c-2,0-3.19-1.13-3.19-2.94a3,3,0,0,1,3.22-3A6.05,6.05,0,0,1,18.65,2v.71a7.08,7.08,0,0,0-1.78-.26,2.17,2.17,0,0,0-2.42,2.23,2.1,2.1,0,0,0,2.28,2.19,3.47,3.47,0,0,0,1.36-.27"/><path class="cls-1" d="M24.51,1.81l2.31,5.65h-1l-.55-1.33H22.5L22,7.45H21l2.35-5.64Zm-1.76,3.7h2.32l-1.15-3c-.09.2-.73,1.88-1.17,3"/><polygon class="cls-1" points="32.94 7.46 28.96 7.46 28.96 1.81 29.91 1.81 29.91 6.75 32.94 6.75 32.94 7.46"/><path class="cls-2" d="M35.27,1.82a15,15,0,0,1,2-.13c2,0,3.35,1.14,3.35,3S39.31,7.6,37.31,7.6a16,16,0,0,1-2.05-.14Zm4.39,2.83A2.14,2.14,0,0,0,37.3,2.47c-.33,0-.73,0-1.09,0V6.76c.31,0,.68,0,1.1,0a2.14,2.14,0,0,0,2.35-2.16"/><polygon class="cls-1" points="47.04 7.46 42.98 7.46 42.98 1.82 46.83 1.82 46.83 2.56 43.92 2.56 43.92 4.15 46.29 4.15 46.29 4.86 43.92 4.86 43.92 6.73 47.04 6.73 47.04 7.46"/><path class="cls-1" d="M49.21,1.82a12.28,12.28,0,0,1,1.72-.12c1.53,0,2.31.78,2.31,1.81a1.82,1.82,0,0,1-1.19,1.67L54,7.46H52.77l-1.59-2a6,6,0,0,1-1.09.13V7.46h-.88Zm.88.67V4.92c.55,0,2.2-.11,2.2-1.31,0-.7-.45-1.17-1.36-1.17-.25,0-.56,0-.84.05"/><polygon class="cls-1" points="63.17 7.46 62.27 7.46 61.61 3.18 59.79 7.46 58.97 7.46 57.11 3.18 56.48 7.46 55.57 7.46 56.53 1.82 57.43 1.82 59.38 6.47 61.37 1.82 62.28 1.82 63.17 7.46"/><path class="cls-1" d="M68.56,1.82l2.31,5.64h-1l-.54-1.33H66.54L66,7.46h-1l2.35-5.64ZM66.8,5.52h2.31L68,2.53c-.09.21-.73,1.88-1.16,3"/><path class="cls-2" d="M6.33,1.69A1.69,1.69,0,0,1,3,1.69a1.69,1.69,0,1,1,3.37,0M3.15,5.06a1.71,1.71,0,0,0-1.46-.84,1.69,1.69,0,1,0,0,3.37,1.71,1.71,0,0,0,1.46-.84,1.74,1.74,0,0,1,1.5-.83,1.72,1.72,0,0,1,1.48.83,1.69,1.69,0,1,0,0-1.69,1.72,1.72,0,0,1-1.48.83,1.74,1.74,0,0,1-1.5-.83"/><path class="cls-3" d="M4.67,3.55"/></svg>