<svg xmlns="http://www.w3.org/2000/svg" width="16" height="18.38" viewBox="0 0 16 18.38">
  <defs>
    <style>
      .cls-1 {
        fill: #691f83;
        fill-rule: evenodd;
      }
    </style>
  </defs>
  <path id="Form_2_Kopie" data-name="Form 2 Kopie" class="cls-1" d="M998.4,3192.3H985.6a1.6,1.6,0,0,0-1.6,1.6v7.2a1.6,1.6,0,0,0,1.6,1.6h12.8a1.6,1.6,0,0,0,1.6-1.6v-7.2a1.6,1.6,0,0,0-1.6-1.6m-1.51,1.6-4.89,3.06-4.89-3.06h9.78Zm-11.29,7.2v-6.26l5.976,3.74a0.809,0.809,0,0,0,.848,0l5.976-3.74v6.26H985.6Zm10.166-13.83-1.131-1.14-1.835,1.84v-3.67h-1.6v3.67l-1.834-1.84-1.132,1.14,3.766,3.76Z" transform="translate(-984 -3184.31)"/>
</svg>
