<svg xmlns="http://www.w3.org/2000/svg" width="15.184" height="15.18" viewBox="0 0 15.184 15.18">
  <defs>
    <style>
      .cls-1 {
        fill: #691f83;
        fill-rule: evenodd;
      }
    </style>
  </defs>
  <path id="Form_1_Kopie" data-name="Form 1 Kopie" class="cls-1" d="M993.7,3158.9v1.6h3.669l-5.035,5.03,1.132,1.14,5.034-5.04v3.67h1.6v-6.4h-6.4Zm4.8,8.8h-3.2a1.6,1.6,0,0,0-1.6,1.54,4.715,4.715,0,0,1-3.928-3.94,1.6,1.6,0,0,0,1.527-1.6v-3.2a1.6,1.6,0,0,0-1.6-1.6h-3.2a1.6,1.6,0,0,0-1.6,1.6v4a9.613,9.613,0,0,0,9.6,9.6h4a1.6,1.6,0,0,0,1.6-1.6v-3.2a1.6,1.6,0,0,0-1.6-1.6m-4,4.8a8.01,8.01,0,0,1-8-8v-4h3.2v3.2h-0.8a0.811,0.811,0,0,0-.57.24,0.793,0.793,0,0,0-.23.57,6.326,6.326,0,0,0,6.4,6.39,0.8,0.8,0,0,0,.8-0.8v-0.8h3.2v3.2h-4Z" transform="translate(-984.906 -3158.91)"/>
</svg>
