<?xml version="1.0" encoding="utf-8"?>
<!-- Generator: Adobe Illustrator 24.0.1, SVG Export Plug-In . SVG Version: 6.00 Build 0)  -->
<svg version="1.1" id="Ebene_1" xmlns="http://www.w3.org/2000/svg" xmlns:xlink="http://www.w3.org/1999/xlink" x="0px" y="0px"
	 viewBox="0 0 129.7 20" style="enable-background:new 0 0 129.7 20;" xml:space="preserve">
<style type="text/css">
	.st0{fill-rule:evenodd;clip-rule:evenodd;fill:#D8D8D8;}
</style>
<g>
	<g id="Gruppe_4">
		<path id="star-1_Kopie_5" class="st0" d="M13.4,15.3l6.5,4.7l-2.5-7.7l6.5-4.5h-7.8L13.4,0l-2.6,7.8H3l6.5,4.5L7,20L13.4,15.3z"/>
		<path id="star-2_Kopie_5" class="st0" d="M38.9,15.3l6.5,4.7l-2.5-7.7l6.5-4.5h-7.8L38.9,0l-2.6,7.8h-7.9l6.5,4.5L32.4,20
			L38.9,15.3z"/>
		<path id="star-3_Kopie_5" class="st0" d="M64.9,15.3l6.5,4.7l-2.5-7.7l6.5-4.5h-7.8L64.9,0l-2.6,7.8h-7.9l6.5,4.5L58.4,20
			L64.9,15.3z"/>
		<path id="star-4_Kopie_5" class="st0" d="M90.9,15.3l6.5,4.7l-2.5-7.7l6.5-4.5h-7.9L90.9,0l-2.6,7.8h-7.8l6.5,4.5L84.4,20
			L90.9,15.3z"/>
		<path id="star-5_Kopie_5" class="st0" d="M116.3,15.3l6.5,4.7l-2.5-7.7l6.5-4.5h-7.9L116.3,0l-2.6,7.8h-7.8l6.5,4.5l-2.5,7.7
			L116.3,15.3z"/>
	</g>
</g>
</svg>
