<svg xmlns="http://www.w3.org/2000/svg" width="26" height="26" viewBox="0 0 26 26">
  <defs>
    <style>
      .cls-1 {
        fill: #691f83;
        fill-rule: evenodd;
      }
    </style>
  </defs>
  <path id="Form_3" data-name="Form 3" class="cls-1" d="M1843.8,499.8a2.6,2.6,0,1,0,2.6,2.6A2.608,2.608,0,0,0,1843.8,499.8ZM1836,479v2.6h2.6l4.68,9.88-1.82,3.12a4.619,4.619,0,0,0-.26,1.3,2.608,2.608,0,0,0,2.6,2.6h15.6v-2.6h-15.08a0.28,0.28,0,0,1-.26-0.26v-0.13l1.17-2.21h9.62a2.371,2.371,0,0,0,2.21-1.3l4.68-8.45a0.716,0.716,0,0,0,.26-0.65,1.228,1.228,0,0,0-1.3-1.3h-19.24l-1.17-2.6H1836Zm20.8,20.8a2.6,2.6,0,1,0,2.6,2.6A2.608,2.608,0,0,0,1856.8,499.8Z" transform="translate(-1836 -479)"/>
</svg>
