<svg id="Ebene_1" width="300px" height="114px" data-name="Ebene 1" xmlns="http://www.w3.org/2000/svg" viewBox="0 0 3649.97 1752.48"><defs><style>.cls-1{fill:#d10b10;}.cls-2{fill:#fffdfd;}.cls-3{fill:#e84d0f;}</style></defs><title>logo-medpex</title><path  class="cls-1" d="M4.61,0h3643a8,8,0,0,1,1,3.25c0,3.84.11,7.67.11,11.51V1735c0,3.07,0,6.14,0,9.21,0,1.15-.15,2.29-.21,3.44a3.36,3.36,0,0,1-2.82,3c-4.22.1-8.44.24-12.65.24H23.45c-5,0-10,0-15-.06a15.08,15.08,0,0,1-3.41-.42,4.39,4.39,0,0,1-2-1.07,4.61,4.61,0,0,1-1.15-2,13.93,13.93,0,0,1-.59-3.38c-.12-3.45-.17-6.91-.17-10.36q0-31.1,0-62.18,0-824.41,0-1648.84c0-5,0-10,.07-15A38.86,38.86,0,0,1,1.7,3.13,3.73,3.73,0,0,1,4.61,0Zm403,893.52a15.85,15.85,0,0,0-1.42-1.31c-.14-.1-.76.19-.75.22.26,1.28,1.35.92,2.19,1.07a17.64,17.64,0,0,0,2.55,2.28,60,60,0,0,0,9.35,4.41q14.46,5.67,28.87,11.46c9.26,3.72,18.48,7.5,28,10.59a67.8,67.8,0,0,1,6.51,2.28c7.38,3.28,15.1,5.6,22.71,8.24,2.9,1,5.89,1.8,8.72,3,12.42,5.14,25.33,8.9,38,13.22a49.1,49.1,0,0,0,5.49,1.72A147.36,147.36,0,0,1,572.14,955c8.39,2.74,16.74,5.62,25.2,8.13s16.94,4.91,25.31,7.72a15.42,15.42,0,0,0,2.21.62c4.18.72,8.12,2.29,12.18,3.44s8.13,2.23,12.18,3.41c11.78,3.44,23.69,6.4,35.5,9.73,12.92,3.65,26.11,6.24,38.92,10.31a18.41,18.41,0,0,0,3.35.82c5.74.67,11.21,2.52,16.81,3.81,15.32,3.51,30.39,8.1,45.89,10.84,10.77,2.79,21.62,5.18,32.46,7.64,7.85,1.78,15.78,3.22,23.58,5.2,13.64,2.13,26.95,5.9,40.53,8.37,3.39.62,6.78,1.24,10.16,1.94,5.63,1.17,11.2,2.67,16.87,3.54,6.06.93,11.94,2.88,18.13,3.09a21.55,21.55,0,0,1,3.36.74c5.26,1.08,10.47,2.45,15.78,3.14,7.62,1,15.06,2.83,22.61,4.09,6.42,1.08,12.7,3,19.25,3.33a14.56,14.56,0,0,1,3.39.62,46.25,46.25,0,0,0,9.05,1.59c1.9.16,3.78.61,5.67.94,2.26.4,4.5,1,6.78,1.2a54.81,54.81,0,0,1,7.94,1.32,41.17,41.17,0,0,0,5.65,1,59.24,59.24,0,0,1,7.95,1.26c2.22.55,4.53.75,6.8,1.13l6.8,1.13c2.26.38,4.53.77,6.8,1.12a48.12,48.12,0,0,1,5.67.86,47.94,47.94,0,0,0,10.22,1.55,28.35,28.35,0,0,1,5.69.77,52.69,52.69,0,0,0,11.37,1.63,21.62,21.62,0,0,1,4.54.65c3.35.95,6.8,1.14,10.2,1.71,6,1,12.06,2.2,18.2,2.52a9.76,9.76,0,0,1,2.26.46,42.49,42.49,0,0,0,10.22,1.5,27.76,27.76,0,0,1,5.68.79,53.74,53.74,0,0,0,10.23,1.5,41.16,41.16,0,0,1,6.81,1,51,51,0,0,0,9.11,1.21,46.17,46.17,0,0,1,8,.84,53.46,53.46,0,0,0,11.38,1.54c3.49.1,6.75,1.46,10.18,1.82,3.81.41,7.65.57,11.47.88a10.85,10.85,0,0,1,2.25.47,39.33,39.33,0,0,0,10.24,1.35,30.29,30.29,0,0,1,8,.89,42.08,42.08,0,0,0,11.38,1.43,48.81,48.81,0,0,1,11.4,1.35,31.24,31.24,0,0,0,6.83.87,60.14,60.14,0,0,1,12.52,1.61,34,34,0,0,0,6.86.69,67.2,67.2,0,0,1,13.68,1.57,39.51,39.51,0,0,0,8,.75,55.81,55.81,0,0,1,12.54,1.53,25.75,25.75,0,0,0,5.7.67c5.36.22,10.72.29,16,1.79a25.14,25.14,0,0,0,5.71.54c3.07.13,6.14.08,9.21.26a37.08,37.08,0,0,1,6.83.84,52.81,52.81,0,0,0,11.4,1.32c3.45.12,6.89.41,10.34.62,5.58,1.76,11.36,1.64,17.11,1.74a51.69,51.69,0,0,1,11.42,1.25,38.89,38.89,0,0,0,6.83.85c3.06.18,6.13.2,9.2.24a43.83,43.83,0,0,1,11.41,1.24,32.06,32.06,0,0,0,8,.89c3.07.07,6.14.16,9.21.19a40.31,40.31,0,0,1,10.26,1.18,32.56,32.56,0,0,0,8,.92c3.83.08,7.67.08,11.5.27a36.44,36.44,0,0,1,6.84.83,50.47,50.47,0,0,0,11.41,1.22c4.23,0,8.45.14,12.67.2a36.45,36.45,0,0,1,9.12,1.07,35.51,35.51,0,0,0,9.13,1l18.42.26a35.51,35.51,0,0,1,9.12,1,35.54,35.54,0,0,0,9.13,1l18.42.24a36,36,0,0,1,9.13,1,39.91,39.91,0,0,0,10.27,1.08l23,.26c3.07,0,6.17-.08,9.16.72a54.48,54.48,0,0,0,13.7,1.35c8.83.07,17.65.13,26.48.28a36.7,36.7,0,0,1,8,.67c4.92,1.21,9.88,1.28,14.87,1.32,11.13.08,22.26.14,33.38.29a43.53,43.53,0,0,1,9.16.66c5.31,1.26,10.65,1.3,16,1.33l63.32.34a57.56,57.56,0,0,1,13.72,1.22,35.51,35.51,0,0,0,6.85.67c2.3.11,4.61,0,6.91.06q117.43.42,234.87,0c2.3,0,4.61.06,6.91-.06a41,41,0,0,0,6.84-.74,50.56,50.56,0,0,1,11.43-1.14c2.68,0,5.37,0,8.06,0,19.57-.11,39.14-.19,58.71-.34,3.45,0,6.89-.32,10.34-.49,5.61-1.7,11.39-1.47,17.14-1.52l29.93-.26c3.07,0,6.18.11,9.16-.71,4.51-1.23,9.1-1.26,13.71-1.3l27.63-.27a44.27,44.27,0,0,0,11.41-1.18,36.1,36.1,0,0,1,9.15-.86l20.72-.24a43.93,43.93,0,0,0,11.42-1.16,36,36,0,0,1,9.14-.9c6.52-.08,13-.18,19.57-.24a40,40,0,0,0,10.27-1.14,36.43,36.43,0,0,1,9.13-1q8.05-.11,16.12-.24a31.08,31.08,0,0,0,8-.8,43.44,43.44,0,0,1,11.41-1.28c4.22,0,8.44-.16,12.66-.19a53.15,53.15,0,0,0,12.56-1.32,36.27,36.27,0,0,1,6.84-.76c3.07-.16,6.14-.18,9.21-.22a49.86,49.86,0,0,0,11.41-1.24,36.41,36.41,0,0,1,6.84-.81c3.83-.18,7.67-.2,11.51-.28a32,32,0,0,0,8-1,39.83,39.83,0,0,1,10.26-1.14c3.07,0,6.15-.07,9.21-.22a35.46,35.46,0,0,0,6.85-.72,56.52,56.52,0,0,1,13.7-1.44,53.11,53.11,0,0,0,12.54-1.45,36.35,36.35,0,0,1,6.85-.72c3.06-.16,6.14-.13,9.2-.27a25.1,25.1,0,0,0,5.71-.6c4.87-1.4,9.84-1.51,14.83-1.61a36.52,36.52,0,0,0,9.15-.87,48.07,48.07,0,0,1,11.39-1.41c2.68-.11,5.46,0,8-.65,5.27-1.39,10.61-1.54,16-1.69a35.49,35.49,0,0,0,9.12-1.06,37.85,37.85,0,0,1,9.11-1.16,37.4,37.4,0,0,0,9.13-1,41.17,41.17,0,0,1,10.25-1.26,39.39,39.39,0,0,0,8-.62,82,82,0,0,1,16-1.91,20.39,20.39,0,0,0,4.53-.73,44.25,44.25,0,0,1,11.39-1.39,43.44,43.44,0,0,0,11.39-1.44c3.34-1,6.84-.78,10.28-1.09,3.82-.35,7.44-1.93,11.32-2,1.54,0,3.08-.07,4.6-.21a32.46,32.46,0,0,0,5.69-.75,54.15,54.15,0,0,1,11.38-1.57,21.61,21.61,0,0,0,4.55-.64c3.72-1.06,7.57-1.12,11.35-1.67,7.21-1.05,14.37-2.33,21.66-2.66a9.71,9.71,0,0,0,2.25-.48,41.48,41.48,0,0,1,9.08-1.4,38.82,38.82,0,0,0,6.82-.89,48.63,48.63,0,0,1,10.23-1.46,35.8,35.8,0,0,0,6.82-1c2.23-.52,4.52-.81,6.79-1.18s4.58-.55,6.8-1.08c2.63-.62,5.29-.91,7.94-1.29,6.45-.92,12.8-2.49,19.34-2.73a16.69,16.69,0,0,0,2.25-.47c7.91-1.42,15.7-3.57,23.8-3.9a34.14,34.14,0,0,0,4.51-.87c2.26-.41,4.53-.78,6.79-1.16s4.57-.59,6.8-1.14a53.34,53.34,0,0,1,7.94-1.26,31.59,31.59,0,0,0,4.55-.67c10.81-2.63,21.86-4,32.76-6.08,5.26-1,10.44-2.56,15.85-2.71a13.67,13.67,0,0,0,2.26-.44c4.87-1,9.72-2.22,14.62-3.07s9.75-2.28,14.68-2.75,9.79-1.87,14.7-2.69c5.67-.94,11.32-2,16.91-3.34,9.7-2.29,19.43-4.43,29.26-6.1,4.77-1.52,9.8-1.81,14.62-3.09,10.75-2.85,21.79-4.45,32.49-7.51a5.51,5.51,0,0,1,1.13-.22c5-.39,9.74-2.11,14.62-3.1,5.26-1.06,10.48-2.29,15.69-3.56q22.91-5.62,45.78-11.33c15.26-3.79,30.6-7.25,45.63-11.94,12.72-2.88,25.23-6.57,37.8-10,7.4-2,14.8-4.07,22.09-6.46,11.3-3.7,22.89-6.44,34.11-10.41a23.72,23.72,0,0,1,3.32-.94,102.37,102.37,0,0,0,12.13-3.61q19.68-6.46,39.34-13c39.64-13.21,34.53-11.85,63.94-22.8a30.33,30.33,0,0,0,11.55-7.34c1.33-1.37,2.67-2.76,4.08-4a35.74,35.74,0,0,0,7.93-11.2c3.19-6.67,5.31-13.56,5-21.06-.16-3.83-.12-7.67-.2-11.51a21.37,21.37,0,0,0-2.19-8.87c-6.15-12.94-5.72-11.74-14.45-20.49l-.83-.8a31.82,31.82,0,0,0-7.45-5.35,66.79,66.79,0,0,0-11.7-4.77,30,30,0,0,0-7.92-1.31c-8.17-.25-10.23.07-18,2.93-.36.13-.72.26-1.07.41a201,201,0,0,1-19.44,7.14q-36.58,12.17-73.2,24.29a44.73,44.73,0,0,1-4.38,1.42c-7.14,1.56-14,4.19-20.9,6.38-5.86,1.84-11.67,3.82-17.56,5.56-7.35,2.16-14.79,4.06-22.14,6.22-13.61,4-27.25,7.9-41,11.29-12.29,3-24.53,6.23-36.83,9.21-12.67,3.07-25.19,6.77-38.06,8.93-12.23,3.26-24.61,5.87-37,8.58-3.74.81-7.44,1.77-11.24,2.4-5.66.94-11.23,2.43-16.87,3.57-9.39,1.88-18.8,3.66-28.2,5.51-9,1.78-18,3.66-27.06,5.38-7.15,1.36-14.17,3.39-21.47,3.93a26.19,26.19,0,0,0-3.39.61c-4.88,1-9.74,2.11-14.62,3.09s-9.76,2.23-14.7,2.66-9.77,2-14.71,2.62c-5.31.72-10.46,2.41-15.87,2.62a14.21,14.21,0,0,0-3.37.73,41.68,41.68,0,0,1-7.93,1.31,37.41,37.41,0,0,0-5.66,1,56.12,56.12,0,0,1-7.93,1.34c-2.28.26-4.53.78-6.79,1.18-1.89.33-3.76.77-5.67.94a51.33,51.33,0,0,0-9,1.58,22.46,22.46,0,0,1-4.54.7c-3.48.19-6.8,1.13-10.19,1.76s-6.86.73-10.29,1.09a13.21,13.21,0,0,0-2.25.46,67.81,67.81,0,0,1-9.06,1.56c-6.43,1-12.8,2.39-19.33,2.73a27.12,27.12,0,0,0-3.36.77,44,44,0,0,1-5.67.91c-3.48.18-6.79,1.2-10.19,1.77s-6.86.68-10.29,1.07a33.32,33.32,0,0,0-3.37.75,20,20,0,0,1-3.37.71c-7.3.33-14.29,2.92-21.64,2.9a129.35,129.35,0,0,1-18.19,2.6,11.65,11.65,0,0,0-2.24.49,33.94,33.94,0,0,1-8,1.23,34.61,34.61,0,0,0-8,1,34.44,34.44,0,0,1-7.94,1.27,28.59,28.59,0,0,0-5.72.53,73.88,73.88,0,0,1-15.94,2,18.85,18.85,0,0,0-4.54.71,49.06,49.06,0,0,1-11.38,1.49,36.22,36.22,0,0,0-6.83.82,61.11,61.11,0,0,1-10.23,1.49,43.25,43.25,0,0,0-6.82,1,38.51,38.51,0,0,1-9.11,1.18c-4.26,0-8.35,1.08-12.51,1.75-4.53.72-9.15.88-13.73,1.29a6.3,6.3,0,0,0-1.12.27c-3.72,1.14-7.55,1.22-11.39,1.39a39.31,39.31,0,0,0-8,.73,71,71,0,0,1-13.68,1.7c-2.28.12-4.54.66-6.81,1s-4.53.86-6.81,1c-4.6.28-9.17.48-13.68,1.69a31.84,31.84,0,0,1-6.85.68,68.74,68.74,0,0,0-13.69,1.57c-2.94.71-6.09.63-9.15.8s-6.15.15-9.13,1a43.16,43.16,0,0,1-10.25,1.29c-3.06.14-6.22,0-9.15.79a67.54,67.54,0,0,1-14.84,1.56,36.48,36.48,0,0,0-9.14.92,42.52,42.52,0,0,1-11.39,1.34,49.28,49.28,0,0,0-11.4,1.35,37.18,37.18,0,0,1-6.84.83c-3.06.18-6.14.1-9.2.27a35.4,35.4,0,0,0-6.84.78,54.23,54.23,0,0,1-12.55,1.42c-3.45.08-7-.12-10.3.8a50.6,50.6,0,0,1-12.54,1.48,56.54,56.54,0,0,0-13.7,1.46,33.24,33.24,0,0,1-6.85.7c-3.45.17-6.91.12-10.36.28a31.16,31.16,0,0,0-6.85.67c-4.89,1.35-9.86,1.39-14.84,1.52-4.61.11-9.19.21-13.71,1.4a33.8,33.8,0,0,1-6.84.75c-3.06.16-6.14.08-9.2.25a35.32,35.32,0,0,0-6.84.8A51.71,51.71,0,0,1,2319,1027c-3.07,0-6.14.13-9.21.17a36,36,0,0,0-9.13,1,36.36,36.36,0,0,1-9.12,1.09c-4.22.06-8.44.09-12.66.25a33.85,33.85,0,0,0-6.84.71,58.14,58.14,0,0,1-13.71,1.39c-3.84.06-7.68.06-11.51.21a33.94,33.94,0,0,0-6.85.69,58,58,0,0,1-13.7,1.4c-3.46,0-6.91.13-10.36.16a39.87,39.87,0,0,0-10.27,1.15,32.06,32.06,0,0,1-8,.9l-17.27.26a32.54,32.54,0,0,0-8,.84,44.26,44.26,0,0,1-11.41,1.23q-9.78.11-19.57.25a31.15,31.15,0,0,0-8,.8,43,43,0,0,1-11.41,1.24q-11.51.11-23,.25c-3.07,0-6.17,0-9.16.78a47.81,47.81,0,0,1-12.55,1.28l-28.79.26c-3.06,0-6.17-.09-9.15.72-4.51,1.24-9.1,1.27-13.71,1.31l-40.3.29c-4.22,0-8.44,0-12.57,1.15a31.6,31.6,0,0,1-8,.8l-8.06.06c-75.6.47-151.2.38-226.81.16-14.58,0-29.16-.14-43.75-.2-4.22,0-8.44,0-12.57-1.11a31.67,31.67,0,0,0-8-.83l-12.66-.08c-13.82-.09-27.64-.15-41.45-.3a42.33,42.33,0,0,1-9.16-.67,67.53,67.53,0,0,0-14.86-1.32q-15-.1-29.93-.25a35.14,35.14,0,0,1-9.15-.82,43.9,43.9,0,0,0-11.41-1.21q-15-.12-29.94-.29a39.87,39.87,0,0,1-10.27-1,36,36,0,0,0-9.14-1l-20.72-.25a36.47,36.47,0,0,1-9.13-1,40.37,40.37,0,0,0-10.27-1q-9.79-.14-19.58-.27a36.45,36.45,0,0,1-9.13-1,36.86,36.86,0,0,0-9.12-1.06c-4.6-.06-9.21-.15-13.81-.22a36.93,36.93,0,0,1-9.14-1,40.35,40.35,0,0,0-10.27-1.14c-5.37-.06-10.74-.17-16.11-.26a31.61,31.61,0,0,1-8-.91,39.86,39.86,0,0,0-10.26-1.17c-3.07,0-6.14-.1-9.21-.16a31.14,31.14,0,0,1-8-.88,43,43,0,0,0-11.41-1.25c-3.83,0-7.67-.14-11.51-.19a39.39,39.39,0,0,1-10.26-1.13,32.07,32.07,0,0,0-8-1c-3.45-.08-6.91-.09-10.36-.23a31.17,31.17,0,0,1-6.86-.6,59.48,59.48,0,0,0-14.84-1.6,50.52,50.52,0,0,1-11.41-1.27,36.22,36.22,0,0,0-6.83-.82c-3.45-.19-6.9-.2-10.36-.27a36.49,36.49,0,0,1-9.13-1,36.31,36.31,0,0,0-9.11-1.12,56,56,0,0,1-13.69-1.56,27,27,0,0,0-5.7-.64c-3.06-.15-6.14-.1-9.2-.26a33.8,33.8,0,0,1-6.85-.71,58.53,58.53,0,0,0-13.69-1.53c-3.45-.09-6.93,0-10.29-1a46.54,46.54,0,0,0-11.4-1.36,37.92,37.92,0,0,1-8-.68,62.44,62.44,0,0,0-14.83-1.64,46.65,46.65,0,0,1-11.4-1.35,27.08,27.08,0,0,0-5.69-.78,65,65,0,0,1-13.67-1.68,31.87,31.87,0,0,0-6.86-.67c-4.6-.18-9.19-.33-13.67-1.64a18.75,18.75,0,0,0-4.56-.58,61.07,61.07,0,0,1-14.8-1.87,19.86,19.86,0,0,0-4.57-.46c-5.37-.19-10.76-.22-16-1.9-3.44-.24-6.9-.34-10.32-.77-3.8-.48-7.53-1.59-11.33-1.85A88.18,88.18,0,0,1,982.37,993a23.24,23.24,0,0,0-4.58-.43,44.31,44.31,0,0,1-9.09-1.32,23.31,23.31,0,0,0-4.53-.76c-5.37-.3-10.72-.54-15.95-2a25.47,25.47,0,0,0-4.57-.48,35.76,35.76,0,0,1-5.71-.57,73.94,73.94,0,0,0-14.8-2,9,9,0,0,1-2.26-.37c-4.44-1.47-9-1.61-13.65-1.81a17,17,0,0,1-3.43-.34A68.41,68.41,0,0,0,889,980.77a120.1,120.1,0,0,0-18.19-2.64,10.85,10.85,0,0,1-2.24-.51,57.64,57.64,0,0,0-7.94-1.3c-6.44-.92-12.8-2.41-19.34-2.71a25.28,25.28,0,0,1-3.36-.74,54.49,54.49,0,0,0-5.67-.94,50.58,50.58,0,0,1-9.06-1.52,23.86,23.86,0,0,0-4.54-.72,71.9,71.9,0,0,1-11.38-1.55c-3.71-.87-7.63-.91-11.34-1.77-3.39-.79-6.82-1.07-10.21-1.67a171.48,171.48,0,0,0-18.18-2.61,28.69,28.69,0,0,1-3.37-.76,52.29,52.29,0,0,0-5.66-1c-6.51-.51-12.77-2.63-19.3-3a66.07,66.07,0,0,0-10.18-1.86c-3.79-.46-7.51-1.48-11.3-2-5.68-.86-11.2-2.68-17-2.84a8.81,8.81,0,0,1-2.24-.49,43.41,43.41,0,0,0-7.92-1.42c-2.28-.23-4.53-.75-6.79-1.14s-4.53-.78-6.8-1.14c-1.89-.3-3.8-.49-5.68-.87-4.88-1-9.74-2.08-14.63-3.05S647,940.31,642,939.87s-9.77-2-14.71-2.65c-3.41-.48-6.74-1.63-10.15-2-7.27-.73-14.31-2.63-21.47-4-5.27-1-10.52-2.08-15.79-3.11-9.4-1.83-18.84-3.49-28.2-5.52-9.73-2.11-19.54-3.88-29.28-5.95-7.87-1.67-15.79-3.14-23.63-4.93-3.74-.85-7.48-1.67-11.24-2.42-8.26-1.65-16.55-3.23-24.78-5-7.12-1.53-14.22-3.18-21.32-4.77-7.48-1.68-15-3.22-22.44-5A39.54,39.54,0,0,0,407.59,893.52ZM143.14,527.83V827.1c0,3.84,0,7.67.08,11.51a5.14,5.14,0,0,0,.42,2.22,3,3,0,0,0,1.57,1.55c3.77,1,7.63.54,11.45.54q299.27,0,598.53,0c3.07,0,6.14,0,9.21-.08a5.05,5.05,0,0,0,2.22-.5,3,3,0,0,0,1.53-1.59c.93-4.16.47-8.4.47-12.6q0-212.94,0-425.89v-175c0-3.45,0-6.9-.06-10.35a22.2,22.2,0,0,0-.29-2.28,3.84,3.84,0,0,0-2.29-2.29c-4.19-.74-8.42-.35-12.63-.35q-297.53,0-595.07,0c-3.46,0-6.91,0-10.36.06a19.71,19.71,0,0,0-2.27.33,3.53,3.53,0,0,0-2.21,2.36c-.57,3.81-.31,7.66-.31,11.48Q143.14,377,143.14,527.83ZM894.3,686.11v11.51q0,59.26,0,118.54c0,3.84,0,7.67.12,11.51.07,3.06,1.69,3.91,4.45,4,2.3.1,4.61.08,6.91.08h36.82q20.14,0,40.29,0c3.06,0,6.13-.1,9.19-.17a3.25,3.25,0,0,0,3-2.78c.1-3.83.23-7.66.24-11.5q0-53.51,0-107c0-5.38.11-10.74.58-16.09.37-4.21.7-8.41,1.18-12.61a116.19,116.19,0,0,1,7-29,66.36,66.36,0,0,1,7.49-14.22,47.4,47.4,0,0,1,22.17-17.63,79.49,79.49,0,0,1,8.89-2.3,39.67,39.67,0,0,1,13.73-.75,37.74,37.74,0,0,1,12.17,3.25,33.48,33.48,0,0,1,13.81,11.83,49.58,49.58,0,0,1,6.75,14.55,74.78,74.78,0,0,1,2.89,15.81c.36,6.13.84,12.24.81,18.38,0,7.68,0,15.35,0,23q0,56.4,0,112.79c0,3.83.1,7.67.26,11.5a3.17,3.17,0,0,0,1,2,3.55,3.55,0,0,0,2.12.78c3.06.12,6.13.15,9.2.15h72.51c3.83,0,7.67,0,11.5-.08a5.13,5.13,0,0,0,2.22-.4,3,3,0,0,0,1.54-1.58c.74-3.4.43-6.88.43-10.32,0-34.14.08-68.29,0-102.43,0-11.14.51-22.23,1.56-33.32a125.78,125.78,0,0,1,5.36-25.86,72.73,72.73,0,0,1,8.22-17.68,51.61,51.61,0,0,1,10.63-12,49.48,49.48,0,0,1,42.29-9,32.94,32.94,0,0,1,16.3,10.25,41.92,41.92,0,0,1,7.15,11.74,65.94,65.94,0,0,1,4.53,16.59,175.87,175.87,0,0,1,1.53,22.95c-.06,16.11,0,32.22,0,48.33q0,44.89,0,89.77c0,3.45.19,6.9.28,10.34,0,.74,1.46,2.4,2.11,2.42,2.69.1,5.37.26,8,.26q40.28,0,80.56,0c1.15,0,2.3,0,3.45,0,.77,0,1.54,0,2.3-.07,2.27-.07,3.76-1.35,3.81-3.37.09-3.83.17-7.67.17-11.5q0-77.69,0-155.38c0-9.59-.37-19.17-.81-28.75a178.87,178.87,0,0,0-5.15-34.07,101.31,101.31,0,0,0-8.42-22.57,71.16,71.16,0,0,0-38.4-34.65,110.4,110.4,0,0,0-30.14-7.07,211.3,211.3,0,0,0-24.14-.85,129.89,129.89,0,0,0-35.13,5.34,111.11,111.11,0,0,0-58.28,40.89c-1.35,1.86-2.68,3.74-4,5.59-1,1.43-2.88,1.47-3.62.07-1.07-2-2.1-4.1-3.22-6.11a83.57,83.57,0,0,0-44.16-38.46,103,103,0,0,0-29-6.78,186.82,186.82,0,0,0-27.59,0,123.66,123.66,0,0,0-35.81,7.86c-21.05,8-38,21.27-50.17,40.43q-1.85,2.91-3.72,5.81c-.2.32-.4.73-.71.88a2,2,0,0,1-1.09-.08c-.34-.08-.88-.18-.94-.38a11.92,11.92,0,0,1-.76-3.32c-.07-11.89,0-23.78-.1-35.67,0-2.3-.19-4.59-.31-6.89a3.31,3.31,0,0,0-2.37-2.15c-1.91-.09-3.82-.27-5.73-.27q-37.41,0-74.81,0c-1.53,0-3.07,0-4.6.08a5.46,5.46,0,0,0-2.21.5,3.33,3.33,0,0,0-1.57,1.55c-.91,2.59-.54,5.31-.54,8Q894.29,618.21,894.3,686.11Zm1216.18-64.43V429.43c0-3.84,0-7.68,0-11.51,0-1.15-.14-2.3-.21-3.45a3.83,3.83,0,0,0-2.22-2.38c-.75-.09-1.49-.33-2.24-.37-1.53-.07-3.07-.07-4.6-.07q-41.44,0-82.89,0c-2.28,0-4.59-.23-6.85.4-.64.17-2.38,1.65-2.4,2.26-.09,3.83-.26,7.67-.26,11.5q0,67.92,0,135.84c0,3.46,0,6.91-.08,10.36,0,1.52-.8,2.65-1.66,2.62a2.54,2.54,0,0,1-1.85-.92c-2.89-3.08-5.78-6.15-8.74-9.16a97.05,97.05,0,0,0-25.09-18.1c-13.14-6.75-27.22-10.32-41.79-12a166.81,166.81,0,0,0-25.29-1,128.29,128.29,0,0,0-16,1.28,110.29,110.29,0,0,0-56.35,26.84A130.54,130.54,0,0,0,1810,586.76c-11,16.48-18.24,34.51-22.86,53.7A196.87,196.87,0,0,0,1783.6,662c-.44,3.42-.72,6.87-.9,10.31A213.67,213.67,0,0,0,1787,725a171.36,171.36,0,0,0,13.76,41.37,135,135,0,0,0,26.42,37.41c21.7,21.5,48,32.39,78.22,34.51,4.59.32,9.21.25,13.81.23a109.66,109.66,0,0,0,20.57-2.1,119.81,119.81,0,0,0,38.53-14.56c14.44-8.57,26.44-19.64,34.66-34.5a15.91,15.91,0,0,1,2.12-2.68c.14-.15.67,0,1,0s.83.33.85.55a41.31,41.31,0,0,1,.33,4.58c0,10.75,0,21.49,0,32.24,0,2.29.13,4.59.22,6.89a3.37,3.37,0,0,0,2.1,2.43c1.53.14,3,.38,4.57.38q39.72,0,79.44,0c.76,0,1.53,0,2.3-.06,3.08-.26,4.52-.6,4.56-5.11q0-5.76,0-11.51Zm58.13,122.14q0,95.56,0,191.12c0,3.83.05,7.67.17,11.5a3.54,3.54,0,0,0,.85,2.09,3.32,3.32,0,0,0,2,1c2.67.17,5.36.24,8,.24q39.72,0,79.44,0c1.54,0,3.07,0,4.61,0,4.87.09,5.67-1.59,5.74-5.17s.05-6.91.05-10.36q0-62.18,0-124.34c0-3.84,0-7.67.09-11.51a9.16,9.16,0,0,1,.44-2.24,1.58,1.58,0,0,1,.6-.82,1.3,1.3,0,0,1,2,.17c1.4,1.82,2.77,3.67,4.17,5.49a87.22,87.22,0,0,0,10.83,11.9,90.79,90.79,0,0,0,25.15,16,113.58,113.58,0,0,0,41.26,9.42c6.13.21,12.27.06,18.41,0a98,98,0,0,0,22.76-3.18c27.86-6.72,50.62-21.45,68.07-44.27a146.83,146.83,0,0,0,19.21-33.93,191.17,191.17,0,0,0,13.32-58.1,189,189,0,0,0-1.42-44.75,180.36,180.36,0,0,0-14.29-47.18,141.3,141.3,0,0,0-21-32.85c-11.42-13.27-24.88-23.85-40.94-31a102.83,102.83,0,0,0-30.89-8.65,152.54,152.54,0,0,0-45.82,1.77,131.77,131.77,0,0,0-29.54,9.3c-18.26,8.32-33.1,20.65-43.91,37.67-1,1.62-2.05,3.23-3.17,4.78a1.48,1.48,0,0,1-2,.42,1.62,1.62,0,0,1-1-1.8c0-3.45-.07-6.91-.07-10.36,0-9.59,0-19.19,0-28.78,0-1.52-.21-3-.31-4.57a3.21,3.21,0,0,0-2.25-2.29c-2.68-.13-5.35-.32-8-.32q-35.68,0-71.38,0c-1.92,0-3.84,0-5.76.05a9.63,9.63,0,0,0-2.28.19,4.36,4.36,0,0,0-2,1,3.55,3.55,0,0,0-.86,2.09c-.12,3.83-.17,7.67-.17,11.51Q2168.61,649.42,2168.61,743.82Zm-525-28.17q44.32,0,88.65,0c3.06,0,6.12-.19,9.18-.3a3.8,3.8,0,0,0,2.35-2.2c.14-1.52.36-3,.38-4.57.09-10-.17-20-.55-29.92-.41-10.93-3.75-32.33-7.51-45.32a161.61,161.61,0,0,0-15.61-37,120.63,120.63,0,0,0-39.37-41.23c-15.07-9.65-31.59-15.43-49.11-18.74a178.46,178.46,0,0,0-27.45-2.77c-18.49-.61-36.8.71-54.81,5.22a157,157,0,0,0-33.39,12.28c-21.63,11.07-39.32,26.55-52.47,47.11-12.44,19.43-19.36,40.81-22.11,63.56a192.46,192.46,0,0,0-.75,39.07,154,154,0,0,0,9.48,42.52,134.92,134.92,0,0,0,34.29,51.16,148.44,148.44,0,0,0,41.1,27.17,190.06,190.06,0,0,0,70.14,16.49,333.47,333.47,0,0,0,55.16-1.84,306.11,306.11,0,0,0,48.39-9.93A97.19,97.19,0,0,0,1714.8,821a4.09,4.09,0,0,0,2.59-3.5c0-.38.09-.76.09-1.14q0-31.08,0-62.17a8.25,8.25,0,0,0-.34-2.26,1.82,1.82,0,0,0-1.67-1.26,4.65,4.65,0,0,0-2.23.23c-4.21,1.85-8.34,3.86-12.57,5.67a176.58,176.58,0,0,1-41.9,12.07,182.28,182.28,0,0,1-34.39,2.56,162.5,162.5,0,0,1-34.18-4.29A77.18,77.18,0,0,1,1571,759.4a52.78,52.78,0,0,1-20.91-20.86,61.49,61.49,0,0,1-6.72-19.48c-.06-.36.14-.76.12-1.13-.06-.95.39-1.36,1.26-1.68,2.23-.83,4.54-.58,6.82-.58Q1597.6,715.63,1643.65,715.65Zm1089.77,0h78.23c5.75,0,11.5,0,17.25,0a12.49,12.49,0,0,0,3.41-.4,3.36,3.36,0,0,0,1.72-1.42,4.41,4.41,0,0,0,.53-2.21c.09-15,.67-29.92-1.65-44.78-.7-10-2.85-19.73-5.28-29.39A157.64,157.64,0,0,0,2813.06,600a125.4,125.4,0,0,0-24.48-31.75c-18.2-17-39.95-26.81-64.13-31.55-12.76-2.51-15.13-2.67-28.55-3.1a209.84,209.84,0,0,0-42.4,2.46,170.43,170.43,0,0,0-35.34,9.88c-21.33,8.66-39.68,21.54-54.42,39.34-14.48,17.47-23.63,37.5-28.54,59.56a185.58,185.58,0,0,0-4.33,35.32,174.27,174.27,0,0,0,4.11,43.39,136.38,136.38,0,0,0,38.59,69.3A144,144,0,0,0,2599,812.51a170.05,170.05,0,0,0,44.29,18.81,191.06,191.06,0,0,0,24.77,5,162.65,162.65,0,0,0,18.29,1.9c18.4.38,36.77.41,55.11-1.93a324.47,324.47,0,0,0,40.64-7.66,155.69,155.69,0,0,0,22.9-7.53,4.32,4.32,0,0,0,2.47-3.59,7.3,7.3,0,0,0,.09-1.14q0-31.06,0-62.13a14.73,14.73,0,0,0-.4-2.23c-.13-.79-1.9-1.64-2.75-1.27-2.8,1.24-5.57,2.53-8.39,3.74-13.05,5.62-26.37,10.38-40.44,12.78-5.92,1.82-12.1,1.94-18.16,2.83a121.44,121.44,0,0,1-16.05,1.08,192,192,0,0,1-27.53-1.64,129.62,129.62,0,0,1-15.74-3.27,68.35,68.35,0,0,1-14.93-5.93,54.1,54.1,0,0,1-26.91-31.55,37.92,37.92,0,0,1-2.22-10.06,3,3,0,0,1,.7-2.06,3.27,3.27,0,0,1,2.07-.85c3.06-.14,6.13-.19,9.19-.19Zm397.52,116.13h54.11c1.15,0,2.3,0,3.45-.09,2.29-.07,3.35-1.92,2.15-3.77q-7.52-11.6-15.06-23.16L3100.8,690c-1.25-1.92-2.45-3.89-3.62-5.86a3.46,3.46,0,0,1-.08-3.3,48,48,0,0,1,2.84-5q14.29-22.29,28.62-44.55,26.74-41.62,53.46-83.28c1-1.6,2.27-3.09,2.8-5,.21-.77-.71-2.55-1.52-2.6-1.53-.1-3.06-.26-4.59-.26q-47.79,0-95.57,0a41.34,41.34,0,0,0-4.59.18,5,5,0,0,0-3.66,2.48c-.62,1-1,2.06-1.57,3.08q-18,34.7-36.11,69.4c-1.42,2.72-2.94,5.38-4.44,8.06a1.44,1.44,0,0,1-1.74.88,2.86,2.86,0,0,1-1.79-1.37c-.93-1.67-1.89-3.33-2.74-5q-15.75-32-31.49-64c-1.86-3.79-3.83-7.52-5.79-11.25a4.66,4.66,0,0,0-3.75-2.31,26.46,26.46,0,0,0-3.45-.11h-25.33q-38.57,0-77.14,0c-2.68,0-5.39-.3-8,.43a1.54,1.54,0,0,0-1.11,1.7,12.52,12.52,0,0,0,1.39,3.13q11.39,18,22.85,35.92,30.3,47.57,60.59,95.13c1.24,1.94,2.41,3.92,3.45,6a3.42,3.42,0,0,1,0,2.21,7.42,7.42,0,0,1-1.09,2q-43.14,64.62-86.3,129.21c-2.55,3.83-5.18,7.62-7.73,11.45a4,4,0,0,0-.82,2.08,2.31,2.31,0,0,0,1,1.81c2.19.84,4.54.54,6.83.54,31.09,0,62.17.06,93.26,0,12.4,0,10.09,1.56,16.35-10.22q18.63-35.06,37.26-70.09,1.62-3.06,3.4-6c.39-.63,1-1.45,1.61-1.52s1.33.66,1.78,1.22a18.65,18.65,0,0,1,1.85,2.89q19.93,37,39.84,74c1.45,2.7,2.94,5.38,4.53,8a3.53,3.53,0,0,0,2.91,1.56c2.3.14,4.6.23,6.9.24ZM1852.86,1385.43q0,45.42,0,90.84c0,3.06,0,6.13.09,9.19a16,16,0,0,0,.41,2.24,2.82,2.82,0,0,0,2.47,2q16.1.08,32.18.11c.37,0,.73-.22,1.11-.26a3.41,3.41,0,0,0,2.15-2.36c.12-2.29.3-4.59.3-6.88q0-25.29,0-50.59c0-3.45,0-6.9.12-10.35a7.45,7.45,0,0,1,.5-2.21,1.65,1.65,0,0,1,.68-.76,1.63,1.63,0,0,1,2.07-.08c2,1.74,4,3.58,6,5.3a45.87,45.87,0,0,0,27.22,11,120.94,120.94,0,0,0,12.63.12,59.07,59.07,0,0,0,14.69-2.43,52.68,52.68,0,0,0,27.16-18.32c7-9,11.11-19.23,13.43-30.19a120.82,120.82,0,0,0,2.8-27.38,147.82,147.82,0,0,0-1.93-21.73,90.09,90.09,0,0,0-5.2-18.77,65.49,65.49,0,0,0-7.73-14.06,50.31,50.31,0,0,0-22.26-17.55A57.45,57.45,0,0,0,1944,1278a96,96,0,0,0-13.78,0c-12.68,1-23.78,5.55-32.77,14.75-1.61,1.65-3.14,3.35-4.76,5-.17.17-.69,0-1,0s-.84-.24-.91-.47c-.75-2.62-.37-5.33-.46-8,0-1.53,0-3.06-.09-4.6a3.7,3.7,0,0,0-3.57-3.68q-13.22-.11-26.43-.15c-1.53,0-3,.18-4.58.25a3.66,3.66,0,0,0-2.41,2.13,39.05,39.05,0,0,0-.38,8Q1852.86,1338.29,1852.86,1385.43Zm-199.49-64.78v-90.89c0-3.07,0-6.14,0-9.21,0-1.15-.06-2.3-.1-3.44-.07-2.21-1.4-3.73-3.46-3.74q-16.1,0-32.19.05a3.27,3.27,0,0,0-3.07,2.8c-.09,3.06-.21,6.13-.22,9.19q0,31.06,0,62.13c0,2.29-.21,4.58-.39,6.87,0,.21-.58.42-.93.54s-.81.24-1,.09c-2.35-2-4.61-4-7-6a49.16,49.16,0,0,0-28.45-11.08c-3.43-.22-6.89-.18-10.34-.16a58.68,58.68,0,0,0-14.75,2.09,51.72,51.72,0,0,0-29,19.53,63.41,63.41,0,0,0-9.1,17.23,95.61,95.61,0,0,0-5.27,24.66,194.12,194.12,0,0,0,0,26.42,99.49,99.49,0,0,0,5.45,25.79,63,63,0,0,0,5.89,12.45,58.19,58.19,0,0,0,9.18,11.75c9.19,8.85,20.29,13.56,32.92,14.74a97,97,0,0,0,16.08,0,53,53,0,0,0,28.65-10.75c2.14-1.61,4.06-3.51,6.19-5.14.48-.36,1.42-.19,2.13-.09.26,0,.59.54.67.88a25.11,25.11,0,0,1,.54,3.33c.15,1.91.18,3.83.31,5.73a3.09,3.09,0,0,0,2.93,2.92c10.35.2,20.7.35,31-.09a2.15,2.15,0,0,0,1.12-.22c.59-.45,1.35-.93,1.6-1.56.85-2.2.58-4.54.58-6.83Q1653.38,1370.69,1653.37,1320.65Zm-914.13,12.58c6.19-18.34,10.62-31.41,15-44.48q9.16-27.24,18.29-54.48c.12-.37.29-.71.41-1.08,1-3,0-4.68-2.71-4.68q-16.68,0-33.36.07c-1.77,0-2.66,1.33-3.51,2.6a8.58,8.58,0,0,0-.89,2.11q-15.16,47-30.31,94.09-7.93,24.61-15.94,49.2c-.36,1.1-.73,2.18-1.1,3.27-.23.67-2.11,2.64-2.31,2.44a6.59,6.59,0,0,1-1.43-1.75c-.76-1.75-1.44-3.55-2-5.37q-15-45.89-30-91.79-8-24.57-16.12-49.14a19.63,19.63,0,0,0-1.27-3.19,4,4,0,0,0-3.54-2.51q-12.65-.09-25.3-.14c-3.84,0-7.67.06-11.51.11-1.45,0-3,1.86-2.53,3.11,1.56,4.73,3.12,9.46,4.74,14.17q30.06,87.51,60.16,175c.75,2.17,1.56,4.33,2.48,6.43a3.41,3.41,0,0,0,2.57,2,12.45,12.45,0,0,0,2.27.27q20.71,0,41.43,0a19.81,19.81,0,0,0,2.27-.28,2.47,2.47,0,0,0,1.78-1.28,23.12,23.12,0,0,0,2.35-5.22C719.76,1391.15,730.39,1359.55,739.24,1333.23Zm1577.32-11.34v92c0,3.07,0,6.14,0,9.21,0,1.14.2,2.28.27,3.42a3.49,3.49,0,0,0,3.11,2.82c10.73.34,21.45.36,32.18,0a3.46,3.46,0,0,0,3.12-2.81c.1-2.29.29-4.58.29-6.88q0-27.62,0-55.22c0-3.45.1-6.91,0-10.36-.08-6.58,1.22-13,2.85-19.29a42.73,42.73,0,0,1,7.38-15.46A27.61,27.61,0,0,1,2387.5,1308a34.36,34.36,0,0,1,5.74.15c6.37.85,11.65,3.64,15.2,9.2a22.78,22.78,0,0,1,2.13,4.06,40.12,40.12,0,0,1,2.8,11.11c.34,4.21.64,8.41.62,12.64,0,11.5,0,23,0,34.51q0,20.71,0,41.42c0,1.91.22,3.82.37,5.72a3.34,3.34,0,0,0,2.19,2.37,30.73,30.73,0,0,0,3.41.4q13.23,0,26.47,0c1.14,0,2.29-.14,3.44-.21a3.77,3.77,0,0,0,2.84-3.13c.08-1.91.2-3.83.2-5.74q0-42.57,0-85.14c0-1.91,0-3.83-.06-5.75a67.23,67.23,0,0,0-3-18.1,50.72,50.72,0,0,0-6.75-14.55,41.09,41.09,0,0,0-19.41-15.61,44.08,44.08,0,0,0-14.5-3.33q-5.17-.18-10.35-.13a55.24,55.24,0,0,0-36.24,15.28c-1.66,1.58-3.31,3.18-5,4.72-.11.1-.69-.24-1-.46s-.66-.47-.68-.74c-.16-2.29-.33-4.58-.33-6.87q0-32.22,0-64.43c0-3.07-.12-6.13-.22-9.2,0-1.33-1.61-2.68-3.15-2.78-.76-.05-1.52-.17-2.28-.17-9.21,0-18.41,0-27.61,0-4.9,0-5.65.9-5.71,6.26,0,1.92,0,3.84,0,5.76Zm336.76-1.05v93.25c0,2.69,0,5.38,0,8.06,0,1.15,0,2.3.09,3.45a3.81,3.81,0,0,0,3.51,3.8c10.74.3,21.48.35,32.21-.05a1.74,1.74,0,0,0,1-.35,5,5,0,0,0,1.48-1.62c.74-1.81.55-3.77.55-5.68q0-25.34,0-50.66c0-2.68.09-5.36.2-8a1.63,1.63,0,0,1,1.47-1.45,2,2,0,0,1,1,.29,5.83,5.83,0,0,1,2.3,2.47q10.14,14.67,20.25,29.38l20.24,29.38c.87,1.26,1.73,2.53,2.67,3.74a6,6,0,0,0,4.81,2.71q20.71,0,41.44,0c.38,0,.75-.15,1.13-.17a1.92,1.92,0,0,0,1.27-2.62c-.8-1.29-1.54-2.63-2.46-3.84q-25.34-33.51-50.72-67c-1.62-2.14-3.17-4.32-4.74-6.5a3.86,3.86,0,0,1,.32-4.28c1.67-2.1,3.34-4.21,5.06-6.27q18.81-22.53,37.65-45c2.46-2.94,4.9-5.9,7.29-8.9a4.47,4.47,0,0,0,.92-2.06c.11-.79-.36-1.73-1-1.78-9.57-.73-19.17-.21-28.75-.33-3.84,0-7.67,0-11.51.13a4.19,4.19,0,0,0-3,1.41c-1,1.13-2.06,2.27-3,3.48q-17.34,22.24-34.64,44.51c-1.65,2.11-3.42,4.12-5.16,6.15a1.56,1.56,0,0,1-1,.52c-.74,0-1.71-.37-1.75-1-.22-3.06-.29-6.13-.29-9.19q0-48.93,0-97.86c0-3.07,0-6.14,0-9.21,0-1.15-.14-2.29-.18-3.44a3.22,3.22,0,0,0-3-2.86q-16.11,0-32.21,0a8,8,0,0,0-1.11.31,3.62,3.62,0,0,0-2.16,2.41c-.09,3.06-.24,6.13-.24,9.2Q2653.31,1273.07,2653.32,1320.84Zm-556.83,112.09c3.17-.12,5.85-.2,8.53-.33a76.43,76.43,0,0,0,28.8-7.28,66.67,66.67,0,0,0,29-25.43,74.46,74.46,0,0,0,11.29-33.44c.16-1.91.32-3.82.41-5.74a91.72,91.72,0,0,0-3.34-30.71,70.91,70.91,0,0,0-20.26-32.87c-12-11-26.41-16.93-42.4-18.78a90.44,90.44,0,0,0-33.12,1.85c-19,4.89-34.15,15.15-44.58,32a75.85,75.85,0,0,0-9,22.25,96.74,96.74,0,0,0-2.29,27.41,80.92,80.92,0,0,0,4.75,23.57,68.34,68.34,0,0,0,24.11,32.89,74.86,74.86,0,0,0,37.18,14C2089.3,1432.75,2093.15,1432.76,2096.49,1432.93ZM1341,1355.24h0q0,32.22,0,64.46c0,2.29.18,4.59.32,6.88a3.5,3.5,0,0,0,3.13,2.82c.77,0,1.53.16,2.29.16q13.82,0,27.63,0c.76,0,1.52-.14,2.29-.2a3.6,3.6,0,0,0,2.83-3.13c.09-2.68.2-5.36.2-8q0-25.89,0-51.8c0-4.6,0-9.21.25-13.8a78.32,78.32,0,0,1,4-21.42,40.89,40.89,0,0,1,7.18-13A27.59,27.59,0,0,1,1411.1,1308a34.38,34.38,0,0,1,5.74,0c7.36.71,13.17,4,16.71,10.64a29.11,29.11,0,0,1,3.47,9.7,108.75,108.75,0,0,1,1.52,14.87c0,3.83.26,7.66.26,11.49q0,31.67,0,63.32c0,2.3,0,4.6.07,6.9,0,.76.21,1.51.3,2.27a2.93,2.93,0,0,0,2.4,2.08q16.1.11,32.21.15c.37,0,.74-.2,1.12-.23a4.09,4.09,0,0,0,2.45-2.15,28.76,28.76,0,0,0,.4-6.87c0-25.32,0-50.65,0-76a185.25,185.25,0,0,0-1.47-23,58.33,58.33,0,0,0-6.67-20.67,40.82,40.82,0,0,0-18.75-18,44.25,44.25,0,0,0-17.68-4.64c-3.83-.14-7.67-.09-11.5-.06a54.5,54.5,0,0,0-12.48,1.8,50.87,50.87,0,0,0-22.2,11.59c-1.43,1.27-2.78,2.64-4.18,4a6.88,6.88,0,0,1-1.71,1.51,4.28,4.28,0,0,1-2.17.09c-.23,0-.41-.57-.57-.9-.87-1.8-.51-3.75-.62-5.65-.14-2.29-.24-4.58-.39-6.88a2.93,2.93,0,0,0-2.09-2.36c-10.34-.58-20.69-.42-31-.1a2.14,2.14,0,0,0-1.11.29,4.68,4.68,0,0,0-1.57,1.56c-.78,1.79-.63,3.74-.63,5.65Zm1229.62,12.27h38l8.06,0c.76,0,1.52-.09,2.29-.13a3.79,3.79,0,0,0,3.64-3.66,137.53,137.53,0,0,0-5-39.82,70.1,70.1,0,0,0-8.86-19.89c-8.14-12.53-19.64-20.13-34-23.74a95.62,95.62,0,0,0-25.11-2.46,72.74,72.74,0,0,0-17,2.27,59.81,59.81,0,0,0-26.89,14.8,65.84,65.84,0,0,0-15.83,23.74c-5.16,13-7.07,26.63-6.92,40.58.06,4.61,1,9.14,1.51,13.71a65.83,65.83,0,0,0,3.47,14.52c6.66,19.28,19.46,32.76,38.61,39.94a78.2,78.2,0,0,0,24.66,5.23c2.3.09,4.6.26,6.9.25,10,0,19.91-.16,29.72-2.57a95.6,95.6,0,0,0,20.54-7.27c.34-.17.64-.41,1-.6a4.28,4.28,0,0,0,2.26-3.75c0-8.44,0-16.87,0-25.31a2.63,2.63,0,0,0-.37-1.08,1.66,1.66,0,0,0-1.82-.93c-2.35.26-4.26,1.63-6.28,2.66a100.88,100.88,0,0,1-29.37,9.67,58.65,58.65,0,0,1-24-.67,37.83,37.83,0,0,1-19.59-11.31A34.3,34.3,0,0,1,2521,1371c0-.37.15-.75.15-1.12a2.89,2.89,0,0,1,2.26-2.2c1.54-.06,3.07-.17,4.6-.17Zm-1710.5,0h33.35c3.83,0,7.66,0,11.49,0,1.15,0,2.29-.17,3.43-.25a3.34,3.34,0,0,0,2.78-3.11,153.14,153.14,0,0,0-4-36.46,75.6,75.6,0,0,0-9.57-23.27,54.13,54.13,0,0,0-25.1-21.15,70.3,70.3,0,0,0-21.14-5.09,126,126,0,0,0-14.93-.32,70.77,70.77,0,0,0-14.75,2.08,59.94,59.94,0,0,0-27.85,15.29c-8.47,8.2-14,18.17-17.54,29.27a98.5,98.5,0,0,0-4.6,26,110.48,110.48,0,0,0,1.9,26.3,77.21,77.21,0,0,0,7.07,20.57A61.15,61.15,0,0,0,802,1420.84c10.19,6.6,21.5,10,33.41,11.38a96.88,96.88,0,0,0,12.63.63c9.57-.08,19.13-.27,28.53-2.66a98.18,98.18,0,0,0,20.49-7.35,9.31,9.31,0,0,0,.94-.65,4.57,4.57,0,0,0,2.17-3.81q.06-12.08,0-24.14a7.45,7.45,0,0,0-.46-2.23c-.09-.25-.58-.35-.89-.51a2.39,2.39,0,0,0-2.22,0c-5.24,2.34-10.27,5.11-15.68,7.1-10.52,3.87-21.27,6.4-32.55,5.93a45.74,45.74,0,0,1-19.87-5.14,34.88,34.88,0,0,1-18-22.72c-.58-2.19-1.35-4.4-1-6.74a2.22,2.22,0,0,1,1.23-1.75,9.72,9.72,0,0,1,4.49-.65Zm2031,0v0q21.87,0,43.74,0a37.69,37.69,0,0,0,5.72-.43,3,3,0,0,0,1.71-1.42,4.71,4.71,0,0,0,.53-2.21,145.75,145.75,0,0,0-5.14-39.81,68.34,68.34,0,0,0-6.58-15.91c-5.78-10.34-13.82-18.31-24.63-23.36a69.66,69.66,0,0,0-23.23-6.15c-4.57-.43-9.2-.35-13.8-.38a64.81,64.81,0,0,0-17.05,2.3,59.52,59.52,0,0,0-30,18.23,69.59,69.59,0,0,0-13,21.57c-4.18,10.87-5.86,22.21-6.34,33.77a108.78,108.78,0,0,0,1.44,19.49,75.7,75.7,0,0,0,6.14,20.9,60.81,60.81,0,0,0,23.87,27.31,64.49,64.49,0,0,0,13.46,6.43,85.18,85.18,0,0,0,23.58,4.79c6.53.28,13,.16,19.56,0a92.84,92.84,0,0,0,20.41-3.25,66.29,66.29,0,0,0,18.13-7.15,3.93,3.93,0,0,0,1.86-2.75,13.47,13.47,0,0,0,.24-2.28c0-7.29,0-14.58,0-21.87,0-4-1.37-5-4.76-3.28-1.72.85-3.41,1.76-5.13,2.6a103.52,103.52,0,0,1-28.38,9.09,61.3,61.3,0,0,1-16.05.63,44.9,44.9,0,0,1-17.55-5.11c-10.81-6-17-15.22-18.64-27.43a12.33,12.33,0,0,1,.18-2.25c0-.9.56-1.27,1.42-1.57a13.13,13.13,0,0,1,4.53-.46Q2869.24,1367.5,2891.12,1367.52Zm-1076,9.82c-.05-6.13-.13-12.26-.15-18.39,0-7.67,0-15.33,0-23a83.36,83.36,0,0,0-2.72-21.61c-4.13-15.49-13.23-26.49-28.62-31.93a72.13,72.13,0,0,0-19-4.17c-12.25-.87-24.47-.82-36.61,1.76a162.19,162.19,0,0,0-22.1,6.13c-1.07.39-2.11.89-3.19,1.31a4.32,4.32,0,0,0-3.07,4.34c.18,8.42.44,16.84.71,25.26a5,5,0,0,0,.64,2.19,1.84,1.84,0,0,0,1.88.92c2.35-.43,4-2.13,6-3.27a81.33,81.33,0,0,1,27.95-10,58.24,58.24,0,0,1,26.16,1.48,21,21,0,0,1,13.94,12.74,36.32,36.32,0,0,1,2.63,11.14,26.2,26.2,0,0,1-.25,3.41,1.54,1.54,0,0,1-1.43,1.55,21.75,21.75,0,0,1-3.36.54c-6.13.07-12.26.06-18.39.06a143.32,143.32,0,0,0-26.31,2.1,105.92,105.92,0,0,0-12.28,2.91,56.24,56.24,0,0,0-17.35,8.74,40.88,40.88,0,0,0-15,22.48,53.49,53.49,0,0,0-1.83,17.06,39.28,39.28,0,0,0,11.8,26.68A51.13,51.13,0,0,0,1715.7,1430c7.39,2.45,15,3,22.68,2.77A49.75,49.75,0,0,0,1753,1430a51.38,51.38,0,0,0,20.42-12.43c1.87-1.9,3.46-4.07,5.61-5.68.28-.22.81-.46,1-.34.61.36,1.53.86,1.58,1.39.35,3,.44,6.11.69,9.16.13,1.52.39,3,.6,4.54a3.68,3.68,0,0,0,3.26,2.71q13.78.06,27.57.05a3.64,3.64,0,0,0,3.33-3.84c-.07-2.69-.19-5.37-.31-8C1816.16,1404.13,1815.23,1390.75,1815.14,1377.34Zm-511.68,2.91c-.07-15.22-.14-29-.21-42.84,0-1.53.06-3.07,0-4.6-.52-8.46-1.81-16.8-4.86-24.74a42,42,0,0,0-25.27-25.19,72.17,72.17,0,0,0-21.25-4.71c-11.89-.72-23.72-.62-35.51,1.8a149.74,149.74,0,0,0-25.32,7.41,4.45,4.45,0,0,0-3.06,4.39c.12,8.82.37,17.64.59,26.45a2.68,2.68,0,0,0,.28,1.11,1.7,1.7,0,0,0,1.78,1c2.33-.43,4.09-2,6.06-3.21a80.62,80.62,0,0,1,27.91-10.17,58,58,0,0,1,26.2,1.28c8,2.31,13.09,7.78,15.37,15.72a39.58,39.58,0,0,1,1.48,10.23c0,.37-.13.74-.15,1.12a2.6,2.6,0,0,1-2.24,2.2c-6.51.1-13,.24-19.53.26-9.61,0-19.15.39-28.63,2.25a100.42,100.42,0,0,0-13.34,3.45,54.31,54.31,0,0,0-15.23,8c-9.75,7.35-15,17.26-16.47,29.21a58.21,58.21,0,0,0,0,14.92,32.67,32.67,0,0,0,1.24,5.59c3.4,10.77,10.31,18.66,20.06,24.18a58,58,0,0,0,30.91,7.47,54.28,54.28,0,0,0,10.29-1c10.68-2.41,20.22-7.1,27.94-15.07,1.58-1.64,3.15-3.28,4.78-4.86.19-.18.77-.08,1.11,0a1.29,1.29,0,0,1,.7.66,9.47,9.47,0,0,1,.61,2.2c.39,3,.69,6.09,1.08,9.13.15,1.13.47,2.24.68,3.36a3.52,3.52,0,0,0,2.54,2c9.2,0,18.4.09,27.6.09a3.48,3.48,0,0,0,3.7-3.49c-.08-2.68-.1-5.37-.35-8C1303.72,1404.93,1303.82,1391.88,1303.46,1380.25ZM1087,1432.81v.2c4.22-.19,8.44-.26,12.64-.59a71.51,71.51,0,0,0,29.49-8.88,44.37,44.37,0,0,0,10.83-8.47,40.12,40.12,0,0,0,9.8-18,50.91,50.91,0,0,0-.17-26.14,34.75,34.75,0,0,0-9-15.8,44.54,44.54,0,0,0-11.11-8.09,100.39,100.39,0,0,0-17-6.81c-4.75-1.5-9.5-3-14.21-4.62a51.1,51.1,0,0,1-6.31-2.76,16.3,16.3,0,0,1-5.28-4.36,9.36,9.36,0,0,1-2.1-5.24c-.48-6,2-10.4,7-13.44a20.07,20.07,0,0,1,4.16-1.91,37.45,37.45,0,0,1,11.29-1.86,91,91,0,0,1,23.86,3.19c2.6.68,5.18,1.43,7.77,2.12a2.58,2.58,0,0,0,3.13-2.43c.71-7.25,1.43-14.5,2.11-21.75a5.34,5.34,0,0,0-.22-2.26,3.08,3.08,0,0,0-1.31-1.73c-4.65-1.91-9.64-2.36-14.52-3.35-10.24-2.06-20.55-2.14-30.92-2a72.79,72.79,0,0,0-18.13,2.83,52.79,52.79,0,0,0-21.25,11.06,38.65,38.65,0,0,0-11.84,18,47.57,47.57,0,0,0-.68,26.11,33.93,33.93,0,0,0,14,20.34,49.24,49.24,0,0,0,9.07,5,125.78,125.78,0,0,0,11.92,4.21c3.3,1,6.67,1.76,9.92,2.9,3.61,1.25,7.32,2.29,10.71,4.14a26.26,26.26,0,0,1,5.61,4,12.94,12.94,0,0,1,4.19,9.17,15.13,15.13,0,0,1-7.62,14.47,24.61,24.61,0,0,1-5.17,2.48,42,42,0,0,1-14.72,2.07c-6.57-.22-12.9-1.72-19.19-3.44a103.38,103.38,0,0,1-12.91-4.83c-2-.85-3.27-.39-3.63,2.75-.4,3.43-.77,6.86-1,10.3-.32,4.59-.54,9.19-.76,13.79a3.93,3.93,0,0,0,2.92,4.31c14.58,3.64,25.48,5.3,37.47,5.34Zm1130.52-81h0q0,13.8,0,27.6c0,3.44-.05,6.9.07,10.34a51.1,51.1,0,0,0,4.44,18.91,37.72,37.72,0,0,0,11,14.52,42.87,42.87,0,0,0,23.13,9.27,123.19,123.19,0,0,0,25.25-.43,75.54,75.54,0,0,0,9-2,3.6,3.6,0,0,0,2.62-3.33c0-8-.56-16.07-1.1-24.09a2.79,2.79,0,0,0-3.24-2.3,39.31,39.31,0,0,1-18.09,2,13.53,13.53,0,0,1-5.37-1.91,15.36,15.36,0,0,1-6.05-6.72,22.06,22.06,0,0,1-2.4-8.82c-.08-2.29-.21-4.59-.21-6.89q0-30.46,0-61c0-1.52.15-3,.23-4.58a3.29,3.29,0,0,1,2.17-2.35c1.53-.11,3.05-.29,4.58-.3,6.52,0,13,0,19.55,0,1.52,0,3.05-.18,4.57-.27a3.63,3.63,0,0,0,2.9-3.06c.48-7.27.25-14.54.12-21.82a11.26,11.26,0,0,0-.22-1.13,3.56,3.56,0,0,0-2.18-2.39,28,28,0,0,0-3.41-.38c-7.28,0-14.56,0-21.85-.06a21.6,21.6,0,0,1-4.55-.43,2.43,2.43,0,0,1-1.53-1.59,37.65,37.65,0,0,1-.37-5.72c0-9.58,0-19.17-.07-28.75a15.69,15.69,0,0,0-.59-3.36,1,1,0,0,0-.69-.67,5.45,5.45,0,0,0-2.24,0q-14.8,4.61-29.58,9.32a24.84,24.84,0,0,0-4.25,1.71,2.72,2.72,0,0,0-1.21,1.78c-.75,5-.27,9.94-.4,14.91-.09,3.44-.16,6.89-.26,10.34,0,.67-1.64,2.12-2.4,2.14-2.67.11-5.34.27-8,.32-5,.11-9.95.15-14.93.24a3.37,3.37,0,0,0-2.9,3c0,.38-.21.76-.21,1.13,0,6.9,0,13.8.08,20.69a5.92,5.92,0,0,0,.65,2.16,2.2,2.2,0,0,0,1.64,1.43,20.5,20.5,0,0,0,3.4.41c5.37,0,10.73,0,16.1.06,1.52,0,3,.26,4.56.42a3.35,3.35,0,0,1,2.09,2.43c.07,1.53.19,3.06.19,4.59Q2217.5,1334.56,2217.49,1351.81ZM941.87,1355q0,33.35,0,66.69c0,1.91-.17,3.86.54,5.68a3.53,3.53,0,0,0,1.51,1.6,4.71,4.71,0,0,0,2.2.5q14.94.06,29.89,0a20,20,0,0,0,2.28-.29,3.7,3.7,0,0,0,2.25-2.32c.12-1.9.35-3.8.36-5.71,0-15.33,0-30.66,0-46,0-5,.15-10,.19-15a92.6,92.6,0,0,1,2.6-19.34,41.93,41.93,0,0,1,5.56-13.79c4.89-7.64,11.82-11.83,20.93-12.16a56.75,56.75,0,0,1,8,.16c3,.32,6,1,9,1.52.37.06,1,.12,1.09-.06a4.37,4.37,0,0,0,1-2c.33-11.11.48-22.21,0-33.32a2,2,0,0,0-.25-1.1c-.47-.59-1-1.37-1.63-1.54-3.74-1-7.59-.89-11.42-.8a33.35,33.35,0,0,0-15.33,4.28,43.91,43.91,0,0,0-9.28,6.71,53,53,0,0,0-9.26,11.67c-1.16,2-2,4.19-3.7,5.77-.16.15-.74-.06-1.06-.23s-.61-.46-.62-.71c-.11-5.74-.18-11.48-.26-17.23,0-1.15,0-2.3-.08-3.44a3.73,3.73,0,0,0-3.54-3.71q-13.79,0-27.58,0a2.07,2.07,0,0,0-1.12.2c-.62.42-1.43.86-1.67,1.49a15,15,0,0,0-.6,5.67Z"/><path class="cls-2" d="M4.61,0A3.73,3.73,0,0,0,1.7,3.13,38.86,38.86,0,0,0,1.24,7.7c-.07,5-.07,10-.07,15q0,824.43,0,1648.84,0,31.1,0,62.18c0,3.45.05,6.91.17,10.36a13.93,13.93,0,0,0,.59,3.38,4.61,4.61,0,0,0,1.15,2,4.39,4.39,0,0,0,2,1.07,15.08,15.08,0,0,0,3.41.42c5,.06,10,.06,15,.06H3633.08c4.21,0,8.43-.14,12.65-.24a3.36,3.36,0,0,0,2.82-3c.06-1.15.2-2.29.21-3.44,0-3.07,0-6.14,0-9.21V14.76c0-3.84-.1-7.67-.11-11.51a8,8,0,0,0-1-3.25c.77,0,1.54,0,2.3.05,0,0,0,.72,0,1.1V1752.48H0V0Z"/><path class="cls-3" d="M407.59,893.52a39.54,39.54,0,0,1,11.41,1c7.45,1.82,15,3.36,22.44,5,7.1,1.59,14.2,3.24,21.32,4.77,8.23,1.78,16.52,3.36,24.78,5,3.76.75,7.5,1.57,11.24,2.42,7.84,1.79,15.76,3.26,23.63,4.93,9.74,2.07,19.55,3.84,29.28,5.95,9.36,2,18.8,3.69,28.2,5.52,5.27,1,10.52,2.13,15.79,3.11,7.16,1.33,14.2,3.23,21.47,4,3.41.35,6.74,1.5,10.15,2,4.94.68,9.7,2.19,14.71,2.65s9.81,1.68,14.69,2.66,9.75,2.07,14.63,3.05c1.88.38,3.79.57,5.68.87,2.27.36,4.53.75,6.8,1.14s4.51.91,6.79,1.14a43.41,43.41,0,0,1,7.92,1.42,8.81,8.81,0,0,0,2.24.49c5.8.16,11.32,2,17,2.84,3.79.57,7.51,1.59,11.3,2a66.07,66.07,0,0,1,10.18,1.86c6.53.34,12.79,2.46,19.3,3a52.29,52.29,0,0,1,5.66,1,28.69,28.69,0,0,0,3.37.76,171.48,171.48,0,0,1,18.18,2.61c3.39.6,6.82.88,10.21,1.67,3.71.86,7.63.9,11.34,1.77a71.9,71.9,0,0,0,11.38,1.55,23.86,23.86,0,0,1,4.54.72,50.58,50.58,0,0,0,9.06,1.52,54.49,54.49,0,0,1,5.67.94,25.28,25.28,0,0,0,3.36.74c6.54.3,12.9,1.79,19.34,2.71a57.64,57.64,0,0,1,7.94,1.3,10.85,10.85,0,0,0,2.24.51A120.1,120.1,0,0,1,889,980.77a68.41,68.41,0,0,1,14.78,2.09,17,17,0,0,0,3.43.34c4.6.2,9.21.34,13.65,1.81a9,9,0,0,0,2.26.37,73.94,73.94,0,0,1,14.8,2,35.76,35.76,0,0,0,5.71.57,25.47,25.47,0,0,1,4.57.48c5.23,1.48,10.58,1.72,15.95,2a23.31,23.31,0,0,1,4.53.76,44.31,44.31,0,0,0,9.09,1.32,23.24,23.24,0,0,1,4.58.43,88.18,88.18,0,0,0,15.94,2.07c3.8.26,7.53,1.37,11.33,1.85,3.42.43,6.88.53,10.32.77,5.19,1.68,10.58,1.71,16,1.9a19.86,19.86,0,0,1,4.57.46,61.07,61.07,0,0,0,14.8,1.87,18.75,18.75,0,0,1,4.56.58c4.48,1.31,9.07,1.46,13.67,1.64a31.87,31.87,0,0,1,6.86.67,65,65,0,0,0,13.67,1.68,27.08,27.08,0,0,1,5.69.78,46.65,46.65,0,0,0,11.4,1.35,62.44,62.44,0,0,1,14.83,1.64,37.92,37.92,0,0,0,8,.68,46.54,46.54,0,0,1,11.4,1.36c3.36,1,6.84.86,10.29,1a58.53,58.53,0,0,1,13.69,1.53,33.8,33.8,0,0,0,6.85.71c3.06.16,6.14.11,9.2.26a27,27,0,0,1,5.7.64,56,56,0,0,0,13.69,1.56,36.31,36.31,0,0,1,9.11,1.12,36.49,36.49,0,0,0,9.13,1c3.46.07,6.91.08,10.36.27a36.22,36.22,0,0,1,6.83.82,50.52,50.52,0,0,0,11.41,1.27,59.48,59.48,0,0,1,14.84,1.6,31.17,31.17,0,0,0,6.86.6c3.45.14,6.91.15,10.36.23a32.07,32.07,0,0,1,8,1,39.39,39.39,0,0,0,10.26,1.13c3.84,0,7.68.15,11.51.19a43,43,0,0,1,11.41,1.25,31.14,31.14,0,0,0,8,.88c3.07.06,6.14.13,9.21.16a39.86,39.86,0,0,1,10.26,1.17,31.61,31.61,0,0,0,8,.91c5.37.09,10.74.2,16.11.26a40.35,40.35,0,0,1,10.27,1.14,36.93,36.93,0,0,0,9.14,1c4.6.07,9.21.16,13.81.22a36.86,36.86,0,0,1,9.12,1.06,36.45,36.45,0,0,0,9.13,1q9.8.12,19.58.27a40.37,40.37,0,0,1,10.27,1,36.47,36.47,0,0,0,9.13,1l20.72.25a36,36,0,0,1,9.14,1,39.87,39.87,0,0,0,10.27,1q15,.15,29.94.29a43.9,43.9,0,0,1,11.41,1.21,35.14,35.14,0,0,0,9.15.82q15,.14,29.93.25a67.53,67.53,0,0,1,14.86,1.32,42.33,42.33,0,0,0,9.16.67c13.81.15,27.63.21,41.45.3l12.66.08a31.67,31.67,0,0,1,8,.83c4.13,1.09,8.35,1.09,12.57,1.11,14.59.06,29.17.16,43.75.2,75.61.22,151.21.31,226.81-.16l8.06-.06a31.6,31.6,0,0,0,8-.8c4.13-1.11,8.35-1.13,12.57-1.15l40.3-.29c4.61,0,9.2-.07,13.71-1.31,3-.81,6.09-.69,9.15-.72l28.79-.26a47.81,47.81,0,0,0,12.55-1.28c3-.83,6.09-.74,9.16-.78q11.51-.15,23-.25a43,43,0,0,0,11.41-1.24,31.15,31.15,0,0,1,8-.8q9.78-.13,19.57-.25a44.26,44.26,0,0,0,11.41-1.23,32.54,32.54,0,0,1,8-.84l17.27-.26a32.06,32.06,0,0,0,8-.9,39.87,39.87,0,0,1,10.27-1.15c3.45,0,6.9-.12,10.36-.16a58,58,0,0,0,13.7-1.4,33.94,33.94,0,0,1,6.85-.69c3.83-.15,7.67-.15,11.51-.21a58.14,58.14,0,0,0,13.71-1.39,33.85,33.85,0,0,1,6.84-.71c4.22-.16,8.44-.19,12.66-.25a36.36,36.36,0,0,0,9.12-1.09,36,36,0,0,1,9.13-1c3.07,0,6.14-.12,9.21-.17a51.71,51.71,0,0,0,12.56-1.3,35.32,35.32,0,0,1,6.84-.8c3.06-.17,6.14-.09,9.2-.25a33.8,33.8,0,0,0,6.84-.75c4.52-1.19,9.1-1.29,13.71-1.4,5-.13,9.95-.17,14.84-1.52a31.16,31.16,0,0,1,6.85-.67c3.45-.16,6.91-.11,10.36-.28a33.24,33.24,0,0,0,6.85-.7,56.54,56.54,0,0,1,13.7-1.46,50.6,50.6,0,0,0,12.54-1.48c3.35-.92,6.85-.72,10.3-.8a54.23,54.23,0,0,0,12.55-1.42,35.4,35.4,0,0,1,6.84-.78c3.06-.17,6.14-.09,9.2-.27a37.18,37.18,0,0,0,6.84-.83,49.28,49.28,0,0,1,11.4-1.35,42.52,42.52,0,0,0,11.39-1.34,36.48,36.48,0,0,1,9.14-.92,67.54,67.54,0,0,0,14.84-1.56c2.93-.74,6.09-.65,9.15-.79a43.16,43.16,0,0,0,10.25-1.29c3-.85,6.07-.82,9.13-1s6.21-.09,9.15-.8a68.74,68.74,0,0,1,13.69-1.57,31.84,31.84,0,0,0,6.85-.68c4.51-1.21,9.08-1.41,13.68-1.69,2.28-.14,4.54-.65,6.81-1s4.53-.88,6.81-1a71,71,0,0,0,13.68-1.7,39.31,39.31,0,0,1,8-.73c3.84-.17,7.67-.25,11.39-1.39a6.3,6.3,0,0,1,1.12-.27c4.58-.41,9.2-.57,13.73-1.29,4.16-.67,8.25-1.74,12.51-1.75a38.51,38.51,0,0,0,9.11-1.18,43.25,43.25,0,0,1,6.82-1,61.11,61.11,0,0,0,10.23-1.49,36.22,36.22,0,0,1,6.83-.82,49.06,49.06,0,0,0,11.38-1.49,18.85,18.85,0,0,1,4.54-.71,73.88,73.88,0,0,0,15.94-2,28.59,28.59,0,0,1,5.72-.53,34.44,34.44,0,0,0,7.94-1.27,34.61,34.61,0,0,1,8-1,33.94,33.94,0,0,0,8-1.23,11.65,11.65,0,0,1,2.24-.49,129.35,129.35,0,0,0,18.19-2.6c7.35,0,14.34-2.57,21.64-2.9a20,20,0,0,0,3.37-.71A33.32,33.32,0,0,1,2815,970c3.43-.39,6.9-.5,10.29-1.07s6.71-1.59,10.19-1.77a44,44,0,0,0,5.67-.91,27.12,27.12,0,0,1,3.36-.77c6.53-.34,12.9-1.75,19.33-2.73a67.81,67.81,0,0,0,9.06-1.56,13.21,13.21,0,0,1,2.25-.46c3.43-.36,6.91-.46,10.29-1.09s6.71-1.57,10.19-1.76a22.46,22.46,0,0,0,4.54-.7,51.33,51.33,0,0,1,9-1.58c1.91-.17,3.78-.61,5.67-.94,2.26-.4,4.51-.92,6.79-1.18a56.12,56.12,0,0,0,7.93-1.34,37.41,37.41,0,0,1,5.66-1,41.68,41.68,0,0,0,7.93-1.31,14.21,14.21,0,0,1,3.37-.73c5.41-.21,10.56-1.9,15.87-2.62,4.94-.67,9.7-2.18,14.71-2.62s9.81-1.69,14.7-2.66,9.74-2.06,14.62-3.09a26.19,26.19,0,0,1,3.39-.61c7.3-.54,14.32-2.57,21.47-3.93,9-1.72,18-3.6,27.06-5.38,9.4-1.85,18.81-3.63,28.2-5.51,5.64-1.14,11.21-2.63,16.87-3.57,3.8-.63,7.5-1.59,11.24-2.4,12.36-2.71,24.74-5.32,37-8.58,12.87-2.16,25.39-5.86,38.06-8.93,12.3-3,24.54-6.18,36.83-9.21,13.78-3.39,27.42-7.28,41-11.29,7.35-2.16,14.79-4.06,22.14-6.22,5.89-1.74,11.7-3.72,17.56-5.56,6.95-2.19,13.76-4.82,20.9-6.38a44.73,44.73,0,0,0,4.38-1.42q36.6-12.15,73.2-24.29a201,201,0,0,0,19.44-7.14c.35-.15.71-.28,1.07-.41,7.77-2.86,9.83-3.18,18-2.93a30,30,0,0,1,7.92,1.31,66.79,66.79,0,0,1,11.7,4.77,31.82,31.82,0,0,1,7.45,5.35l.83.8c8.73,8.75,8.3,7.55,14.45,20.49a21.37,21.37,0,0,1,2.19,8.87c.08,3.84,0,7.68.2,11.51.31,7.5-1.81,14.39-5,21.06a35.74,35.74,0,0,1-7.93,11.2c-1.41,1.29-2.75,2.68-4.08,4a30.33,30.33,0,0,1-11.55,7.34c-29.41,10.95-24.3,9.59-63.94,22.8q-19.65,6.54-39.34,13a102.37,102.37,0,0,1-12.13,3.61,23.72,23.72,0,0,0-3.32.94c-11.22,4-22.81,6.71-34.11,10.41-7.29,2.39-14.69,4.44-22.09,6.46-12.57,3.43-25.08,7.12-37.8,10-15,4.69-30.37,8.15-45.63,11.94s-30.51,7.58-45.78,11.33c-5.21,1.27-10.43,2.5-15.69,3.56-4.88,1-9.61,2.71-14.62,3.1a5.51,5.51,0,0,0-1.13.22c-10.7,3.06-21.74,4.66-32.49,7.51-4.82,1.28-9.85,1.57-14.62,3.09-9.83,1.67-19.56,3.81-29.26,6.1-5.59,1.32-11.24,2.4-16.91,3.34-4.91.82-9.69,2.21-14.7,2.69s-9.77,1.9-14.68,2.75-9.75,2-14.62,3.07a13.67,13.67,0,0,1-2.26.44c-5.41.15-10.59,1.68-15.85,2.71-10.9,2.13-21.95,3.45-32.76,6.08a31.59,31.59,0,0,1-4.55.67,53.34,53.34,0,0,0-7.94,1.26c-2.23.55-4.53.77-6.8,1.14s-4.53.75-6.79,1.16a34.14,34.14,0,0,1-4.51.87c-8.1.33-15.89,2.48-23.8,3.9a16.69,16.69,0,0,1-2.25.47c-6.54.24-12.89,1.81-19.34,2.73-2.65.38-5.31.67-7.94,1.29-2.22.53-4.53.72-6.8,1.08s-4.56.66-6.79,1.18a35.8,35.8,0,0,1-6.82,1,48.63,48.63,0,0,0-10.23,1.46,38.82,38.82,0,0,1-6.82.89,41.48,41.48,0,0,0-9.08,1.4,9.71,9.71,0,0,1-2.25.48c-7.29.33-14.45,1.61-21.66,2.66-3.78.55-7.63.61-11.35,1.67a21.61,21.61,0,0,1-4.55.64,54.15,54.15,0,0,0-11.38,1.57,32.46,32.46,0,0,1-5.69.75c-1.52.14-3.06.21-4.6.21-3.88,0-7.5,1.6-11.32,2-3.44.31-6.94.11-10.28,1.09a43.44,43.44,0,0,1-11.39,1.44,44.25,44.25,0,0,0-11.39,1.39,20.39,20.39,0,0,1-4.53.73,82,82,0,0,0-16,1.91,39.39,39.39,0,0,1-8,.62,41.17,41.17,0,0,0-10.25,1.26,37.4,37.4,0,0,1-9.13,1,37.85,37.85,0,0,0-9.11,1.16,35.49,35.49,0,0,1-9.12,1.06c-5.37.15-10.71.3-16,1.69-2.55.68-5.33.54-8,.65a48.07,48.07,0,0,0-11.39,1.41,36.52,36.52,0,0,1-9.15.87c-5,.1-10,.21-14.83,1.61a25.1,25.1,0,0,1-5.71.6c-3.06.14-6.14.11-9.2.27a36.35,36.35,0,0,0-6.85.72,53.11,53.11,0,0,1-12.54,1.45,56.52,56.52,0,0,0-13.7,1.44,35.46,35.46,0,0,1-6.85.72c-3.06.15-6.14.18-9.21.22a39.83,39.83,0,0,0-10.26,1.14,32,32,0,0,1-8,1c-3.84.08-7.68.1-11.51.28a36.41,36.41,0,0,0-6.84.81,49.86,49.86,0,0,1-11.41,1.24c-3.07,0-6.14.06-9.21.22a36.27,36.27,0,0,0-6.84.76,53.15,53.15,0,0,1-12.56,1.32c-4.22,0-8.44.15-12.66.19a43.44,43.44,0,0,0-11.41,1.28,31.08,31.08,0,0,1-8,.8q-8.05.14-16.12.24a36.43,36.43,0,0,0-9.13,1,40,40,0,0,1-10.27,1.14c-6.52.06-13,.16-19.57.24a36,36,0,0,0-9.14.9,43.93,43.93,0,0,1-11.42,1.16l-20.72.24a36.1,36.1,0,0,0-9.15.86,44.27,44.27,0,0,1-11.41,1.18l-27.63.27c-4.61,0-9.2.07-13.71,1.3-3,.82-6.09.69-9.16.71l-29.93.26c-5.75,0-11.53-.18-17.14,1.52-3.45.17-6.89.46-10.34.49-19.57.15-39.14.23-58.71.34-2.69,0-5.38,0-8.06,0a50.56,50.56,0,0,0-11.43,1.14,41,41,0,0,1-6.84.74c-2.3.12-4.61,0-6.91.06q-117.43.42-234.87,0c-2.3,0-4.61.05-6.91-.06a35.51,35.51,0,0,1-6.85-.67,57.56,57.56,0,0,0-13.72-1.22l-63.32-.34c-5.37,0-10.71-.07-16-1.33a43.53,43.53,0,0,0-9.16-.66c-11.12-.15-22.25-.21-33.38-.29-5,0-10-.11-14.87-1.32a36.7,36.7,0,0,0-8-.67c-8.83-.15-17.65-.21-26.48-.28a54.48,54.48,0,0,1-13.7-1.35c-3-.8-6.09-.68-9.16-.72l-23-.26a39.91,39.91,0,0,1-10.27-1.08,36,36,0,0,0-9.13-1l-18.42-.24a35.54,35.54,0,0,1-9.13-1,35.51,35.51,0,0,0-9.12-1l-18.42-.26a35.51,35.51,0,0,1-9.13-1,36.45,36.45,0,0,0-9.12-1.07c-4.22-.06-8.44-.16-12.67-.2a50.47,50.47,0,0,1-11.41-1.22,36.44,36.44,0,0,0-6.84-.83c-3.83-.19-7.67-.19-11.5-.27a32.56,32.56,0,0,1-8-.92,40.31,40.31,0,0,0-10.26-1.18c-3.07,0-6.14-.12-9.21-.19a32.06,32.06,0,0,1-8-.89,43.83,43.83,0,0,0-11.41-1.24c-3.07,0-6.14-.06-9.2-.24a38.89,38.89,0,0,1-6.83-.85,51.69,51.69,0,0,0-11.42-1.25c-5.75-.1-11.53,0-17.11-1.74-3.45-.21-6.89-.5-10.34-.62a52.81,52.81,0,0,1-11.4-1.32,37.08,37.08,0,0,0-6.83-.84c-3.07-.18-6.14-.13-9.21-.26a25.14,25.14,0,0,1-5.71-.54c-5.25-1.5-10.61-1.57-16-1.79a25.75,25.75,0,0,1-5.7-.67,55.81,55.81,0,0,0-12.54-1.53,39.51,39.51,0,0,1-8-.75,67.2,67.2,0,0,0-13.68-1.57,34,34,0,0,1-6.86-.69,60.14,60.14,0,0,0-12.52-1.61,31.24,31.24,0,0,1-6.83-.87,48.81,48.81,0,0,0-11.4-1.35,42.08,42.08,0,0,1-11.38-1.43,30.29,30.29,0,0,0-8-.89,39.33,39.33,0,0,1-10.24-1.35,10.85,10.85,0,0,0-2.25-.47c-3.82-.31-7.66-.47-11.47-.88-3.43-.36-6.69-1.72-10.18-1.82a53.46,53.46,0,0,1-11.38-1.54,46.17,46.17,0,0,0-8-.84,51,51,0,0,1-9.11-1.21,41.16,41.16,0,0,0-6.81-1,53.74,53.74,0,0,1-10.23-1.5,27.76,27.76,0,0,0-5.68-.79,42.49,42.49,0,0,1-10.22-1.5,9.76,9.76,0,0,0-2.26-.46c-6.14-.32-12.15-1.51-18.2-2.52-3.4-.57-6.85-.76-10.2-1.71a21.62,21.62,0,0,0-4.54-.65,52.69,52.69,0,0,1-11.37-1.63,28.35,28.35,0,0,0-5.69-.77,47.94,47.94,0,0,1-10.22-1.55,48.12,48.12,0,0,0-5.67-.86c-2.27-.35-4.54-.74-6.8-1.12l-6.8-1.13c-2.27-.38-4.58-.58-6.8-1.13a59.24,59.24,0,0,0-7.95-1.26,41.17,41.17,0,0,1-5.65-1,54.81,54.81,0,0,0-7.94-1.32c-2.28-.25-4.52-.8-6.78-1.2-1.89-.33-3.77-.78-5.67-.94a46.25,46.25,0,0,1-9.05-1.59,14.56,14.56,0,0,0-3.39-.62c-6.55-.3-12.83-2.25-19.25-3.33-7.55-1.26-15-3.09-22.61-4.09-5.31-.69-10.52-2.06-15.78-3.14a21.55,21.55,0,0,0-3.36-.74c-6.19-.21-12.07-2.16-18.13-3.09-5.67-.87-11.24-2.37-16.87-3.54-3.38-.7-6.77-1.32-10.16-1.94-13.58-2.47-26.89-6.24-40.53-8.37-7.8-2-15.73-3.42-23.58-5.2-10.84-2.46-21.69-4.85-32.46-7.64-15.5-2.74-30.57-7.33-45.89-10.84-5.6-1.29-11.07-3.14-16.81-3.81a18.41,18.41,0,0,1-3.35-.82c-12.81-4.07-26-6.66-38.92-10.31-11.81-3.33-23.72-6.29-35.5-9.73-4.05-1.18-8.12-2.26-12.18-3.41s-8-2.72-12.18-3.44a15.42,15.42,0,0,1-2.21-.62c-8.37-2.81-16.85-5.21-25.31-7.72s-16.81-5.39-25.2-8.13a147.36,147.36,0,0,0-14.31-4.32,49.1,49.1,0,0,1-5.49-1.72c-12.71-4.32-25.62-8.08-38-13.22-2.83-1.17-5.82-2-8.72-3-7.61-2.64-15.33-5-22.71-8.24a67.8,67.8,0,0,0-6.51-2.28c-9.5-3.09-18.72-6.87-28-10.59q-14.42-5.79-28.87-11.46a60,60,0,0,1-9.35-4.41,17.64,17.64,0,0,1-2.55-2.28Z"/><path class="cls-2" d="M143.14,527.83q0-150.8,0-301.58c0-3.82-.26-7.67.31-11.48a3.53,3.53,0,0,1,2.21-2.36,19.71,19.71,0,0,1,2.27-.33c3.45-.05,6.9-.06,10.36-.06q297.54,0,595.07,0c4.21,0,8.44-.39,12.63.35a3.84,3.84,0,0,1,2.29,2.29,22.2,22.2,0,0,1,.29,2.28c0,3.45.06,6.9.06,10.35v175q0,213,0,425.89c0,4.2.46,8.44-.47,12.6a3,3,0,0,1-1.53,1.59,5.05,5.05,0,0,1-2.22.5c-3.07.07-6.14.08-9.21.08q-299.27,0-598.53,0c-3.82,0-7.68.46-11.45-.54a3,3,0,0,1-1.57-1.55,5.14,5.14,0,0,1-.42-2.22c-.06-3.84-.08-7.67-.08-11.51Zm507.48-39.78q0-65.61,0-131.23c0-3.45-.07-6.91,0-10.36a6.91,6.91,0,0,0-3.78-6.58c-1-.57-1.94-1.24-2.91-1.86L511,253.29c-1.62-1-3.23-2.06-4.86-3.07a18.74,18.74,0,0,0-2-1.08,4.13,4.13,0,0,0-3.35-.09c-6.34,2.74-12.6,5.64-18.94,8.37q-56.51,24.33-113,48.61-21.64,9.3-43.31,18.62a13.15,13.15,0,0,0-3,1.64,3.69,3.69,0,0,0-1.71,2.84c0,2.3-.16,4.6-.16,6.9q0,33.38,0,66.76,0,35.68,0,71.37c0,2.68-.17,5.35-.3,8a3.43,3.43,0,0,1-3.13,2.81c-1.92.07-3.84.17-5.75.18-11.9,0-23.79,0-35.69,0-3.45,0-6.9.09-10.35.17-2.05,0-3.29,1.44-3.35,3.75,0,1.53-.1,3.06-.1,4.6q0,58.7,0,117.41c0,1.15,0,2.3.07,3.45,0,.38.11.76.14,1.14.1,1.34,1.66,3.07,2.89,3.08q15.54.12,31.08.19c5.75,0,11.51,0,17.26,0,1.53,0,3.06.15,4.59.23a3.43,3.43,0,0,1,2.37,2.15c.53,8.44.3,16.87.11,25.31a3.55,3.55,0,0,1-.35,1.09,1.59,1.59,0,0,1-1.75,1c-1.58-.09-2.85-1-4.2-1.69-5.12-2.61-10.22-5.27-15.38-7.82a2.7,2.7,0,0,0-2.16.19,38.82,38.82,0,0,0-4.76,3.2q-20.74,16.44-41.44,32.94-28.84,22.9-57.7,45.79c-2.09,1.67-4.07,3.47-6.08,5.24-.83.73-.87,2.5-.08,2.87,3.8,1.82,7.57,3.71,11.4,5.45q64.94,29.47,129.87,58.91c5.59,2.53,11.2,5,16.83,7.43a3.7,3.7,0,0,0,3.32-.26,53,53,0,0,0,4.7-3.31q38-28.93,76-57.9c7-5.35,14-10.78,21-16.13a6.19,6.19,0,0,0,2.55-4.91c.1-2.68.13-5.36.13-8q0-38.57,0-77.12c0-3.45,0-6.91.11-10.36a9,9,0,0,1,.49-2.2,2,2,0,0,1,1.55-1.52,16.92,16.92,0,0,1,3.36-.54q27.63,0,55.26,0c1.14,0,2.29.15,3.44.23a3.77,3.77,0,0,1,2.14,2.38c.09,3.45.26,6.9.27,10.35q0,37.41,0,74.82c0,3.06.05,6.14.26,9.19a6.73,6.73,0,0,0,2.52,5q2.25,1.8,4.58,3.49,49.8,36.19,99.61,72.38c2.17,1.58,4.42,3,6.63,4.56a2.74,2.74,0,0,0,3.13-.47c.88-1.24,1.82-2.46,2.63-3.75Q675.13,738.1,711.92,679c.61-1,1.15-2,1.71-3a3.24,3.24,0,0,0-.59-3.16c-2.2-1.52-4.37-3.11-6.64-4.53q-22.42-14.05-44.88-28c-2.61-1.62-5.19-3.28-7.82-4.86-2.22-1.33-3-3.37-3-5.8q-.08-5.18-.07-10.36Q650.61,553.66,650.62,488.05Z"/><path class="cls-2" d="M894.3,686.11q0-67.9,0-135.81c0-2.67-.37-5.39.54-8a3.33,3.33,0,0,1,1.57-1.55,5.46,5.46,0,0,1,2.21-.5c1.53-.09,3.07-.08,4.6-.08q37.41,0,74.81,0c1.91,0,3.82.18,5.73.27a3.31,3.31,0,0,1,2.37,2.15c.12,2.3.31,4.59.31,6.89,0,11.89,0,23.78.1,35.67a11.92,11.92,0,0,0,.76,3.32c.06.2.6.3.94.38a2,2,0,0,0,1.09.08c.31-.15.51-.56.71-.88q1.88-2.9,3.72-5.81c12.15-19.16,29.12-32.39,50.17-40.43a123.66,123.66,0,0,1,35.81-7.86,186.82,186.82,0,0,1,27.59,0,103,103,0,0,1,29,6.78,83.57,83.57,0,0,1,44.16,38.46c1.12,2,2.15,4.07,3.22,6.11.74,1.4,2.57,1.36,3.62-.07,1.35-1.85,2.68-3.73,4-5.59a111.11,111.11,0,0,1,58.28-40.89,129.89,129.89,0,0,1,35.13-5.34,211.3,211.3,0,0,1,24.14.85,110.4,110.4,0,0,1,30.14,7.07,71.16,71.16,0,0,1,38.4,34.65,101.31,101.31,0,0,1,8.42,22.57,178.87,178.87,0,0,1,5.15,34.07c.44,9.58.82,19.16.81,28.75q-.06,77.68,0,155.38c0,3.83-.08,7.67-.17,11.5-.05,2-1.54,3.3-3.81,3.37-.76,0-1.53.06-2.3.07-1.15,0-2.3,0-3.45,0q-40.27,0-80.56,0c-2.68,0-5.36-.16-8-.26-.65,0-2.09-1.68-2.11-2.42-.09-3.44-.28-6.89-.28-10.34q0-44.88,0-89.77c0-16.11,0-32.22,0-48.33a175.87,175.87,0,0,0-1.53-22.95,65.94,65.94,0,0,0-4.53-16.59,41.92,41.92,0,0,0-7.15-11.74,32.94,32.94,0,0,0-16.3-10.25,49.48,49.48,0,0,0-42.29,9,51.61,51.61,0,0,0-10.63,12,72.73,72.73,0,0,0-8.22,17.68,125.78,125.78,0,0,0-5.36,25.86c-1,11.09-1.59,22.18-1.56,33.32.11,34.14,0,68.29,0,102.43,0,3.44.31,6.92-.43,10.32a3,3,0,0,1-1.54,1.58,5.13,5.13,0,0,1-2.22.4c-3.83.06-7.67.08-11.5.08h-72.51c-3.07,0-6.14,0-9.2-.15a3.55,3.55,0,0,1-2.12-.78,3.17,3.17,0,0,1-1-2c-.16-3.83-.26-7.67-.26-11.5q0-56.4,0-112.79c0-7.67,0-15.34,0-23,0-6.14-.45-12.25-.81-18.38a74.78,74.78,0,0,0-2.89-15.81,49.58,49.58,0,0,0-6.75-14.55A33.48,33.48,0,0,0,1068.53,621a37.74,37.74,0,0,0-12.17-3.25,39.67,39.67,0,0,0-13.73.75,79.49,79.49,0,0,0-8.89,2.3,47.4,47.4,0,0,0-22.17,17.63,66.36,66.36,0,0,0-7.49,14.22,116.19,116.19,0,0,0-7,29c-.48,4.2-.81,8.4-1.18,12.61-.47,5.35-.58,10.71-.58,16.09q0,53.52,0,107c0,3.84-.14,7.67-.24,11.5a3.25,3.25,0,0,1-3,2.78c-3.06.07-6.13.16-9.19.17q-20.14,0-40.29,0H905.79c-2.3,0-4.61,0-6.91-.08-2.76-.11-4.38-1-4.45-4-.08-3.84-.12-7.67-.12-11.51q0-59.26,0-118.54Z"/><path class="cls-2" d="M2110.48,621.68V815.09q0,5.74,0,11.51c0,4.51-1.48,4.85-4.56,5.11-.77.07-1.54.06-2.3.06q-39.72,0-79.44,0c-1.52,0-3-.24-4.57-.38a3.37,3.37,0,0,1-2.1-2.43c-.09-2.3-.22-4.6-.22-6.89,0-10.75,0-21.49,0-32.24a41.31,41.31,0,0,0-.33-4.58c0-.22-.52-.44-.85-.55s-.83-.2-1,0a15.91,15.91,0,0,0-2.12,2.68c-8.22,14.86-20.22,25.93-34.66,34.5a119.81,119.81,0,0,1-38.53,14.56,109.66,109.66,0,0,1-20.57,2.1c-4.6,0-9.22.09-13.81-.23-30.19-2.12-56.52-13-78.22-34.51a135,135,0,0,1-26.42-37.41A171.36,171.36,0,0,1,1787,725a213.67,213.67,0,0,1-4.28-52.62c.18-3.44.46-6.89.9-10.31a196.87,196.87,0,0,1,3.54-21.56c4.62-19.19,11.88-37.22,22.86-53.7a130.54,130.54,0,0,1,21.86-25.11,110.29,110.29,0,0,1,56.35-26.84,128.29,128.29,0,0,1,16-1.28,166.81,166.81,0,0,1,25.29,1c14.57,1.66,28.65,5.23,41.79,12a97.05,97.05,0,0,1,25.09,18.1c3,3,5.85,6.08,8.74,9.16a2.54,2.54,0,0,0,1.85.92c.86,0,1.64-1.1,1.66-2.62,0-3.45.08-6.9.08-10.36q0-67.92,0-135.84c0-3.83.17-7.67.26-11.5,0-.61,1.76-2.09,2.4-2.26,2.26-.63,4.57-.4,6.85-.4q41.45,0,82.89,0c1.53,0,3.07,0,4.6.07.75,0,1.49.28,2.24.37a3.83,3.83,0,0,1,2.22,2.38c.07,1.15.2,2.3.21,3.45,0,3.83,0,7.67,0,11.51Zm-223.21,63.26a110.2,110.2,0,0,0,3.38,27.31,80.59,80.59,0,0,0,9.29,22.16c6,9.64,14,17.13,24.49,21.85a59.61,59.61,0,0,0,17.72,4.54,52.29,52.29,0,0,0,22.63-2.55,57.09,57.09,0,0,0,25.38-17.19,74.34,74.34,0,0,0,17.9-39.16c2.09-14.7,2.24-13.84.28-29.71-.1-.76-.15-1.53-.26-2.28a82.74,82.74,0,0,0-9.35-28.19,66,66,0,0,0-11.07-14.6c-10.84-11-24.22-15.69-39.3-16.36a38,38,0,0,0-5.73.33c-1.9.21-3.78.61-5.67.9a52.2,52.2,0,0,0-24,10.47,58.88,58.88,0,0,0-17.16,21.29,74.72,74.72,0,0,0-7.88,27.43C1887.62,675.76,1887.5,680.36,1887.27,684.94Z"/><path class="cls-2" d="M2168.61,743.82q0-94.41,0-188.81c0-3.84.05-7.68.17-11.51a3.55,3.55,0,0,1,.86-2.09,4.36,4.36,0,0,1,2-1,9.63,9.63,0,0,1,2.28-.19c1.92,0,3.84-.05,5.76-.05q35.68,0,71.38,0c2.68,0,5.35.19,8,.32a3.21,3.21,0,0,1,2.25,2.29c.1,1.53.31,3.05.31,4.57,0,9.59,0,19.19,0,28.78,0,3.45.09,6.91.07,10.36a1.62,1.62,0,0,0,1,1.8,1.48,1.48,0,0,0,2-.42c1.12-1.55,2.15-3.16,3.17-4.78,10.81-17,25.65-29.35,43.91-37.67a131.77,131.77,0,0,1,29.54-9.3,152.54,152.54,0,0,1,45.82-1.77,102.83,102.83,0,0,1,30.89,8.65c16.06,7.17,29.52,17.75,40.94,31a141.3,141.3,0,0,1,21,32.85,180.36,180.36,0,0,1,14.29,47.18,189,189,0,0,1,1.42,44.75,191.17,191.17,0,0,1-13.32,58.1,146.83,146.83,0,0,1-19.21,33.93c-17.45,22.82-40.21,37.55-68.07,44.27a98,98,0,0,1-22.76,3.18c-6.14,0-12.28.17-18.41,0a113.58,113.58,0,0,1-41.26-9.42,90.79,90.79,0,0,1-25.15-16,87.22,87.22,0,0,1-10.83-11.9c-1.4-1.82-2.77-3.67-4.17-5.49a1.3,1.3,0,0,0-2-.17,1.58,1.58,0,0,0-.6.82,9.16,9.16,0,0,0-.44,2.24c-.06,3.84-.09,7.67-.09,11.51q0,62.18,0,124.34c0,3.45,0,6.91-.05,10.36s-.87,5.26-5.74,5.17c-1.54,0-3.07,0-4.61,0q-39.72,0-79.44,0c-2.68,0-5.37-.07-8-.24a3.32,3.32,0,0,1-2-1,3.54,3.54,0,0,1-.85-2.09c-.12-3.83-.17-7.67-.17-11.5Q2168.61,839.38,2168.61,743.82ZM2269.53,686c.35,9.34,1.28,20.33,5.22,30.93,4.08,11,10,20.64,18.54,28.65a55.74,55.74,0,0,0,31.56,15.12,56.67,56.67,0,0,0,22.72-1.87c13.12-3.66,23.15-11.66,30.58-22.92,6.42-9.73,10.12-20.56,12-32,.63-3.77,1-7.59,1.36-11.4a96.08,96.08,0,0,0-3.51-36.36,71.41,71.41,0,0,0-11.12-22.53,56.33,56.33,0,0,0-21.09-17.33c-5.23-2.52-10.8-3.76-16.47-4.79-8.92-1.61-17.58-.37-26.06,2.31-12.11,3.83-21.61,11.31-28.87,21.65-7.87,11.21-12.19,23.78-13.84,37.3C2270.13,676.52,2270,680.36,2269.53,686Z"/><path class="cls-2" d="M1643.65,715.65q-46.05,0-92.1,0c-2.28,0-4.59-.25-6.82.58-.87.32-1.32.73-1.26,1.68,0,.37-.18.77-.12,1.13a61.49,61.49,0,0,0,6.72,19.48A52.78,52.78,0,0,0,1571,759.4a77.18,77.18,0,0,0,19.21,7.54,162.5,162.5,0,0,0,34.18,4.29,182.28,182.28,0,0,0,34.39-2.56,176.58,176.58,0,0,0,41.9-12.07c4.23-1.81,8.36-3.82,12.57-5.67a4.65,4.65,0,0,1,2.23-.23,1.82,1.82,0,0,1,1.67,1.26,8.25,8.25,0,0,1,.34,2.26q0,31.08,0,62.17c0,.38-.07.76-.09,1.14a4.09,4.09,0,0,1-2.59,3.5,97.19,97.19,0,0,1-15.16,5.37,306.11,306.11,0,0,1-48.39,9.93,333.47,333.47,0,0,1-55.16,1.84A190.06,190.06,0,0,1,1526,821.68a148.44,148.44,0,0,1-41.1-27.17,134.92,134.92,0,0,1-34.29-51.16,154,154,0,0,1-9.48-42.52,192.46,192.46,0,0,1,.75-39.07c2.75-22.75,9.67-44.13,22.11-63.56,13.15-20.56,30.84-36,52.47-47.11a157,157,0,0,1,33.39-12.28c18-4.51,36.32-5.83,54.81-5.22a178.46,178.46,0,0,1,27.45,2.77c17.52,3.31,34,9.09,49.11,18.74a120.63,120.63,0,0,1,39.37,41.23,161.61,161.61,0,0,1,15.61,37c3.76,13,7.1,34.39,7.51,45.32.38,10,.64,19.94.55,29.92,0,1.52-.24,3-.38,4.57a3.8,3.8,0,0,1-2.35,2.2c-3.06.11-6.12.29-9.18.3Q1688,715.67,1643.65,715.65Zm-45.45-57.43q23.52,0,47,0a36.17,36.17,0,0,0,5.69-.44,3,3,0,0,0,1.65-1.42,4.39,4.39,0,0,0,.52-2.2,76,76,0,0,0-3.29-20.3,55.62,55.62,0,0,0-5.44-12.6c-7.22-12.33-18.26-19.33-31.94-22.27a69.05,69.05,0,0,0-19.42-1.24,55.82,55.82,0,0,0-16.77,3.5,47.26,47.26,0,0,0-22.08,17.62,68.42,68.42,0,0,0-12,36.52,3.5,3.5,0,0,0,2.15,2.43c1.89.14,3.78.39,5.67.4Q1574.11,658.25,1598.2,658.22Z"/><path class="cls-2" d="M2733.42,715.65H2646c-3.06,0-6.13.05-9.19.19a3.27,3.27,0,0,0-2.07.85,3,3,0,0,0-.7,2.06,37.92,37.92,0,0,0,2.22,10.06,54.1,54.1,0,0,0,26.91,31.55,68.35,68.35,0,0,0,14.93,5.93,129.62,129.62,0,0,0,15.74,3.27,192,192,0,0,0,27.53,1.64,121.44,121.44,0,0,0,16.05-1.08c6.06-.89,12.24-1,18.16-2.83,14.07-2.4,27.39-7.16,40.44-12.78,2.82-1.21,5.59-2.5,8.39-3.74.85-.37,2.62.48,2.75,1.27a14.73,14.73,0,0,1,.4,2.23q0,31.07,0,62.13a7.3,7.3,0,0,1-.09,1.14,4.32,4.32,0,0,1-2.47,3.59,155.69,155.69,0,0,1-22.9,7.53,324.47,324.47,0,0,1-40.64,7.66c-18.34,2.34-36.71,2.31-55.11,1.93a162.65,162.65,0,0,1-18.29-1.9,191.06,191.06,0,0,1-24.77-5A170.05,170.05,0,0,1,2599,812.51a144,144,0,0,1-25.44-19.64,136.38,136.38,0,0,1-38.59-69.3,174.27,174.27,0,0,1-4.11-43.39,185.58,185.58,0,0,1,4.33-35.32c4.91-22.06,14.06-42.09,28.54-59.56,14.74-17.8,33.09-30.68,54.42-39.34a170.43,170.43,0,0,1,35.34-9.88,209.84,209.84,0,0,1,42.4-2.46c13.42.43,15.79.59,28.55,3.1,24.18,4.74,45.93,14.58,64.13,31.55A125.4,125.4,0,0,1,2813.06,600a157.64,157.64,0,0,1,14.57,37.39c2.43,9.66,4.58,19.4,5.28,29.39,2.32,14.86,1.74,29.83,1.65,44.78a4.41,4.41,0,0,1-.53,2.21,3.36,3.36,0,0,1-1.72,1.42,12.49,12.49,0,0,1-3.41.4c-5.75,0-11.5,0-17.25,0ZM2687,658.22h0q24.09,0,48.2,0c1.9,0,3.8-.19,5.7-.31.75,0,2-1.58,2.13-2.43.59-3.06.09-6.1-.21-9.13a63.38,63.38,0,0,0-6.35-21.9c-6.91-14.06-18.42-22.2-33.46-25.4a66.6,66.6,0,0,0-22.84-.94,61.55,61.55,0,0,0-7.91,1.31,48.19,48.19,0,0,0-27.63,19.28,63.16,63.16,0,0,0-7.43,14.19,93.58,93.58,0,0,0-4.7,18.89,30,30,0,0,0-.13,3.43,3.29,3.29,0,0,0,3,2.85c2.29.08,4.58.17,6.88.17Q2664.63,658.24,2687,658.22Z"/><path class="cls-2" d="M3130.94,831.78h-50.66c-2.3,0-4.6-.1-6.9-.24a3.53,3.53,0,0,1-2.91-1.56c-1.59-2.62-3.08-5.3-4.53-8q-19.93-37-39.84-74a18.65,18.65,0,0,0-1.85-2.89c-.45-.56-1.23-1.28-1.78-1.22s-1.22.89-1.61,1.52q-1.79,3-3.4,6-18.64,35-37.26,70.09c-6.26,11.78-3.95,10.18-16.35,10.22-31.09.08-62.17,0-93.26,0-2.29,0-4.64.3-6.83-.54a2.31,2.31,0,0,1-1-1.81,4,4,0,0,1,.82-2.08c2.55-3.83,5.18-7.62,7.73-11.45q43.17-64.59,86.3-129.21a7.42,7.42,0,0,0,1.09-2,3.42,3.42,0,0,0,0-2.21c-1-2-2.21-4-3.45-6q-30.27-47.58-60.59-95.13-11.43-18-22.85-35.92a12.52,12.52,0,0,1-1.39-3.13,1.54,1.54,0,0,1,1.11-1.7c2.63-.73,5.34-.42,8-.43q38.57,0,77.14,0H2982a26.46,26.46,0,0,1,3.45.11,4.66,4.66,0,0,1,3.75,2.31c2,3.73,3.93,7.46,5.79,11.25q15.76,32,31.49,64c.85,1.71,1.81,3.37,2.74,5a2.86,2.86,0,0,0,1.79,1.37,1.44,1.44,0,0,0,1.74-.88c1.5-2.68,3-5.34,4.44-8.06q18.08-34.7,36.11-69.4c.53-1,.95-2.11,1.57-3.08a5,5,0,0,1,3.66-2.48,41.34,41.34,0,0,1,4.59-.18q47.79,0,95.57,0c1.53,0,3.06.16,4.59.26.81,0,1.73,1.83,1.52,2.6-.53,1.9-1.77,3.39-2.8,5q-26.7,41.66-53.46,83.28-14.31,22.27-28.62,44.55a48,48,0,0,0-2.84,5,3.46,3.46,0,0,0,.08,3.3c1.17,2,2.37,3.94,3.62,5.86l74.79,114.73q7.54,11.57,15.06,23.16c1.2,1.85.14,3.7-2.15,3.77-1.15,0-2.3.09-3.45.09h-54.11Z"/><path class="cls-2" d="M1852.87,1385.43q0-47.13,0-94.28a39.05,39.05,0,0,1,.38-8,3.66,3.66,0,0,1,2.41-2.13c1.53-.07,3-.25,4.58-.25q13.21,0,26.43.15a3.7,3.7,0,0,1,3.57,3.68c0,1.54,0,3.07.09,4.6.09,2.67-.29,5.38.46,8,.07.23.58.38.91.47s.85.2,1,0c1.62-1.63,3.15-3.33,4.76-5,9-9.2,20.09-13.74,32.77-14.75a96,96,0,0,1,13.78,0,57.45,57.45,0,0,1,17.79,4.28,50.31,50.31,0,0,1,22.26,17.55,65.49,65.49,0,0,1,7.73,14.06,90.09,90.09,0,0,1,5.2,18.77,147.82,147.82,0,0,1,1.93,21.73,120.82,120.82,0,0,1-2.8,27.38c-2.32,11-6.45,21.23-13.43,30.19a52.68,52.68,0,0,1-27.16,18.32,59.07,59.07,0,0,1-14.69,2.43,120.94,120.94,0,0,1-12.63-.12,45.87,45.87,0,0,1-27.22-11c-2-1.72-4-3.56-6-5.3a1.63,1.63,0,0,0-2.07.08,1.65,1.65,0,0,0-.68.76,7.45,7.45,0,0,0-.5,2.21c-.09,3.45-.12,6.9-.12,10.35q0,25.29,0,50.59c0,2.29-.18,4.59-.3,6.88a3.41,3.41,0,0,1-2.15,2.36c-.38,0-.74.26-1.11.26q-16.1,0-32.18-.11a2.82,2.82,0,0,1-2.47-2,16,16,0,0,1-.41-2.24c-.07-3.06-.09-6.13-.09-9.19Q1852.86,1430.85,1852.87,1385.43Zm105.18-31.13c-.12-2.06-.3-6.26-.64-10.45a56.63,56.63,0,0,0-4.31-16.6,36.92,36.92,0,0,0-5.16-8.9,26.48,26.48,0,0,0-10.76-8.34,27.57,27.57,0,0,0-11.18-2.09,28.17,28.17,0,0,0-20.51,8.82,33.88,33.88,0,0,0-5.56,7.27,58.41,58.41,0,0,0-7.16,21.63,83.25,83.25,0,0,0,.34,21.74,54.53,54.53,0,0,0,6,18.47A35.09,35.09,0,0,0,1906,1395a26.36,26.36,0,0,0,17.48,7.6c1.9.08,3.82,0,5.73-.06a23.64,23.64,0,0,0,13.62-5.46,32.55,32.55,0,0,0,8-9.63,56.87,56.87,0,0,0,4-9.48C1957.27,1371,1957.85,1363.74,1958.05,1354.3Z"/><path class="cls-2" d="M1653.37,1320.65q0,50,0,100.09c0,2.29.27,4.63-.58,6.83-.25.63-1,1.11-1.6,1.56a2.15,2.15,0,0,1-1.12.22c-10.34.44-20.69.29-31,.09a3.09,3.09,0,0,1-2.93-2.92c-.13-1.9-.16-3.82-.31-5.73a25.11,25.11,0,0,0-.54-3.33c-.08-.34-.41-.85-.67-.88-.71-.1-1.65-.27-2.13.09-2.13,1.63-4,3.53-6.19,5.14a53,53,0,0,1-28.65,10.75,97,97,0,0,1-16.08,0c-12.63-1.18-23.73-5.89-32.92-14.74a58.19,58.19,0,0,1-9.18-11.75,63,63,0,0,1-5.89-12.45,99.49,99.49,0,0,1-5.45-25.79,194.12,194.12,0,0,1,0-26.42,95.61,95.61,0,0,1,5.27-24.66,63.41,63.41,0,0,1,9.1-17.23,51.72,51.72,0,0,1,29-19.53,58.68,58.68,0,0,1,14.75-2.09c3.45,0,6.91-.06,10.34.16a49.16,49.16,0,0,1,28.45,11.08c2.38,1.93,4.64,4,7,6,.19.15.69,0,1-.09s.91-.33.93-.54c.18-2.29.39-4.58.39-6.87q0-31.07,0-62.13c0-3.06.13-6.13.22-9.19a3.27,3.27,0,0,1,3.07-2.8q16.1,0,32.19-.05c2.06,0,3.39,1.53,3.46,3.74,0,1.14.09,2.29.1,3.44,0,3.07,0,6.14,0,9.21Zm-39.3,32.82a22.6,22.6,0,0,0,0-3.33,60.46,60.46,0,0,0-7.75-26.18,32.32,32.32,0,0,0-7.21-8.88,28.16,28.16,0,0,0-17.75-7.11,44,44,0,0,0-4.59.09,24.48,24.48,0,0,0-13.64,5.46,31.4,31.4,0,0,0-8.57,10.66,57.41,57.41,0,0,0-4.6,13,81.7,81.7,0,0,0,.21,36.45,50.21,50.21,0,0,0,4.21,11.88,37,37,0,0,0,5.75,8.54c4.91,5.26,10.89,8.37,18.18,8.58,2.29.07,4.59-.07,6.88-.21a15,15,0,0,0,3.38-.62,29,29,0,0,0,14.18-9.31,41.82,41.82,0,0,0,6.87-11.87A68.28,68.28,0,0,0,1614.07,1353.47Z"/><path class="cls-2" d="M739.24,1333.23c-8.85,26.32-19.48,57.92-30.09,89.52a23.12,23.12,0,0,1-2.35,5.22,2.47,2.47,0,0,1-1.78,1.28,19.81,19.81,0,0,1-2.27.28q-20.71,0-41.43,0a12.45,12.45,0,0,1-2.27-.27,3.41,3.41,0,0,1-2.57-2c-.92-2.1-1.73-4.26-2.48-6.43q-30.09-87.49-60.16-175c-1.62-4.71-3.18-9.44-4.74-14.17-.42-1.25,1.08-3.08,2.53-3.11,3.84,0,7.67-.12,11.51-.11q12.65,0,25.3.14a4,4,0,0,1,3.54,2.51,19.63,19.63,0,0,1,1.27,3.19q8.07,24.57,16.12,49.14,15,45.9,30,91.79c.6,1.82,1.28,3.62,2,5.37a6.59,6.59,0,0,0,1.43,1.75c.2.2,2.08-1.77,2.31-2.44.37-1.09.74-2.17,1.1-3.27q8-24.6,15.94-49.2,15.17-47,30.31-94.09a8.58,8.58,0,0,1,.89-2.11c.85-1.27,1.74-2.6,3.51-2.6q16.68-.06,33.36-.07c2.73,0,3.68,1.73,2.71,4.68-.12.37-.29.71-.41,1.08q-9.15,27.24-18.29,54.48C749.86,1301.82,745.43,1314.89,739.24,1333.23Z"/><path class="cls-2" d="M2316.56,1321.89v-96.64c0-1.92,0-3.84,0-5.76.06-5.36.81-6.24,5.71-6.26,9.2,0,18.4,0,27.61,0,.76,0,1.52.12,2.28.17,1.54.1,3.11,1.45,3.15,2.78.1,3.07.22,6.13.22,9.2q0,32.2,0,64.43c0,2.29.17,4.58.33,6.87,0,.27.4.55.68.74s.89.56,1,.46c1.71-1.54,3.36-3.14,5-4.72a55.24,55.24,0,0,1,36.24-15.28q5.18,0,10.35.13a44.08,44.08,0,0,1,14.5,3.33,41.09,41.09,0,0,1,19.41,15.61,50.72,50.72,0,0,1,6.75,14.55,67.23,67.23,0,0,1,3,18.1c0,1.92.06,3.84.06,5.75q0,42.57,0,85.14c0,1.91-.12,3.83-.2,5.74a3.77,3.77,0,0,1-2.84,3.13c-1.15.07-2.3.21-3.44.21q-13.23,0-26.47,0a30.73,30.73,0,0,1-3.41-.4,3.34,3.34,0,0,1-2.19-2.37c-.15-1.9-.36-3.81-.37-5.72q0-20.7,0-41.42c0-11.5,0-23,0-34.51,0-4.23-.28-8.43-.62-12.64a40.12,40.12,0,0,0-2.8-11.11,22.78,22.78,0,0,0-2.13-4.06c-3.55-5.56-8.83-8.35-15.2-9.2a34.36,34.36,0,0,0-5.74-.15,27.61,27.61,0,0,0-21.65,11.37,42.73,42.73,0,0,0-7.38,15.46c-1.63,6.31-2.93,12.71-2.85,19.29.05,3.45,0,6.91,0,10.36q0,27.61,0,55.22c0,2.3-.19,4.59-.29,6.88a3.46,3.46,0,0,1-3.12,2.81c-10.73.37-21.45.35-32.18,0a3.49,3.49,0,0,1-3.11-2.82c-.07-1.14-.25-2.28-.27-3.42,0-3.07,0-6.14,0-9.21Z"/><path class="cls-2" d="M2653.32,1320.84q0-47.77,0-95.55c0-3.07.15-6.14.24-9.2a3.62,3.62,0,0,1,2.16-2.41,8,8,0,0,1,1.11-.31q16.11,0,32.21,0a3.22,3.22,0,0,1,3,2.86c0,1.15.17,2.29.18,3.44,0,3.07,0,6.14,0,9.21q0,48.93,0,97.86c0,3.06.07,6.13.29,9.19,0,.62,1,1,1.75,1a1.56,1.56,0,0,0,1-.52c1.74-2,3.51-4,5.16-6.15q17.34-22.24,34.64-44.51c.93-1.21,2-2.35,3-3.48a4.19,4.19,0,0,1,3-1.41c3.84-.1,7.67-.18,11.51-.13,9.58.12,19.18-.4,28.75.33.61.05,1.08,1,1,1.78a4.47,4.47,0,0,1-.92,2.06c-2.39,3-4.83,6-7.29,8.9q-18.82,22.53-37.65,45c-1.72,2.06-3.39,4.17-5.06,6.27a3.86,3.86,0,0,0-.32,4.28c1.57,2.18,3.12,4.36,4.74,6.5q25.37,33.49,50.72,67c.92,1.21,1.66,2.55,2.46,3.84a1.92,1.92,0,0,1-1.27,2.62c-.38,0-.75.17-1.13.17q-20.73,0-41.44,0a6,6,0,0,1-4.81-2.71c-.94-1.21-1.8-2.48-2.67-3.74l-20.24-29.38q-10.12-14.7-20.25-29.38a5.83,5.83,0,0,0-2.3-2.47,2,2,0,0,0-1-.29,1.63,1.63,0,0,0-1.47,1.45c-.11,2.69-.19,5.37-.2,8q0,25.34,0,50.66c0,1.91.19,3.87-.55,5.68a5,5,0,0,1-1.48,1.62,1.74,1.74,0,0,1-1,.35c-10.73.4-21.47.35-32.21.05a3.81,3.81,0,0,1-3.51-3.8c0-1.15-.09-2.3-.09-3.45,0-2.68,0-5.37,0-8.06Z"/><path class="cls-2" d="M2096.49,1432.93c-3.34-.17-7.19-.18-11-.58a74.86,74.86,0,0,1-37.18-14,68.34,68.34,0,0,1-24.11-32.89,80.92,80.92,0,0,1-4.75-23.57,96.74,96.74,0,0,1,2.29-27.41,75.85,75.85,0,0,1,9-22.25c10.43-16.84,25.53-27.1,44.58-32a90.44,90.44,0,0,1,33.12-1.85c16,1.85,30.37,7.82,42.4,18.78a70.91,70.91,0,0,1,20.26,32.87,91.72,91.72,0,0,1,3.34,30.71c-.09,1.92-.25,3.83-.41,5.74a74.46,74.46,0,0,1-11.29,33.44,66.67,66.67,0,0,1-29,25.43,76.43,76.43,0,0,1-28.8,7.28C2102.34,1432.73,2099.66,1432.81,2096.49,1432.93ZM2060,1353.31a86.79,86.79,0,0,0,1.28,15,50.94,50.94,0,0,0,6.44,18.34c6,9.89,14.69,15.45,26.38,15.89,3,.12,6.12-.12,9.18-.28a17.19,17.19,0,0,0,3.4-.6,31.26,31.26,0,0,0,18.37-13,49.62,49.62,0,0,0,5.13-10.25c1.69-4.36,2.19-8.91,3-13.45a67.39,67.39,0,0,0-.52-26.28,44.67,44.67,0,0,0-3.75-10.83c-4.53-8.91-11.23-15.39-21-18.37a33.29,33.29,0,0,0-9-1.56,37.49,37.49,0,0,0-10.3.78,34,34,0,0,0-21,15.06,46.13,46.13,0,0,0-4.54,9.28A56.64,56.64,0,0,0,2060,1353.31Z"/><path class="cls-2" d="M1341,1355.24v-66.77c0-1.91-.15-3.86.63-5.65a4.68,4.68,0,0,1,1.57-1.56,2.14,2.14,0,0,1,1.11-.29c10.34-.32,20.69-.48,31,.1a2.93,2.93,0,0,1,2.09,2.36c.15,2.3.25,4.59.39,6.88.11,1.9-.25,3.85.62,5.65.16.33.34.88.57.9a4.28,4.28,0,0,0,2.17-.09,6.88,6.88,0,0,0,1.71-1.51c1.4-1.31,2.75-2.68,4.18-4a50.87,50.87,0,0,1,22.2-11.59,54.5,54.5,0,0,1,12.48-1.8c3.83,0,7.67-.08,11.5.06a44.25,44.25,0,0,1,17.68,4.64,40.82,40.82,0,0,1,18.75,18,58.33,58.33,0,0,1,6.67,20.67,185.25,185.25,0,0,1,1.47,23c-.06,25.32,0,50.65,0,76a28.76,28.76,0,0,1-.4,6.87,4.09,4.09,0,0,1-2.45,2.15c-.38,0-.75.24-1.12.23q-16.11,0-32.21-.15a2.93,2.93,0,0,1-2.4-2.08c-.09-.76-.28-1.51-.3-2.27-.06-2.3-.07-4.6-.07-6.9q0-31.66,0-63.32c0-3.83-.26-7.66-.26-11.49a108.75,108.75,0,0,0-1.52-14.87,29.11,29.11,0,0,0-3.47-9.7c-3.54-6.65-9.35-9.93-16.71-10.64a34.38,34.38,0,0,0-5.74,0,27.59,27.59,0,0,0-19.93,10.12,40.89,40.89,0,0,0-7.18,13,78.32,78.32,0,0,0-4,21.42c-.26,4.59-.24,9.2-.25,13.8q0,25.9,0,51.8c0,2.68-.11,5.36-.2,8a3.6,3.6,0,0,1-2.83,3.13c-.77.06-1.53.2-2.29.2q-13.81,0-27.63,0c-.76,0-1.52-.12-2.29-.16a3.5,3.5,0,0,1-3.13-2.82c-.14-2.29-.32-4.59-.32-6.88q0-32.23,0-64.46Z"/><path class="cls-2" d="M2570.6,1367.51H2528c-1.53,0-3.06.11-4.6.17a2.89,2.89,0,0,0-2.26,2.2c0,.37-.18.75-.15,1.12a34.3,34.3,0,0,0,9.1,20.65,37.83,37.83,0,0,0,19.59,11.31,58.65,58.65,0,0,0,24,.67A100.88,100.88,0,0,0,2603,1394c2-1,3.93-2.4,6.28-2.66a1.66,1.66,0,0,1,1.82.93,2.63,2.63,0,0,1,.37,1.08c0,8.44.08,16.87,0,25.31a4.28,4.28,0,0,1-2.26,3.75c-.33.19-.63.43-1,.6a95.6,95.6,0,0,1-20.54,7.27c-9.81,2.41-19.75,2.53-29.72,2.57-2.3,0-4.6-.16-6.9-.25a78.2,78.2,0,0,1-24.66-5.23c-19.15-7.18-31.95-20.66-38.61-39.94a65.83,65.83,0,0,1-3.47-14.52c-.49-4.57-1.45-9.1-1.51-13.71-.15-14,1.76-27.56,6.92-40.58a65.84,65.84,0,0,1,15.83-23.74,59.81,59.81,0,0,1,26.89-14.8,72.74,72.74,0,0,1,17-2.27,95.62,95.62,0,0,1,25.11,2.46c14.39,3.61,25.89,11.21,34,23.74a70.1,70.1,0,0,1,8.86,19.89,137.53,137.53,0,0,1,5,39.82,3.79,3.79,0,0,1-3.64,3.66c-.77,0-1.53.13-2.29.13l-8.06,0Zm-17.94-27.07h0c8.79,0,17.57,0,26.36,0,1.51,0,3-.3,4.52-.43.88-.08,1.85-1.6,1.67-2.61-.41-2.25-.86-4.49-1.25-6.75a33.11,33.11,0,0,0-4.74-11.6,25,25,0,0,0-11.93-10.35,33.55,33.55,0,0,0-13.41-2.58,43.33,43.33,0,0,0-10.14,1.6,26.74,26.74,0,0,0-13.52,8.18c-5.49,6.16-8.85,13.31-9.19,21.7a2.8,2.8,0,0,0,1.89,2.49c1.51.1,3,.35,4.53.35C2535.85,1340.46,2544.26,1340.44,2552.66,1340.44Z"/><path class="cls-2" d="M860.1,1367.52H815.26a9.72,9.72,0,0,0-4.49.65,2.22,2.22,0,0,0-1.23,1.75c-.38,2.34.39,4.55,1,6.74a34.88,34.88,0,0,0,18,22.72,45.74,45.74,0,0,0,19.87,5.14c11.28.47,22-2.06,32.55-5.93,5.41-2,10.44-4.76,15.68-7.1a2.39,2.39,0,0,1,2.22,0c.31.16.8.26.89.51a7.45,7.45,0,0,1,.46,2.23q0,12.08,0,24.14a4.57,4.57,0,0,1-2.17,3.81,9.31,9.31,0,0,1-.94.65,98.18,98.18,0,0,1-20.49,7.35c-9.4,2.39-19,2.58-28.53,2.66a96.88,96.88,0,0,1-12.63-.63c-11.91-1.43-23.22-4.78-33.41-11.38a61.15,61.15,0,0,1-21.39-23.55,77.21,77.21,0,0,1-7.07-20.57,110.48,110.48,0,0,1-1.9-26.3,98.5,98.5,0,0,1,4.6-26c3.54-11.1,9.07-21.07,17.54-29.27a59.94,59.94,0,0,1,27.85-15.29,70.77,70.77,0,0,1,14.75-2.08,126,126,0,0,1,14.93.32,70.3,70.3,0,0,1,21.14,5.09,54.13,54.13,0,0,1,25.1,21.15,75.6,75.6,0,0,1,9.57,23.27,153.14,153.14,0,0,1,4,36.46,3.34,3.34,0,0,1-2.78,3.11c-1.14.08-2.28.24-3.43.25-3.83,0-7.66,0-11.49,0H860.1Zm-18.41-27.07h0c8.39,0,16.79,0,25.19,0,1.51,0,3-.23,4.53-.35a2.54,2.54,0,0,0,1.87-2.47,45,45,0,0,0-.79-6.79,48.44,48.44,0,0,0-3-8.63,27,27,0,0,0-10.5-11.81,31.07,31.07,0,0,0-14.11-4.21,35.86,35.86,0,0,0-12.43,1.47,29,29,0,0,0-15.1,9.78,36.44,36.44,0,0,0-6.67,13.18,53.06,53.06,0,0,0-1.34,6.73,2.88,2.88,0,0,0,.52,2.1,3.31,3.31,0,0,0,2.07.81c1.89.16,3.81.2,5.71.2Q829.67,1340.47,841.69,1340.45Z"/><path class="cls-2" d="M2891.12,1367.52q-21.87,0-43.75,0a13.13,13.13,0,0,0-4.53.46c-.86.3-1.37.67-1.42,1.57a12.33,12.33,0,0,0-.18,2.25c1.69,12.21,7.83,21.45,18.64,27.43a44.9,44.9,0,0,0,17.55,5.11,61.3,61.3,0,0,0,16.05-.63,103.52,103.52,0,0,0,28.38-9.09c1.72-.84,3.41-1.75,5.13-2.6,3.39-1.67,4.74-.77,4.76,3.28,0,7.29,0,14.58,0,21.87a13.47,13.47,0,0,1-.24,2.28,3.93,3.93,0,0,1-1.86,2.75,66.29,66.29,0,0,1-18.13,7.15,92.84,92.84,0,0,1-20.41,3.25c-6.52.16-13,.28-19.56,0a85.18,85.18,0,0,1-23.58-4.79,64.49,64.49,0,0,1-13.46-6.43,60.81,60.81,0,0,1-23.87-27.31,75.7,75.7,0,0,1-6.14-20.9,108.78,108.78,0,0,1-1.44-19.49c.48-11.56,2.16-22.9,6.34-33.77a69.59,69.59,0,0,1,13-21.57,59.52,59.52,0,0,1,30-18.23,64.81,64.81,0,0,1,17.05-2.3c4.6,0,9.23,0,13.8.38a69.66,69.66,0,0,1,23.23,6.15c10.81,5.05,18.85,13,24.63,23.36a68.34,68.34,0,0,1,6.58,15.91,145.75,145.75,0,0,1,5.14,39.81,4.71,4.71,0,0,1-.53,2.21,3,3,0,0,1-1.71,1.42,37.69,37.69,0,0,1-5.72.43q-21.87,0-43.74,0Zm-18.28-27.08h0q12,0,24,0c1.91,0,3.82,0,5.72-.21a3.31,3.31,0,0,0,2.06-.82,2.82,2.82,0,0,0,.55-2.09c-.38-2.64-.81-5.29-1.44-7.88a33.23,33.23,0,0,0-7.22-14.13,23.56,23.56,0,0,0-9.19-6.67,34,34,0,0,0-16.84-2.34c-7,.88-13.44,3-18.58,8a34.2,34.2,0,0,0-10.75,23.32,2.75,2.75,0,0,0,1.92,2.45c1.51.12,3,.34,4.53.34C2856,1340.46,2864.44,1340.44,2872.84,1340.44Z"/><path class="cls-2" d="M1815.14,1377.34c.09,13.41,1,26.79,1.61,40.19.12,2.67.24,5.35.31,8a3.64,3.64,0,0,1-3.33,3.84q-13.79,0-27.57-.05a3.68,3.68,0,0,1-3.26-2.71c-.21-1.51-.47-3-.6-4.54-.25-3-.34-6.12-.69-9.16,0-.53-1-1-1.58-1.39-.2-.12-.73.12-1,.34-2.15,1.61-3.74,3.78-5.61,5.68A51.38,51.38,0,0,1,1753,1430a49.75,49.75,0,0,1-14.61,2.78c-7.71.24-15.29-.32-22.68-2.77a51.13,51.13,0,0,1-20.54-12.23,39.28,39.28,0,0,1-11.8-26.68,53.49,53.49,0,0,1,1.83-17.06,40.88,40.88,0,0,1,15-22.48,56.24,56.24,0,0,1,17.35-8.74,105.92,105.92,0,0,1,12.28-2.91,143.32,143.32,0,0,1,26.31-2.1c6.13,0,12.26,0,18.39-.06a21.75,21.75,0,0,0,3.36-.54,1.54,1.54,0,0,0,1.43-1.55,26.2,26.2,0,0,0,.25-3.41,36.32,36.32,0,0,0-2.63-11.14,21,21,0,0,0-13.94-12.74,58.24,58.24,0,0,0-26.16-1.48,81.33,81.33,0,0,0-27.95,10c-2,1.14-3.67,2.84-6,3.27a1.84,1.84,0,0,1-1.88-.92,5,5,0,0,1-.64-2.19c-.27-8.42-.53-16.84-.71-25.26a4.32,4.32,0,0,1,3.07-4.34c1.08-.42,2.12-.92,3.19-1.31A162.19,162.19,0,0,1,1728,1280c12.14-2.58,24.36-2.63,36.61-1.76a72.13,72.13,0,0,1,19,4.17c15.39,5.44,24.49,16.44,28.62,31.93A83.36,83.36,0,0,1,1815,1336c0,7.66,0,15.32,0,23C1815,1365.08,1815.09,1371.21,1815.14,1377.34ZM1764.66,1361v.22c-3.07,0-6.14-.13-9.19,0a63.05,63.05,0,0,0-20.15,4.21,25.18,25.18,0,0,0-9.4,6.43,20.5,20.5,0,0,0-5.38,12.4,17.87,17.87,0,0,0,.88,7.93,16.48,16.48,0,0,0,10.37,10,36.65,36.65,0,0,0,14.65,2.28,34.67,34.67,0,0,0,14.27-4c7.88-4.07,13-10.58,16-18.81a47.74,47.74,0,0,0,3-16.88c0-.38-.18-.75-.19-1.13a3.32,3.32,0,0,0-2.18-2.34Z"/><path class="cls-2" d="M1303.46,1380.25c.36,11.63.26,24.68,1.44,37.68.25,2.67.27,5.36.35,8a3.48,3.48,0,0,1-3.7,3.49c-9.2,0-18.4,0-27.6-.09a3.52,3.52,0,0,1-2.54-2c-.21-1.12-.53-2.23-.68-3.36-.39-3-.69-6.09-1.08-9.13a9.47,9.47,0,0,0-.61-2.2,1.29,1.29,0,0,0-.7-.66c-.34-.12-.92-.22-1.11,0-1.63,1.58-3.2,3.22-4.78,4.86-7.72,8-17.26,12.66-27.94,15.07a54.28,54.28,0,0,1-10.29,1,58,58,0,0,1-30.91-7.47c-9.75-5.52-16.66-13.41-20.06-24.18a32.67,32.67,0,0,1-1.24-5.59,58.21,58.21,0,0,1,0-14.92c1.52-12,6.72-21.86,16.47-29.21a54.31,54.31,0,0,1,15.23-8,100.42,100.42,0,0,1,13.34-3.45c9.48-1.86,19-2.21,28.63-2.25,6.51,0,13-.16,19.53-.26a2.6,2.6,0,0,0,2.24-2.2c0-.38.16-.75.15-1.12a39.58,39.58,0,0,0-1.48-10.23c-2.28-7.94-7.41-13.41-15.37-15.72a58,58,0,0,0-26.2-1.28,80.62,80.62,0,0,0-27.91,10.17c-2,1.16-3.73,2.78-6.06,3.21a1.7,1.7,0,0,1-1.78-1,2.68,2.68,0,0,1-.28-1.11c-.22-8.81-.47-17.63-.59-26.45a4.45,4.45,0,0,1,3.06-4.39,149.74,149.74,0,0,1,25.32-7.41c11.79-2.42,23.62-2.52,35.51-1.8a72.17,72.17,0,0,1,21.25,4.71,42,42,0,0,1,25.27,25.19c3.05,7.94,4.34,16.28,4.86,24.74.1,1.53,0,3.07,0,4.6C1303.32,1351.22,1303.39,1365,1303.46,1380.25ZM1254.09,1361v.12c-1.92,0-3.83,0-5.75,0a78.17,78.17,0,0,0-18.22,2.14,33.85,33.85,0,0,0-12.55,5.48c-5.28,3.76-8.38,8.86-8.68,15.45a39.2,39.2,0,0,0,.19,5.73,11.21,11.21,0,0,0,.92,3.29,16.29,16.29,0,0,0,9.86,9,43.79,43.79,0,0,0,4.41,1.29,34.21,34.21,0,0,0,24.51-2.93c7.18-3.62,12-9.44,15.19-16.63,2.51-5.61,3.48-11.54,3.7-20.18a3.24,3.24,0,0,0-2.11-2.39C1261.74,1361.27,1257.92,1361.14,1254.09,1361Z"/><path class="cls-2" d="M1087,1432.81h-1.15c-12,0-22.89-1.7-37.47-5.34a3.93,3.93,0,0,1-2.92-4.31c.22-4.6.44-9.2.76-13.79.25-3.44.62-6.87,1-10.3.36-3.14,1.62-3.6,3.63-2.75a103.38,103.38,0,0,0,12.91,4.83c6.29,1.72,12.62,3.22,19.19,3.44a42,42,0,0,0,14.72-2.07,24.61,24.61,0,0,0,5.17-2.48,15.13,15.13,0,0,0,7.62-14.47,12.94,12.94,0,0,0-4.19-9.17,26.26,26.26,0,0,0-5.61-4c-3.39-1.85-7.1-2.89-10.71-4.14-3.25-1.14-6.62-1.91-9.92-2.9a125.78,125.78,0,0,1-11.92-4.21,49.24,49.24,0,0,1-9.07-5,33.93,33.93,0,0,1-14-20.34,47.57,47.57,0,0,1,.68-26.11,38.65,38.65,0,0,1,11.84-18,52.79,52.79,0,0,1,21.25-11.06,72.79,72.79,0,0,1,18.13-2.83c10.37-.1,20.68,0,30.92,2,4.88,1,9.87,1.44,14.52,3.35a3.08,3.08,0,0,1,1.31,1.73,5.34,5.34,0,0,1,.22,2.26c-.68,7.25-1.4,14.5-2.11,21.75a2.58,2.58,0,0,1-3.13,2.43c-2.59-.69-5.17-1.44-7.77-2.12a91,91,0,0,0-23.86-3.19,37.45,37.45,0,0,0-11.29,1.86,20.07,20.07,0,0,0-4.16,1.91c-5,3-7.53,7.47-7,13.44a9.36,9.36,0,0,0,2.1,5.24,16.3,16.3,0,0,0,5.28,4.36,51.1,51.1,0,0,0,6.31,2.76c4.71,1.63,9.46,3.12,14.21,4.62a100.39,100.39,0,0,1,17,6.81,44.54,44.54,0,0,1,11.11,8.09,34.75,34.75,0,0,1,9,15.8,50.91,50.91,0,0,1,.17,26.14,40.12,40.12,0,0,1-9.8,18,44.37,44.37,0,0,1-10.83,8.47,71.51,71.51,0,0,1-29.49,8.88c-4.2.33-8.42.4-12.64.59Z"/><path class="cls-2" d="M2217.49,1351.81q0-17.25,0-34.5c0-1.53-.12-3.06-.19-4.59a3.35,3.35,0,0,0-2.09-2.43c-1.52-.16-3-.4-4.56-.42-5.37-.06-10.73,0-16.1-.06a20.5,20.5,0,0,1-3.4-.41,2.2,2.2,0,0,1-1.64-1.43,5.92,5.92,0,0,1-.65-2.16c-.07-6.89-.07-13.79-.08-20.69,0-.37.17-.75.21-1.13a3.37,3.37,0,0,1,2.9-3c5-.09,9.95-.13,14.93-.24,2.68,0,5.35-.21,8-.32.76,0,2.38-1.47,2.4-2.14.1-3.45.17-6.9.26-10.34.13-5-.35-10,.4-14.91a2.72,2.72,0,0,1,1.21-1.78,24.84,24.84,0,0,1,4.25-1.71q14.78-4.71,29.58-9.32a5.45,5.45,0,0,1,2.24,0,1,1,0,0,1,.69.67,15.69,15.69,0,0,1,.59,3.36c.05,9.58,0,19.17.07,28.75a37.65,37.65,0,0,0,.37,5.72,2.43,2.43,0,0,0,1.53,1.59,21.6,21.6,0,0,0,4.55.43c7.29,0,14.57,0,21.85.06a28,28,0,0,1,3.41.38,3.56,3.56,0,0,1,2.18,2.39,11.26,11.26,0,0,1,.22,1.13c.13,7.28.36,14.55-.12,21.82a3.63,3.63,0,0,1-2.9,3.06c-1.52.09-3.05.26-4.57.27-6.52,0-13,0-19.55,0-1.53,0-3,.19-4.58.3a3.29,3.29,0,0,0-2.17,2.35c-.08,1.53-.23,3.06-.23,4.58q0,30.48,0,61c0,2.3.13,4.6.21,6.89a22.06,22.06,0,0,0,2.4,8.82,15.36,15.36,0,0,0,6.05,6.72,13.53,13.53,0,0,0,5.37,1.91,39.31,39.31,0,0,0,18.09-2,2.79,2.79,0,0,1,3.24,2.3c.54,8,1.14,16,1.1,24.09a3.6,3.6,0,0,1-2.62,3.33,75.54,75.54,0,0,1-9,2,123.19,123.19,0,0,1-25.25.43,42.87,42.87,0,0,1-23.13-9.27,37.72,37.72,0,0,1-11-14.52,51.1,51.1,0,0,1-4.44-18.91c-.12-3.44-.07-6.9-.07-10.34q0-13.8,0-27.6Z"/><path class="cls-2" d="M941.87,1355v-66.7a15,15,0,0,1,.6-5.67c.24-.63,1-1.07,1.67-1.49a2.07,2.07,0,0,1,1.12-.2q13.79,0,27.58,0a3.73,3.73,0,0,1,3.54,3.71c0,1.14.06,2.29.08,3.44.08,5.75.15,11.49.26,17.23,0,.25.36.57.62.71s.9.38,1.06.23c1.74-1.58,2.54-3.79,3.7-5.77a53,53,0,0,1,9.26-11.67,43.91,43.91,0,0,1,9.28-6.71,33.35,33.35,0,0,1,15.33-4.28c3.83-.09,7.68-.25,11.42.8.64.17,1.16,1,1.63,1.54a2,2,0,0,1,.25,1.1c.53,11.11.38,22.21,0,33.32a4.37,4.37,0,0,1-1,2c-.12.18-.72.12-1.09.06-3-.51-6-1.2-9-1.52a56.75,56.75,0,0,0-8-.16c-9.11.33-16,4.52-20.93,12.16a41.93,41.93,0,0,0-5.56,13.79,92.6,92.6,0,0,0-2.6,19.34c0,5-.18,10-.19,15,0,15.33,0,30.66,0,46,0,1.91-.24,3.81-.36,5.71a3.7,3.7,0,0,1-2.25,2.32,20,20,0,0,1-2.28.29q-14.94,0-29.89,0a4.71,4.71,0,0,1-2.2-.5,3.53,3.53,0,0,1-1.51-1.6c-.71-1.82-.54-3.77-.54-5.68Q941.87,1388.37,941.87,1355Z"/><path class="cls-3" d="M407.61,893.5c-.84-.15-1.93.21-2.19-1.07,0,0,.61-.32.75-.22a15.85,15.85,0,0,1,1.42,1.31Z"/><path class="cls-1" d="M650.62,488.05q0,65.61,0,131.22,0,5.19.07,10.36c0,2.43.79,4.47,3,5.8,2.63,1.58,5.21,3.24,7.82,4.86q22.44,14,44.88,28c2.27,1.42,4.44,3,6.64,4.53a3.24,3.24,0,0,1,.59,3.16c-.56,1-1.1,2-1.71,3q-36.79,59.09-73.63,118.16c-.81,1.29-1.75,2.51-2.63,3.75a2.74,2.74,0,0,1-3.13.47c-2.21-1.51-4.46-3-6.63-4.56q-49.81-36.18-99.61-72.38-2.32-1.69-4.58-3.49a6.73,6.73,0,0,1-2.52-5c-.21-3.05-.26-6.13-.26-9.19q0-37.41,0-74.82c0-3.45-.18-6.9-.27-10.35a3.77,3.77,0,0,0-2.14-2.38c-1.15-.08-2.3-.23-3.44-.23q-27.63,0-55.26,0a16.92,16.92,0,0,0-3.36.54,2,2,0,0,0-1.55,1.52,9,9,0,0,0-.49,2.2c-.08,3.45-.11,6.91-.11,10.36q0,38.57,0,77.12c0,2.69,0,5.37-.13,8a6.19,6.19,0,0,1-2.55,4.91c-7,5.35-14,10.78-21,16.13q-38,29-76,57.9a53,53,0,0,1-4.7,3.31,3.7,3.7,0,0,1-3.32.26c-5.63-2.44-11.24-4.9-16.83-7.43Q262.87,764.46,197.93,735c-3.83-1.74-7.6-3.63-11.4-5.45-.79-.37-.75-2.14.08-2.87,2-1.77,4-3.57,6.08-5.24q28.83-22.92,57.7-45.79,20.73-16.47,41.44-32.94a38.82,38.82,0,0,1,4.76-3.2,2.7,2.7,0,0,1,2.16-.19c5.16,2.55,10.26,5.21,15.38,7.82,1.35.69,2.62,1.6,4.2,1.69a1.59,1.59,0,0,0,1.75-1,3.55,3.55,0,0,0,.35-1.09c.19-8.44.42-16.87-.11-25.31a3.43,3.43,0,0,0-2.37-2.15c-1.53-.08-3.06-.22-4.59-.23-5.75,0-11.51,0-17.26,0q-15.54-.08-31.08-.19c-1.23,0-2.79-1.74-2.89-3.08,0-.38-.12-.76-.14-1.14,0-1.15-.07-2.3-.07-3.45q0-58.71,0-117.41c0-1.54.05-3.07.1-4.6.06-2.31,1.3-3.7,3.35-3.75,3.45-.08,6.9-.16,10.35-.17,11.9,0,23.79,0,35.69,0,1.91,0,3.83-.11,5.75-.18a3.43,3.43,0,0,0,3.13-2.81c.13-2.67.3-5.34.3-8q0-35.68,0-71.37,0-33.37,0-66.76c0-2.3.14-4.6.16-6.9a3.69,3.69,0,0,1,1.71-2.84,13.15,13.15,0,0,1,3-1.64q21.64-9.33,43.31-18.62,56.54-24.3,113-48.61c6.34-2.73,12.6-5.63,18.94-8.37a4.13,4.13,0,0,1,3.35.09,18.74,18.74,0,0,1,2,1.08c1.63,1,3.24,2,4.86,3.07L643.92,338c1,.62,1.91,1.29,2.91,1.86a6.91,6.91,0,0,1,3.78,6.58c-.07,3.45,0,6.91,0,10.36Q650.63,422.43,650.62,488.05ZM384.17,502.87H309.44c-3.07,0-6.14,0-9.2,0-1.15,0-2.3.11-3.44.19a1.76,1.76,0,0,0-1.7,1.27,3.05,3.05,0,0,0,.1,2.14,43.61,43.61,0,0,0,8.5,9.29,83.45,83.45,0,0,0,23.53,14.15c3.19,1.3,6.42,2.49,9.62,3.77a7.59,7.59,0,0,1,3.57,2.78c5.83,8.68,13.21,15.89,21.28,22.44,2.09,1.69,4.2,3.35,6.29,5,.9.71,1.77,1.47,2.71,2.13a5.68,5.68,0,0,1,2.52,4.88q0,14.94,0,29.89a7.44,7.44,0,0,1-.32,2.26,4.34,4.34,0,0,1-1.07,1.94c-2,1.74-4.24,3.29-6.27,5a44.33,44.33,0,0,0-4.08,4,13,13,0,0,0-2.72,5,28,28,0,0,0-1,6.79c-.07,1.2-.8,2.13-1.17,3.2a1.76,1.76,0,0,0,1.46,2.32c10.34.43,20.69.1,31,.19,4.6,0,9.2,0,13.8,0,1.13,0,2.27-.23,3.41-.32a1.16,1.16,0,0,0,1.19-1.58,1.71,1.71,0,0,0-.46-.88,28.46,28.46,0,0,0-9-5c-2.48-1-5.14-1.48-7.41-3a1.93,1.93,0,0,1-.72-.88,9.45,9.45,0,0,1-.58-2.19,7.56,7.56,0,0,1,2.66-7.19c1.78-1.44,3.64-2.81,5.42-4.25a55.57,55.57,0,0,0,4.34-3.75,20.11,20.11,0,0,0,5.68-11.08A23.51,23.51,0,0,0,404.89,576a33.6,33.6,0,0,0-4.56-6.6,40.59,40.59,0,0,0-7.57-7c-3-1.93-3.76-4.56-3.59-7.85a66,66,0,0,0-.11-6.89,9.46,9.46,0,0,0-.62-2.16c-.28-.92-.87-1.13-1.82-1a1.92,1.92,0,0,0-1.69,1.21c-.94,2.17-.45,4.53-.92,6.77-.22,1-.5,1.43-1.46,1.13-.35-.11-.81,0-1.12-.15a5,5,0,0,1-2.44-2.32,28.39,28.39,0,0,1-.86-3.29c-.19-.73-.4-1.46-.66-2.17a1.56,1.56,0,0,0-1.79-1c-1.49.15-3,.43-4.46.54-.86.07-3-2.68-2.63-3.33s1.15-1.35,1.74-1.35c5,0,10,.56,14.92.22,10.69-.75,21.38-1.59,31.9-4a139,139,0,0,0,24-7.79,83,83,0,0,0,16-9A55.62,55.62,0,0,0,471,506.28a2.26,2.26,0,0,0,0-2.14,1.66,1.66,0,0,0-1.8-1.14c-2.68,0-5.36-.12-8-.12Zm68.12-78q0,25.81,0,51.64c0,1.9.22,3.8.36,5.7a3.91,3.91,0,0,0,2.1,2.49,14.69,14.69,0,0,0,2.25.38q28.68,0,57.38,0a10.27,10.27,0,0,0,2.24-.37,2.08,2.08,0,0,0,1.6-1.46,13.08,13.08,0,0,0,.63-3.31q.06-35,0-70a13.32,13.32,0,0,0-.18-2.28,4.71,4.71,0,0,0-1.62-2.94,32,32,0,0,0-2.77-2q-28.49-18.27-57-36.49c-.64-.41-1.37-.68-2-1.07-.81-.49-2.6.32-2.67,1.22-.13,1.9-.34,3.81-.34,5.71Q452.26,398.48,452.29,424.88ZM383.1,497.42h81.75c4.6,0,9.21,0,13.81-.05a27.67,27.67,0,0,0,3.37-.5c.93-.13,1.28-.65,1.47-1.54a2.82,2.82,0,0,0-2.09-3.39,39.92,39.92,0,0,0-8-.36q-37.42,0-74.84,0c-13.81,0-27.63,0-41.45,0-2.29,0-4.59-.2-6.88-.33-.77,0-2.06-1.6-2.13-2.36-.36-3.51.76-6.83,1.31-10.22a54.63,54.63,0,0,1,5.65-16.24,34.13,34.13,0,0,1,11.14-12.95A28.71,28.71,0,0,1,380,444.31c2.29-.2,4.6-.16,6.9-.18a32.87,32.87,0,0,1,14.43,3.44A35.83,35.83,0,0,1,416.14,460a47.26,47.26,0,0,1,5.37,10.13c.93,2.52,1.73,5.08,2.67,7.59.54,1.43,1.23,2.8,1.91,4.17.13.27.54.43.84.59,1,.55,1.42.25,1.56-.85.19-1.49.54-3,.81-4.43.66-.29,1.36-.86,2-.79s1.22.8,1.86,1.18c1.5.89,2.35.86,3.06.11a2.35,2.35,0,0,0,.72-2,72.39,72.39,0,0,0-4.19-19C428,444.33,419.9,435,407.39,430a56.88,56.88,0,0,0-37.2-2.15,50.63,50.63,0,0,0-20,11,54.31,54.31,0,0,0-11.73,15.52,74.48,74.48,0,0,0-6.89,19.46,129.43,129.43,0,0,0-2.33,14.78,3.41,3.41,0,0,1-3.1,2.79c-1.53.08-3.06.23-4.59.23-8.83,0-17.65,0-26.48,0q-4,0-8.05.19a8.91,8.91,0,0,0-2.19.63c-.73.23-1.21,1.79-1,3a1.78,1.78,0,0,0,1.45,1.55c2.25.71,4.55.5,6.84.51Zm0,138.3h0c-8.79,0-17.58,0-26.36,0-1.51,0-3,.26-4.53.41s-2.26,2.17-1.44,3.53a2.32,2.32,0,0,0,1.7,1.33,34.5,34.5,0,0,0,4.52.49q25.22,0,50.42,0c.77,0,1.53,0,2.29-.09a6,6,0,0,0,1.13-.16c.37-.09.7-.28,1.06-.37a3.56,3.56,0,0,0,1.93-2.58,2.64,2.64,0,0,0-2.1-2.29c-1.52-.11-3-.29-4.56-.29C399.16,635.71,391.14,635.72,383.12,635.72Z"/><path class="cls-1" d="M1887.27,684.94c.23-4.58.35-9.18.7-13.76a74.72,74.72,0,0,1,7.88-27.43A58.88,58.88,0,0,1,1913,622.46,52.2,52.2,0,0,1,1937,612c1.89-.29,3.77-.69,5.67-.9a38,38,0,0,1,5.73-.33c15.08.67,28.46,5.4,39.3,16.36a66,66,0,0,1,11.07,14.6,82.74,82.74,0,0,1,9.35,28.19c.11.75.16,1.52.26,2.28,2,15.87,1.81,15-.28,29.71a74.34,74.34,0,0,1-17.9,39.16,57.09,57.09,0,0,1-25.38,17.19,52.29,52.29,0,0,1-22.63,2.55,59.61,59.61,0,0,1-17.72-4.54c-10.48-4.72-18.44-12.21-24.49-21.85a80.59,80.59,0,0,1-9.29-22.16A110.2,110.2,0,0,1,1887.27,684.94Z"/><path class="cls-1" d="M2269.53,686c.44-5.61.6-9.45,1.07-13.25,1.65-13.52,6-26.09,13.84-37.3,7.26-10.34,16.76-17.82,28.87-21.65,8.48-2.68,17.14-3.92,26.06-2.31,5.67,1,11.24,2.27,16.47,4.79a56.33,56.33,0,0,1,21.09,17.33,71.41,71.41,0,0,1,11.12,22.53,96.08,96.08,0,0,1,3.51,36.36c-.35,3.81-.73,7.63-1.36,11.4-1.93,11.45-5.63,22.28-12,32-7.43,11.26-17.46,19.26-30.58,22.92a56.67,56.67,0,0,1-22.72,1.87,55.74,55.74,0,0,1-31.56-15.12c-8.56-8-14.46-17.69-18.54-28.65C2270.81,706.3,2269.88,695.31,2269.53,686Z"/><path class="cls-1" d="M1598.2,658.22q-24.1,0-48.2,0c-1.89,0-3.78-.26-5.67-.4a3.5,3.5,0,0,1-2.15-2.43,68.42,68.42,0,0,1,12-36.52,47.26,47.26,0,0,1,22.08-17.62,55.82,55.82,0,0,1,16.77-3.5,69.05,69.05,0,0,1,19.42,1.24c13.68,2.94,24.72,9.94,31.94,22.27a55.62,55.62,0,0,1,5.44,12.6,76,76,0,0,1,3.29,20.3,4.39,4.39,0,0,1-.52,2.2,3,3,0,0,1-1.65,1.42,36.17,36.17,0,0,1-5.69.44Q1621.72,658.25,1598.2,658.22Z"/><path class="cls-1" d="M2687,658.22q-22.38,0-44.76,0c-2.3,0-4.59-.09-6.88-.17a3.29,3.29,0,0,1-3-2.85,30,30,0,0,1,.13-3.43,93.58,93.58,0,0,1,4.7-18.89,63.16,63.16,0,0,1,7.43-14.19,48.19,48.19,0,0,1,27.63-19.28,61.55,61.55,0,0,1,7.91-1.31A66.6,66.6,0,0,1,2703,599c15,3.2,26.55,11.34,33.46,25.4a63.38,63.38,0,0,1,6.35,21.9c.3,3,.8,6.07.21,9.13-.16.85-1.38,2.39-2.13,2.43-1.9.12-3.8.31-5.7.31q-24.11,0-48.2,0Z"/><path class="cls-1" d="M1958.05,1354.3c-.2,9.44-.78,16.68-3.17,23.64a56.87,56.87,0,0,1-4,9.48,32.55,32.55,0,0,1-8,9.63,23.64,23.64,0,0,1-13.62,5.46c-1.91.11-3.83.14-5.73.06A26.36,26.36,0,0,1,1906,1395a35.09,35.09,0,0,1-6.88-9.12,54.53,54.53,0,0,1-6-18.47,83.25,83.25,0,0,1-.34-21.74,58.41,58.41,0,0,1,7.16-21.63,33.88,33.88,0,0,1,5.56-7.27,28.17,28.17,0,0,1,20.51-8.82,27.57,27.57,0,0,1,11.18,2.09,26.48,26.48,0,0,1,10.76,8.34,36.92,36.92,0,0,1,5.16,8.9,56.63,56.63,0,0,1,4.31,16.6C1957.75,1348,1957.93,1352.24,1958.05,1354.3Z"/><path class="cls-1" d="M1614.07,1353.47a68.28,68.28,0,0,1-4.47,27.1,41.82,41.82,0,0,1-6.87,11.87,29,29,0,0,1-14.18,9.31,15,15,0,0,1-3.38.62c-2.29.14-4.59.28-6.88.21-7.29-.21-13.27-3.32-18.18-8.58a37,37,0,0,1-5.75-8.54,50.21,50.21,0,0,1-4.21-11.88,81.7,81.7,0,0,1-.21-36.45,57.41,57.41,0,0,1,4.6-13,31.4,31.4,0,0,1,8.57-10.66,24.48,24.48,0,0,1,13.64-5.46,44,44,0,0,1,4.59-.09,28.16,28.16,0,0,1,17.75,7.11,32.32,32.32,0,0,1,7.21,8.88,60.46,60.46,0,0,1,7.75,26.18A22.6,22.6,0,0,1,1614.07,1353.47Z"/><path class="cls-1" d="M2060,1353.31a56.64,56.64,0,0,1,3-20.24,46.13,46.13,0,0,1,4.54-9.28,34,34,0,0,1,21-15.06,37.49,37.49,0,0,1,10.3-.78,33.29,33.29,0,0,1,9,1.56c9.81,3,16.51,9.46,21,18.37a44.67,44.67,0,0,1,3.75,10.83,67.39,67.39,0,0,1,.52,26.28c-.79,4.54-1.29,9.09-3,13.45a49.62,49.62,0,0,1-5.13,10.25,31.26,31.26,0,0,1-18.37,13,17.19,17.19,0,0,1-3.4.6c-3.06.16-6.13.4-9.18.28-11.69-.44-20.37-6-26.38-15.89a50.94,50.94,0,0,1-6.44-18.34A86.79,86.79,0,0,1,2060,1353.31Z"/><path class="cls-1" d="M2552.66,1340.44c-8.4,0-16.81,0-25.21,0-1.51,0-3-.25-4.53-.35a2.8,2.8,0,0,1-1.89-2.49c.34-8.39,3.7-15.54,9.19-21.7a26.74,26.74,0,0,1,13.52-8.18,43.33,43.33,0,0,1,10.14-1.6,33.55,33.55,0,0,1,13.41,2.58,25,25,0,0,1,11.93,10.35,33.11,33.11,0,0,1,4.74,11.6c.39,2.26.84,4.5,1.25,6.75.18,1-.79,2.53-1.67,2.61-1.51.13-3,.43-4.52.43-8.79,0-17.57,0-26.36,0Z"/><path class="cls-1" d="M841.69,1340.45q-12,0-24.05,0c-1.9,0-3.82,0-5.71-.2a3.31,3.31,0,0,1-2.07-.81,2.88,2.88,0,0,1-.52-2.1,53.06,53.06,0,0,1,1.34-6.73,36.44,36.44,0,0,1,6.67-13.18,29,29,0,0,1,15.1-9.78,35.86,35.86,0,0,1,12.43-1.47,31.07,31.07,0,0,1,14.11,4.21,27,27,0,0,1,10.5,11.81,48.44,48.44,0,0,1,3,8.63,45,45,0,0,1,.79,6.79,2.54,2.54,0,0,1-1.87,2.47c-1.51.12-3,.34-4.53.35-8.4,0-16.8,0-25.19,0Z"/><path class="cls-1" d="M2872.84,1340.44c-8.4,0-16.8,0-25.19,0-1.51,0-3-.22-4.53-.34a2.75,2.75,0,0,1-1.92-2.45,34.2,34.2,0,0,1,10.75-23.32c5.14-5,11.63-7.13,18.58-8a34,34,0,0,1,16.84,2.34,23.56,23.56,0,0,1,9.19,6.67,33.23,33.23,0,0,1,7.22,14.13c.63,2.59,1.06,5.24,1.44,7.88a2.82,2.82,0,0,1-.55,2.09,3.31,3.31,0,0,1-2.06.82c-1.9.16-3.81.21-5.72.21q-12,0-24,0Z"/><path class="cls-1" d="M1764.66,1361l12.62.43a3.32,3.32,0,0,1,2.18,2.34c0,.38.19.75.19,1.13a47.74,47.74,0,0,1-3,16.88c-2.91,8.23-8.07,14.74-16,18.81a34.67,34.67,0,0,1-14.27,4,36.65,36.65,0,0,1-14.65-2.28,16.48,16.48,0,0,1-10.37-10,17.87,17.87,0,0,1-.88-7.93,20.5,20.5,0,0,1,5.38-12.4,25.18,25.18,0,0,1,9.4-6.43,63.05,63.05,0,0,1,20.15-4.21c3-.16,6.12,0,9.19,0Z"/><path class="cls-1" d="M1254.09,1361c3.83.13,7.65.26,11.47.41a3.24,3.24,0,0,1,2.11,2.39c-.22,8.64-1.19,14.57-3.7,20.18-3.22,7.19-8,13-15.19,16.63a34.21,34.21,0,0,1-24.51,2.93,43.79,43.79,0,0,1-4.41-1.29,16.29,16.29,0,0,1-9.86-9,11.21,11.21,0,0,1-.92-3.29,39.2,39.2,0,0,1-.19-5.73c.3-6.59,3.4-11.69,8.68-15.45a33.85,33.85,0,0,1,12.55-5.48,78.17,78.17,0,0,1,18.22-2.14c1.92,0,3.83,0,5.75,0Z"/><path class="cls-2" d="M384.17,502.87h77c2.68,0,5.36.13,8,.12a1.66,1.66,0,0,1,1.8,1.14,2.26,2.26,0,0,1,0,2.14,55.62,55.62,0,0,1-13.87,13.63,83,83,0,0,1-16,9,139,139,0,0,1-24,7.79c-10.52,2.38-21.21,3.22-31.9,4-4.94.34-9.95-.21-14.92-.22-.59,0-1.36.75-1.74,1.35s1.77,3.4,2.63,3.33c1.49-.11,3-.39,4.46-.54a1.56,1.56,0,0,1,1.79,1c.26.71.47,1.44.66,2.17a28.39,28.39,0,0,0,.86,3.29,5,5,0,0,0,2.44,2.32c.31.16.77,0,1.12.15,1,.3,1.24-.09,1.46-1.13.47-2.24,0-4.6.92-6.77a1.92,1.92,0,0,1,1.69-1.21c.95-.13,1.54.08,1.82,1a9.46,9.46,0,0,1,.62,2.16,66,66,0,0,1,.11,6.89c-.17,3.29.61,5.92,3.59,7.85a40.59,40.59,0,0,1,7.57,7,33.6,33.6,0,0,1,4.56,6.6,23.51,23.51,0,0,1,2.51,15.59,20.11,20.11,0,0,1-5.68,11.08,55.57,55.57,0,0,1-4.34,3.75c-1.78,1.44-3.64,2.81-5.42,4.25a7.56,7.56,0,0,0-2.66,7.19,9.45,9.45,0,0,0,.58,2.19,1.93,1.93,0,0,0,.72.88c2.27,1.48,4.93,2,7.41,3a28.46,28.46,0,0,1,9,5,1.71,1.71,0,0,1,.46.88,1.16,1.16,0,0,1-1.19,1.58c-1.14.09-2.28.31-3.41.32-4.6,0-9.2.06-13.8,0-10.34-.09-20.69.24-31-.19a1.76,1.76,0,0,1-1.46-2.32c.37-1.07,1.1-2,1.17-3.2a28,28,0,0,1,1-6.79,13,13,0,0,1,2.72-5,44.33,44.33,0,0,1,4.08-4c2-1.74,4.23-3.29,6.27-5a4.34,4.34,0,0,0,1.07-1.94,7.44,7.44,0,0,0,.32-2.26q0-14.94,0-29.89a5.68,5.68,0,0,0-2.52-4.88c-.94-.66-1.81-1.42-2.71-2.13-2.09-1.67-4.2-3.33-6.29-5-8.07-6.55-15.45-13.76-21.28-22.44a7.59,7.59,0,0,0-3.57-2.78c-3.2-1.28-6.43-2.47-9.62-3.77a83.45,83.45,0,0,1-23.53-14.15,43.61,43.61,0,0,1-8.5-9.29,3.05,3.05,0,0,1-.1-2.14,1.76,1.76,0,0,1,1.7-1.27c1.14-.08,2.29-.18,3.44-.19,3.06,0,6.13,0,9.2,0Zm11.15,97.69a12.5,12.5,0,0,0,1.87-1.31,19.29,19.29,0,0,0,5.25-10,11.88,11.88,0,0,0-.22-5.68,26.51,26.51,0,0,0-5.29-10.07,42.86,42.86,0,0,0-7.52-7c-3.67-2.73-7.32-5.51-11.05-8.19a126.47,126.47,0,0,1-19.93-17.18,10.25,10.25,0,0,0-1.64-1.59,8.62,8.62,0,0,0-6.35-1.84c-.3.05-.8.49-.77.68a4.82,4.82,0,0,0,.68,2.15c4.45,5.81,10,10.49,15.71,15,7.2,5.69,14.55,11.17,21.81,16.77,1.82,1.39,3.59,2.85,5.28,4.39a17.07,17.07,0,0,1,3.89,5.62,10.06,10.06,0,0,1,0,8.86c-1.14,2.4-2.56,4.67-3.86,7a12.38,12.38,0,0,0-3.83,2.42c-.92.67-2,1.17-2.95,1.75l-1.75-1.18c-.78-5.7-.21-11.44-.4-17.16-.07-2.29-.16-4.58-.42-6.84-.08-.66-.76-1.27-1.22-1.85-.23-.28-.63-.43-.89-.69a2,2,0,0,0-2.13-.4,1.41,1.41,0,0,0-1.22,1.56c-.4,14.14-.27,28.28,0,42.42,0,.33.36.66.53,1a2.76,2.76,0,0,0,1.69,1.44,2.88,2.88,0,0,0,3.39-2.17c.21-2.66.35-5.33.65-8a3.11,3.11,0,0,1,1.08-1.91c2.44-1.84,5-3.48,7.45-5.34A14.2,14.2,0,0,0,395.32,600.56Z"/><path class="cls-2" d="M452.28,424.88q0-26.4,0-52.79c0-1.9.21-3.81.34-5.71.07-.9,1.86-1.71,2.67-1.22.65.39,1.38.66,2,1.07q28.5,18.22,57,36.49a32,32,0,0,1,2.77,2,4.71,4.71,0,0,1,1.62,2.94,13.32,13.32,0,0,1,.18,2.28q0,35,0,70a13.08,13.08,0,0,1-.63,3.31,2.08,2.08,0,0,1-1.6,1.46,10.27,10.27,0,0,1-2.24.37q-28.69,0-57.38,0a14.69,14.69,0,0,1-2.25-.38,3.91,3.91,0,0,1-2.1-2.49c-.14-1.9-.36-3.8-.36-5.7Q452.26,450.69,452.28,424.88Z"/><path class="cls-2" d="M383.1,497.42h-91c-2.29,0-4.59.2-6.84-.51a1.78,1.78,0,0,1-1.45-1.55c-.21-1.16.27-2.72,1-3a8.91,8.91,0,0,1,2.19-.63q4-.19,8.05-.19c8.83,0,17.65,0,26.48,0,1.53,0,3.06-.15,4.59-.23a3.41,3.41,0,0,0,3.1-2.79,129.43,129.43,0,0,1,2.33-14.78,74.48,74.48,0,0,1,6.89-19.46,54.31,54.31,0,0,1,11.73-15.52,50.63,50.63,0,0,1,20-11,56.88,56.88,0,0,1,37.2,2.15C419.9,435,428,444.33,432.72,456.71a72.39,72.39,0,0,1,4.19,19,2.35,2.35,0,0,1-.72,2c-.71.75-1.56.78-3.06-.11-.64-.38-1.2-1.11-1.86-1.18s-1.31.5-2,.79c-.27,1.47-.62,2.94-.81,4.43-.14,1.1-.56,1.4-1.56.85-.3-.16-.71-.32-.84-.59-.68-1.37-1.37-2.74-1.91-4.17-.94-2.51-1.74-5.07-2.67-7.59A47.26,47.26,0,0,0,416.14,460a35.83,35.83,0,0,0-14.77-12.47,32.87,32.87,0,0,0-14.43-3.44c-2.3,0-4.61,0-6.9.18a28.71,28.71,0,0,0-13.85,5.14,34.13,34.13,0,0,0-11.14,12.95,54.63,54.63,0,0,0-5.65,16.24c-.55,3.39-1.67,6.71-1.31,10.22.07.76,1.36,2.32,2.13,2.36,2.29.13,4.59.33,6.88.33,13.82,0,27.64,0,41.45,0q37.43,0,74.84,0a39.92,39.92,0,0,1,8,.36,2.82,2.82,0,0,1,2.09,3.39c-.19.89-.54,1.41-1.47,1.54a27.67,27.67,0,0,1-3.37.5c-4.6.07-9.21.05-13.81.05Zm-47.74-10.34c.14.73.3,1.46.43,2.2a2.15,2.15,0,0,0,2.8,1c.57-.45,1.29-1,1.41-1.67a52.34,52.34,0,0,0,.94-6.81,47.39,47.39,0,0,1,2.38-11.19c2.45-7.71,5.81-15,11.24-21.1A37.14,37.14,0,0,1,376,437.24a54.2,54.2,0,0,1,18.28,0,15.79,15.79,0,0,1,3.35.75c3.92,1.51,7.91,2.86,11.36,5.38a13.6,13.6,0,0,0,2.91,1.76,4,4,0,0,0,2.2-.06c1-.22,1.63-2.18,1-2.79-4.73-4.74-10.61-7.39-16.93-9.18-2.2-.62-4.48-1-6.73-1.41a32.64,32.64,0,0,0-11.41-.17c-2.27.34-4.53.77-6.76,1.3A42.28,42.28,0,0,0,351,446c-5.45,6.1-8.76,13.38-11.87,20.79C337.47,473.5,335.65,480.15,335.36,487.08Zm95.27-11.54a5.51,5.51,0,0,0-.78-.75c-.48-.31-1,0-1.49.77,0,.09.44.55.74.74C429.58,476.6,430.11,476.31,430.63,475.54Z"/><path class="cls-2" d="M383.12,635.72c8,0,16,0,24.06,0,1.52,0,3,.18,4.56.29a2.64,2.64,0,0,1,2.1,2.29,3.56,3.56,0,0,1-1.93,2.58c-.36.09-.69.28-1.06.37a6,6,0,0,1-1.13.16c-.76.05-1.52.09-2.29.09q-25.21,0-50.42,0a34.5,34.5,0,0,1-4.52-.49,2.32,2.32,0,0,1-1.7-1.33c-.82-1.36,0-3.39,1.44-3.53s3-.41,4.53-.41c8.78,0,17.57,0,26.36,0Z"/><path class="cls-1" d="M393.23,598.13c1.3-2.32,2.72-4.59,3.86-7a10.06,10.06,0,0,0,0-8.86,17.07,17.07,0,0,0-3.89-5.62c-1.69-1.54-3.46-3-5.28-4.39-7.26-5.6-14.61-11.08-21.81-16.77-5.69-4.5-11.26-9.18-15.71-15a4.82,4.82,0,0,1-.68-2.15c0-.19.47-.63.77-.68a8.62,8.62,0,0,1,6.35,1.84,10.25,10.25,0,0,1,1.64,1.59,126.47,126.47,0,0,0,19.93,17.18c3.73,2.68,7.38,5.46,11.05,8.19a42.86,42.86,0,0,1,7.52,7,26.51,26.51,0,0,1,5.29,10.07,11.88,11.88,0,0,1,.22,5.68,19.29,19.29,0,0,1-5.25,10,12.5,12.5,0,0,1-1.87,1.31Z"/><path class="cls-1" d="M395.32,600.56a14.2,14.2,0,0,1-2.14,2.63c-2.42,1.86-5,3.5-7.45,5.34a3.11,3.11,0,0,0-1.08,1.91c-.3,2.65-.44,5.32-.65,8a2.88,2.88,0,0,1-3.39,2.17,2.76,2.76,0,0,1-1.69-1.44c-.17-.33-.53-.66-.53-1-.24-14.14-.37-28.28,0-42.42a1.41,1.41,0,0,1,1.22-1.56,2,2,0,0,1,2.13.4c.26.26.66.41.89.69.46.58,1.14,1.19,1.22,1.85.26,2.26.35,4.55.42,6.84.19,5.72-.38,11.46.4,17.16l1.75,1.18c1-.58,2-1.08,2.95-1.75a12.38,12.38,0,0,1,3.83-2.42Z"/><path class="cls-1" d="M335.36,487.08c.29-6.93,2.11-13.58,3.78-20.26,3.11-7.41,6.42-14.69,11.87-20.79a42.28,42.28,0,0,1,22.31-13.23c2.23-.53,4.49-1,6.76-1.3a32.64,32.64,0,0,1,11.41.17c2.25.45,4.53.79,6.73,1.41,6.32,1.79,12.2,4.44,16.93,9.18.61.61,0,2.57-1,2.79a4,4,0,0,1-2.2.06,13.6,13.6,0,0,1-2.91-1.76c-3.45-2.52-7.44-3.87-11.36-5.38a15.79,15.79,0,0,0-3.35-.75,54.2,54.2,0,0,0-18.28,0,37.14,37.14,0,0,0-21.47,12.27c-5.43,6.14-8.79,13.39-11.24,21.1a47.39,47.39,0,0,0-2.38,11.19,52.34,52.34,0,0,1-.94,6.81c-.12.63-.84,1.22-1.41,1.67a2.15,2.15,0,0,1-2.8-1C335.66,488.54,335.5,487.81,335.36,487.08Z"/><path class="cls-1" d="M430.63,475.54c-.52.77-1.05,1.06-1.53.76-.3-.19-.78-.65-.74-.74.45-.8,1-1.08,1.49-.77A5.51,5.51,0,0,1,430.63,475.54Z"/></svg>
