<?xml version="1.0" encoding="utf-8"?>
<!-- Generator: Adobe Illustrator 24.0.2, SVG Export Plug-In . SVG Version: 6.00 Build 0)  -->
<svg width="300px" height="52px" version="1.1" id="Ebene_1" xmlns="http://www.w3.org/2000/svg" xmlns:xlink="http://www.w3.org/1999/xlink" x="0px" y="0px"
	 viewBox="0 0 511.4 88.8" style="enable-background:new 0 0 511.4 88.8;" xml:space="preserve">
<style type="text/css">
	.st0{fill:#030303;}
	.st1{fill:#D3D702;}
	.st2{fill:#94C01F;}
	.st3{fill:#C6C6C6;}
	.st4{fill:#FEEC03;}
	.st5{fill:#FEFEFD;}
</style>
<title>logo-pharmeo</title>
<path class="st0" d="M257.4,88.8c0.9-4.8,1.6-9.6,2-14.5c0.5-0.1,1.1-0.1,1.6,0c0.3,0.4,0.1,0.8,0.2,1.2c0.6-0.4,1.1-0.8,1.7-1.1
	c1.5-0.9,3.4-0.4,4.3,1.1c0.3,0.5,0.5,1.1,0.4,1.8c0.1,1.4-0.1,2.9-0.8,4.2c-1.3,2.6-3.3,3.6-7,3.3c-0.1,0.9-0.4,1.8-0.4,2.8
	c0,0.5-0.3,1-0.7,1.3L257.4,88.8z M260.3,82.9c1.6,0.9,3.7,0.3,4.6-1.3c0.8-1.3,1.2-2.9,0.9-4.5c-0.1-0.8-0.7-1.4-1.5-1.4
	c-1.5,0.1-2.8,1-3.2,2.5C260.8,79.7,260.5,81.3,260.3,82.9L260.3,82.9z"/>
<path class="st0" d="M436.4,88.8c0.9-4.8,1.6-9.6,2-14.5c0.5-0.1,1.1-0.1,1.6,0c0.3,0.4,0.1,0.8,0.2,1.2c0.6-0.4,1.2-0.8,1.8-1.1
	c1.5-0.9,3.4-0.4,4.3,1.1c0.3,0.5,0.5,1.1,0.4,1.7c0.1,1.4-0.2,2.9-0.8,4.2c-1.3,2.6-3.3,3.6-7,3.3c-0.1,0.9-0.4,1.8-0.4,2.8
	c0,0.5-0.3,1-0.7,1.2H436.4z M439.2,82.9c1.7,0.9,3.8,0.3,4.7-1.4c0.8-1.3,1.1-2.8,0.8-4.2c-0.1-0.8-0.7-1.5-1.6-1.6
	c-1.5,0.1-2.7,1.1-3.2,2.5C439.7,79.7,439.5,81.3,439.2,82.9L439.2,82.9z"/>
<path class="st1" d="M0,1c0.3-0.3,0.7-0.6,1.1-0.8C1.9-0.2,2.9,0,3.3,0.8c0.5,0.7,0.4,1.7-0.2,2.3C2.5,3.7,1.5,3.8,0.8,3.3
	C0.5,3.1,0.2,2.9,0,2.7V1z"/>
<path class="st2" d="M41.7,39.4c0-16.6,10.4-32.2,25-37.8c1.4-0.5,2.8-0.9,4.2-1.3c0.8-0.2,1.1,0,1.4,0.8c2.2,5.6,2.9,11.7,2,17.6
	c-1.4,10.8-7,20.6-15.7,27.3c-3.9,3-8.3,5.2-13.1,6.4c-0.9,0.2-1.3,0-1.6-0.9C42.4,47.7,41.7,43.5,41.7,39.4z"/>
<path class="st2" d="M243.9,53.1h-5.8c0.5-2.6,1.1-5.1,1.6-7.6c1.4-6.5,2.8-12.9,4.1-19.4c0.3-1.4,0.7-3-0.6-4s-2.9-0.7-4.3-0.1
	c-3.8,1.6-6.7,4.4-9.3,7.5c-0.4,0.7-0.6,1.6-0.7,2.4c-1.5,6.9-2.9,13.8-4.4,20.7c-0.1,0.2-0.1,0.4-0.2,0.6H219
	c0.3-2,0.7-3.9,1.1-5.8c1.6-7.6,3.2-15.1,4.8-22.7c0.4-1.7,0.4-3.5,0-5.2c-0.1-0.4-0.2-0.8,0.4-1.1c1.6-0.7,3.1-1.4,4.7-2.2
	c1.2,2.4,1,4.9,0.6,7.5c1.2-1.1,2.3-2.2,3.4-3.2c2.3-2.1,5.3-3.5,8.4-4c4.5-0.5,7,1.7,7.3,6.1c0,0.3,0,0.6,0,1.2
	c0.8-0.8,1.4-1.4,2-2c2.7-2.6,5.7-4.7,9.4-5.4c5.7-1.1,9.7,2.7,8.6,8.5c-1.3,6.9-2.8,13.7-4.3,20.6c-0.5,2.5-1.1,5-1.6,7.5H258
	c0.6-3,1.3-6,1.9-8.9c1.2-5.7,2.4-11.3,3.6-17c0.1-0.5,0.2-1,0.2-1.5c0.3-3.4-1.8-4.9-5.1-3.8c-2,0.8-3.9,2-5.4,3.4
	c-0.6,0.5-1.2,1.2-1.9,1.7c-2.7,2-2.9,5.1-3.6,8.1C246.5,41,245.2,47,243.9,53.1z"/>
<path class="st0" d="M88.6,18.6l5.3-2.4c1.3,2.2,1,4.6,0.8,7.1c0.7-0.7,1.3-1.3,2-1.9c3.3-3,7.1-5,11.7-4.8c3.4,0,6.4,2.3,7.5,5.5
	c1.4,3.7,1.1,7.4,0.5,11.2c-0.6,4.2-2.1,8.3-4.2,12c-4.7,7.9-14.5,11-22.8,7.3l-0.6-0.2c-0.5,2.2-1,4.3-1.4,6.5
	c-0.5,2.5-1.1,5-1.6,7.5c-0.1,0.4-0.1,0.8-0.6,0.8c-1.8,0.3-3.5,0.6-5.4,1c0.8-3.6,1.5-7.1,2.3-10.6l6.6-31.3
	C89.3,23.8,89.3,21.1,88.6,18.6z M110.6,28.6c0-0.6,0-1.2,0-1.8c-0.3-4.1-2.7-6-6.8-5c-4.5,1-7.5,4.1-10.2,7.6
	c-0.1,0.2-0.2,0.4-0.2,0.7c-1.1,5.4-2.3,10.8-3.4,16.1c-0.2,0.6,0.1,1.3,0.7,1.5c5.3,3,12.3,1.7,15.6-3.7
	C109,39.4,110.5,34.1,110.6,28.6L110.6,28.6z"/>
<path class="st0" d="M130.8,2.3l6-2.3c0.3,0.8,0.5,1.6,0.5,2.5c0.3,4.8-0.8,9.5-1.8,14.2c-0.5,2.2-1.1,4.4-1.7,6.9
	c1.6-1.8,3.4-3.4,5.5-4.6c2.3-1.4,4.9-2.2,7.6-2.4c5.8-0.5,9.4,3.3,8.3,9c-1.6,8-3.3,15.9-5,23.8c-0.3,1.3-0.6,2.6-0.8,3.9h-5.6
	c0.4-1.9,0.8-3.8,1.2-5.6c1.4-6.8,2.9-13.5,4.3-20.3c1-4.7-1.5-6.9-6-5.4c-4.1,1.5-7.6,4.1-10.2,7.6c-1,1.2-0.8,3-1.2,4.6
	c-1.3,6.1-2.6,12.3-3.9,18.5c0,0.2-0.1,0.4-0.2,0.6H122c1.4-6.8,2.9-13.6,4.3-20.4c1.5-7.2,3.1-14.5,4.5-21.7
	C131.5,8.1,131.4,5.2,130.8,2.3z"/>
<path class="st0" d="M188.7,51l-4.5,3.5c-2.2-2-2.9-4.4-2.8-7.5c-0.7,1.1-1.5,2.1-2.5,3c-2.7,2.6-6.3,3.9-10,3.8
	c-4.1,0-7.4-3-8.1-7.5c-1.2-7.3,0.5-14.9,4.7-21c2.8-4.4,7.3-7.5,12.4-8.5c5-1.2,10.2-0.4,14.5,2.4c-0.8,3.2-1.6,6.3-2.3,9.5
	c-1,5-2.1,10-3.1,15.1C186.5,46.3,186.4,48.9,188.7,51z M166.2,41.9c0,1.1,0,2.2,0.3,3.2c0.3,2.2,2.2,3.8,4.4,3.7
	c1.5,0.1,3-0.3,4.3-1.1c2.5-1.5,4.5-3.5,6-6c0.4-0.6,0.8-1.3,1-2c1.2-5.7,2.4-11.3,3.6-17c0.1-0.7,0-1.1-0.7-1.3
	c-2.3-0.7-4.7-0.8-6.9-0.1c-4.1,1.1-6.8,4-8.8,7.6C167.4,33,166.3,37.4,166.2,41.9L166.2,41.9z"/>
<path class="st2" d="M343.3,30.8c-0.4,7-2.4,13.3-7.6,18.3c-4,4-9.7,5.8-15.3,4.7c-4.8-0.6-8.5-4.4-8.9-9.2
	c-1.1-8.9,0.8-17,7.4-23.5c4-4,9.6-5.8,15.1-4.7c5.4,0.8,8.9,5,9.2,10.8C343.4,28.3,343.4,29.6,343.3,30.8z M337,29.4
	c0-0.8,0.1-1.5,0-2.3c-0.3-3.3-2.1-5.5-5.1-6.1c-3.6-0.9-7.3,0.5-9.5,3.4c-4.7,5.9-5.6,12.9-4.7,20.1c0.3,2.5,2.1,4.1,4.7,4.6
	c4.3,0.8,7.7-0.9,10.2-4.3C336,40.3,336.9,34.9,337,29.4z"/>
<path class="st2" d="M300,45.2l2.3,3.3c-2.5,2.8-5.9,4.6-9.7,5.1c-2.3,0.4-4.7,0.5-7,0.2c-5-0.8-8.5-4.3-9.4-9.5
	c-1.4-7.3,1.4-19.6,10.8-25.4c3.3-2.1,7.2-3,11-2.4c6.4,0.8,9.7,6.6,7.4,12.7c-1.5,4-4.7,6.1-8.7,7.1s-8.1,1-12.1,0.9h-1.9
	c-0.5,2.9-1,5.7,0.4,8.4c1,2.1,3,3.4,5.3,3.6c3.7,0.4,7.5-0.7,10.4-3.1c0.3-0.2,0.6-0.5,0.8-0.7C299.8,45.3,299.9,45.2,300,45.2z
	 M283.7,32.6c0.2,0.1,0.4,0.2,0.5,0.2c3.5,0.2,7,0,10.5-0.7c2.4-0.4,4.4-2.1,5.3-4.4c1.1-3.2-0.4-6.1-3.4-6.7
	c-1.7-0.4-3.5-0.2-5,0.6C287.1,23.8,285.1,28,283.7,32.6z"/>
<path class="st1" d="M19.3,19.6c1.8,0.4,3.5,1.1,5,2c7,4,12,9.8,15.6,16.9c0.3,0.7,0.3,1.5,0.3,2.2c0.2,3.9,1,7.8,2.4,11.4
	C31.6,49.6,18.3,32.5,19.3,19.6z"/>
<path class="st3" d="M369.6,49.3c-1.5,2-3.6,3.5-6,4.2c-4.8,1.3-8.5-1.2-8.8-6.2c-0.6-5.4,1-10.7,4.4-14.9c3.1-4.1,8.3-6,13.3-5.1
	c0.9,0.1,1.4,0.1,1.6-1c0.3-1.8,0.6-3.5,0.8-5.3c0-1.2-0.1-2.4-0.3-3.6c1.2-0.5,2.4-1,3.7-1.4c0.7-0.2,0.8,0.4,0.8,0.9
	c0.2,2.7,0,5.3-0.6,7.9c-1.6,7.2-3.4,14.4-4.8,21.6c-0.4,1.9-0.5,3.8,1,5.4c-0.8,1.1-2.1,1.6-3,2.6
	C370.2,53.1,369.4,51.2,369.6,49.3z M358.9,45.4c0,0.5,0,1,0,1.4c0,2,1.6,3.6,3.5,3.6c0.4,0,0.7,0,1-0.1c2.8-0.6,6.4-4.2,6.9-7
	c0.8-3.7,1.5-7.4,2.3-11.1c0.2-1-0.1-1.4-1-1.6c-2.9-0.7-5.9,0.1-8,2.1C360,36.1,359.1,40.6,358.9,45.4L358.9,45.4z"/>
<path class="st0" d="M201.6,53.1h-5.6c0.7-3.1,1.4-6.1,2-9.2c1.3-6.6,3-13.2,4.1-19.9c0.3-1.8,0.1-3.7-0.4-5.5l5.2-2.4
	c1.4,2.6,1,5.2,0.5,8.1c3.8-4.4,7.4-8.9,14.2-7.7l-2.5,6.3c-4.4-1-7.2,1.5-10,4.2s-3.3,6-4.1,9.4C204,41.9,202.8,47.5,201.6,53.1z"
	/>
<path class="st4" d="M7,31c4.5-0.8,8.7-0.1,12.9,1.2c0.5,0.2,0.6,0.7,0.9,1.1c3.2,7,8.3,13,14.7,17.4c1.9,1.2,3.9,2.2,6,3
	C29.9,55.2,10.7,44.1,7,31z"/>
<path class="st3" d="M397.4,48.2c0.1,0.2,0.2,0.3,0.3,0.4c1.6,2.2,1.6,2.3-0.8,3.8c-3.3,2-7.2,2.6-10.9,1.6
	c-3.1-0.7-5.3-3.4-5.5-6.5c-1-6,1.1-12.1,5.5-16.3c2.7-2.9,6.9-4.2,10.8-3.3c3.9,0.8,5.4,3.8,4.9,7.3c-0.5,3.7-3.3,6.1-7.3,6.8
	c-2.6,0.5-5.2,0.6-7.7,0.5c-1.1,0-1.6,0.2-1.7,1.4c-0.2,2-0.2,3.8,1.1,5.5s3.3,2,5.3,1.7c2-0.2,4-1,5.5-2.4
	C397,48.4,397.2,48.3,397.4,48.2z M385.9,39.3c2.1,0.1,4.1,0,6.2-0.2c1.4-0.1,2.8-0.7,4-1.5c1.4-1.2,1.8-3.1,1.2-4.8
	c-0.6-1.5-2-2.1-4.1-1.9c-1.9,0.2-3.6,1.2-4.7,2.8C387.3,35.3,386.3,37.2,385.9,39.3z"/>
<path class="st0" d="M387.5,69.7h2c-0.8,5-1.6,10-2.4,14.9c-0.7,0.2-1.3,0.2-2,0.1c0.4-2.3,0.7-4.6,1.1-6.9h-7
	c-0.4,2.3-0.7,4.6-1.1,6.9h-2c0.8-5,1.6-10,2.4-15h2c-0.3,2.1-0.6,4.1-0.9,6.1h7C386.8,73.8,387.1,71.8,387.5,69.7z"/>
<path class="st0" d="M349.7,76c0.7-0.5,1.3-1,1.9-1.4c0.9-0.6,2.1-0.7,3.1-0.1c0.8,0.6,1.2,1.6,0.9,2.6c-0.4,2.6-0.8,5.1-1.2,7.7
	c-0.6,0.1-1.3,0.1-1.9,0c0.4-2.2,0.7-4.3,1-6.5c0-0.3,0.1-0.6,0.1-0.8c0-0.6,0.1-1.2-0.5-1.5c-0.6-0.3-1.2-0.2-1.7,0.3
	c-1.4,0.8-2.3,2.2-2.4,3.8c-0.1,1.5-0.5,3.1-0.7,4.7c-0.6,0.1-1.3,0.1-1.9,0c0.8-5.2,1.6-10.3,2.5-15.4l1.9-0.4
	C350.4,71.3,350,73.5,349.7,76z"/>
<path class="st0" d="M477.2,84.7c-0.6,0.1-1.3,0.1-1.9,0c0.3-2.2,0.7-4.3,1-6.5c0.1-0.4,0.1-0.9,0.1-1.3c0-1-0.7-1.4-1.5-1
	c-1.6,0.6-2.7,1.9-3,3.6c-0.2,1.7-0.5,3.5-0.8,5.2h-1.9c0.8-5.2,1.6-10.3,2.5-15.5l1.9-0.3c-0.4,2.4-0.7,4.6-1.1,7.1
	c0.7-0.5,1.3-1,1.9-1.3c0.9-0.7,2.2-0.8,3.2-0.2c0.8,0.6,1.1,1.6,0.8,2.6C478,79.6,477.6,82.1,477.2,84.7z"/>
<path class="st0" d="M222.6,84.7h-1.9c0.8-5.2,1.6-10.3,2.5-15.5l1.9-0.4c-0.4,2.4-0.7,4.7-1.1,7.1c0.7-0.5,1.3-1,1.9-1.4
	c0.9-0.6,2.1-0.7,3.1-0.1c0.8,0.6,1.2,1.6,0.9,2.6c-0.4,2.6-0.8,5.1-1.2,7.7h-1.9c0.4-2.2,0.7-4.3,1-6.5c0.1-0.3,0.1-0.6,0.1-0.9
	c0-0.5,0.1-1.1-0.5-1.4c-0.5-0.2-1.1-0.2-1.5,0.2c-1.4,0.9-2.5,2-2.7,3.8C223.2,81.5,222.8,83.1,222.6,84.7z"/>
<path class="st0" d="M495,79.3c-0.3,2-0.6,3.7-0.9,5.4h-1.9c0.8-5.2,1.6-10.3,2.5-15.5l1.9-0.3c-0.5,3.2-1,6.2-1.5,9.4
	c1.1-0.9,2.1-1.8,3-2.8c0.7-1,2-1.5,3.3-1.2l-4.3,4.7l3.3,5.5c-1.8,0.7-1.8,0.7-2.8-0.9L495,79.3z M495.4,78.4L495.4,78.4
	c-0.1-0.1-0.2-0.1-0.2,0S495.2,78.5,495.4,78.4L495.4,78.4z"/>
<path class="st0" d="M434.5,74.8c-0.3,3.3-1.3,6.5-1.1,9.8c-0.5,0.1-1.1,0.2-1.7,0.1c-0.4-0.3-0.1-0.8-0.3-1.2
	c-0.5,0.1-0.8,0.5-1.2,0.8c-2.5,1.5-5,0.3-5.2-2.7c-0.1-1.6,0.3-3.2,1.1-4.6C427.9,74.2,430.8,73.5,434.5,74.8z M432.5,76
	c-1.1-0.6-2.4-0.5-3.4,0.2c-1.8,1.5-2.5,3.9-1.8,6.1c0.2,0.6,0.8,1,1.4,1c1.4-0.1,2.6-1,3.1-2.4C432,79.4,432.2,77.8,432.5,76
	L432.5,76z"/>
<path class="st0" d="M400.7,74.8c-0.3,3.3-1.3,6.5-1.1,9.9c-0.6,0.1-1.2,0.1-1.8,0c0-0.4,0-0.8-0.1-1.2c-0.5,0.4-1.1,0.7-1.7,1.1
	c-2.3,1.2-4.5,0.1-4.8-2.5c-0.4-2.5,0.6-5.1,2.6-6.7C396,73.6,398.3,74,400.7,74.8z M398.7,76.1c-1-0.5-2.1-0.5-3.1,0
	c-1.9,1-3.1,4.5-2.1,6.4c0.2,0.5,0.7,0.9,1.3,0.9c1.4-0.1,2.6-1,3.1-2.3C398.2,79.4,398.4,77.8,398.7,76.1z"/>
<path class="st0" d="M319.1,84.7c-0.6,0.1-1.3,0.1-1.9,0c0.4-2.2,0.7-4.3,1-6.5c0.1-0.4,0.1-0.8,0.1-1.2c0-1.1-0.7-1.6-1.7-1
	c-1.4,0.8-2.7,1.8-2.9,3.8c-0.2,1.7-0.5,3.3-0.8,5h-1.9c0.3-3.5,1.4-6.8,1.2-10.3c0.5-0.1,1.1-0.2,1.7-0.1c0.3,0.6,0,1.2,0.3,1.8
	c0.6-0.6,1.3-1.1,2-1.6c0.9-0.6,2.1-0.6,3.1,0c0.8,0.6,1.1,1.5,0.8,2.4C319.9,79.5,319.5,82.1,319.1,84.7z"/>
<path class="st0" d="M411,74.3h1.8c-0.3,3.5-1.4,6.8-1.2,10.4h-1.8v-2c-0.6,0.7-1.4,1.3-2.2,1.8c-0.9,0.6-2.1,0.6-3,0.1
	c-0.8-0.5-1.2-1.6-0.9-2.5c0.4-2.6,0.8-5.2,1.2-7.8h1.9c-0.3,2.2-0.7,4.3-1,6.5c-0.1,0.8-0.6,1.8,0.4,2.4s1.6-0.3,2.3-0.9
	c1-0.8,1.7-2,1.8-3.2C410.4,77.5,410.7,75.9,411,74.3z"/>
<path class="st0" d="M249,79.8h-6.4c-0.1,1.2-0.2,2.4,0.8,3.1c1.8,1.2,3.4,0.2,5-0.7c0.4,1.4-0.2,2-1.4,2.4c-1,0.4-2.2,0.5-3.3,0.3
	c-1.5-0.2-2.7-1.4-2.9-2.9c-0.5-2.3,0.1-4.7,1.7-6.4c1.2-1.7,3.6-2,5.2-0.8c1.2,0.9,1.8,2.4,1.5,3.8C249.2,78.9,249.1,79.3,249,79.8
	z M247.3,78.3c0-1.8-0.6-2.7-1.7-2.8s-2.4,1.2-2.6,2.8H247.3z"/>
<path class="st0" d="M278.7,79.8h-6.4c-0.1,1.2-0.2,2.4,0.8,3.1c1.8,1.2,3.4,0.2,5-0.7c0.5,1.4-0.2,2-1.4,2.4
	c-1,0.4-2.2,0.5-3.3,0.3c-1.5-0.2-2.7-1.4-2.9-2.9c-0.5-2.3,0.1-4.7,1.7-6.4c1.1-1.4,3-1.8,4.7-1.2c1.5,0.8,2.3,2.5,2,4.1
	C278.9,78.9,278.8,79.3,278.7,79.8z M272.7,78.3h4.3c0-1.8-0.5-2.6-1.6-2.8S273.1,76.5,272.7,78.3L272.7,78.3z"/>
<path class="st0" d="M360.1,79.7c-0.1,1.3-0.1,2.4,0.9,3.2s2.5,0.5,4.8-0.8c0.4,1.4,0.3,1.7-1,2.3c-0.9,0.4-1.9,0.6-2.9,0.5
	c-1.9,0.1-3.5-1.4-3.7-3.3c-0.4-2.2,0.3-4.5,1.8-6.2c1.1-1.4,3-1.8,4.7-1.2c1.5,0.8,2.3,2.5,2,4.1c0,0.4-0.1,0.8-0.2,1.2L360.1,79.7
	z M364.9,78.3c-0.1-1.9-0.6-2.8-1.7-2.8c-1.4,0.2-2.5,1.4-2.5,2.8H364.9z"/>
<path class="st0" d="M489.3,79.8H483c-0.1,1.2-0.1,2.3,0.8,3.1s2,0.6,5-0.7c0.4,1.3-0.2,2-1.4,2.4c-1,0.4-2.2,0.5-3.3,0.3
	c-1.5-0.2-2.7-1.4-2.9-2.9c-0.5-2.3,0.1-4.7,1.7-6.4c1.2-1.7,3.6-2,5.2-0.8c1.2,0.9,1.8,2.4,1.4,3.8
	C489.5,78.9,489.4,79.3,489.3,79.8z M487.7,78.3c0-1.8-0.6-2.7-1.7-2.8s-2.4,1.2-2.6,2.8H487.7z"/>
<path class="st0" d="M511.2,79.8h-6.3c-0.2,1.2-0.2,2.5,0.8,3.2c1.8,1.2,3.3,0.2,4.9-0.8c0.3,1.7,0.2,1.8-1.3,2.4
	c-0.9,0.4-1.9,0.5-2.9,0.4c-1.7-0.1-3.1-1.3-3.4-3c-0.5-2.2,0.1-4.5,1.5-6.2c1.1-1.5,3.2-2.1,4.9-1.4c1.4,0.7,2.2,2.4,1.9,4.4
	C511.3,79.1,511.3,79.3,511.2,79.8z M509.5,78.3c0-1.8-0.5-2.7-1.6-2.8s-2.4,1.2-2.6,2.8H509.5z"/>
<path class="st0" d="M303.3,85c-1.8,0.1-3.4-1.2-3.7-2.9c-0.6-2.2,0-4.6,1.5-6.4c1.3-1.5,3.4-2,5.2-1.3c1.6,0.7,2.4,2.4,2.3,4.5
	c0,1.9-0.8,3.6-2.1,4.9C305.6,84.6,304.5,85,303.3,85z M306.8,78.8c0.1-1.7-0.6-2.9-1.8-3.2s-2.4,0.5-3.1,2.1
	c-0.5,1.2-0.7,2.6-0.4,3.9c0.1,0.9,0.7,1.6,1.5,1.9c0.9,0.2,1.9-0.1,2.4-0.9C306.3,81.5,306.7,80.2,306.8,78.8z"/>
<path class="st0" d="M453.3,85c-1.8,0.1-3.4-1.2-3.7-2.9c-0.6-2.2,0-4.6,1.5-6.4c1.3-1.5,3.4-2,5.2-1.3c1.6,0.7,2.4,2.4,2.3,4.5
	c0,1.9-0.8,3.6-2.1,4.9C455.6,84.6,454.4,85,453.3,85z M451.3,80.1c0,2.1,0.6,3.1,1.8,3.4s2.4-0.5,3-2c0.6-1.2,0.7-2.5,0.5-3.8
	c0-1-0.7-1.8-1.6-2c-1-0.2-2,0.2-2.5,1C451.7,77.6,451.3,78.8,451.3,80.1L451.3,80.1z"/>
<path class="st0" d="M297.1,74.9l-0.5,1.7c-0.8-0.4-1.6-0.7-2.5-0.8c-0.8-0.1-1.6,0-1.9,0.9s0.5,1.2,1,1.5s1.3,0.6,1.9,1
	c1.1,0.5,1.8,1.8,1.5,3c-0.1,1.3-1,2.3-2.3,2.6c-1.8,0.4-3.6,0.1-5.1-0.9c-0.1-0.6,0.2-1.1,0.4-1.7c0.9,0.7,2,1.1,3.1,1.2
	c0.9,0,1.8,0,2.1-1s-0.5-1.4-1.2-1.8c-0.4-0.2-0.7-0.3-1.1-0.5c-1.9-0.9-2.5-2-2.1-3.7c0.5-1.5,2-2.5,3.5-2.3
	C295.1,74.1,296.2,74.4,297.1,74.9z"/>
<path class="st0" d="M422.5,74.9c0,0.6-0.2,1.2-0.5,1.7c-0.8-0.5-1.6-0.8-2.6-0.9c-0.7,0-1.4,0-1.7,0.8s0.3,1.2,0.9,1.6
	s1.3,0.7,2,1.1c1.1,0.5,1.7,1.8,1.5,3c-0.1,1.3-1,2.3-2.2,2.6c-1.8,0.5-3.7,0.2-5.2-0.9c-0.1-0.6,0.3-1.1,0.4-1.8
	c1,0.7,2.1,1.2,3.3,1.3c0.8,0,1.7-0.1,1.9-1s-0.4-1.4-1.1-1.8s-1.3-0.6-1.9-1c-1.1-0.5-1.7-1.8-1.4-3c0.2-1.2,1.1-2.1,2.3-2.3
	C419.7,73.9,421.2,74.1,422.5,74.9z"/>
<path class="st0" d="M343.6,76.9c-0.4-0.3-0.6-0.5-0.9-0.7c-1.4-1-3.4-0.6-4.3,0.9c-0.1,0.2-0.2,0.3-0.3,0.5
	c-0.4,0.8-0.6,1.7-0.6,2.7c0,2.3,1.6,3.5,3.8,2.9c0.5-0.2,1-0.4,1.5-0.6c0.5,1.3-0.1,1.8-1.2,2.2c-3.5,1.1-6.4-1.2-6.1-4.8
	c0.3-4,3.1-6.4,6.7-5.8C344.1,74.5,344.3,74.9,343.6,76.9z"/>
<path class="st0" d="M467.1,74.3v1.5h-2.3c-0.3,2.1-0.7,4.2-1,6.2c-0.2,1.4,1,1.2,1.9,1.3c0.1,0.5,0.1,0.9,0.1,1.4
	c-1.1,0.5-2.3,0.3-3.2-0.3c-0.9-0.7-0.7-1.8-0.5-2.8c0.3-1.9,0.6-3.8,0.9-5.7l-1.4-0.1c0.1-0.5,0.1-1,0.2-1.5l1.5-0.1
	c0.2-0.6,0.3-1.3,0.3-1.9c-0.1-1.5,0.8-1.8,2.2-1.7l-0.5,3.6L467.1,74.3z"/>
<path class="st0" d="M216.4,69.7h2l-2.4,15h-2C214.8,79.7,215.6,74.8,216.4,69.7z"/>
<path class="st0" d="M325.6,69.2l2-0.3c-0.8,5.3-1.7,10.6-2.5,15.8c-0.6,0.1-1.3,0.1-1.9,0C324,79.5,324.8,74.4,325.6,69.2z"/>
<path class="st1" d="M12.9,16.1c-1.7,0-3.1-1.4-3.1-3.1s1.4-3.1,3.1-3.1c1.7,0,3.1,1.4,3.1,3.1C16,14.7,14.6,16.1,12.9,16.1z"/>
<path class="st0" d="M232.5,84.7c0.4-3.5,1.3-6.9,1.3-10.3c0.6-0.1,1.2-0.1,1.8,0l0.1,2c1.1-1,2-2.2,3.6-2.2v1.7
	c-0.2,0.2-0.5,0.2-0.8,0.3c-1.8,0.7-3.2,1.8-3.3,3.9c-0.1,1.5-0.5,3.1-0.7,4.6C233.7,84.8,233.1,84.8,232.5,84.7z"/>
<path class="st0" d="M282.6,74.3h1.7c0.3,0.6,0,1.3,0.3,2c1.1-1,2-2.1,3.6-2.1v1.7c-0.6,0.2-1.2,0.4-1.8,0.7
	c-1.4,0.6-2.3,1.9-2.4,3.4c-0.1,1.6-0.5,3.1-0.7,4.7h-1.9C281.8,81.2,282.8,77.9,282.6,74.3z"/>
<path class="st3" d="M343,53.4c0.3-1.7,0.5-3.2,0.7-4.6c0-0.4,0.3-0.6,0.6-0.6c0,0,0.1,0,0.1,0c1.2,0,2.4,0,3.7,0
	c-0.1,1.6-0.3,3.2-0.7,4.8c-0.1,0.4-0.4,0.5-0.7,0.5H343z"/>
<path class="st0" d="M331,84.7h-1.9c0.5-3.5,1.1-6.9,1.6-10.4c0.6-0.1,1.3-0.1,1.9-0.1C332.1,77.8,331.6,81.2,331,84.7z"/>
<path class="st0" d="M302.5,70.5h2l-0.3,2.1h-2.1C302.1,71.9,302.3,71.2,302.5,70.5z"/>
<path class="st0" d="M308.5,70.5l-0.3,2.1c-0.7,0.1-1.4,0.1-2.1,0c0-0.7,0.1-1.4,0.2-2.1L308.5,70.5z"/>
<path class="st0" d="M332.5,72.1c-0.9,0-1.4-0.4-1.4-1.2c-0.1-0.6,0.4-1.2,1-1.2c0.1,0,0.1,0,0.2,0c0.6-0.1,1.1,0.3,1.2,0.9
	c0,0.1,0,0.1,0,0.2C333.6,71.5,333.1,72,332.5,72.1C332.5,72.1,332.5,72.1,332.5,72.1z"/>
<path class="st5" d="M439.2,82.9c0.2-1.7,0.5-3.2,0.7-4.8c0.5-1.4,1.7-2.3,3.2-2.4c0.8,0,1.5,0.7,1.6,1.6c0.3,1.5,0,3-0.8,4.2
	C443,83.2,440.9,83.8,439.2,82.9z"/>
<path class="st5" d="M495.3,78.4L495.3,78.4c-0.1,0.1-0.2,0.1-0.2,0S495.2,78.3,495.3,78.4L495.3,78.4z"/>
</svg>
