<?xml version="1.0" encoding="utf-8"?>
<!-- Generator: Adobe Illustrator 19.1.1, SVG Export Plug-In . SVG Version: 6.00 Build 0)  -->
<svg version="1.1" id="Ebene_1" xmlns="http://www.w3.org/2000/svg" xmlns:xlink="http://www.w3.org/1999/xlink" x="0px" y="0px"
	 width="250px" height="110px" viewBox="0 0 250 110" enable-background="new 0 0 250 110" xml:space="preserve">
<g>
	<g>
		<path fill="#87888A" d="M41,10.6c0-1.6,1-2.7,2.6-2.7c1.4,0,2.5,1.1,2.5,2.6c0,1.4-1.2,2.6-2.6,2.6C42.2,13.1,41,11.9,41,10.6z
			 M41.3,32.9V15.7h4.5v17.2H41.3z"/>
		<path fill="#87888A" d="M66,31.4c-2.4,1.4-4.4,1.9-6.7,1.9c-2.5,0-4.6-0.8-6.2-2.3c-1.8-1.7-2.8-4.2-2.8-6.9c0-2.5,1-4.8,2.5-6.4
			c1.5-1.5,3.6-2.3,6.1-2.3c5.2,0,7.3,3.9,7.3,8.9v0.6H55c0.1,3.5,2.2,5.6,5.3,5.6c1.5,0,3-0.5,4.5-1.4L66,31.4z M62.1,22.5
			c0-0.2,0-0.7,0-0.8c-0.2-2.4-1.2-3.9-3.3-3.9c-2.2,0-3.6,1.7-3.8,4.7H62.1z"/>
		<path fill="#87888A" d="M79.7,32.9v-24h7.1c3.4,0,4.6,0.2,6,1c1.6,0.9,2.4,2.4,2.4,4.3c0,2.8-1.6,4.7-4.9,5.7
			c1.4,0.1,2.2,0.3,3.2,0.8c2,1,3.2,2.9,3.2,5.3c0,2.5-1.4,4.6-3.7,5.8c-1.6,0.8-3.3,1.1-6.5,1.1H79.7z M85.5,18.9
			c1.8,0,2.9-0.3,3.8-1.1c0.9-0.8,1.4-1.8,1.4-2.9c0-1.2-0.6-2.2-1.6-2.7c-0.6-0.3-1.4-0.4-3-0.4h-1.8v7.1H85.5z M86.5,30
			c2,0,2.9-0.2,3.8-0.9c1-0.8,1.5-1.8,1.5-3.2c0-1.6-0.7-2.8-2-3.5C89,22,88,21.8,86.4,21.8h-2V30H86.5z"/>
		<path fill="#87888A" d="M115.5,31.4c-2.4,1.4-4.4,1.9-6.7,1.9c-2.5,0-4.6-0.8-6.2-2.3c-1.8-1.7-2.8-4.2-2.8-6.9
			c0-2.5,1-4.8,2.5-6.4c1.5-1.5,3.6-2.3,6.1-2.3c5.2,0,7.3,3.9,7.3,8.9v0.6h-11.2c0.1,3.5,2.2,5.6,5.3,5.6c1.5,0,3-0.5,4.5-1.4
			L115.5,31.4z M111.7,22.5c0-0.2,0-0.7,0-0.8c-0.2-2.4-1.2-3.9-3.3-3.9c-2.2,0-3.6,1.7-3.8,4.7H111.7z"/>
		<path fill="#87888A" d="M119.8,32.9V15.7h4.5v3l0.7-1.1c0.8-1.4,1.8-2.3,3.1-2.3c1,0,2,0.4,3.2,1.6l-1.7,3.3
			c-0.7-0.4-1.5-0.7-2.2-0.7c-1.2,0-2.2,0.9-2.7,2.1c-0.3,0.9-0.4,1.8-0.4,4.1v7.3H119.8z"/>
		<path fill="#87888A" d="M142.7,32.9c-0.3-0.9-0.4-1.1-0.4-2.3c-1.8,2.2-3.8,2.7-5.5,2.7c-2.7,0-4.9-2.1-4.9-5
			c0-2.1,1.2-3.8,3.1-4.9c1.1-0.7,2.9-1.3,4.6-1.7c0.6-0.1,2.2-0.5,2.8-0.7c-0.4-1.8-1.3-3.1-3.5-3.1c-1.4,0-2.8,0.6-4.3,1.9
			l-1.5-2.1c2.1-1.6,4.2-2.3,6.8-2.3c2.5,0,4.6,0.8,5.8,2.3c0.8,1.1,1.1,2.1,1.1,5.2v4.6c0,3.1,0.1,3.9,0.7,5.5H142.7z M142.3,23.6
			c-0.6,0.1-1.1,0.3-1.8,0.4c-2.3,0.5-4.4,1.5-4.4,3.7c0,1.5,1,2.5,2.3,2.5c1.8,0,3.1-1.4,3.5-2.5c0.2-0.6,0.4-1.5,0.4-2.5V23.6z"/>
		<path fill="#87888A" d="M161.7,32.2c-1.5,0.7-3,1.1-4.6,1.1c-2,0-3.5-0.7-4.4-2c-0.7-1-0.9-1.8-0.9-4.4v-8.8h-2.4v-2.3h2.4v-4.2
			l4.5-1v5.1h4.5v2.3h-4.5V26c0,3.4,0.6,4.6,2.4,4.6c0.7,0,1.4-0.2,2.2-0.5L161.7,32.2z"/>
		<path fill="#87888A" d="M178.7,31.4c-2.4,1.4-4.4,1.9-6.7,1.9c-2.5,0-4.6-0.8-6.2-2.3c-1.8-1.7-2.8-4.2-2.8-6.9
			c0-2.5,1-4.8,2.5-6.4c1.5-1.5,3.6-2.3,6.1-2.3c5.2,0,7.3,3.9,7.3,8.9v0.6h-11.2c0.1,3.5,2.2,5.6,5.3,5.6c1.5,0,3-0.5,4.5-1.4
			L178.7,31.4z M174.8,22.5c0-0.2,0-0.7,0-0.8c-0.2-2.4-1.2-3.9-3.3-3.9c-2.2,0-3.6,1.7-3.8,4.7H174.8z"/>
		<path fill="#87888A" d="M182.9,32.9V15.7h4.5v3l0.7-1.1c0.8-1.4,1.8-2.3,3.1-2.3c1,0,2,0.4,3.2,1.6l-1.7,3.3
			c-0.7-0.4-1.5-0.7-2.2-0.7c-1.2,0-2.2,0.9-2.7,2.1c-0.3,0.9-0.4,1.8-0.4,4.1v7.3H182.9z"/>
		<path fill="#87888A" d="M80.3,62l-1.9-5.8h-7.4L68.6,62H63l9.8-24h6.1l9.1,24H80.3z M74.9,44.9l-2.7,7.5h5.1L74.9,44.9z"/>
		<path fill="#87888A" d="M102.5,62.4c-2,0-3.2-0.7-5-2.7v10.9h-6.7V44.8h6.7v2.3c1.8-2,3.3-2.7,5.6-2.7c4.4,0,7.5,3.5,7.5,8.6
			C110.6,58.3,107.1,62.4,102.5,62.4z M100.5,48c-1.9,0-3,2.1-3,5.4c0,3.3,1.1,5.5,2.8,5.5c2.5,0,3.1-3.8,3.1-5.6
			C103.4,50,102.3,48,100.5,48z"/>
		<path fill="#87888A" d="M123.3,62.4c-5.8,0-9.9-3.8-9.9-9.1c0-5.2,4.1-8.9,10-8.9c5.6,0,9.7,3.8,9.7,8.8
			C133.1,58.6,129,62.4,123.3,62.4z M123.2,47.5c-1.8,0-2.8,2.3-2.8,5.9c0,3.6,1.1,6,2.8,6c1.8,0,2.9-2.2,2.9-6
			C126.1,49.6,125.1,47.5,123.2,47.5z"/>
		<path fill="#87888A" d="M143.4,62.4c-2.4,0-4-0.7-5-1.9c-0.8-1-1-1.9-1-4.4V48h-2.4v-3.1h2.4v-4.2l6.8-1v5.1h4.5V48h-4.5v6
			c0,3.3,0.7,4.7,2.4,4.7c0.6,0,1.2-0.1,1.9-0.4l0.8,3.1C147.5,62,145.5,62.4,143.4,62.4z"/>
		<path fill="#87888A" d="M164.7,62V51.8c0-0.9-0.1-1.6-0.4-2.1c-0.3-0.7-1-1-1.9-1c-1.2,0-2,0.4-2.4,1.4c-0.2,0.5-0.3,1.3-0.3,2.2
			V62h-6.8V36.8h6.8v10.3c1.7-2,3.3-2.7,5.7-2.7c2.5,0,4.5,1.1,5.5,2.9c0.5,1,0.7,2.1,0.7,4.7v10H164.7z"/>
		<path fill="#87888A" d="M193.3,54.2h-10.5c0,2.7,1.8,4.1,4.3,4.1c1.5,0,2.9-0.4,4.5-1.2l1.8,3.4c-2.6,1.2-5.2,1.9-7.7,1.9
			c-2.7,0-4.9-0.7-6.7-2.3c-2.1-1.8-3.3-4.5-3.3-7.1c0-2.5,1.1-5,3-6.5c1.7-1.4,3.9-2.1,6.6-2.1c3,0,5.2,1,6.6,3
			c1,1.4,1.5,3.3,1.5,5.3C193.3,53.1,193.3,53.7,193.3,54.2z M187.5,50.7c0-2.2-0.8-3.4-2.4-3.4c-1.6,0-2.4,1.3-2.4,4.1h4.8V50.7z"
			/>
		<path fill="#87888A" d="M210.2,62.3l-5.7-9.1V62h-6.8V36.8h6.8v14.6h0.5l5-6.8l5.3,1.7l-4.9,6l6.2,8.3L210.2,62.3z"/>
		<path fill="#87888A" d="M235.7,54.2h-10.5c0,2.7,1.8,4.1,4.3,4.1c1.5,0,2.9-0.4,4.5-1.2l1.8,3.4c-2.6,1.2-5.2,1.9-7.7,1.9
			c-2.7,0-4.9-0.7-6.7-2.3c-2.1-1.8-3.3-4.5-3.3-7.1c0-2.5,1.1-5,3-6.5c1.7-1.4,3.9-2.1,6.6-2.1c3,0,5.2,1,6.6,3
			c1,1.4,1.5,3.3,1.5,5.3C235.7,53.1,235.7,53.7,235.7,54.2z M229.9,50.7c0-2.2-0.8-3.4-2.4-3.4c-1.6,0-2.4,1.3-2.4,4.1h4.8V50.7z"
			/>
	</g>
	<path fill="#97BF0D" d="M42.8,39.4c-3.3,0-5.7,1.2-7.8,3.8V0l-9,0v19.9c-2.8-3.5-5.6-5-10.2-5C6.6,15,0,22.4,0,32.5
		c0,10.2,6.3,17.3,15.1,17.2c4.5,0,7.5-1.8,10.9-5.8v18.2h9v-3.1c2.3,2.5,4.3,3.5,7.1,3.5c6.1,0,10.7-5.2,10.6-12.2
		C52.6,43.8,48.6,39.3,42.8,39.4 M17.8,44.5c-5.1,0-8.5-5-8.5-12.5c0-7.4,3.2-11.9,8.5-11.9c5.1,0,8.6,4.8,8.6,11.7
		C26.5,39.4,23,44.5,17.8,44.5 M40.9,59c-3.5,0-5.8-3.1-5.9-7.9c0-5.2,2.2-8.3,6-8.4c3.2,0,5.4,3.1,5.4,7.8
		C46.5,55.7,44.3,59,40.9,59"/>
	<g>
		<path fill="#87888A" d="M29.5,101.6c-0.3,0-0.6-0.1-0.9-0.3c-0.4-0.2-0.6-0.5-0.6-0.9c0-0.2,0.1-0.5,0.3-0.8
			c0.2-0.3,0.5-0.5,0.7-0.5c0.2,0,0.5,0.1,0.8,0.3c0.3,0.2,0.5,0.5,0.5,0.8C30.4,101,30.1,101.5,29.5,101.6z"/>
		<path fill="#87888A" d="M37,100.7c-0.3,0-0.6-0.1-0.9-0.3c-0.4-0.2-0.6-0.5-0.6-0.9c0-0.2,0.1-0.5,0.3-0.8
			c0.2-0.3,0.5-0.5,0.7-0.5c0.2,0,0.5,0.1,0.8,0.3c0.3,0.2,0.5,0.5,0.5,0.8C37.9,100.2,37.7,100.6,37,100.7z"/>
		<path fill="#87888A" d="M44.6,99.8c-0.3,0-0.6-0.1-0.9-0.3c-0.4-0.2-0.6-0.5-0.6-0.9c0-0.2,0.1-0.5,0.3-0.8
			c0.2-0.3,0.5-0.5,0.7-0.5c0.2,0,0.5,0.1,0.8,0.3c0.3,0.2,0.5,0.5,0.5,0.8C45.5,99.3,45.2,99.7,44.6,99.8z"/>
		<path fill="#87888A" d="M53.5,93.2c-0.8,0.8-1.3,1.7-1.7,2.7c-0.3,1-0.6,1.8-0.8,2.4c-0.2,0.6-0.6,0.9-1.3,1
			c-0.3,0-0.5-0.2-0.7-0.7c-0.2-0.5-0.4-1.1-0.5-1.7c0-0.3,0-0.6,0.2-0.8c0.2-0.2,0.4-0.3,0.7-0.5c0.3-0.1,0.9-1.1,1.7-2.8
			c0.8-1.8,1.4-2.7,1.7-2.7c0.1,0,0.2,0,0.4,0.1c0.2,0.1,0.3,0.2,0.4,0.2c0.6-0.5,1.2-1,2-1.5c0.7-0.5,1.4-0.7,2-0.8
			c0.3,0,0.6,0,0.9,0.1c0.3,0.1,0.5,0.3,0.5,0.6c0.1,0.5-0.7,1.1-2.2,1.9C55.4,91.5,54.3,92.3,53.5,93.2z"/>
		<path fill="#87888A" d="M63.9,95.7c-0.1,0.5-0.3,1-0.5,1.4c-0.3,0.4-0.5,0.7-0.7,0.7c-0.3,0-0.5-0.1-0.7-0.3
			c-0.2-0.2-0.3-0.5-0.3-0.9c0-0.3,0-0.6,0-0.8c0-0.3,0.1-0.6,0.2-1.1c-0.7,0.7-1.3,1.3-1.6,1.6c-0.3,0.3-0.7,0.7-1.1,1
			c-0.4,0.3-0.8,0.7-1.2,1c-0.4,0.3-0.7,0.5-0.8,0.5c-0.3,0-0.6-0.1-1-0.4c-0.4-0.3-0.6-0.6-0.7-0.9c0-0.4,0-1,0.2-1.9
			c0.2-0.8,0.5-1.9,0.9-3.1c0.4-1.3,0.9-2.4,1.4-3.5c0.5-1.1,0.9-1.7,1.3-1.7c0.3,0,0.5,0.1,0.8,0.3c0.2,0.2,0.4,0.5,0.4,0.8
			c0,0.3-0.2,1-0.8,2.2c-0.6,1.2-1,2.1-1.2,2.7c-0.2,0.6-0.4,1.2-0.6,1.6c-0.1,0.4-0.2,0.7-0.1,1c0.6-0.7,1.5-1.5,2.5-2.4
			c1-1,1.8-1.8,2.4-2.6c0.6-0.8,1.1-1.5,1.6-2.1c0.5-0.6,0.8-0.9,0.9-0.9c0.3,0,0.6,0.1,0.8,0.4c0.2,0.3,0.3,0.6,0.3,0.7
			c0,0.3-0.3,1.4-1.1,3.3C64.4,94.1,64,95.2,63.9,95.7z"/>
		<path fill="#87888A" d="M74.5,92.8c-1.1,2.9-1.7,4.3-1.8,4.3c-0.4,0-0.7-0.1-0.9-0.3c-0.2-0.3-0.3-0.5-0.3-0.9
			c0-0.2,0.1-0.8,0.5-1.7c0.3-0.9,0.6-1.7,0.9-2.3c-0.3,0.1-0.9,0.6-1.8,1.3c-0.8,0.7-1.7,1.4-2.5,2.1c-0.8,0.7-1.4,1.1-1.7,1.2
			c-0.6,0.2-0.9-0.2-1-1c0-0.3,0.3-1.4,1.1-3.3c0.8-1.9,1.4-3.2,1.8-3.9c0.4-0.7,0.9-1.1,1.5-1.2c0.2,0,0.4,0.1,0.7,0.3
			c0.3,0.2,0.5,0.5,0.5,0.7c0,0-0.3,0.6-0.9,1.6c-0.6,1-1.1,1.8-1.4,2.5c0.4-0.2,1-0.8,2-1.6c0.9-0.9,1.9-1.7,2.8-2.5
			c0.9-0.8,1.4-1.3,1.5-1.3c0.3,0,0.6,0.1,0.8,0.3c0.2,0.2,0.4,0.5,0.4,0.9c0,0.1-0.2,0.6-0.7,1.4C75.5,90.3,75,91.4,74.5,92.8z"/>
		<path fill="#87888A" d="M87.5,89.2c-0.8,1.5-1.4,2.8-1.7,3.7c-0.4,0.9-0.6,1.6-0.6,2.1c0,0.5-0.1,0.8-0.2,1
			c-0.1,0.2-0.3,0.3-0.5,0.3c-0.3,0-0.6-0.1-0.8-0.3c-0.2-0.2-0.3-0.5-0.4-0.8c0-0.4,0-0.7,0.1-1c0.1-0.3,0.2-0.6,0.3-0.9
			c-1,0.8-2,1.5-2.9,2.1c-0.9,0.6-1.8,1-2.6,1.1c-0.5,0.1-1-0.1-1.5-0.5c-0.6-0.4-0.9-1-1-1.8c-0.1-0.5,0.2-1.3,0.7-2.4
			c0.5-1.1,1.3-2.2,2.3-3.4c1-1.1,2-2.2,3.1-3.1s2-1.4,2.7-1.5c0.8-0.1,1.4,0.1,1.8,0.7c0.2,0.6,0.4,0.9,0.5,1
			c0.1-0.1,0.5-1,1.3-2.5c0.7-1.5,1.3-2.3,1.7-2.4c0.1,0,0.3,0.1,0.5,0.4c0.2,0.3,0.4,0.5,0.4,0.8c0,0.3-0.3,1.3-1,3.1
			C88.7,86.8,88,88.2,87.5,89.2z M84.3,85.9c-0.2,0-0.6,0.3-1.2,0.7c-0.6,0.5-1.3,1.1-2.1,1.8c-0.8,0.7-1.5,1.7-2.3,2.9
			c-0.8,1.2-1.2,2-1.1,2.5c0,0.3,0.2,0.4,0.5,0.4c0.5-0.1,1.1-0.3,1.8-0.8c0.7-0.5,1.3-1,2-1.7c0.7-0.7,1.3-1.3,1.9-1.9
			c0.5-0.5,0.9-1.1,1.1-1.7c0.2-0.6,0.2-1.2,0.1-1.9c0-0.1-0.1-0.2-0.2-0.2C84.6,85.9,84.4,85.9,84.3,85.9z"/>
		<path fill="#87888A" d="M96.6,91.8c-0.1,0.5-0.3,1-0.5,1.4c-0.3,0.4-0.5,0.7-0.7,0.7c-0.3,0-0.5-0.1-0.7-0.3
			c-0.2-0.2-0.3-0.5-0.3-0.9c0-0.3,0-0.6,0-0.8c0-0.3,0.1-0.6,0.2-1.1c-0.7,0.7-1.3,1.3-1.6,1.6c-0.3,0.3-0.7,0.7-1.1,1
			c-0.4,0.3-0.8,0.7-1.2,1c-0.4,0.3-0.7,0.5-0.8,0.5c-0.3,0-0.6-0.1-1-0.4c-0.4-0.3-0.6-0.6-0.7-0.9c0-0.4,0-1,0.2-1.9
			c0.2-0.8,0.5-1.9,0.9-3.1c0.4-1.3,0.9-2.4,1.4-3.5c0.5-1.1,0.9-1.7,1.3-1.7c0.3,0,0.5,0.1,0.8,0.3c0.2,0.2,0.4,0.5,0.4,0.8
			c0,0.3-0.2,1-0.8,2.2c-0.6,1.2-1,2.1-1.2,2.7c-0.2,0.7-0.4,1.2-0.6,1.6c-0.1,0.4-0.2,0.7-0.1,1c0.6-0.7,1.5-1.5,2.5-2.4
			c1-1,1.8-1.8,2.4-2.6c0.6-0.8,1.1-1.5,1.6-2.1c0.5-0.6,0.8-0.9,0.9-0.9c0.3,0,0.6,0.1,0.8,0.4c0.2,0.3,0.3,0.6,0.3,0.7
			c0,0.3-0.3,1.4-1.1,3.3C97.1,90.2,96.7,91.4,96.6,91.8z"/>
		<path fill="#87888A" d="M112.1,88.9c-0.2,0.6-0.4,1.2-0.7,1.9c-0.5,1.1-1,1.6-1.5,1.7c-0.3,0-0.6,0-0.7-0.2
			c-0.1-0.2-0.2-0.4-0.3-0.8c0-0.1,0-0.3,0.2-0.6c0.2-0.3,0.3-0.5,0.4-0.8c0.1-0.2,0.3-0.6,0.4-1.1c0.2-0.5,0.3-0.9,0.3-1.1
			c-1.3,1.6-2.3,2.8-3.1,3.6c-0.8,0.8-1.4,1.3-1.8,1.3c-0.6,0.1-1-0.2-1-0.8c0-0.3,0-0.8,0.2-1.3c0.2-0.5,0.3-1,0.4-1.3
			c-2.1,2-3.4,3.3-4,3.8c-0.6,0.5-1.3,0.8-1.9,0.8c-0.2-0.1-0.3-0.2-0.5-0.3c-0.2-0.1-0.2-0.3-0.3-0.6c0-0.2,0.1-0.7,0.3-1.4
			c0.2-0.7,0.6-1.8,1.2-3.2c0.6-1.5,1.1-2.7,1.7-3.7s0.9-1.5,1.2-1.5c0.2,0,0.4,0.1,0.7,0.2s0.4,0.4,0.5,0.8c0,0.3-0.3,1.2-1.1,2.8
			c-0.8,1.5-1.2,2.4-1.2,2.7c1.5-1.4,3-2.8,4.5-4.2c0.5-0.5,0.9-0.9,1.2-1.3c0.3-0.4,0.5-0.5,0.6-0.5c0.1,0,0.3,0.1,0.6,0.3
			c0.3,0.2,0.5,0.4,0.5,0.5c0,0.3-0.1,0.8-0.3,1.6c-0.3,0.8-0.4,1.3-0.4,1.5c0.7-0.8,1.5-1.7,2.4-2.6c0.8-0.9,1.4-1.4,1.8-1.4
			c0.2,0,0.5,0.1,0.7,0.2c0.2,0.1,0.4,0.3,0.4,0.7c0.1,0.5,0,1.2-0.3,2.1C112.7,87.3,112.4,88.1,112.1,88.9z"/>
		<path fill="#97BF0D" d="M126.1,92.4c-0.7,0.1-1.4-0.2-2.1-0.8c-0.7-0.6-1-1.4-1.2-2.5c-0.1-0.5,0.1-1.3,0.3-2.2
			c0.3-1,0.7-1.5,1.3-1.6c0.1,0.1,0.2,0.1,0.3,0.2c0.1,0.1,0.1,0.2,0.2,0.4c0,0.1,0,0.6,0,1.3c0,0.7,0,1.3,0,1.7
			c0.1,0.4,0.1,0.8,0.3,1c0.1,0.3,0.3,0.4,0.6,0.4c0.7-0.1,1.5-0.6,2.6-1.6c1-1,1.9-1.9,2.7-3c0.8-1,1.3-1.9,1.7-2.6
			c0.4-0.7,0.7-1.4,0.9-2c-0.1-0.2-0.1-0.3-0.1-0.2c-0.2,0-0.7,0.2-1.4,0.7c-0.7,0.5-1.4,0.9-2.1,1.5c-0.6,0.5-1.2,1.1-1.7,1.8
			c-0.5,0.7-0.9,1.3-1.2,1.9c-0.3,0.6-0.5,1-0.6,1.2c-0.1,0.2-0.3,0.4-0.4,0.4c-0.1,0-0.3-0.1-0.4-0.5c-0.2-0.4-0.3-0.6-0.3-0.8
			c0-0.4,0.1-1.1,0.5-2c0.4-0.9,0.9-1.9,1.4-2.8c0.5-1,1.1-1.9,1.6-2.9c0.5-1,1-1.9,1.4-2.8c0.4-0.9,0.7-1.4,0.9-1.4
			c0.3-0.1,0.5,0,0.7,0.2c0.2,0.2,0.3,0.4,0.3,0.7c0.1,0.3,0,0.9-0.3,1.6c-0.3,0.7-0.6,1.4-0.9,2.1c0.3-0.2,0.6-0.4,1-0.5
			c0.4-0.1,0.7-0.3,0.9-0.3c0.3-0.1,0.5-0.1,0.6-0.1c0.5-0.1,1,0,1.5,0.3c0.4,0.3,0.7,0.7,0.7,1.2c0.1,0.6-0.2,1.5-0.7,2.6
			c-0.6,1.1-1.3,2.4-2.3,3.8c-1,1.4-2.1,2.7-3.4,3.9C128,91.6,127,92.3,126.1,92.4z"/>
		<path fill="#97BF0D" d="M136.8,89.2c-0.8,0.1-1.4-0.1-2-0.7c-0.6-0.5-0.9-1.1-1-1.8c-0.1-0.5,0.2-1.4,0.8-2.6
			c0.6-1.2,1.3-2.2,2.1-3c0.8-0.8,1.7-1.5,2.6-2.1c0.9-0.6,1.8-0.9,2.5-1c0.5-0.1,0.9,0.1,1.3,0.4c0.4,0.4,0.6,0.8,0.7,1.4
			c0.1,0.9-0.7,2-2.4,3.4c-1.7,1.4-3.2,2.1-4.3,2.2c-0.3,0-0.5,0-0.7-0.1c-0.1,0.2-0.2,0.3-0.2,0.5c-0.1,0.2-0.1,0.3-0.1,0.4
			c0,0.2,0.1,0.4,0.3,0.5c0.2,0.1,0.4,0.2,0.7,0.1c0.9-0.1,1.9-0.4,2.8-0.8c1-0.4,2-0.8,2.9-1.3c0.1,0.1,0.2,0.2,0.4,0.3
			c0.1,0.1,0.2,0.3,0.2,0.5c0,0.5-0.8,1.2-2.3,2C139.4,88.6,138.1,89.1,136.8,89.2z M139.8,81c-0.7,0.5-1.2,1-1.7,1.7
			c0.4-0.1,0.8-0.3,1.1-0.4c0.3-0.1,0.6-0.3,1-0.6c0.4-0.3,0.7-0.5,1-0.8c0.3-0.3,0.5-0.6,0.7-0.9C141.2,80.2,140.5,80.5,139.8,81z"
			/>
		<path fill="#97BF0D" d="M142.4,83.8c0-0.2,0.1-0.4,0.3-0.7c0.2-0.3,0.4-0.5,0.6-0.5c0.2,0,0.4,0,0.5,0.2c0.1,0.2,0.3,0.5,0.5,1.1
			c0.2,0.6,0.4,1,0.6,1.4c0.2,0.4,0.4,0.5,0.7,0.5c0.3,0,0.6-0.4,0.9-1c0.2-0.6,0.6-1.7,1-3.1c0.4-1.4,0.8-2.5,1.2-3.4
			c0.3-0.9,0.8-1.3,1.4-1.4c0.3,0,0.5,0,0.7,0c0.2,0.1,0.3,0.2,0.4,0.4c0,0.2,0.1,0.3,0.1,0.4c0,0.2,0,0.4-0.1,0.6
			c-0.1,0.2-0.2,0.4-0.4,0.6c-0.2,0.2-0.4,0.7-0.7,1.4c-0.2,0.7-0.5,1.5-0.9,2.5c-0.4,1-0.7,1.8-0.9,2.5c-0.3,0.6-0.6,1.3-1,1.8
			c-0.4,0.6-0.8,0.9-1.3,0.9c-0.7,0.1-1.5-0.4-2.2-1.4C142.9,85.8,142.5,84.8,142.4,83.8z"/>
		<path fill="#97BF0D" d="M149.7,83c0-0.2,0.1-0.4,0.3-0.7c0.2-0.3,0.4-0.5,0.6-0.5c0.2,0,0.4,0,0.5,0.2c0.1,0.2,0.3,0.5,0.5,1.1
			c0.2,0.6,0.4,1,0.6,1.4c0.2,0.4,0.4,0.5,0.7,0.5c0.3,0,0.6-0.4,0.9-1c0.2-0.6,0.6-1.7,1-3.1c0.4-1.4,0.8-2.5,1.2-3.4
			c0.3-0.9,0.8-1.3,1.4-1.4c0.3,0,0.5,0,0.7,0c0.2,0.1,0.3,0.2,0.4,0.4c0,0.2,0.1,0.3,0.1,0.4c0,0.2,0,0.4-0.1,0.6
			c-0.1,0.2-0.2,0.4-0.4,0.6c-0.2,0.2-0.4,0.7-0.7,1.4c-0.2,0.7-0.5,1.5-0.9,2.5c-0.4,1-0.7,1.8-0.9,2.5c-0.3,0.6-0.6,1.3-1,1.8
			c-0.4,0.6-0.8,0.9-1.3,0.9c-0.7,0.1-1.5-0.4-2.2-1.4C150.3,84.9,149.9,83.9,149.7,83z"/>
		<path fill="#97BF0D" d="M160.3,86.5c-0.8,0.1-1.4-0.1-2-0.7c-0.6-0.5-0.9-1.1-1-1.8c-0.1-0.5,0.2-1.4,0.8-2.6
			c0.6-1.2,1.3-2.2,2.1-3c0.8-0.8,1.7-1.5,2.6-2.1c0.9-0.6,1.8-0.9,2.5-1c0.5-0.1,0.9,0.1,1.3,0.4c0.4,0.4,0.6,0.8,0.7,1.4
			c0.1,0.9-0.7,2-2.4,3.4c-1.7,1.4-3.2,2.1-4.3,2.2c-0.3,0-0.5,0-0.7-0.1c-0.1,0.2-0.2,0.3-0.2,0.5c-0.1,0.2-0.1,0.3-0.1,0.4
			c0,0.2,0.1,0.4,0.3,0.5c0.2,0.1,0.4,0.2,0.7,0.1c0.9-0.1,1.9-0.4,2.8-0.8c1-0.4,2-0.8,2.9-1.3c0.1,0.1,0.2,0.2,0.4,0.3
			c0.1,0.1,0.2,0.3,0.2,0.5c0,0.5-0.8,1.2-2.3,2C162.9,85.8,161.6,86.3,160.3,86.5z M163.3,78.2c-0.7,0.5-1.2,1-1.7,1.7
			c0.4-0.1,0.8-0.3,1.1-0.4c0.3-0.1,0.6-0.3,1-0.6c0.4-0.3,0.7-0.5,1-0.8c0.3-0.3,0.5-0.6,0.7-0.9C164.6,77.4,164,77.8,163.3,78.2z"
			/>
		<path fill="#97BF0D" d="M171.1,79.4c-0.8,0.8-1.3,1.7-1.7,2.7c-0.3,1-0.6,1.8-0.8,2.4c-0.2,0.6-0.6,0.9-1.3,1
			c-0.3,0-0.5-0.2-0.7-0.7c-0.2-0.5-0.4-1.1-0.5-1.7c0-0.3,0-0.6,0.2-0.8c0.2-0.2,0.4-0.3,0.7-0.5c0.3-0.1,0.9-1.1,1.7-2.8
			c0.8-1.8,1.4-2.7,1.7-2.7c0.1,0,0.2,0,0.4,0.1c0.2,0.1,0.3,0.2,0.4,0.2c0.6-0.5,1.2-1,2-1.5c0.7-0.5,1.4-0.7,2-0.8
			c0.3,0,0.6,0,0.9,0.1c0.3,0.1,0.5,0.3,0.5,0.6c0.1,0.5-0.7,1.1-2.2,1.9C173,77.7,171.9,78.5,171.1,79.4z"/>
		<path fill="#87888A" d="M188.8,79c-1,1-1.9,2-2.6,3.1c-0.8,1.1-1.3,1.7-1.5,1.7c-0.3,0-0.6,0-0.9-0.2c-0.3-0.2-0.4-0.4-0.5-0.6
			c0-0.3,0.4-2,1.2-4.9c0.8-3,1.4-4.5,1.8-4.5c0.3,0,0.5,0,0.7,0.2c0.2,0.2,0.3,0.3,0.3,0.5c0.1,0.5-0.1,1.3-0.5,2.5
			c-0.4,1.2-0.6,1.9-0.6,2.2c3.4-3.5,5.3-5.2,5.5-5.2c0.2,0,0.4,0,0.5,0.2c0.1,0.1,0.2,0.3,0.2,0.5C192.5,75,191.3,76.6,188.8,79z"
			/>
		<path fill="#87888A" d="M192.9,82.7c-0.8,0.1-1.4-0.1-2-0.7c-0.6-0.5-0.9-1.1-1-1.8c-0.1-0.5,0.2-1.4,0.8-2.6
			c0.6-1.2,1.3-2.2,2.1-3c0.8-0.8,1.7-1.5,2.6-2.1c0.9-0.6,1.8-0.9,2.5-1c0.5-0.1,0.9,0.1,1.3,0.4c0.4,0.4,0.6,0.8,0.7,1.4
			c0.1,0.9-0.7,2-2.4,3.4c-1.7,1.4-3.2,2.1-4.3,2.2c-0.3,0-0.5,0-0.7-0.1c-0.1,0.2-0.2,0.3-0.2,0.5c-0.1,0.2-0.1,0.3-0.1,0.4
			c0,0.2,0.1,0.4,0.3,0.5c0.2,0.1,0.4,0.2,0.7,0.1c0.9-0.1,1.9-0.4,2.8-0.8c1-0.4,2-0.8,2.9-1.3c0.1,0.1,0.2,0.2,0.4,0.3
			c0.1,0.1,0.2,0.3,0.2,0.5c0,0.5-0.8,1.2-2.3,2C195.5,82,194.1,82.5,192.9,82.7z M195.9,74.4c-0.7,0.5-1.2,1-1.7,1.7
			c0.5-0.1,0.8-0.3,1.1-0.4c0.3-0.1,0.6-0.3,1-0.6c0.4-0.3,0.7-0.5,1-0.8c0.3-0.3,0.5-0.6,0.7-0.9C197.2,73.6,196.5,73.9,195.9,74.4
			z"/>
		<path fill="#87888A" d="M203.6,75.5c-0.8,0.8-1.3,1.7-1.7,2.7c-0.3,1-0.6,1.8-0.8,2.4c-0.2,0.6-0.6,0.9-1.3,1
			c-0.3,0-0.5-0.2-0.7-0.7c-0.2-0.5-0.4-1.1-0.5-1.7c0-0.3,0-0.6,0.2-0.8c0.2-0.2,0.4-0.3,0.7-0.5c0.3-0.1,0.9-1.1,1.7-2.8
			c0.8-1.8,1.4-2.7,1.7-2.7c0.1,0,0.2,0,0.4,0.1c0.2,0.1,0.3,0.2,0.4,0.2c0.6-0.5,1.2-1,2-1.5c0.7-0.5,1.4-0.7,2-0.8
			c0.3,0,0.6,0,0.9,0.1c0.3,0.1,0.5,0.3,0.5,0.6c0.1,0.5-0.7,1.1-2.2,1.9C205.6,73.9,204.4,74.7,203.6,75.5z"/>
		<path fill="#87888A" d="M205.1,76.5c0-0.2,0.1-0.4,0.3-0.7c0.2-0.3,0.4-0.5,0.6-0.5c0.2,0,0.4,0,0.5,0.2c0.1,0.2,0.3,0.5,0.5,1.1
			c0.2,0.6,0.4,1,0.6,1.4c0.2,0.4,0.4,0.5,0.7,0.5c0.3,0,0.6-0.4,0.9-1c0.2-0.6,0.6-1.7,1-3.1c0.4-1.4,0.8-2.5,1.2-3.4
			c0.3-0.9,0.8-1.3,1.4-1.4c0.3,0,0.5,0,0.7,0c0.2,0.1,0.3,0.2,0.4,0.4c0,0.2,0.1,0.3,0.1,0.4c0,0.2,0,0.4-0.1,0.6
			c-0.1,0.2-0.2,0.4-0.4,0.6c-0.2,0.2-0.4,0.7-0.7,1.4c-0.2,0.7-0.5,1.5-0.9,2.5c-0.4,1-0.7,1.8-0.9,2.5c-0.3,0.6-0.6,1.3-1,1.8
			c-0.4,0.6-0.8,0.9-1.3,0.9c-0.7,0.1-1.5-0.4-2.2-1.4C205.7,78.4,205.2,77.4,205.1,76.5z"/>
		<path fill="#87888A" d="M215.9,80c-0.8,0.1-1.4-0.1-1.8-0.7c-0.4-0.5-0.7-1.2-0.8-2c-0.3-2.4,0.2-4.2,1.5-5.4
			c1.3-1.2,2.7-2,4.4-2.2c0.7-0.1,1.2,0.1,1.7,0.6c0.5,0.5,0.8,1,0.9,1.6c0.2,1.8-0.5,3.5-2,5.2C218.2,78.9,216.9,79.9,215.9,80z
			 M218.9,71.8c-1,0.1-1.9,0.8-2.7,1.9c-0.8,1.2-1.1,2.4-1,3.6c0,0.1,0.1,0.2,0.1,0.3c0.1,0.1,0.2,0.1,0.3,0.1
			c0.8-0.1,1.8-0.8,2.8-2.2c1.1-1.4,1.5-2.5,1.5-3.2c0-0.2-0.1-0.4-0.3-0.5C219.4,71.8,219.2,71.8,218.9,71.8z"/>
		<path fill="#87888A" d="M226.2,72.9c-0.8,0.8-1.3,1.7-1.7,2.7c-0.3,1-0.6,1.8-0.8,2.4c-0.2,0.6-0.6,0.9-1.3,1
			c-0.3,0-0.5-0.2-0.7-0.7c-0.2-0.5-0.4-1.1-0.5-1.7c0-0.3,0-0.6,0.2-0.8c0.2-0.2,0.4-0.3,0.7-0.5c0.3-0.1,0.9-1.1,1.7-2.8
			c0.8-1.8,1.4-2.7,1.7-2.7c0.1,0,0.2,0,0.4,0.1c0.2,0.1,0.3,0.2,0.4,0.2c0.6-0.5,1.2-1,2-1.5c0.7-0.5,1.4-0.7,2-0.8
			c0.3,0,0.6,0,0.9,0.1c0.3,0.1,0.5,0.3,0.5,0.6c0.1,0.5-0.7,1.1-2.2,1.9C228.1,71.2,227,72,226.2,72.9z"/>
		<path fill="#87888A" d="M236.9,75.2c-0.1,0.3-0.3,0.8-0.5,1.4c-0.2,0.7-0.4,1.1-0.5,1.4c-0.1,0.3-0.4,0.8-0.7,1.5
			c-0.3,0.7-0.7,1.5-1.2,2.4c-0.5,0.9-1.1,1.8-1.8,2.7c-0.7,0.9-1.3,1.4-1.6,1.4c-0.6,0.1-1.3-0.2-2.1-0.9c-0.8-0.7-1.2-1.6-1.3-2.8
			c-0.1-0.6,0-1.3,0.1-2c0.2-0.7,0.4-1.1,0.7-1.1c0.3,0,0.5,0.1,0.6,0.4c0.2,0.3,0.3,0.7,0.3,1.2c0.1,0.6,0.2,1.2,0.4,1.8
			c0.2,0.6,0.4,0.9,0.6,0.8c0.5-0.1,1.1-0.6,1.7-1.5c0.6-0.9,1.4-2.5,2.4-4.8c-0.3-0.2-0.5-0.2-0.7-0.2c-0.1,0-0.2,0.1-0.3,0.1
			c-0.6,0.4-1.2,0.7-1.8,1.1c-0.6,0.3-1.2,0.5-1.7,0.6c-0.3,0-0.6-0.1-1-0.5c-0.4-0.3-0.6-0.7-0.6-1c0-0.2,0.1-0.8,0.4-1.6
			s1-1.9,2.2-3.1c1.2-1.2,2.5-2.3,3.8-3.2s2.3-1.4,2.9-1.4c0.5-0.1,1,0.1,1.4,0.5c0.4,0.4,0.7,0.9,0.8,1.5c0.1,0.9,0,1.7-0.4,2.3
			C238.7,72.8,237.9,73.8,236.9,75.2z M237.2,70c-0.3,0-0.8,0.3-1.6,0.8c-0.8,0.5-1.5,1-2.1,1.5c-0.6,0.5-1.1,1.1-1.6,1.7
			c-0.5,0.6-0.9,1.2-1.4,1.7c0.3,0,0.8-0.3,1.6-0.8c0.7-0.5,1.4-1,2.1-1.6c0.5-0.4,0.8-0.7,1-0.8c0.2-0.1,0.4-0.2,0.6-0.2
			c0.2,0,0.3,0,0.4,0c0.1,0,0.2,0.1,0.4,0.3c0.2-0.3,0.4-0.6,0.6-0.9c0.2-0.3,0.2-0.6,0.2-0.9l0-0.4C237.4,70.1,237.4,70,237.2,70z"
			/>
		<path fill="#87888A" d="M247,71.4c-0.5,0.1-1.2,0.2-2.1,0.4c-0.9,0.2-1.4,0.3-1.6,0.3c-0.5,1.1-1,2-1.3,2.6
			c-0.3,0.6-0.5,1.1-0.7,1.5c-0.2,0.4-0.3,0.7-0.5,0.7c-0.2,0.1-0.3,0.1-0.6,0.2c-0.2,0-0.3-0.1-0.4-0.2c-0.1-0.2-0.2-0.3-0.2-0.5
			c0-0.4,0.1-1,0.5-1.7c0.4-0.8,0.7-1.5,1-2.1c-0.2-0.2-0.4-0.3-0.5-0.4c-0.2-0.1-0.2-0.3-0.3-0.5c-0.1-0.5,0.2-0.9,0.7-1.1
			c0.6-0.2,1-0.3,1.2-0.4c0.1-0.4,0.3-0.7,0.4-1.1c0.1-0.3,0.5-1,1.1-2.1c0.6-1.1,1.1-1.9,1.4-2.3c0.3-0.4,0.6-0.6,0.9-0.7
			c0.2,0,0.4,0.1,0.6,0.2c0.2,0.2,0.3,0.4,0.3,0.7c0,0.2-0.4,0.8-1.1,2c-0.8,1.2-1.3,2.1-1.5,2.8c0.4-0.1,1-0.3,1.7-0.4
			c0.7-0.1,1.3-0.2,1.8-0.3c0.3,0,0.5-0.1,0.7-0.1c0.2,0,0.5,0,0.8,0c0.4,0,0.6,0.2,0.6,0.6c0.1,0.5-0.2,0.9-0.9,1.2
			C248.4,71.1,247.7,71.3,247,71.4z"/>
	</g>
</g>
</svg>
