<svg xmlns="http://www.w3.org/2000/svg" width="122" height="52" viewBox="0 0 122 52">
    <g fill="none" fill-rule="evenodd">
        <path fill="#0F9C4D" d="M16.279 14.855c.068-1.024.387-1.767.957-2.232.57-.465 1.297-.697 2.182-.697.952 0 1.654.245 2.105.735.45.49.689 1.222.715 2.194h-5.959zm10.602 1.102c0-2.236-.59-3.95-1.77-5.14-1.18-1.19-2.94-1.786-5.281-1.786-2.54 0-4.538.7-5.996 2.1-1.456 1.4-2.186 3.298-2.186 5.692 0 2.42.77 4.286 2.309 5.595 1.539 1.31 3.753 1.965 6.642 1.965 1.12 0 2.141-.096 3.064-.286a17.09 17.09 0 0 0 2.95-.918v-3.746H26.1c-.532.417-1.255.808-2.172 1.172a7.632 7.632 0 0 1-2.84.546c-1.544 0-2.712-.307-3.503-.919-.793-.612-1.224-1.496-1.292-2.65h10.589v-1.625zM42.561 23.946H37.96v-1.565c-.846.655-1.618 1.152-2.32 1.492-.702.34-1.537.51-2.509.51-1.571 0-2.782-.461-3.63-1.382-.85-.92-1.275-2.282-1.275-4.08V9.482h4.603v7.191c0 .732.022 1.341.07 1.827.045.487.153.89.32 1.207.161.32.403.551.728.698.324.146.778.22 1.358.22.388 0 .818-.074 1.29-.22a5.508 5.508 0 0 0 1.365-.646V9.482h4.602v14.464M54.658 13.92h-.405c-.192-.067-.504-.117-.932-.15-.43-.033-.787-.05-1.073-.05-.648 0-1.22.043-1.716.128a9.522 9.522 0 0 0-1.602.437v9.646h-4.577V9.55h4.577v2.113c1-.87 1.87-1.451 2.61-1.743.74-.29 1.423-.437 2.045-.437.16 0 .341.005.542.013.202.008.38.022.53.038v4.387"/>
        <path fill="#0F9C4D" d="M64.468 18.897c-.15.52-.372.964-.67 1.334a2.196 2.196 0 0 1-.964.715 3.39 3.39 0 0 1-1.194.212c-.485 0-.917-.078-1.296-.232a2.437 2.437 0 0 1-.977-.735c-.28-.351-.493-.817-.638-1.397-.145-.58-.217-1.265-.217-2.055 0-.885.083-1.62.249-2.203.166-.584.39-1.044.67-1.378.315-.361.645-.6.99-.721.344-.121.738-.181 1.181-.181.443 0 .855.073 1.238.22.383.145.71.394.984.746.272.344.484.803.638 1.378.153.577.23 1.289.23 2.14 0 .919-.076 1.638-.224 2.157zm2.928-7.807c-1.364-1.373-3.296-2.06-5.794-2.06-2.465 0-4.388.683-5.77 2.047-1.38 1.364-2.07 3.243-2.07 5.636 0 2.377.686 4.25 2.058 5.618 1.373 1.368 3.3 2.052 5.782 2.052s4.408-.684 5.781-2.052c1.372-1.369 2.06-3.24 2.06-5.618 0-2.376-.683-4.251-2.047-5.623zM79.834 19.865c-.604.72-1.522 1.08-2.757 1.08-.345 0-.694-.017-1.048-.051a3.729 3.729 0 0 1-.996-.234v-7.309c.423-.25.866-.442 1.333-.575a4.894 4.894 0 0 1 1.359-.201c1.043 0 1.807.32 2.29.958.484.638.726 1.664.726 3.078 0 1.45-.302 2.534-.907 3.254zm4.224-8.837c-1.008-1.332-2.42-1.997-4.237-1.997-.978 0-1.84.183-2.588.55a12.07 12.07 0 0 0-2.2 1.404V9.47h-4.695v19.88h4.695v-6.074c.605.32 1.198.568 1.778.746.579.176 1.284.265 2.115.265.9 0 1.743-.174 2.53-.52a6.341 6.341 0 0 0 2.116-1.53c.597-.64 1.08-1.452 1.447-2.44.367-.985.552-2.078.552-3.281 0-2.327-.505-4.155-1.513-5.488zM95.32 20.11a4.36 4.36 0 0 1-1.241.745c-.47.189-.935.282-1.393.282-.577 0-1.002-.04-1.272-.122a1.83 1.83 0 0 1-.7-.379c-.206-.17-.332-.35-.383-.54a2.908 2.908 0 0 1-.075-.731c0-.455.12-.82.362-1.1.24-.277.591-.489 1.05-.635.373-.12.92-.224 1.642-.314.72-.09 1.39-.161 2.01-.212v3.006zm2.827-9.829c-1.16-.807-3.042-1.211-5.649-1.211a20.77 20.77 0 0 0-3.28.262c-1.091.174-1.878.325-2.361.453v3.452h.418c.373-.147.987-.356 1.843-.627.856-.27 1.661-.406 2.415-.406 1.253 0 2.203.153 2.847.459.643.306.966.861.966 1.663v.077c-1.35.078-2.654.198-3.91.361-1.257.162-2.31.436-3.16.821-.857.385-1.518.913-1.985 1.58-.468.67-.701 1.53-.701 2.583 0 1.319.459 2.402 1.376 3.25.916.848 2.054 1.272 3.412 1.272.579 0 1.109-.051 1.593-.153.484-.102.95-.258 1.401-.465a6.661 6.661 0 0 0 1.031-.626c.365-.264.67-.49.917-.678v1.523h4.565v-9.79c0-1.726-.579-2.992-1.738-3.8z"/>
        <path fill="#BD2534" d="M9.73 41.755c-.356.307-.77.556-1.24.745-.471.188-.936.281-1.393.281-.577 0-1.002-.04-1.273-.12a1.85 1.85 0 0 1-.7-.38c-.204-.17-.331-.35-.382-.54a2.91 2.91 0 0 1-.076-.731c0-.455.12-.82.363-1.1.24-.278.591-.49 1.05-.635.373-.12.92-.224 1.642-.315.72-.09 1.39-.16 2.01-.212v3.007zm2.828-9.83c-1.16-.807-3.043-1.21-5.649-1.21-1.096 0-2.188.088-3.28.261-1.091.174-1.878.325-2.362.453v3.452h.418c.374-.146.988-.355 1.844-.625.856-.272 1.66-.408 2.414-.408 1.254 0 2.204.154 2.848.46.643.306.965.86.965 1.663v.077c-1.35.078-2.653.198-3.91.36-1.257.162-2.31.437-3.158.822-.858.385-1.52.913-1.987 1.58C.234 39.48 0 40.34 0 41.392c0 1.32.46 2.403 1.377 3.251.916.849 2.054 1.273 3.412 1.273.579 0 1.109-.052 1.593-.154a6.68 6.68 0 0 0 1.401-.464 6.698 6.698 0 0 0 1.031-.628c.365-.263.67-.49.916-.677v1.522h4.565v-9.79c0-1.725-.578-2.991-1.737-3.8zM25.176 41.538c-.604.721-1.522 1.081-2.757 1.081-.344 0-.694-.017-1.047-.051a3.73 3.73 0 0 1-.997-.234v-7.31c.423-.249.868-.441 1.332-.576.467-.133.92-.2 1.36-.2 1.044 0 1.807.32 2.291.958.483.639.725 1.664.725 3.079 0 1.45-.302 2.533-.907 3.253zm4.225-8.836c-1.008-1.332-2.42-1.998-4.237-1.998-.978 0-1.841.184-2.59.551-.748.366-1.481.834-2.199 1.403v-1.515H15.68v19.88h4.695V44.95c.606.32 1.198.568 1.778.745.58.177 1.285.266 2.115.266.9 0 1.743-.174 2.53-.52a6.329 6.329 0 0 0 2.116-1.53c.596-.64 1.079-1.453 1.447-2.44.368-.985.552-2.08.552-3.282 0-2.326-.504-4.155-1.512-5.487zM42.067 40.57c-.149.521-.372.966-.67 1.334a2.189 2.189 0 0 1-.964.715 3.381 3.381 0 0 1-1.193.213c-.485 0-.917-.077-1.296-.232a2.418 2.418 0 0 1-.976-.734c-.282-.352-.495-.818-.64-1.398-.144-.58-.216-1.264-.216-2.055 0-.884.082-1.619.249-2.203.166-.583.389-1.043.67-1.379.314-.36.644-.6.99-.72.344-.12.738-.182 1.18-.182.443 0 .855.074 1.239.22.383.147.71.396.983.747.272.344.485.803.639 1.38.153.573.228 1.287.228 2.137 0 .92-.074 1.639-.223 2.158zm2.928-7.805c-1.364-1.374-3.295-2.06-5.794-2.06-2.464 0-4.387.682-5.769 2.046-1.38 1.364-2.071 3.243-2.071 5.637 0 2.376.686 4.248 2.059 5.617 1.373 1.367 3.3 2.052 5.781 2.052 2.482 0 4.409-.685 5.781-2.052 1.372-1.369 2.06-3.241 2.06-5.617 0-2.378-.683-4.25-2.047-5.623zM57.346 45.643a12.8 12.8 0 0 1-1.564.304c-.552.073-1.226.11-2.024.11-1.78 0-3.105-.366-3.974-1.098-.87-.733-1.305-1.986-1.305-3.76v-6.785h-1.886v-3.17h1.886v-4.152h4.599v4.151h4.268v3.171h-4.268v5.14c0 .508.004.95.012 1.33.009.379.077.719.203 1.02.118.301.327.54.628.716.3.177.736.264 1.31.264.236 0 .546-.05.93-.154.384-.103.653-.197.804-.284h.38v3.197M72.578 45.605h-4.602v-7.13c0-.582-.03-1.159-.089-1.735-.058-.576-.16-1-.303-1.275a1.526 1.526 0 0 0-.74-.69c-.324-.145-.776-.218-1.358-.218-.413 0-.833.068-1.258.205a6.685 6.685 0 0 0-1.384.652v10.191h-4.602V25.738h4.602v7.077c.81-.64 1.59-1.132 2.338-1.473.748-.342 1.578-.513 2.49-.513 1.539 0 2.741.452 3.607 1.357.866.906 1.3 2.258 1.3 4.06v9.36M78.553 36.528c.068-1.023.387-1.767.957-2.232.57-.464 1.298-.696 2.182-.696.952 0 1.655.244 2.105.735.452.49.689 1.222.715 2.193h-5.959zm10.602 1.103c0-2.236-.59-3.95-1.769-5.14-1.18-1.191-2.941-1.787-5.282-1.787-2.54 0-4.538.7-5.995 2.1-1.458 1.4-2.187 3.299-2.187 5.693 0 2.42.77 4.286 2.309 5.596 1.539 1.31 3.754 1.964 6.643 1.964 1.119 0 2.141-.096 3.064-.285.924-.19 1.907-.497 2.95-.92v-3.744h-.515c-.53.417-1.256.807-2.172 1.172a7.636 7.636 0 0 1-2.84.544c-1.543 0-2.712-.305-3.503-.917-.793-.613-1.223-1.497-1.292-2.651h10.589v-1.625zM94.234 36.528c.067-1.023.386-1.767.956-2.232.57-.464 1.298-.696 2.183-.696.952 0 1.654.244 2.105.735.45.49.689 1.222.714 2.193h-5.958zm10.601 1.103c0-2.236-.59-3.95-1.77-5.14-1.179-1.191-2.94-1.787-5.281-1.787-2.54 0-4.537.7-5.995 2.1-1.457 1.4-2.186 3.299-2.186 5.693 0 2.42.77 4.286 2.308 5.596 1.54 1.31 3.754 1.964 6.642 1.964 1.121 0 2.142-.096 3.065-.285a17.07 17.07 0 0 0 2.95-.92v-3.744h-.514c-.531.417-1.256.807-2.172 1.172a7.64 7.64 0 0 1-2.841.544c-1.543 0-2.711-.305-3.503-.917-.793-.613-1.223-1.497-1.291-2.651h10.588v-1.625z"/>
        <g>
            <path fill="#BD2534" d="M106.326 25.75V45.81h4.656v-4.783l1.263-1.543 4.055 6.326h5.336l-5.546-8.24 5.177-6.243h-5.36l-4.925 6.342V25.75h-4.656M112.885 18.016c-4.919 0-8.92-4.013-8.92-8.945 0-4.933 4.001-8.946 8.92-8.946 4.918 0 8.919 4.013 8.919 8.946 0 4.932-4.001 8.945-8.92 8.945m0-16.144c-3.957 0-7.176 3.23-7.176 7.199 0 3.968 3.22 7.198 7.177 7.198 3.957 0 7.176-3.23 7.176-7.198 0-3.97-3.219-7.199-7.176-7.199"/>
            <path fill="#0F9C4D" d="M118.395 7.738h-3.445V4.266h-3.415v3.472h-3.445v3.441h3.445v3.472h3.415V11.18h3.445V7.738"/>
        </g>
    </g>
</svg>
