<svg width="264px" height="150px" id="bbfbda14-a1bb-48ff-96a4-6f5bb9250c04" data-name="Ebene 1" xmlns="http://www.w3.org/2000/svg" viewBox="0 0 132 75"><title>apo-rot_DE</title><path d="M37.9,55.21h7.36l.15-.67,7.93-33.65.24-1.06H46.74l-.21.51-.21.49a15.84,15.84,0,0,0-3.5-1.31,20.58,20.58,0,0,0-5-.57,15.8,15.8,0,0,0-7.66,1.94A20.2,20.2,0,0,0,24,26.09a25.94,25.94,0,0,0-4.14,7.66A28.16,28.16,0,0,0,18.29,43c0,3.95,1,7,2.95,9a10.68,10.68,0,0,0,8,3.07,14.26,14.26,0,0,0,6.14-1.28,32.16,32.16,0,0,0,3.49-2l-.64,2.31Zm-.21-29.82a14.06,14.06,0,0,1,3.83.49A19,19,0,0,1,44.62,27l-4,17.6a33.62,33.62,0,0,1-4.4,2.49,11.19,11.19,0,0,1-4.74,1.16c-2.07,0-3.56-.49-4.41-1.49A7.22,7.22,0,0,1,25.71,42a24.19,24.19,0,0,1,.82-6.14,18,18,0,0,1,2.28-5.35,12.91,12.91,0,0,1,3.77-3.74,9.72,9.72,0,0,1,5.11-1.37Z" fill="#b21736"/><path d="M58.81,40.07a6.11,6.11,0,0,0-2.61.55l-.88.45.15-.63H51.91l-.12.48L47.66,59l-.19.79H51l.12-.49,1.1-4.71a6.3,6.3,0,0,0,1,.36,7.57,7.57,0,0,0,2.13.28,7,7,0,0,0,3.16-.79,8.53,8.53,0,0,0,2.55-2.1,10.18,10.18,0,0,0,1.7-3.13,11.63,11.63,0,0,0,.64-3.89,5.75,5.75,0,0,0-1.15-3.77A4.46,4.46,0,0,0,58.81,40.07Zm-5,11.7a6,6,0,0,1-.88-.33l1.55-6.72a13.58,13.58,0,0,1,1.64-.91,4.29,4.29,0,0,1,1.76-.43,1.87,1.87,0,0,1,1.46.52,2.87,2.87,0,0,1,.45,1.76,8.79,8.79,0,0,1-.3,2.43,6.78,6.78,0,0,1-.91,2,4.58,4.58,0,0,1-1.4,1.34,3.47,3.47,0,0,1-1.85.48A4.54,4.54,0,0,1,53.83,51.77Z" fill="#b21736"/><path d="M72.49,40.07a7.49,7.49,0,0,0-3.4.79A8,8,0,0,0,66.47,43,8.9,8.9,0,0,0,64.83,46a11.77,11.77,0,0,0-.58,3.58,5.87,5.87,0,0,0,1.49,4.17,5.56,5.56,0,0,0,4.1,1.52,7.52,7.52,0,0,0,3.44-.79,8.2,8.2,0,0,0,2.55-2.13,9.54,9.54,0,0,0,1.64-3,11,11,0,0,0,.58-3.62,5.2,5.2,0,0,0-5.56-5.65Zm1.7,8.3a6.39,6.39,0,0,1-.88,2,3.9,3.9,0,0,1-1.37,1.31,3.16,3.16,0,0,1-1.7.46,2.23,2.23,0,0,1-1.76-.67,3,3,0,0,1-.61-2.07,10.57,10.57,0,0,1,.3-2.43,8,8,0,0,1,.88-2,4.8,4.8,0,0,1,1.37-1.3,3.21,3.21,0,0,1,1.7-.46,2.26,2.26,0,0,1,1.74.64,3,3,0,0,1,.61,2.07,8.15,8.15,0,0,1-.28,2.46Z" fill="#b21736"/><path d="M89,44.87H80.3l-.09.49-.52,2.16-.18.79H88.2l.13-.49.48-2.16Z" fill="#b21736"/><path d="M100.73,43.6l.51-2.19.16-.67-.67-.12-.79-.12a7.72,7.72,0,0,0-.92,0,6.57,6.57,0,0,0-2.31.45,12.28,12.28,0,0,0-1.42.7l.09-.39.18-.79H92l-.12.51-3,13.16-.18.79h3.28l.12-.51,2.07-9.06,1-.52c.37-.18.73-.36,1.07-.51a4.52,4.52,0,0,1,1.91-.46,7,7,0,0,1,.88.06c.25,0,.52.09.79.15l.1,0h.73Z" fill="#b21736"/><path d="M108.42,40.07a7.56,7.56,0,0,0-3.41.79A8.07,8.07,0,0,0,102.4,43,9.49,9.49,0,0,0,100.73,46a11.48,11.48,0,0,0-.58,3.58,5.87,5.87,0,0,0,1.49,4.17,5.56,5.56,0,0,0,4.1,1.52,7.55,7.55,0,0,0,3.44-.79,8.2,8.2,0,0,0,2.55-2.13,9.54,9.54,0,0,0,1.64-3,11,11,0,0,0,.58-3.62,5.53,5.53,0,0,0-1.55-4.19,5.48,5.48,0,0,0-4-1.46Zm1.67,8.3a6.63,6.63,0,0,1-.88,2,4,4,0,0,1-1.37,1.31,3.19,3.19,0,0,1-1.7.46,2.27,2.27,0,0,1-1.77-.67,3,3,0,0,1-.6-2.07,11,11,0,0,1,.3-2.43,7.07,7.07,0,0,1,.88-2,4.68,4.68,0,0,1,1.37-1.3,3.19,3.19,0,0,1,1.7-.46,2.22,2.22,0,0,1,1.73.64,3,3,0,0,1,.61,2.07,7.21,7.21,0,0,1-.27,2.43Z" fill="#b21736"/><path d="M121.21,40.47l.7-3,.18-.79h-3.52l-.12.48-.76,3.29h-1.52l-.12.51-.4,1.77-.18.79H117l-1.46,6.32c-.06.33-.12.61-.15.88a8.09,8.09,0,0,0-.06.85,3.4,3.4,0,0,0,1.12,2.77,4.55,4.55,0,0,0,2.92.85,8.68,8.68,0,0,0,1.43-.12,14.51,14.51,0,0,0,1.49-.28l.39-.09.09-.39.43-1.89.18-.79h-1.09l-.12,0c-.1,0-.31.09-.83.21a4.26,4.26,0,0,1-1,.16c-.85,0-1.12-.19-1.15-.25a1.1,1.1,0,0,1-.25-.82,5.58,5.58,0,0,1,.09-.85,7.67,7.67,0,0,1,.22-1l1.27-5.59h4.62l.13-.52.39-1.76.18-.79h-4.62Z" fill="#b21736"/><path d="M130.33,34.78a2.19,2.19,0,0,0-1.61-.7,2.26,2.26,0,0,0-1.61.7,2.3,2.3,0,0,0-.67,1.7,2.37,2.37,0,0,0,.67,1.71,2.2,2.2,0,0,0,1.61.69,2.23,2.23,0,0,0,1.61-.69,2.45,2.45,0,0,0,.67-1.71A2.3,2.3,0,0,0,130.33,34.78Zm-.21,3.16a1.9,1.9,0,0,1-1.4.61,1.79,1.79,0,0,1-1.37-.61,2,2,0,0,1-.57-1.49,2.13,2.13,0,0,1,.57-1.49,1.9,1.9,0,0,1,2.77,0,2.2,2.2,0,0,1,0,3Z" fill="#b21736"/><path d="M129.21,36.57a.76.76,0,0,0,.39-.27.74.74,0,0,0,.15-.45.62.62,0,0,0-.09-.34.56.56,0,0,0-.24-.21,1.25,1.25,0,0,0-.3-.12c-.1,0-.25,0-.4,0h-.82v2.52h.43v-1h.42l.85,1h.58Zm-.28-.24a.83.83,0,0,1-.27,0h-.33v-.88H129a.47.47,0,0,1,.19.06.23.23,0,0,1,.12.12.4.4,0,0,1,0,.19.44.44,0,0,1,0,.21.53.53,0,0,1-.12.15.52.52,0,0,1-.22.12Z" fill="#b21736"/><path d="M49,68.61c-.57.24-1.24.58-2.15.94C48.26,69.16,49.18,68.76,49,68.61Z" fill="#b21736"/><path d="M26.84,72a36.45,36.45,0,0,1-21-16.54A32.8,32.8,0,0,1,1.43,41.71a35.3,35.3,0,0,0,3.1,10.88A36,36,0,0,0,22.15,70a35.34,35.34,0,0,0,25.48,1.4A32,32,0,0,0,59.75,64.3a33.63,33.63,0,0,1-9,5.65A34.94,34.94,0,0,1,7.32,56.27,30.21,30.21,0,0,1,2.64,43a33.39,33.39,0,0,0,2.95,9.39A35.52,35.52,0,0,0,21,68.22c8.3,4,16,4.56,22.58,3a29.66,29.66,0,0,0,12.37-5.63,31.07,31.07,0,0,1-5.35,3.07A33.4,33.4,0,0,1,44,71a11.45,11.45,0,0,0,2.86-1,29.5,29.5,0,0,1-7.72,1.46,29,29,0,0,1-4.84,0,38,38,0,0,0,7.08-.4,22,22,0,0,0,5.51-1.52c-1,.31-2.19.61-3.44.88a34.06,34.06,0,0,1-12.52.22,34.78,34.78,0,0,1-10.18-3.77A33.1,33.1,0,0,1,6.93,23.38,32.72,32.72,0,0,1,24.43,7.15,32.34,32.34,0,0,1,50.91,8.37C59.42,12.59,66.29,21,67.75,31c1.88.58,2.16.64,4.13,1.28,0-.43.09-.58-1-4.89a34.44,34.44,0,0,0-3.95-9.06A35.23,35.23,0,0,0,54,6.06a32.5,32.5,0,0,0-7.54-3.25,34.94,34.94,0,0,0-20.52.3,33.49,33.49,0,0,0-4.83,2,36.12,36.12,0,0,0-.45,64.62,35.73,35.73,0,0,0,20.27,3.64,34,34,0,0,0,14.83-5.13,29.1,29.1,0,0,0,6.2-5.11,34.63,34.63,0,0,1-9.51,6.75A35.82,35.82,0,0,1,26.84,72Z" fill="#b21736"/></svg>
