<?xml version="1.0" encoding="UTF-8"?><svg width="200px" height="71px" viewBox="0 0 200 71" version="1.1" xmlns="http://www.w3.org/2000/svg" xmlns:xlink="http://www.w3.org/1999/xlink">        <title>DM_Logo_2018</title>    <desc>Created with Sketch.</desc>    <defs>        <polygon id="path-1" points="0 62.224 199.036 62.224 199.036 0.51 0 0.51"></polygon>        <polygon id="path-3" points="0 62.224 199.036 62.224 199.036 0.51 0 0.51"></polygon>        <polygon id="path-5" points="0 62.224 199.036 62.224 199.036 0.51 0 0.51"></polygon>        <polygon id="path-7" points="0 62.224 199.036 62.224 199.036 0.51 0 0.51"></polygon>    </defs>    <g id="Page-1" stroke="none" stroke-width="1" fill="none" fill-rule="evenodd">        <g id="DM_Logo_2018">            <path d="M77.947,66 L77.947,49.601 L83.237,49.601 C86.112,49.601 88.182,51.05 88.182,54.109 L88.182,61.239 C88.182,64.367 86.135,66 83.237,66 L77.947,66 Z M79.649,64.551 L83.007,64.551 C85.468,64.551 86.457,62.987 86.457,61.239 L86.457,54.339 C86.457,52.499 85.399,51.05 83.053,51.05 L79.649,51.05 L79.649,64.551 Z M91.264,66 L91.264,54.293 L92.874,54.293 L92.874,66 L91.264,66 Z M91.264,52.292 L91.264,49.831 L92.874,49.831 L92.874,52.292 L91.264,52.292 Z M100.188,66.276 C97.635,66.276 95.841,65.011 95.841,62.044 L95.841,58.479 C95.841,55.604 97.681,54.017 100.096,54.017 C102.58,54.017 104.052,55.581 104.052,58.157 L104.052,60.457 L97.474,60.457 L97.474,62.067 C97.474,64.045 98.509,64.919 100.418,64.919 C101.729,64.919 102.626,64.436 103.27,64.068 L103.868,65.149 C102.81,65.977 101.522,66.276 100.188,66.276 Z M97.474,59.284 L102.511,59.284 L102.511,58.019 C102.511,56.639 101.89,55.259 99.981,55.259 C98.21,55.259 97.474,56.662 97.474,58.019 L97.474,59.284 Z M109.963,66 L114.908,49.555 L116.955,49.555 L121.808,66 L120.083,66 L118.588,60.825 L113.091,60.825 L111.573,66 L109.963,66 Z M113.436,59.468 L118.197,59.468 L115.851,51.326 L115.828,51.326 L113.436,59.468 Z M124.108,70.094 L124.108,54.293 L125.626,54.293 L125.626,56.225 L125.672,56.225 C126.385,54.661 127.834,53.994 129.03,53.994 C131.192,53.994 132.342,55.535 132.342,57.375 L132.342,62.435 C132.342,64.827 130.939,66.276 128.8,66.276 C127.627,66.276 126.224,65.563 125.764,64.206 L125.718,64.206 L125.718,70.094 L124.108,70.094 Z M128.616,65.057 C129.835,65.057 130.732,64.275 130.732,62.619 L130.732,57.605 C130.732,56.34 130.088,55.305 128.478,55.305 C126.937,55.305 125.718,56.731 125.718,58.778 L125.718,61.607 C125.718,63.585 126.96,65.057 128.616,65.057 Z M139.081,66.276 C136.574,66.276 134.872,64.85 134.872,62.067 L134.872,58.272 C134.872,55.535 136.643,54.017 139.035,54.017 C141.519,54.017 143.244,55.443 143.244,58.203 L143.244,61.998 C143.244,64.873 141.473,66.276 139.081,66.276 Z M139.104,64.965 C141.013,64.965 141.634,63.677 141.634,62.021 L141.634,58.111 C141.634,56.547 140.875,55.282 139.035,55.282 C137.172,55.282 136.482,56.616 136.482,58.226 L136.482,62.044 C136.482,63.838 137.241,64.965 139.104,64.965 Z M149.753,66.207 C148.511,66.207 147.154,65.77 147.154,63.907 L147.154,55.627 L145.245,55.627 L145.245,54.339 L147.154,54.339 L147.154,50.935 L148.764,50.935 L148.764,54.339 L151.777,54.339 L151.777,55.627 L148.764,55.627 L148.764,63.401 C148.764,64.344 149.247,64.758 150.282,64.758 C150.742,64.758 151.271,64.643 151.685,64.505 L151.685,65.839 C150.972,66.092 150.305,66.207 149.753,66.207 Z M154.169,66 L154.169,49.601 L155.779,49.601 L155.779,56.225 L155.825,56.225 C156.515,54.707 157.918,54.017 159.367,54.017 C161.207,54.017 162.311,55.351 162.311,57.007 L162.311,66 L160.701,66 L160.701,57.49 C160.701,55.903 160.011,55.305 158.677,55.305 C157.274,55.305 155.779,56.754 155.779,58.525 L155.779,66 L154.169,66 Z M169.533,66.276 C166.98,66.276 165.186,65.011 165.186,62.044 L165.186,58.479 C165.186,55.604 167.026,54.017 169.441,54.017 C171.925,54.017 173.397,55.581 173.397,58.157 L173.397,60.457 L166.819,60.457 L166.819,62.067 C166.819,64.045 167.854,64.919 169.763,64.919 C171.074,64.919 171.971,64.436 172.615,64.068 L173.213,65.149 C172.155,65.977 170.867,66.276 169.533,66.276 Z M166.819,59.284 L171.856,59.284 L171.856,58.019 C171.856,56.639 171.235,55.259 169.326,55.259 C167.555,55.259 166.819,56.662 166.819,58.019 L166.819,59.284 Z M176.249,66 L176.249,49.601 L177.859,49.601 L177.859,60.089 L182.275,54.293 L184.115,54.293 L180.964,58.295 L184.253,66 L182.551,66 L179.791,59.514 L177.859,61.952 L177.859,66 L176.249,66 Z M190.164,66.276 C187.611,66.276 185.817,65.011 185.817,62.044 L185.817,58.479 C185.817,55.604 187.657,54.017 190.072,54.017 C192.556,54.017 194.028,55.581 194.028,58.157 L194.028,60.457 L187.45,60.457 L187.45,62.067 C187.45,64.045 188.485,64.919 190.394,64.919 C191.705,64.919 192.602,64.436 193.246,64.068 L193.844,65.149 C192.786,65.977 191.498,66.276 190.164,66.276 Z M187.45,59.284 L192.487,59.284 L192.487,58.019 C192.487,56.639 191.866,55.259 189.957,55.259 C188.186,55.259 187.45,56.662 187.45,58.019 L187.45,59.284 Z M196.673,66 L196.673,63.447 L198.352,63.447 L198.352,66 L196.673,66 Z" id="Die-Apotheke." fill="#000000"></path>            <mask id="mask-2" fill="white">                <use xlink:href="#path-1"></use>            </mask>            <g id="a"></g>            <path d="M41.563,23.279 C34.088,23.279 31.315,25.37 31.315,31.635 C31.315,37.898 34.088,39.99 41.563,39.99 C49.039,39.99 51.811,37.898 51.811,31.635 C51.811,25.37 49.039,23.279 41.563,23.279 M41.563,35.809 C38.246,35.809 36.86,34.766 36.86,31.635 C36.86,28.504 38.246,27.458 41.563,27.458 C44.88,27.458 46.267,28.504 46.267,31.635 C46.267,34.766 44.88,35.809 41.563,35.809" id="Shape" fill="#92C01F" fill-rule="nonzero" mask="url(#mask-2)"></path>            <mask id="mask-4" fill="white">                <use xlink:href="#path-3"></use>            </mask>            <g id="a"></g>            <path d="M174.536,38.967 L174.536,24.303 C174.536265,24.0921528 174.452761,23.889836 174.303857,23.740557 C174.154953,23.591278 173.952847,23.507265 173.742,23.507 L169.784,23.507 C169.345324,23.5081032 168.990447,23.8643232 168.991,24.303 L168.991,38.967 C168.991,39.407 169.345,39.762 169.783,39.762 L173.743,39.762 C173.953664,39.7620007 174.15567,39.6781782 174.304444,39.529029 C174.453218,39.3798798 174.536531,39.177663 174.536,38.967" id="Shape" fill="#000000" fill-rule="nonzero" mask="url(#mask-4)"></path>            <mask id="mask-6" fill="white">                <use xlink:href="#path-5"></use>            </mask>            <g id="a"></g>            <path d="M179.502,4.874 L177.573,4.874 C177.427035,4.87344919 177.308999,4.75496582 177.309,4.609 L177.309,2.699 C177.309,1.489 176.33,0.509 175.123,0.509 L168.404,0.509 C167.195,0.509 166.218,1.489 166.218,2.699 L166.218,4.609 C166.218001,4.75496582 166.099965,4.87344919 165.954,4.874 L164.027,4.874 C162.820231,4.87785727 161.843994,5.8572248 161.844,7.064 L161.844,13.809 C161.844551,15.0173325 162.823668,15.9968966 164.032,15.998 L165.954,15.998 C166.1,15.998 166.218,16.117 166.218,16.263 L166.218,18.186 C166.222954,19.3899405 167.200049,20.3634597 168.404,20.364 L175.124,20.364 C176.326,20.364 177.304,19.39 177.309,18.186 L177.309,16.263 C177.309,16.117 177.427,15.998 177.573,15.998 L179.498,15.998 C180.703,15.998 181.682,15.018 181.682,13.809 L181.682,7.064 C181.68311,5.8579379 180.708055,4.87840922 179.502,4.874 Z M178.542,12.038 C178.542,12.2485819 178.458347,12.4505389 178.309443,12.5994428 C178.160539,12.7483467 177.958582,12.832 177.748,12.832 L174.681,12.832 C174.391026,12.8358302 174.157975,13.0720011 174.158,13.362 L174.158,16.426 C174.158,16.6370205 174.074104,16.8393835 173.924796,16.9885037 C173.775489,17.1376239 173.57302,17.2212654 173.362,17.221 L170.163,17.221 C169.72439,17.2199007 169.369099,16.8646102 169.368,16.426 L169.368,13.362 C169.368042,13.0727681 169.13619,12.8369115 168.847,12.832 L165.779,12.832 C165.340876,12.8314482 164.986,12.4761239 164.986,12.038 L164.986,8.835 C164.986,8.397 165.34,8.04 165.779,8.04 L168.845,8.04 C169.134974,8.03616983 169.368025,7.7999989 169.368,7.51 L169.368,4.447 C169.368,4.009 169.725,3.653 170.163,3.653 L173.363,3.653 C173.801,3.653 174.158,4.008 174.158,4.447 L174.158,7.512 C174.158,7.802 174.392,8.038 174.683,8.042 L177.748,8.042 C178.188,8.042 178.542,8.398 178.542,8.836 L178.542,12.039 L178.542,12.038 Z M17.26,16.915 L0.796,16.915 C0.585071126,16.9149993 0.382810434,16.9989271 0.233848924,17.1482639 C0.0848874143,17.2976006 0.00146869301,17.5000718 0.002,17.711 L0.002,38.967 C0.002,39.407 0.357,39.761 0.796,39.761 L17.26,39.761 C21.342,39.761 27.977,38.97 28.006,28.34 C28.034,17.709 21.342,16.915 17.26,16.915 Z M16.803,34.56 L6.41,34.56 L6.41,22.118 L16.805,22.118 C18.808,22.118 21.851,22.685 21.826,28.34 C21.802,33.992 18.808,34.56 16.806,34.56 L16.803,34.56 Z M72.744,38.967 L72.744,36.221 C72.7434482,35.7828765 72.3881239,35.4279997 71.95,35.428 L64.482,35.428 C63.192,35.428 60.987,35.428 60.987,31.635 C60.987,27.67 63.16,27.67 64.48,27.67 L71.721,27.67 C72.161,27.67 72.515,27.314 72.515,26.874 L72.515,24.303 C72.5152654,24.0921528 72.4317611,23.889836 72.2828572,23.740557 C72.1339533,23.591278 71.9318472,23.507265 71.721,23.507 L63.924,23.507 C61.13,23.507 55.443,23.507 55.443,31.635 C55.443,39.763 61.13,39.763 63.924,39.763 L71.949,39.763 C72.1600205,39.7630002 72.3623835,39.6791042 72.5115037,39.5297964 C72.6606239,39.3804887 72.7442654,39.1780203 72.744,38.967 Z" id="Shape" fill="#92C01F" fill-rule="nonzero" mask="url(#mask-6)"></path>            <mask id="mask-8" fill="white">                <use xlink:href="#path-7"></use>            </mask>            <g id="a"></g>            <path d="M193.959,29.61 L185.117,29.61 C184.597,29.61 183.891,29.61 183.891,28.64 C183.891,27.67 184.596,27.67 185.117,27.67 L196.46,27.67 C196.894602,27.6639789 197.243589,27.3096433 197.243,26.875 L197.243,24.302 C197.243,23.8634859 196.887514,23.508 196.449,23.508 L183.867,23.508 C181.051,23.508 178.79,25.793 178.79,28.612 C178.79,31.431 181.051,33.546 183.867,33.546 L192.795,33.546 C193.165,33.546 194.05,33.546 194.05,34.573 C194.05,35.601 193.164,35.601 192.795,35.601 L179.813,35.601 C179.602255,35.6004671 179.399988,35.6839493 179.250969,35.8329689 C179.101949,35.9819884 179.018467,36.1842552 179.019,36.395 L179.019,38.967 C179.019,39.406 179.373,39.761 179.813,39.761 L193.959,39.761 C196.775,39.761 199.037,37.476 199.037,34.658 C199.037,31.838 196.775,29.61 193.959,29.61 Z M139.129,38.967 C139.129,39.407 139.483,39.763 139.923,39.763 L143.877,39.763 C144.317,39.763 144.672,39.407 144.672,38.967 L144.672,31.863 C144.672,28.731 146.059,27.688 149.376,27.688 L150.686,27.688 C151.126,27.688 151.482,27.331 151.482,26.891 L151.482,24.331 C151.482,23.8917716 151.126228,23.5355518 150.687,23.535 C150.684,23.535 149.857,23.507 149.377,23.507 C141.901,23.507 139.129,25.598 139.129,31.863 L139.129,38.967 Z M153.495,38.967 C153.495,39.407 153.852,39.763 154.291,39.763 L158.246,39.763 C158.684837,39.7618974 159.040001,39.4058388 159.04,38.967 L159.04,31.863 C159.042,28.731 160.428,27.688 163.744,27.688 L165.054,27.688 C165.494,27.688 165.851,27.331 165.851,26.891 L165.851,24.331 C165.851,23.8913813 165.494619,23.535 165.055,23.535 C165.051,23.535 164.225,23.507 163.744,23.507 C156.268,23.507 153.495,25.598 153.495,31.863 L153.495,38.967 Z M125.147,23.279 C117.672,23.279 114.899,25.37 114.899,31.635 C114.899,37.898 117.672,39.99 125.147,39.99 C132.623,39.99 135.395,37.898 135.395,31.635 C135.395,25.37 132.623,23.279 125.147,23.279 Z M125.147,35.809 C121.831,35.809 120.444,34.766 120.444,31.635 C120.444,28.504 121.831,27.458 125.147,27.458 C128.464,27.458 129.85,28.504 129.85,31.635 C129.85,34.766 128.464,35.809 125.147,35.809 Z M96.012,39.762 C96.312,39.762 96.572,39.596 96.706,39.351 C96.706,39.351 102.793,26.92 104.88,22.805 C104.886,22.791 104.905,22.756 104.921,22.752 C104.938,22.749 104.963,22.752 104.963,22.805 L104.963,38.967 C104.963,39.407 105.319,39.762 105.758,39.762 L110.068,39.762 C110.506285,39.7608974 110.861001,39.4052865 110.861,38.967 L110.861,17.71 C110.860448,17.2707719 110.504228,16.9149997 110.065,16.915 L102.285,16.915 C101.992422,16.9145317 101.723356,17.0752026 101.585,17.333 L94.335,30.726 L87.083,17.333 C86.9443132,17.0755187 86.6754563,16.9149727 86.383,16.915 L78.603,16.915 C78.3922447,16.9149998 78.190136,16.9987904 78.0412034,17.1479107 C77.8922707,17.2970309 77.8087346,17.4992449 77.809,17.71 L77.809,38.966 C77.809,39.404 78.163,39.759 78.601,39.761 L82.911,39.761 C83.1217553,39.7610002 83.323864,39.6772096 83.4727966,39.5280893 C83.6217293,39.3789691 83.7052654,39.1767551 83.705,38.966 L83.705,22.805 C83.705,22.752 83.73,22.749 83.747,22.752 C83.763,22.756 83.78,22.791 83.789,22.805 C85.874,26.92 91.963,39.351 91.963,39.351 C92.1017917,39.6039676 92.3674593,39.7611447 92.656,39.761 L96.012,39.761 L96.012,39.762 Z" id="Shape" fill="#000000" fill-rule="nonzero" mask="url(#mask-8)"></path>        </g>    </g></svg>