<svg width="163" height="50" viewBox="0 0 163 50" xmlns="http://www.w3.org/2000/svg"><title>5A357099-90C6-49C3-84B7-84ADF98E0F05</title><g fill="none" fill-rule="evenodd"><path d="M132.664 41.695V27.14c0-4.61-2.302-6.02-5.621-6.02-3.584 0-6.564 2.705-6.564 2.705l-.755-2.324h-3.433v20.193h4.301V26.607s2.49-1.753 5.017-1.753c1.584 0 2.754.267 2.754 2.363v14.478h4.3z" fill="#274487"/><path d="M108.338 31.598c0 6.591-2.64 7.277-4.338 7.277s-4.339-.647-4.339-7.277c0-6.706 2.264-7.315 4.339-7.315 2.074 0 4.338.457 4.338 7.315zm4.3 0c0-9.182-4.79-10.477-8.638-10.477s-8.64 1.524-8.64 10.477c0 9.144 4.83 10.478 8.64 10.478 3.772 0 8.639-1.181 8.639-10.478zm-24.973-.114c0 6.477-2.264 7.315-4.3 7.315-1.51 0-3.17-.533-3.471-.648V25.96c.377-.38 2.15-1.485 3.923-1.485 2.226 0 3.848.647 3.848 7.01zm4.3 0c0-9.41-4.376-10.363-7.431-10.363-2.716 0-4.414 1.714-4.942 2.362l-.68-1.981h-3.32v27.432h4.302V41.2c.301.19 1.961.876 3.697.876 2.678 0 8.374-.876 8.374-10.592zM65.068 37.16s-1.773 1.562-3.848 1.562c-1.547 0-2.792-.495-2.792-3.277 0-2.972 1.585-3.657 4.64-3.734l2-.038v5.487zm4.3 4.534V27.674c0-5.563-3.13-6.553-6.903-6.553-3.433 0-6.564 1.104-6.564 1.104v3.544c.377-.114 3.546-1.067 5.847-1.067 2.075 0 3.32.229 3.32 2.629v1.867h-3.357c-3.17 0-7.583.952-7.583 6.477 0 5.448 3.32 6.4 5.772 6.4 3.47 0 5.281-2.476 5.281-2.476l.49 2.096h3.698z" fill="#CD1719"/><path d="M52.814 25.73v-4.38s-.943-.23-1.924-.23c-2.867 0-3.999 2.744-3.999 2.744l-.566-2.363H42.93v20.194h4.3V26.53s1.095-1.181 2.868-1.181c1.245 0 2.716.38 2.716.38zM36.517 41.696V21.5h-4.3v15.126s-2.415 1.753-4.565 1.753c-1.698 0-2.452-.724-2.452-2.895V21.5h-4.3v14.67c0 4.457 2.376 5.905 5.583 5.905 3.32 0 5.96-2.782 5.96-2.782l.566 2.4h3.508zM11.431 30.15H4.3c.037-4.305 1.32-5.982 3.81-5.982 2.263 0 3.282 1.6 3.32 5.982zm4.187 1.448c.226-8.801-3.999-10.477-7.507-10.477C4.263 21.12 0 23.216 0 31.598c0 9.373 4.829 10.478 8.865 10.478 2.905 0 5.621-.991 5.621-.991v-3.62s-3.32 1.03-5.62 1.03c-1.812 0-4.565-.42-4.603-5.487H15.58l.038-1.41z" fill="#274487"/><g><path d="M125.584 14.64c.006-.532.087-.911.242-1.137.155-.225.387-.338.697-.338.28 0 .484.112.614.334.13.222.199.602.205 1.141h-1.758zm2.781.704c0-.1.001-.181.004-.244.004-.062.005-.11.005-.14v-.132c0-.507-.057-.92-.172-1.235-.115-.316-.26-.56-.437-.733a1.394 1.394 0 0 0-.595-.352 2.359 2.359 0 0 0-.647-.094c-.235 0-.472.037-.71.113-.24.075-.455.21-.647.404-.193.194-.348.458-.465.793-.118.335-.177.76-.177 1.273 0 .576.067 1.035.2 1.376.133.341.305.6.516.78.21.178.447.294.707.347a3.8 3.8 0 0 0 1.497.01c.236-.048.453-.106.651-.174v-.893c-.223.07-.46.129-.711.179-.251.05-.476.075-.675.075-.11 0-.232-.013-.362-.038a.843.843 0 0 1-.367-.174 1.016 1.016 0 0 1-.289-.403c-.077-.179-.116-.425-.116-.738h2.79zm-8.665 2.142h1.06v-6.763h-1.06v6.763zm3.943 0l-1.656-2.884 1.47-2.094H122.2l-1.283 2.132 1.516 2.94 1.209-.094zm-8.382-2.846c.006-.532.087-.911.242-1.137.155-.225.387-.338.697-.338.28 0 .484.112.614.334.13.222.198.602.205 1.141h-1.758zm2.78.704c0-.1.002-.181.005-.244.003-.062.005-.11.005-.14v-.132c0-.507-.058-.92-.172-1.235-.115-.316-.26-.56-.437-.733a1.394 1.394 0 0 0-.595-.352 2.36 2.36 0 0 0-.647-.094c-.235 0-.472.037-.711.113-.239.075-.454.21-.646.404-.193.194-.348.458-.466.793-.117.335-.176.76-.176 1.273 0 .576.066 1.035.2 1.376.133.341.305.6.516.78.21.178.446.294.707.347a3.803 3.803 0 0 0 1.497.01c.235-.048.452-.106.65-.174v-.893c-.222.07-.46.129-.71.179-.252.05-.476.075-.675.075-.111 0-.232-.013-.362-.038a.842.842 0 0 1-.368-.174 1.016 1.016 0 0 1-.288-.403c-.078-.179-.116-.425-.116-.738h2.79zm-5.49 2.142v-3.588c0-.282-.033-.518-.101-.71a1.126 1.126 0 0 0-.284-.455 1.077 1.077 0 0 0-.437-.244 2.002 2.002 0 0 0-.563-.075c-.167 0-.331.023-.493.07a3.259 3.259 0 0 0-.455.17 2.71 2.71 0 0 0-.642.418v-2.349h-1.06v6.763h1.06v-3.71c.18-.113.386-.215.619-.306.232-.09.438-.136.618-.136.217 0 .384.035.502.104.118.069.177.228.177.479v3.569h1.06zm-5.374-.949c-.18.05-.343.091-.488.122a1.788 1.788 0 0 1-.368.047.526.526 0 0 1-.293-.07c-.071-.047-.107-.161-.107-.343v-3.024h1.005l.111-.761h-1.116v-1.503l-.995.385-.065 1.118h-.837v.76h.837v3.016c0 .269.031.488.093.657.062.17.149.3.26.395a.918.918 0 0 0 .392.192c.148.034.31.052.483.052.198 0 .389-.02.572-.057a5.37 5.37 0 0 0 .516-.131v-.855z" fill="#25317A"/><path d="M101.82 15.964c-.07.238-.161.418-.27.54a.737.737 0 0 1-.348.235 1.29 1.29 0 0 1-.344.052c-.106 0-.22-.018-.344-.052a.735.735 0 0 1-.349-.235c-.108-.122-.199-.302-.27-.54-.07-.238-.107-.56-.107-.967 0-.413.031-.739.093-.977s.145-.418.247-.54a.681.681 0 0 1 .344-.235c.127-.034.256-.051.386-.051s.258.014.386.042a.627.627 0 0 1 .344.225c.102.122.184.304.246.545.062.24.093.571.093.99 0 .408-.036.73-.107.968zm.967-2.324c-.133-.342-.303-.603-.511-.785a1.55 1.55 0 0 0-.688-.356 3.013 3.013 0 0 0-1.46.01c-.251.062-.48.185-.688.37-.208.185-.379.446-.512.784s-.2.783-.2 1.334c0 .563.067 1.014.2 1.352.133.338.304.6.512.784.207.185.437.306.688.362.25.056.494.085.73.085.229 0 .47-.027.72-.08.252-.053.482-.17.694-.352.21-.182.382-.442.515-.78s.2-.795.2-1.371c0-.564-.067-1.016-.2-1.357zm-6.602 2.287c-.062.238-.145.42-.247.544a.705.705 0 0 1-.344.244 1.322 1.322 0 0 1-.377.057c-.092 0-.186-.006-.279-.019a2.745 2.745 0 0 1-.464-.103l-.112-.038v-3.005a.863.863 0 0 1 .13-.099 1.78 1.78 0 0 1 .512-.225 1.355 1.355 0 0 1 .707.01.57.57 0 0 1 .302.225c.083.115.148.288.195.516.046.229.07.54.07.935 0 .4-.032.72-.093.958zm.972-2.34c-.121-.337-.272-.592-.452-.764a1.268 1.268 0 0 0-.595-.334 2.703 2.703 0 0 0-.604-.075c-.168 0-.32.023-.456.07a1.838 1.838 0 0 0-.358.165 1.493 1.493 0 0 0-.255.192 1.949 1.949 0 0 0-.15.155l-.167-.488h-.818v6.762h1.06v-1.906a1.349 1.349 0 0 0 .32.127c.085.021.178.042.28.06.102.02.206.029.311.029.112 0 .239-.01.382-.029.142-.018.291-.058.446-.117.155-.06.305-.147.451-.263.146-.116.278-.27.395-.46.118-.191.213-.429.284-.714.071-.285.107-.627.107-1.028 0-.583-.06-1.043-.181-1.381zm-6.792 2.781a2.252 2.252 0 0 1-.47.282 1.186 1.186 0 0 1-.744.075.45.45 0 0 1-.218-.117.623.623 0 0 1-.149-.25 1.275 1.275 0 0 1-.056-.413c0-.181.025-.331.075-.45a.608.608 0 0 1 .218-.278.955.955 0 0 1 .358-.14c.143-.029.307-.046.493-.052l.493-.01v1.353zm1.06 1.118v-3.457c0-.344-.045-.621-.135-.83a1.172 1.172 0 0 0-.367-.49 1.326 1.326 0 0 0-.544-.234 3.404 3.404 0 0 0-.656-.06 5.384 5.384 0 0 0-1.618.272v.873l.186-.052a7.088 7.088 0 0 1 .805-.174 2.898 2.898 0 0 1 .795-.018c.099.012.184.04.256.084a.415.415 0 0 1 .162.193.896.896 0 0 1 .056.352v.46h-.828a3.65 3.65 0 0 0-.623.056 1.68 1.68 0 0 0-.604.23c-.186.117-.34.28-.46.49-.121.209-.182.483-.182.82 0 .339.047.611.14.818.093.207.21.366.349.479.14.113.293.188.46.225.167.038.325.057.474.057.155 0 .3-.02.437-.057a1.81 1.81 0 0 0 .372-.145c.112-.06.208-.125.288-.197a1.84 1.84 0 0 0 .205-.212l.121.517h.911z" fill="#CD1719"/><path d="M80.368 14.64c.006-.532.087-.911.242-1.137.155-.225.387-.338.697-.338.28 0 .484.112.614.334.13.222.199.602.205 1.141h-1.758zm2.78.704c0-.1.002-.181.005-.244.003-.062.005-.11.005-.14v-.132c0-.507-.057-.92-.172-1.235-.115-.316-.26-.56-.437-.733a1.393 1.393 0 0 0-.595-.352 2.36 2.36 0 0 0-.647-.094c-.235 0-.472.037-.711.113-.239.075-.454.21-.646.404-.193.194-.348.458-.465.793-.118.335-.177.76-.177 1.273 0 .576.066 1.035.2 1.376.133.341.305.6.516.78.21.178.447.294.707.347a3.803 3.803 0 0 0 1.497.01c.236-.048.453-.106.651-.174v-.893c-.223.07-.46.129-.711.179-.251.05-.476.075-.675.075-.111 0-.232-.013-.362-.038a.845.845 0 0 1-.368-.174 1.02 1.02 0 0 1-.288-.403c-.078-.179-.116-.425-.116-.738h2.79zm-5.489 2.142v-3.588c0-.282-.034-.518-.102-.71a1.173 1.173 0 0 0-.284-.46 1.009 1.009 0 0 0-.437-.244 2.119 2.119 0 0 0-.562-.07c-.168 0-.33.022-.489.066a2.814 2.814 0 0 0-.832.38 3.136 3.136 0 0 0-.298.22l-.186-.572h-.846v4.978h1.06v-3.72c.161-.106.354-.205.577-.296a1.746 1.746 0 0 1 .93-.117c.08.013.152.04.214.08s.11.099.144.174a.771.771 0 0 1 .051.31v3.569h1.06zm-7.014 0h1.06v-4.978h-1.06v4.978zm1-6.838a.627.627 0 0 0-.47-.197.612.612 0 0 0-.464.197.671.671 0 0 0-.187.48c0 .187.062.347.187.478a.612.612 0 0 0 .464.197.627.627 0 0 0 .47-.197.664.664 0 0 0 .19-.479.664.664 0 0 0-.19-.479zm-3.94 6.838h1.06v-6.763h-1.06v6.763zm-1.853 0v-3.588c0-.282-.035-.518-.103-.71a1.17 1.17 0 0 0-.283-.46 1.01 1.01 0 0 0-.437-.244 2.118 2.118 0 0 0-.563-.07c-.167 0-.33.022-.488.066a2.814 2.814 0 0 0-.833.38 3.13 3.13 0 0 0-.297.22l-.186-.572h-.846v4.978h1.06v-3.72c.16-.106.353-.205.576-.296a1.747 1.747 0 0 1 .93-.117c.08.013.152.04.214.08a.4.4 0 0 1 .144.174.767.767 0 0 1 .051.31v3.569h1.06zm-6.83-1.522c-.07.238-.16.418-.269.54a.735.735 0 0 1-.349.235 1.292 1.292 0 0 1-.344.052c-.105 0-.22-.018-.344-.052a.733.733 0 0 1-.348-.235c-.109-.122-.199-.302-.27-.54-.072-.238-.107-.56-.107-.967 0-.413.03-.739.093-.977.062-.238.144-.418.246-.54a.683.683 0 0 1 .345-.235c.126-.034.255-.051.385-.051s.26.014.386.042a.627.627 0 0 1 .344.225c.103.122.185.304.247.545.062.241.093.571.093.99 0 .408-.036.73-.107.968zm.968-2.325c-.133-.34-.304-.602-.511-.784a1.55 1.55 0 0 0-.689-.356 3.015 3.015 0 0 0-1.46.01c-.25.062-.48.185-.688.37-.208.185-.378.446-.511.784-.134.338-.2.783-.2 1.334 0 .563.066 1.014.2 1.352.133.338.303.6.511.784.208.185.437.306.688.362.251.056.495.085.73.085.23 0 .47-.027.721-.08.251-.053.482-.17.693-.352.21-.182.383-.442.516-.78s.2-.795.2-1.371c0-.564-.067-1.016-.2-1.358z" fill="#25317A"/></g><g><path fill="#274487" d="M147.26 0l-13.058 13.187v2.12l13.057 13.186 2.1.001 6.892-6.948.266-.266-1.5-1.525-6.538 6.59h-.339l-11.81-11.928v-.34l11.81-11.928h.336l6.275 6.345.228.23 1.503-1.52L149.358 0z"/><path fill="#CD1719" d="M157.542 20.23l-1.505-1.518 4.251-4.295v-.34l-4.26-4.298 1.504-1.52 4.883 4.927v2.12z"/><path fill="#8ABD24" d="M145.85 11.876h-4.83v4.84h4.808v4.898h4.834v-4.899h4.834v-4.851h-4.812V6.982h-4.834z"/></g></g></svg>