<svg width="300px" height="59px" id="Ebene_1" data-name="Ebene 1" xmlns="http://www.w3.org/2000/svg" viewBox="0 0 600 117.79"><defs><style>.cls-1{fill:#b91120;}.cls-2{fill:#9ea0a1;}.cls-3{fill:#fefefe;}.cls-4{fill:#fbda22;}</style></defs><title>logo-apodiscounter</title><path class="cls-1" d="M0,38.8c3.64-5.14,9.08-6.64,14.9-7.62,3.73-.62,7.38-1.69,11.11-2.57.12-3,.16-5.72-3-6.75-4-1.29-7.84-1.06-11.23,1.73a7.56,7.56,0,0,0-1,1.12c-1.47,1.9-2.38,4.75-5.59,3.94-1.59-.4-3.08-1.33-3.23-3.33-.24-3.09,1.18-5.38,3.5-7.24,5.2-4.18,20-5,25.69-1.42,3.28,2.05,4.53,5.25,4.86,8.82.75,7.89-.85,16,1.89,23.71.63,1.78-.64,3.12-2.21,4A3.92,3.92,0,0,1,31,53.06c-1.45-1.09-2.84-2.28-4.66-3.76C22.6,51.42,18.13,54,12.54,54,6.77,54,3.29,50.73,0,46.8Zm25.93-4.07c-3.8.9-7.61,1.7-11.36,2.72-2.7.75-5.06,2.15-4.45,5.51s3.36,4.56,6.29,4.36C22.09,46.93,27.31,44.63,25.93,34.73Z"/><path class="cls-2" d="M600,49.8c-2.75,2.12-5.63,4.05-9.3,3.84-5.27-.3-8.68-3.16-9.52-7.77-.88-4.88,1.16-9.49,5.05-11.38,4.27-2.07,9.45-.7,12.71,3.35a8.83,8.83,0,0,0,1.06,1v5c-4.31,2.14-9.09.09-13.51,1.4,1.46,4.94,4.28,6.22,8.13,3.42A8,8,0,0,1,600,46.8Zm-13.37-8.19a21.82,21.82,0,0,0,8.1-.15c-.18-3-1.82-4.39-4.16-4.33S586.82,38.85,586.63,41.61Z"/><path class="cls-3" d="M600,46.8a8,8,0,0,0-5.38,1.82c-3.85,2.8-6.67,1.52-8.13-3.42,4.42-1.31,9.2.74,13.51-1.4Z"/><path class="cls-4" d="M62,80.43H84.68V57.88c90,44.83,178.24,36.53,266.51-6.53-1.48,3-3.46,4-5.17,5.35a294.72,294.72,0,0,1-130.15,56.77c-28.29,4.91-56.78,6-85.37,1.49C111.66,112,93.37,107.71,77,97.62,70.44,93.62,64.58,88.78,62,80.43Z"/><path class="cls-1" d="M187.8,19.45c0-4.91,0-9.19,0-13.48,0-3.44,1.12-6.13,5-6,3.63.15,4.31,2.81,4.29,6-.1,13.49-.06,27,0,40.47,0,3,.41,6.3-3.51,7.25s-5.13-1.94-6.29-5.2c-2.68,1.71-4.78,3.84-7.73,4.64C174,54.71,169,53.92,164.72,50c-7.21-6.53-8.44-22.19-2.4-29.83,4.61-5.83,14.12-7.56,20.77-3.75C184.49,17.25,185.81,18.18,187.8,19.45Zm-.69,15.14c0-3.22-.43-5.92-2-8.4-3.76-5.84-11.22-6.07-14.63-.16a15,15,0,0,0,.09,16.09,8.52,8.52,0,0,0,14.75-.27A13.07,13.07,0,0,0,187.11,34.59Z"/><path class="cls-1" d="M54.52,20.38c6.55-6.51,13.22-7.44,20-4C82,20.2,83.78,27.36,83.45,35c-.53,12.48-7.52,19.48-18.21,18.88-4.07-.23-7-2.53-10.94-5.93,0,4.14,0,7.29,0,10.44a52.63,52.63,0,0,1-.15,5.48c-.32,2.92-2.08,4.52-5,4.39S45,66.3,45,63.66c0-14.81,0-29.61,0-44.41,0-2.44,1-4.19,3.59-4.55C52.14,14.2,54.2,15.89,54.52,20.38Zm.34,12.87a23.18,23.18,0,0,0,.73,5.89c1.46,4.47,4.3,7.06,9.06,7s7-3.16,8.29-7.27a15.66,15.66,0,0,0-.77-11.63c-1.49-3.15-3.74-5.35-7.58-5.44-4-.09-6.58,2-8.31,5.22A11.88,11.88,0,0,0,54.86,33.25Z"/><path class="cls-1" d="M480.15,36.57c-.87,9.48,8.21,12.86,14.44,9.29a28.71,28.71,0,0,0,5.09-3.93c1.73-1.58,3.86-1.92,5.42-.64,1.91,1.56,1.44,3.93,0,5.79-4.65,6.06-11.18,7.18-18.26,6.77-10-.59-16.53-7-17.49-18.09-.74-8.68,2.86-17.86,12.29-20.3,11.4-3,21.67.06,25,11.87,1.59,5.67-.29,8.82-6.19,9.15C493.69,36.86,486.89,36.57,480.15,36.57Zm-.24-5.94h17c-.53-6.06-3.54-9.48-8.25-9.59S480.91,24.21,479.91,30.63Z"/><path class="cls-1" d="M380.7,48.17c-3.39,3.46-6.92,5.46-11.29,5.67-7.75.37-12.32-3-13.7-10.58-1.42-7.92-.7-15.94-.4-23.9.1-2.88,1.79-4.93,5.2-4.79s4.56,2.17,4.76,5.19c.45,6.64-.38,13.31.51,20,.5,3.76,1.83,6.32,6.13,6.25s7.33-2.05,8.16-6.43c1.21-6.43.42-13,.67-19.44.15-3.84,1.87-5.93,6-5.39,3.86.51,4,3.55,4.06,6.36.11,8.49,0,17,0,25.48,0,3.07-.07,6.32-3.79,7.21C383.12,54.67,381.9,51.63,380.7,48.17Z"/><path class="cls-1" d="M89,33.94c0-11.94,7.77-19.54,19.75-19.4s19.62,7.64,19.71,19.58-8,19.83-20.15,19.75C96.6,53.79,89,46,89,33.94Zm29.15,0c-.07-7.53-3.22-11.88-8.8-12.14-5.4-.25-8.7,2.62-10.13,8.79-1.49,6.42,1.31,13.14,6.14,15.3a7.69,7.69,0,0,0,6.67,0C117.4,43.56,118.15,39,118.18,34Z"/><path class="cls-1" d="M328.45,14.53c11.76,0,19.48,7.51,19.53,19.12.06,12.41-7.41,20.16-19.47,20.22s-20-7.9-19.9-20S316.25,14.58,328.45,14.53Zm-9.62,19.4a28.78,28.78,0,0,0,.28,4.47c.88,4,3.06,6.91,7.21,8,3.63,1,6.53-.41,8.83-3,3.93-4.46,3.88-14,.05-18.56a9.09,9.09,0,0,0-12.88-.9C319.38,26.63,318.76,30.17,318.83,33.93Z"/><path class="cls-1" d="M409.4,20.37c4.55-4.71,9.16-6.25,14.62-5.72,6.36.62,10.84,4.78,11,11.19.22,7.47.09,15,.11,22.44,0,3-1,5.29-4.36,5.55-3.65.28-5.19-2.13-5.34-5.19-.28-5.81-.06-11.64-.2-17.45-.18-6.75-2-9.31-6.46-9.35-4.76,0-8.53,4-8.7,9.64-.16,5.31-.07,10.64-.05,16,0,3.55-.95,6.42-5.13,6.37C401,53.76,400,50.9,400,47.64q-.09-13.72,0-27.44c0-2.61.49-5,3.76-5.51C407.33,14.17,409.1,15.82,409.4,20.37Z"/><path class="cls-1" d="M241.51,53.82c-5.6,0-10.95-.87-14.72-5.6-2-2.51-3.36-5.57-.15-7.82,2.82-2,5.05-.31,6.88,2.49a10.07,10.07,0,0,0,12.58,3.88c1.55-.71,2.86-1.7,2.88-3.67a3.65,3.65,0,0,0-2.66-3.79c-3.77-1.24-7.62-2.25-11.38-3.52-7.24-2.44-10.28-6.18-9.48-11.47.83-5.51,5.71-9.2,12.73-9.6,5.51-.32,11-.45,15.56,3.4,2.31,2,5,4.5,2.22,7.51s-5.73,1.82-8-1.19a8.61,8.61,0,0,0-8.67-3.65c-2.09.28-4,1-4.48,3.27-.49,2.55,1.49,3.45,3.47,4.05,3.15.95,6.36,1.73,9.51,2.7,8,2.42,11.61,6.22,11.12,11.43-.62,6.58-5.8,10.89-13.94,11.56C243.85,53.9,242.68,53.82,241.51,53.82Z"/><path class="cls-1" d="M285.05,14.52c6.5,0,12.14,1.79,15.8,7.58,1.55,2.45,2.14,5.08-.81,7s-5,.65-6.67-2C291,23.26,287.55,21,282.94,22s-6.67,4.62-7.55,9c-1,5-.28,9.72,3.55,13.31,2.74,2.56,6.18,2.94,9.75,1.5,2.46-1,3.87-3,5.23-5.09,1.55-2.42,3.6-4.27,6.55-2.29,2.77,1.85,2.27,4.58,1,7.13-3.16,6.4-13.22,10-21.9,7.92-10.34-2.47-15.8-10.9-14.42-22.21C266.46,20.63,274,14.33,285.05,14.52Z"/><path class="cls-1" d="M457.15,14.53c2.66,1.11,6.94-.27,7.13,4,.22,4.86-4.78,2.79-7.34,4.7,0,6.23.07,12.71,0,19.19-.05,3.27,1.56,4,4.42,3.57,2.64-.37,5.85-1,6.34,2.76.45,3.47-2.8,4.2-5.31,4.84-9.69,2.46-15.05-1.37-15.6-11.25-.29-5.14-.2-10.31-.1-15.47,0-2.55-.09-4.63-3.29-5A2.6,2.6,0,0,1,441.06,19c-.05-1.67.52-3,2.33-3.29,3-.48,3.49-2.45,3.27-5.06-.13-1.48.22-3,.21-4.48,0-3.09,1.73-4.76,4.53-4.89a4.64,4.64,0,0,1,5.12,4.39C456.88,8.49,456.94,11.32,457.15,14.53Z"/><path class="cls-1" d="M524.77,19.39c5.1-5.13,10.3-6.1,14.8-3.42a4.58,4.58,0,0,1,2.2,6c-.82,2.28-3,2.27-5.11,1.92-8.5-1.45-11.09.64-11.53,9.71-.24,4.82-.08,9.66-.08,14.49,0,3.22-1.17,5.63-4.71,5.78-3.88.16-5.21-2.42-5.23-5.81-.06-9.16-.09-18.31,0-27.47,0-2.45.18-5.19,3.43-5.81S524.14,15.06,524.77,19.39Z"/><path class="cls-1" d="M217,34.3c0,4.5.11,9,0,13.48-.11,3.24-1.19,6-5.1,6s-4.92-2.72-4.93-6q0-13.73,0-27.47c0-3.22,1.09-5.54,4.75-5.69,4-.17,5.21,2.35,5.29,5.71C217.09,25,217,29.64,217,34.3Z"/><path class="cls-2" d="M572.19,35.15c0-2.06-.14-3.88,0-5.67.16-1.6.94-2.84,2.9-2.68s1.92,1.57,1.92,2.91c0,6.81.08,13.61,0,20.42,0,2.6-.94,4.52-3.88,2.27-1.17-.89-2-.62-3.14,0-4.14,2.14-7.7,1.38-10.38-2.47-2.5-3.59-2.44-10,.1-13.17,3.15-3.94,7-3.72,11.16-1.73A7.4,7.4,0,0,0,572.19,35.15ZM572,43.91c0-3.82-1.11-6.34-4.76-6.19s-4.31,3-4.28,6.06,1.25,5.88,4.76,5.67S572.18,46.48,572,43.91Z"/><path class="cls-1" d="M143.46,38.43c-2.62,0-5.3.66-7.87-.28-2.05-.75-3.55-2.07-3.32-4.36a4,4,0,0,1,4.28-3.95c4.46-.07,8.93-.06,13.4,0,2.48,0,4.06,1.21,4.33,3.81.3,2.88-1.38,4.38-3.9,4.73A51.5,51.5,0,0,1,143.46,38.43Z"/><path class="cls-2" d="M550.13,47.91c0,4-1.68,5.87-5.14,5.91s-5.51-1.76-5.65-5a5.14,5.14,0,0,1,5.51-5.74A5,5,0,0,1,550.13,47.91Z"/><path class="cls-1" d="M212.08,9.89C208.88,10,207,8.46,207,5.25s2-4.71,5.07-4.73c2.93,0,4.78,1.57,4.86,4.44C217,8,215.33,9.85,212.08,9.89Z"/><path class="cls-3" d="M25.93,34.73c1.38,9.9-3.84,12.2-9.52,12.59-2.93.2-5.67-1-6.29-4.36s1.75-4.76,4.45-5.51C18.32,36.43,22.13,35.63,25.93,34.73Z"/><path class="cls-3" d="M586.63,41.61c.19-2.76,1.55-4.43,3.94-4.48s4,1.34,4.16,4.33A21.82,21.82,0,0,1,586.63,41.61Z"/><path class="cls-3" d="M187.11,34.59a13.07,13.07,0,0,1-1.82,7.26,8.52,8.52,0,0,1-14.75.27A15,15,0,0,1,170.45,26c3.41-5.91,10.87-5.68,14.63.16C186.68,28.67,187.12,31.37,187.11,34.59Z"/><path class="cls-3" d="M54.86,33.25A11.88,11.88,0,0,1,56.28,27c1.73-3.23,4.31-5.31,8.31-5.22,3.84.09,6.09,2.29,7.58,5.44a15.66,15.66,0,0,1,.77,11.63c-1.28,4.11-3.59,7.2-8.29,7.27s-7.6-2.52-9.06-7A23.18,23.18,0,0,1,54.86,33.25Z"/><path class="cls-3" d="M479.91,30.63c1-6.42,4.15-9.7,8.74-9.59s7.72,3.53,8.25,9.59Z"/><path class="cls-3" d="M118.18,34c0,5-.78,9.61-6.12,11.94a7.69,7.69,0,0,1-6.67,0c-4.83-2.16-7.63-8.88-6.14-15.3,1.43-6.17,4.73-9,10.13-8.79C115,22.07,118.11,26.42,118.18,34Z"/><path class="cls-3" d="M318.83,33.93c-.07-3.76.55-7.3,3.49-10a9.09,9.09,0,0,1,12.88.9c3.83,4.54,3.88,14.1-.05,18.56-2.3,2.61-5.2,4-8.83,3-4.15-1.11-6.33-4-7.21-8A28.78,28.78,0,0,1,318.83,33.93Z"/><path class="cls-3" d="M572,43.91c.17,2.57-.83,5.34-4.28,5.54S563,47,563,43.78s.54-5.91,4.28-6.06S572,40.09,572,43.91Z"/></svg>
