<svg xmlns="http://www.w3.org/2000/svg" version="1.2" overflow="visible" preserveAspectRatio="none" viewBox="0 0 342 70" xml:space="preserve" y="0" x="0" id="Ebene_1_1542286861348" width="285" height="57"><g transform="translate(1 1)"><style>.st0_1542286861348{fill:#000001}.st1_1542286861348{fill:#f7a800}</style><path d="M177.2 44c0 .1-.5.9-1.5 2.4-1.1 1.5-1.6 2.4-1.7 2.7-.3 1.1-1.1 3.8-2.2 8-.5 2.1-.8 3.6-.9 4.7-.1.9-.1 1.4-.2 1.5-.1.4-.4.6-.8.6s-.6-.2-.6-.7c0-.9.5-3.1 1.4-6.6l1.5-5.1c-1 1.4-2.1 3.1-3.5 5.1-1.8 2.8-3.1 4.3-3.8 4.3-.6 0-1.1-.4-1.5-1.2-.1-.2-.2-.7-.2-1.3v-1.6c-.4.6-1 1.7-1.8 3.1-.7 1.4-1.2 2.2-1.5 2.6-.3 0-.6 0-.8-.2-.2-.1-.3-.4-.3-.7 0-.2.1-.5.3-.8l.6-.9c.6-.8 1.1-1.7 1.6-2.6.6-1.1 1.5-2.7 2.7-4.9.4-.9.7-1.8 1.1-2.7.5-1.1 1-1.9 1.4-2.4.2-.1.5-.2.7-.1.5 0 .7.2.7.7 0 .1 0 .3-.1.5-.6.9-1.2 1.7-1.7 2.6-1.1 1.9-1.6 3.8-1.6 5.8v1.1c0 .5.1.9.3 1.1.8-.5 1.7-1.5 2.7-3 2-3 3.2-4.7 3.6-5.2.2-.3.6-.9 1.2-1.7.2-.3.4-.8.7-1.6.3-.9.6-1.5.8-1.8.4-.8.7-1.4 1-1.7.5-.6 1-.9 1.6-.9.6 0 .8.3.8.9zm4.4 11.3c0 .7-.6 1.6-1.9 2.7-1.3 1.1-2.4 1.6-3.4 1.7 0 .4.3.8.7 1.1.3.2.6.4 1 .4s1-.2 1.7-.5c.8-.4 1.3-.7 1.3-.7.2 0 .4 0 .5.2-.3.5-.9 1-1.8 1.4-.8.4-1.5.6-1.9.6-.8 0-1.4-.3-1.9-.9-.4-.5-.6-1.1-.7-1.8 0-1 .6-2.2 1.8-3.6 1.2-1.3 2.3-2 3.4-2 .3 0 .6.1.9.4.2.4.3.7.3 1zm-1.3.3c-.1-.1-.2-.2-.3-.2-.6 0-1.2.4-2 1.1-.6.6-1.1 1.2-1.3 1.7.4 0 .8-.1 1.1-.3.2-.1.5-.3 1.1-.7.6-.4 1.1-.9 1.4-1.6zm8.7 2.9c-.2.5-.7 1.1-1.7 2-1 .9-1.8 1.3-2.6 1.2-.5 0-.9-.3-1.2-.7-.3-.4-.4-.9-.4-1.3 0-.5.3-1.4.9-2.8.6-1.4 1.1-2.1 1.4-2.1.4 0 .7.2 1 .7-.1.1-.5.9-1.2 2.1-.5.8-.7 1.5-.7 2.1 0 .4.3.6.7.6.5 0 1.2-.3 2-1 1-.8 1.6-1.2 1.8-1.3.1.3.1.4 0 .5zm.6-7.8c-.2.3-.6.6-1.3 1.1-.6.5-1 .7-1.2.7-.2 0-.4-.1-.7-.4-.2-.3-.3-.5-.2-.8.3-.2.6-.4.8-.5.5-.2 1-.4 1.4-.5.4-.1.7-.1.7-.1.5.2.7.3.5.5z" class="st0_1542286861348" vector-effect="non-scaling-stroke"/><path d="M192.1 59.9c0-.3.1-.8.3-1.5.2-.7.3-1.1.3-1.1-.7.6-1.2 1.1-1.6 1.5-.7.8-1.2 1.4-1.5 1.9-.1.1-.3.2-.4.2h-.3c-.1 0-.3-.1-.5-.3-.2-.2-.2-.3-.2-.4 0-.1.2-.8.6-2 .4-1.3.7-2.2 1-3 0-.1.2-.2.4-.3.2-.1.4-.1.5-.1.3-.1.4.2.3.7-.1.3-.3.8-.5 1.4-.2.5-.3.9-.3 1v.2c.5-.4 1-1 1.5-1.6.6-.6 1-1.1 1.3-1.3.5-.4.9-.6 1.3-.5.3 0 .4.3.4.7 0 .5-.3 1.2-.8 2.3-.5 1.1-.7 1.8-.7 2.2 0 .7.2 1 .7 1.1.2 0 .9-.3 2-.8.2 0 .2.1.2.2-.2.4-.6.8-1.1 1.2-.6.4-1 .6-1.3.6-1-.2-1.5-1-1.6-2.3zm11.2-4.6c0 .7-.6 1.6-1.9 2.7-1.3 1.1-2.4 1.6-3.4 1.7 0 .4.3.8.7 1.1.3.2.6.4 1 .4s1-.2 1.7-.5c.8-.4 1.3-.7 1.3-.7.2 0 .4 0 .5.2-.3.5-.9 1-1.8 1.4-.8.4-1.5.6-1.9.6-.8 0-1.4-.3-1.9-.9-.4-.5-.6-1.1-.7-1.8 0-1 .6-2.2 1.8-3.6 1.2-1.3 2.3-2 3.4-2 .3 0 .6.1.9.4.2.4.3.7.3 1zm-1.3.3c-.1-.1-.2-.2-.3-.2-.6 0-1.2.4-2 1.1-.6.6-1.1 1.2-1.3 1.7.4 0 .8-.1 1.1-.3.2-.1.5-.3 1.1-.7.6-.4 1.1-.9 1.4-1.6zm21.7-10.2c-.3 1.2-1.6 3.7-3.8 7.6-1.5 2.5-2.8 4.7-3.9 6.5-.3.5-.7 1-1.1 1.5-.6.8-1.2 1.2-1.8 1.2-.3 0-.6-.4-1-1.2-.3-.9-.4-1.4-.4-1.6-.1-1.2 0-2.2.1-3 .1-.9.3-1.8.4-2.8.1-.9.3-1.8.4-2.8.2-1.2.3-2.2.3-3V47c.1-.2.3-.4.5-.5.3-.2.5-.2.7-.2.2 0 .4.2.5.6.1.2.1.5.1.7 0 .1-.1.4-.3 1-.2.7-.3 1.2-.4 1.5-.3 1.2-.5 2.5-.8 3.7-.3 1.6-.5 2.8-.5 3.7 0 1.1.2 2 .5 2.6 1.1-.9 2.8-3.4 5.2-7.5 1.5-2.7 3-5.3 4.5-7.8.2-.1.3 0 .4.1.3.2.4.4.4.5zm3.9 9.9c0 .7-.6 1.6-1.9 2.7-1.3 1.1-2.4 1.6-3.4 1.7 0 .4.3.8.7 1.1.3.2.6.4 1 .4s1-.2 1.7-.5c.8-.4 1.3-.7 1.3-.7.2 0 .4 0 .5.2-.3.5-.9 1-1.8 1.4-.8.4-1.5.6-1.9.6-.8 0-1.4-.3-1.9-.9-.4-.5-.6-1.1-.7-1.8 0-1 .6-2.2 1.8-3.6 1.2-1.3 2.3-2 3.4-2 .3 0 .6.1.9.4.2.4.3.7.3 1zm-1.3.3c-.1-.1-.2-.2-.3-.2-.6 0-1.2.4-2 1.1-.6.6-1.1 1.2-1.3 1.7.4 0 .8-.1 1.1-.3.2-.1.5-.3 1.1-.7.6-.4 1-.9 1.4-1.6zm9.1.5c0 .3-.1.5-.2.9-.2.4-.3.6-.6.7-.2-.2-.2-.3-.3-.5v-.9c.1-.2.1-.4.1-.5 0-.3-.1-.4-.4-.4-.4 0-1 .5-1.7 1.5s-1.2 2.1-1.6 3.2c-.1.4-.1.7-.2 1.1-.1.5-.3.8-.5 1-.2-.1-.3-.2-.5-.4-.3-.3-.4-.5-.4-.7 0-.1.1-.4.3-1.1.3-.8.6-1.9 1-3.1.2-.7.3-1.1.4-1.3.1-.4.4-.7.6-.9.2 0 .3.1.4.3.1.3.2.4.2.5.4-.3.8-.7 1.2-1 .5-.4 1-.6 1.4-.6.3 0 .5.1.6.4.1.3.2.9.2 1.8zm7.2-1.3c0 .1 0 .2-.1.3 0 .1-.1.2-.2.3-.4.1-.7 0-.9-.2-.2-.2-.2-.6-.1-1-.1-.1-.2-.1-.3-.2-.3 0-.5.2-.6.5-.1.2-.1.5-.1.8 0 .1.1.8.3 2 .2 1.2.3 2.1.3 2.7-.1.6-.3 1.2-.8 1.7-.6.6-1.3.9-2.1.9-.5 0-.9-.1-1.2-.4-.3-.2-.5-.6-.5-1 0-.2 0-.3.1-.5.2-.6.4-1 .8-1.3.2-.2.4-.3.6-.4.1 0 .2 0 .3.1 0 .2-.1.4-.3.7-.2.5-.3.8-.3 1 0 .3.2.5.6.5.4 0 .8-.2 1.1-.6.4-.4.5-.9.5-1.5 0-.2-.1-.8-.4-1.9-.3-1.3-.4-1.9-.4-1.9V55c0-.7.2-1.3.6-1.8.4-.5.8-.8 1.4-.8.5 0 1 .3 1.3.8.4.7.5 1.2.4 1.6zm11.1 4.7c-.1.5-.5 1.1-1.3 1.7-.8.6-1.5.9-2.3.8-.7-.1-1.1-.4-1.4-1.1-.2-.5-.3-1.1-.3-1.8-.4.4-1 .9-1.6 1.4-.7.6-1.4.9-2.1.9-.2 0-.4-.2-.7-.6-.2-.3-.3-.6-.3-.9 0-.8.7-1.9 2-3.4 1.3-1.4 2.4-2.1 3.1-2.1.2 0 .4.1.5.2.1.2.2.3.3.5l.3-.6c.2-.4.4-.5.5-.5.2 0 .4.1.7.4.1.2.1.5-.1.9-.3.4-.5.7-.6 1.1-.1.4-.3.9-.5 1.7-.1.5-.2.8-.2.9 0 .3 0 .7.2 1.2.3.4.6.6 1.1.6.4 0 .7-.1 1.1-.4.4-.3.9-.6 1.3-1h.3v.1zm-4.7-3c-.1 0-.1 0-.3-.1-.1-.1-.2-.1-.3-.1-.2 0-.6.2-1 .6-.3.2-.5.5-.8.7-.3.3-.6.7-1 1.2-.3.5-.5.9-.6 1.2 0 0 .1 0 .1.1.1.1.1.1.2.1.2 0 .8-.4 1.7-1.2.8-.7 1.3-1.2 1.4-1.4.3-.4.5-.7.6-1.1z" class="st0_1542286861348" vector-effect="non-scaling-stroke"/><path d="M257.3 59.9c0-.3.1-.8.3-1.5.2-.7.3-1.1.3-1.1-.7.6-1.2 1.1-1.6 1.5-.7.8-1.2 1.4-1.5 1.9-.1.1-.3.2-.4.2h-.3c-.1 0-.3-.1-.5-.3-.2-.2-.2-.3-.2-.4 0-.1.2-.8.6-2 .4-1.3.7-2.2 1-3 0-.1.2-.2.3-.3s.4-.1.5-.1c.3-.1.4.2.3.7-.1.3-.3.8-.5 1.4-.2.5-.3.9-.3 1v.2c.5-.4 1-1 1.5-1.6.6-.6 1-1.1 1.3-1.3.5-.4.9-.6 1.3-.5.3 0 .4.3.4.7 0 .5-.3 1.2-.8 2.3-.5 1.1-.7 1.8-.7 2.2 0 .7.2 1 .7 1.1.2 0 .9-.3 2-.8.2 0 .2.1.2.2-.2.4-.6.8-1.1 1.2-.6.4-1 .6-1.3.6-.8-.2-1.4-1-1.5-2.3zm16.3-.6v.1c0 .1-.2.5-.5 1-.3.4-.7.8-1.2 1.2-.4.4-.9.6-1.3.7-.6.1-1.2 0-1.7-.3-.9-.5-1.3-1.6-1.3-3.1 0-.5 0-.9.1-1.3-.3.7-1 1.5-1.8 2.4-1.1 1.2-2.1 1.8-2.9 1.9-.2 0-.4-.2-.7-.5-.3-.3-.5-.5-.5-.6-.1-.9.6-2.2 2-4 1.4-1.8 2.7-2.7 3.7-2.8h.4s.2.2.4.5c.5-.9 1-1.9 1.5-2.8.8-1.5 1.5-2.5 2.1-3.1.2 0 .4.1.5.2.2.2.2.3.3.4 0 .1 0 .2-.1.4-.4.5-1.2 1.8-2.1 3.7-.4.7-.7 1.6-1.1 2.7-.4 1.3-.6 2.2-.6 2.8 0 .4.1.8.2 1.1.2.6.5.9 1 1 .5 0 1-.2 1.7-.7l1.5-1.2c.2.1.3.2.4.3zm-6.2-3.4c0-.1-.1-.2-.1-.2-.2 0-.5.1-.8.3-.2.2-.5.4-.7.6-.3.2-.8.8-1.5 1.7-.8 1-1.1 1.7-1.1 2.1 0 .1 0 .1.1.2.4-.1.9-.4 1.5-.9.5-.4.9-.9 1.2-1.4.3-.4.6-.7.8-1 .4-.8.7-1.2.6-1.4z" class="st0_1542286861348" vector-effect="non-scaling-stroke"/><path d="M283.1 59.5c-.1.5-.5 1.1-1.3 1.7-.8.6-1.5.9-2.3.8-.7-.1-1.1-.4-1.4-1.1-.2-.5-.3-1.1-.3-1.8-.4.4-1 .9-1.6 1.4-.7.6-1.4.9-2.1.9-.2 0-.4-.2-.7-.6-.2-.3-.3-.6-.3-.9 0-.8.7-1.9 2-3.4 1.3-1.4 2.4-2.1 3.1-2.1.2 0 .4.1.5.2.1.2.2.3.3.5l.3-.6c.2-.4.4-.5.5-.5.2 0 .4.1.7.4.1.2.1.5-.1.9-.3.4-.5.7-.6 1.1-.1.4-.3.9-.5 1.7-.1.5-.2.8-.2.9 0 .3 0 .7.2 1.2.3.4.6.6 1.1.6.4 0 .7-.1 1.1-.4.4-.3.9-.6 1.3-1h.3v.1zm-4.7-3c-.1 0-.1 0-.3-.1-.1-.1-.2-.1-.3-.1-.2 0-.6.2-1 .6-.3.2-.5.5-.8.7-.3.3-.6.7-1 1.2-.3.5-.5.9-.6 1.2 0 0 .1 0 .1.1.1.1.1.1.2.1.2 0 .8-.4 1.7-1.2.8-.7 1.3-1.2 1.4-1.4.3-.4.5-.7.6-1.1z" class="st0_1542286861348" vector-effect="non-scaling-stroke"/><path d="M290.5 56.2c0 1-.5 2.1-1.7 3.5-1.2 1.3-2.1 2-3 2.1-.7 0-1-.2-1.1-.8 0-.2.1-.4.2-.7.2-.3.4-.4.6-.5.2 0 .3.1.3.3v.3s.1.1.2.1c.6-.1 1.3-.6 2-1.8.7-1.1 1.1-1.9 1-2.5 0-.3-.1-.6-.3-.8-.2-.2-.4-.3-.7-.3-.8.1-1.7.9-2.6 2.4-.7 1.2-1.3 2.7-2 4.5-.5 1.4-.8 2.3-.8 2.8 0 .3-.2.7-.3 1.3-.2.8-.4 1.2-.4 1.2-.1.1-.3.1-.5.2-.2 0-.4-.2-.8-.6 0-.4.2-1.2.6-2.3.4-1 .7-2.1 1.1-3.1.4-1.3.8-2.6 1.3-3.9.6-1.7 1-2.6 1.3-2.6h.3c.3 0 .5.3.5.8.3-.5.7-1 1.3-1.3.6-.3 1.1-.5 1.8-.5.5 0 .9.2 1.2.8.3.3.5.8.5 1.4zm6.8 2.6c-.3.7-.8 1.5-1.5 2.3-.7.7-1.5 1-2.2 1.1-.7 0-1.1-.4-1.4-1.1-.2-.5-.3-1.2-.2-2 .2-.8.4-1.4.8-2 .7-1.2 1.6-2.1 2.8-2.7.4-.2.7-.3.9-.3 1 0 1.5.7 1.5 2-.1.9-.3 1.8-.7 2.7zm-1.3-.1c.5-.9.7-1.7.7-2.4 0-.4 0-.6-.2-.6-.3.5-.5.7-.9.7-.1 0-.1 0-.1-.1s0-.1-.1-.1c-.5 0-1.1.5-1.8 1.6-.4.7-.6 1.3-.6 1.7 0 .3 0 .6.1.9.1.3.3.5.6.5s.8-.3 1.3-.9c.5-.5.8-.9 1-1.3zm10.7-4c.1.1.2.2.2.4-.1.1-.2.2-.3.2-1.3.2-2.3.5-2.9.8-.5.2-1 .5-1.5.8-.1.4-.2.7-.3 1-.1.3-.1.6-.1.7v.8c0 .2-.1.7-.3 1.5-.3.9-.5 1.4-.7 1.4-.2 0-.5-.2-.7-.7-.2-.4-.3-.7-.3-.9 0-.1.1-.5.4-1.4.3-.9.4-1.3.4-1.4 0-.1 0-.2-.1-.3-.1-.1-.1-.2-.2-.3-.1-.4-.2-.7-.2-1 .1-.3.2-.5.4-.6.2-.2.3-.3.5-.3h.3c.1 0 .4-.5.8-1.6.8-1.9 1.4-3.7 2-5.3.1-.2.2-.3.3-.4.1 0 .2-.1.3-.1.2 0 .4.2.5.4.1.3.2.5.2.7 0 .4-.4 1.3-1.1 2.7-.8 1.6-1.3 2.8-1.5 3.4.6-.1 1.2-.2 1.7-.3.7-.1 1.4-.2 2.2-.2zm8.3 5.7c-.1.3-.5.8-1.2 1.3s-1.1.8-1.4.8c-1.4 0-2.1-.9-2.1-2.6 0-.3.1-.9.4-1.7.3-1 .5-1.6.5-1.9-.4.3-1.1 1.1-2.2 2.4-1 1.2-1.5 1.8-1.7 1.8h-.4c-.4 0-.6-.2-.6-.7 0 0 .3-.8.8-2.2.7-1.7 1.1-2.9 1.3-3.4.4-1.1.8-2.4 1.4-4 .1-.4.2-.8.3-1.3.1-.5.5-.8 1-.8.3 0 .5.2.5.7 0 .1-.5 1.4-1.4 3.8-1 2.6-1.5 4.1-1.6 4.6.5-.6 1.1-1.2 1.6-1.8 1.1-1.2 1.9-1.8 2.2-1.8.4 0 .6.3.6.9 0 .1-.2.9-.7 2.4-.5 1.6-.8 2.5-.8 2.9 0 .4 0 .7.2.9.2.2.4.4.6.4.4 0 .8-.2 1.4-.6.6-.4.9-.6 1-.6.3.2.3.3.3.5zm7.1-5.1c0 .7-.6 1.6-1.9 2.7-1.3 1.1-2.4 1.6-3.4 1.7 0 .4.3.8.7 1.1.3.2.6.4 1 .4s1-.2 1.7-.5c.8-.4 1.3-.7 1.3-.7.2 0 .4 0 .5.2-.3.5-.9 1-1.8 1.4-.8.4-1.5.6-1.9.6-.8 0-1.4-.3-1.9-.9-.4-.5-.6-1.1-.7-1.8 0-1 .6-2.2 1.8-3.6 1.2-1.3 2.3-2 3.4-2 .3 0 .6.1.9.4.2.4.3.7.3 1zm-1.3.3c-.1-.1-.2-.2-.3-.2-.6 0-1.2.4-2 1.1-.6.6-1.1 1.2-1.3 1.7.4 0 .8-.1 1.1-.3.2-.1.5-.3 1.1-.7.6-.4 1.1-.9 1.4-1.6zm11 4.9c-1.5 1.7-2.8 2.5-4 2.4-1.1-.1-1.9-.7-2.4-1.7-.1-.1-.1-.4-.2-.8v-.5s-.2 0-.4.1-.4.1-.5.1c-.2 0-.3-.2-.4-.4-.1-.2-.1-.4-.1-.5.1-.6.6-2.2 1.6-4.8.8-2.1 1.4-3.5 1.7-4.2.1-.4.3-.8.4-1.3.3-.8.7-1.2 1.1-1.1.4 0 .6.3.5.9-.7 1.4-1.2 2.6-1.7 3.6-1.1 2.5-1.7 4-1.7 4.5v.2l2.1-2.4c1.4-1.5 2.3-2.2 2.7-2.1.2.1.3.2.4.3.1.2.1.3.1.3 0 .2-.1.4-.3.7-.1.1-.3.3-.6.5-.4.3-.6.4-.7.5-.7.5-1.3 1.2-1.8 2-.7 1-1.1 1.9-1.2 2.7-.1.7.1 1.2.5 1.6.3.3.7.5 1.1.6.6.1 1.8-.4 3.4-1.5h.3c.1 0 .1.1.1.3zm7.6-5.2c0 .7-.6 1.6-1.9 2.7-1.3 1.1-2.4 1.6-3.4 1.7 0 .4.3.8.7 1.1.3.2.6.4 1 .4s1-.2 1.7-.5c.8-.4 1.3-.7 1.3-.7.2 0 .4 0 .5.2-.3.5-.9 1-1.8 1.4-.8.4-1.5.6-1.9.6-.8 0-1.4-.3-1.9-.9-.4-.5-.6-1.1-.7-1.8 0-1 .6-2.2 1.8-3.6 1.2-1.3 2.3-2 3.4-2 .3 0 .6.1.9.4.2.4.3.7.3 1zm-1.3.3c-.1-.1-.2-.2-.3-.2-.6 0-1.2.4-2 1.1-.6.6-1.1 1.2-1.3 1.7.4 0 .8-.1 1.1-.3.2-.1.5-.3 1.1-.7.6-.4 1.1-.9 1.4-1.6z" class="st0_1542286861348" vector-effect="non-scaling-stroke"/><path d="M115.8 14.9l6.6 19.6 6.6-19.7c.3-1 .6-1.8.8-2.2.2-.4.5-.8.9-1.1.4-.3.9-.5 1.6-.5.5 0 1 .1 1.4.4.4.3.8.6 1 1 .2.4.4.8.4 1.3 0 .3 0 .6-.1.9-.1.3-.2.7-.3 1-.1.3-.2.7-.4 1l-7.1 19.1c-.3.7-.5 1.4-.8 2.1-.2.7-.5 1.2-.9 1.7-.3.5-.8.9-1.3 1.2-.6.3-1.2.5-2 .5s-1.5-.2-2-.5-1-.7-1.3-1.2c-.3-.5-.6-1.1-.9-1.7-.2-.7-.5-1.3-.8-2.1l-6.9-18.9c-.1-.3-.2-.7-.4-1-.1-.3-.2-.7-.3-1.1-.1-.4-.1-.7-.1-1 0-.7.3-1.3.8-1.9.5-.6 1.2-.8 2.1-.8 1 0 1.7.3 2.1.9.5.7.9 1.7 1.3 3m24 22.7v-23c0-1.2.3-2.1.8-2.7.5-.6 1.2-.9 2.1-.9.9 0 1.6.3 2.2.9.6.6.8 1.5.8 2.7v23c0 1.2-.3 2.1-.8 2.7-.6.6-1.3.9-2.2.9-.9 0-1.6-.3-2.1-.9-.5-.6-.8-1.5-.8-2.7m31.5-21.2h-6.4v21.2c0 1.2-.3 2.1-.8 2.7-.5.6-1.3.9-2.1.9-.9 0-1.6-.3-2.1-.9-.6-.6-.8-1.5-.8-2.7V16.4h-6.4c-1 0-1.8-.2-2.3-.7-.5-.4-.7-1-.7-1.8s.3-1.4.8-1.8c.5-.4 1.3-.7 2.2-.7h18.8c1 0 1.8.2 2.3.7.5.5.7 1 .7 1.8 0 .7-.2 1.3-.8 1.8-.7.5-1.4.7-2.4.7m10.9 12.9h8.7l-4.4-12-4.3 12zm11.7 8.1l-1.4-3.7h-11.9l-1.4 3.7c-.5 1.5-1 2.4-1.4 3-.4.5-1 .8-1.9.8-.7 0-1.4-.3-2-.8-.6-.5-.9-1.2-.9-1.8 0-.4.1-.8.2-1.2.1-.4.4-1 .7-1.8l7.5-18.9c.2-.5.5-1.2.8-2 .3-.8.6-1.4 1-1.9.3-.5.8-.9 1.3-1.2.6-.3 1.2-.5 2-.5s1.5.2 2.1.5c.6.3 1 .7 1.3 1.2.3.5.6 1 .9 1.6.2.6.5 1.3.9 2.3l7.6 18.8c.6 1.4.9 2.5.9 3.1 0 .7-.3 1.3-.8 1.9-.6.6-1.2.8-2 .8-.5 0-.9-.1-1.2-.2-.3-.2-.6-.4-.8-.7-.2-.3-.5-.7-.7-1.3-.4-.7-.6-1.2-.8-1.7m16.4-22.8v21.2h12c1 0 1.7.2 2.2.7.5.5.8 1 .8 1.7s-.2 1.3-.8 1.7c-.5.5-1.2.7-2.2.7H208c-1.3 0-2.2-.3-2.8-.9-.6-.6-.8-1.5-.8-2.8V14.6c0-1.2.3-2.1.8-2.7.5-.6 1.2-.9 2.1-.9.9 0 1.6.3 2.2.9.6.6.8 1.5.8 2.7M249.8 32c0 1.8-.5 3.4-1.4 4.7-.9 1.4-2.2 2.5-4 3.3-1.8.8-3.8 1.2-6.2 1.2-2.9 0-5.3-.5-7.1-1.6-1.3-.8-2.4-1.8-3.2-3.1-.8-1.3-1.2-2.6-1.2-3.8 0-.7.2-1.3.7-1.8.5-.5 1.1-.8 1.9-.8.6 0 1.2.2 1.6.6.4.4.8 1 1.1 1.8.4.9.8 1.7 1.2 2.3.4.6 1 1.1 1.8 1.5.8.4 1.8.6 3.1.6 1.8 0 3.2-.4 4.3-1.2 1.1-.8 1.6-1.8 1.6-3.1 0-1-.3-1.8-.9-2.4-.6-.6-1.3-1.1-2.3-1.4-.9-.3-2.2-.7-3.8-1-2.1-.5-3.9-1.1-5.3-1.7-1.4-.7-2.5-1.6-3.4-2.7-.8-1.1-1.2-2.5-1.2-4.2 0-1.6.4-3 1.3-4.3.9-1.2 2.1-2.2 3.8-2.9 1.7-.7 3.6-1 5.8-1 1.8 0 3.3.2 4.7.7 1.3.4 2.4 1 3.2 1.8.9.7 1.5 1.5 1.9 2.3.4.8.6 1.6.6 2.4 0 .7-.3 1.3-.7 1.9-.5.6-1.1.8-1.9.8-.7 0-1.2-.2-1.5-.5-.4-.3-.7-.9-1.1-1.7-.5-1.1-1.2-2-1.9-2.6-.7-.6-1.9-.9-3.6-.9-1.5 0-2.8.3-3.7 1-.9.7-1.4 1.5-1.4 2.4 0 .6.2 1.1.5 1.5.3.4.8.8 1.3 1.1.6.3 1.1.6 1.7.7.6.2 1.5.4 2.8.8 1.7.4 3.1.8 4.5 1.3 1.3.5 2.5 1 3.4 1.7.9.7 1.7 1.5 2.2 2.5.5 1 .8 2.3.8 3.8m12-2.7h8.7l-4.4-12-4.3 12zm11.7 8.1l-1.4-3.7h-11.9l-1.4 3.7c-.6 1.5-1 2.4-1.4 3-.4.5-1 .8-1.9.8-.7 0-1.4-.3-2-.8-.6-.5-.9-1.2-.9-1.8 0-.4.1-.8.2-1.2.1-.4.3-1 .7-1.8l7.5-18.9c.2-.5.5-1.2.8-2 .3-.8.6-1.4 1-1.9.3-.5.8-.9 1.3-1.2.6-.3 1.2-.5 2-.5s1.5.2 2.1.5c.5.3 1 .7 1.3 1.2.3.5.6 1 .9 1.6.2.6.5 1.3.9 2.3l7.6 18.8c.6 1.4.9 2.5.9 3.1 0 .7-.3 1.3-.8 1.9-.6.6-1.2.8-2 .8-.5 0-.9-.1-1.2-.2-.3-.2-.6-.4-.8-.7-.2-.3-.5-.7-.7-1.3-.4-.7-.6-1.2-.8-1.7m18.3-22.8l11.4 17.2V14.4c0-1.1.2-2 .7-2.5.5-.6 1.1-.8 2-.8.8 0 1.5.3 2 .8.5.6.7 1.4.7 2.5v22.9c0 2.6-1.1 3.8-3.2 3.8-.5 0-1-.1-1.4-.2-.4-.2-.8-.4-1.2-.7-.4-.3-.7-.7-1-1.2-.3-.4-.6-.9-1-1.4l-11.1-17v17.1c0 1.1-.3 2-.8 2.5-.5.6-1.2.8-2 .8s-1.5-.3-2-.9c-.5-.6-.8-1.4-.8-2.5V15.3c0-1 .1-1.7.3-2.3.2-.6.7-1.1 1.3-1.5.6-.4 1.2-.6 1.9-.6.5 0 1 .1 1.4.3.4.2.7.4 1 .7.3.3.6.7.9 1.1.3.6.6 1.1.9 1.6m29.6 14.7h8.7l-4.4-12-4.3 12zm11.7 8.1l-1.4-3.7h-11.9l-1.4 3.7c-.5 1.5-1 2.4-1.4 3-.4.5-1 .8-1.9.8-.7 0-1.4-.3-2-.8-.6-.5-.9-1.2-.9-1.8 0-.4.1-.8.2-1.2.1-.4.3-1 .7-1.8l7.5-18.9c.2-.5.5-1.2.8-2 .3-.8.6-1.4 1-1.9.3-.5.8-.9 1.3-1.2.6-.3 1.2-.5 2-.5s1.5.2 2.1.5c.6.3 1 .7 1.3 1.2.3.5.6 1 .9 1.6.2.6.5 1.3.9 2.3l7.6 18.8c.6 1.4.9 2.5.9 3.1 0 .7-.3 1.3-.8 1.9-.6.6-1.2.8-2 .8-.5 0-.9-.1-1.2-.2-.3-.2-.6-.4-.8-.7-.2-.3-.5-.7-.7-1.3-.4-.7-.6-1.2-.8-1.7M39.9 55.7c3.1-.1 10.2 0 14.2-.1 3.5-.2 2.8-1.4 3.3-2.7.5-1.5 1-3.7 3.1-3.7 2.3.1 12.7.7 23.6-1.8 1.7 0 3.8-.4 6.2.8.9.5 3.4 2.1 3.4-.6-.8-4.2-12-3.9-21.1-3.6-7.3-.5-12.7-1.9-16.2-2.1-3.4.1-14.8.1-18.2.2-2.8 0-13 2.2-16.7 2C17.7 44 2.1 43 .7 47.6c-.2 1.3.6 2.7 3.8.6 1.8-.5 3.6-.9 5.4-.6 1.4.4 17.4 3.1 24.3 1.8 2.4.1 2.6 2.6 3.1 4.6.5 1.4 1.4 1.6 2.6 1.7M3.1 35.4C7.7 32 30 11.1 46.5 11.8c16.5.6 38.4 18.4 44.7 23.4 2.2 1.4 2.9.4 3-1.3.1-1.7 1-7.1-9.8-15C73.6 10.9 63 .9 46.6.4 29 .4 14.1 15.2 9.6 18.7 1.1 25.6.8 26.9.4 33.8c.1 2.2 1.2 2.4 2.7 1.6" class="st1_1542286861348" vector-effect="non-scaling-stroke"/><path d="M47.3 23c5 0 9.1 4.1 9.1 9.1s-4.1 9.1-9.1 9.1-9.1-4.1-9.1-9.1c.1-5.1 4.1-9.1 9.1-9.1" class="st1_1542286861348" vector-effect="non-scaling-stroke"/></g></svg>