<?xml version="1.0" encoding="utf-8"?>
<!-- Generator: Adobe Illustrator 15.1.0, SVG Export Plug-In  -->
<!DOCTYPE svg PUBLIC "-//W3C//DTD SVG 1.1//EN" "http://www.w3.org/Graphics/SVG/1.1/DTD/svg11.dtd" [
	<!ENTITY ns_flows "http://ns.adobe.com/Flows/1.0/">
]>
<svg version="1.1"
	 xmlns="http://www.w3.org/2000/svg" xmlns:xlink="http://www.w3.org/1999/xlink" xmlns:a="http://ns.adobe.com/AdobeSVGViewerExtensions/3.0/"
	 x="0px" y="0px" width="225px" height="166px" viewBox="0 0 225 166" overflow="visible" enable-background="new 0 0 225 166"
	 xml:space="preserve">
<defs>
</defs>
<path fill="#FFFFFF" d="M55.594,86.405c-8.411,0.891-12.05,5.727-12.05,7.996c0,2.133,1.739,4.14,4.894,5.724l-1.871,2.629
	l6.061-1.026l-1.746-5.035l-1.74,2.444c-2.832-1.379-4.397-3.043-4.397-4.735c0-1.66,3.159-5.975,10.978-6.803
	c0.329-0.035,0.568-0.33,0.533-0.66C56.22,86.608,55.913,86.371,55.594,86.405z"/>
<path fill="#FFFFFF" d="M101.853,166c3.39,0,6.147-2.772,6.147-6.18V6.18c0-3.407-2.758-6.18-6.147-6.18H6.147
	C2.758,0,0,2.772,0,6.18V159.82c0,3.407,2.758,6.18,6.147,6.18H101.853z M57.326,109.51c0.019,0.002,0.035,0.011,0.055,0.011h27.813
	h0.156l0.005,0.024c-0.076,0.017-0.143-0.01-0.161-0.024c0.029,0.022,0.087,0.108,0.12,0.181
	c8.657,18.637,13.418,36.735,14.558,55.299h-8.124c-1.137-20.4-5.756-39.637-9.427-45.85c-0.125-0.212-0.383-0.3-0.611-0.213
	c-0.228,0.089-0.358,0.328-0.309,0.568c2.155,10.435,4.234,30.372,5.617,45.494H44.399C44.459,148.224,46.78,125.292,57.326,109.51z
	 M60.224,68.821c0.044,1.061,0.185,2.091,0.321,3.087c0.116,0.853,0.227,1.658,0.261,2.387c0.06,1.33,0.082,2.563,0.1,3.587
	c0.019,0.996,0.032,1.782,0.074,2.293c0.141,1.738,1.034,3.09,2.126,3.215c0.804,0.096,1.936-0.389,2.828-3.19l0.048-0.149
	c0.455-1.433,0.503-1.583,1.287-4.981c0.329-1.428,0.956-3.2,1.409-4.459c0.02-0.037,0.034-0.078,0.043-0.12
	c0.015-0.04,0.029-0.08,0.043-0.119c0.204-0.565,0.36-1.002,0.422-1.219c3.078-10.695,6.857-24.603,7.724-27.93
	c0.096-0.365,0.561-0.754,1.067-0.847c-0.082,0.129-0.147,0.283-0.19,0.465l-0.111,0.491c-2.111,9.406-7.341,32.049-10.299,39.116
	c-1.32,3.152-3.261,6.774-4.951,6.152c-1.396-0.517-2.315-2.879-2.66-6.835c-0.677-7.685-1.547-36.325-1.28-37.875
	c0.219-0.266,0.566-0.414,0.89-0.474c-0.027,0.079-0.047,0.161-0.059,0.248C59.26,42.152,59.795,58.142,60.224,68.821z
	 M60.309,41.785c0.009-0.072,0.052-0.157,0.191-0.183c0.199,0.14,0.341,0.354,0.358,0.666l0.222,1.927
	c0.029,0.25,0.24,0.44,0.492,0.442c0.007,0,0.704,0.007,1.133,0.062c0.556,0.071,0.863,1.414,1.046,2.419
	c0.523,2.853,3.662,21.416,3.965,23.209c-0.459,1.277-1.085,3.054-1.422,4.516c-0.775,3.359-0.821,3.505-1.266,4.903l-0.048,0.149
	c-0.612,1.923-1.282,2.547-1.762,2.5c-0.515-0.06-1.138-0.998-1.243-2.302c-0.038-0.48-0.053-1.253-0.07-2.23
	c-0.019-1.031-0.041-2.274-0.102-3.615c-0.035-0.773-0.148-1.601-0.269-2.477c-0.133-0.973-0.271-1.979-0.312-2.992
	C60.768,57.447,60.278,42.368,60.309,41.785z M58.769,79.852c0.386,4.431,1.499,7.017,3.31,7.687
	c1.269,0.465,3.294,0.284,6.22-6.704c2.989-7.142,8.236-29.852,10.353-39.284l0.108-0.479c0.021-0.091,0.064-0.271,0.322-0.271
	c0.002,0,0.003,0,0.004,0c0.431,0.522,0.675,1.485,0.692,2.798c0.003,0.246,0.185,0.453,0.429,0.488l1.382,0.193
	c0.267,0.084,0.707,0.314,0.804,0.54c0.249,0.584,0.276,1.44,0.291,1.901c0.007,0.227,0.011,0.341,0.022,0.355
	c0.021,0.377,0.022,8.902,0.023,15.753c0.001,5.133,0.002,9.565,0.01,10.091c0.038,2.886,1.672,5.646,2.366,6.457v29.144H57.884
	c0.019-3.43,0.13-23.578,0.228-40.731C58.325,72.949,58.561,77.494,58.769,79.852z M90.745,165h-2.723
	c-1.229-13.444-3.01-30.721-4.91-41.786C86.354,131.581,89.805,148.289,90.745,165z M107,159.82c0,2.856-2.31,5.18-5.147,5.18
	h-0.979c-1.14-18.713-5.932-36.947-14.648-55.71c-0.033-0.076-0.081-0.152-0.13-0.227c0.002-0.015,0.009-0.028,0.009-0.043V79.178
	c0-0.161-0.062-0.3-0.192-0.394c-0.314-0.283-2.137-3.004-2.174-5.879c-0.008-0.519-0.009-4.948-0.01-10.077
	c-0.003-15.747-0.013-15.793-0.035-15.888c-0.006-0.049-0.008-0.137-0.012-0.252c-0.017-0.525-0.048-1.505-0.371-2.263
	c-0.318-0.739-1.312-1.066-1.502-1.119l-1.045-0.15c-0.164-3.175-1.655-3.707-2.31-3.787c-1.076-0.126-2.255,0.617-2.512,1.601
	c-0.851,3.265-4.509,16.729-7.554,27.335c-0.881-5.201-3.209-18.939-3.653-21.365c-0.27-1.479-0.661-3.072-1.903-3.231
	c-0.247-0.031-0.559-0.049-0.808-0.059l-0.17-1.466c-0.058-1.066-0.936-1.799-2.143-1.799c-0.021,0-0.043,0-0.063,0
	c-1.173,0.025-2.368,0.757-2.385,2.107c-0.027,1.855-0.347,60.018-0.38,66.029c-0.15,0.09-0.275,0.216-0.344,0.357
	C45.82,124.795,43.46,148.031,43.399,165H6.147C3.31,165,1,162.677,1,159.82V6.18C1,3.323,3.31,1,6.147,1h95.705
	C104.69,1,107,3.323,107,6.18V159.82z"/>
<path fill="#FFFFFF" d="M21.958,23.012c-2.558,0-4.427,2.033-4.427,4.428v0.032c0,2.394,1.853,4.394,4.394,4.394
	c2.559,0,4.443-2.033,4.443-4.426v-0.033C26.368,25.013,24.5,23.012,21.958,23.012z M25.073,27.472c0,1.787-1.279,3.263-3.115,3.263
	c-1.787,0-3.132-1.476-3.132-3.295v-0.033c0-1.787,1.263-3.279,3.099-3.279c1.788,0,3.148,1.492,3.148,3.312V27.472z"/>
<rect x="19.777" y="20.355" fill="#FFFFFF" width="1.459" height="1.559"/>
<rect x="22.647" y="20.355" fill="#FFFFFF" width="1.458" height="1.559"/>
<path fill="#FFFFFF" d="M35.853,20.29c-0.476,0.476-0.722,1.214-0.722,2.181v0.738h-1.164v1.098h1.164v7.362h1.246v-7.362h2.673
	v-1.082h-2.673v-0.688c0-1.213,0.476-1.804,1.477-1.804c0.426,0,0.771,0.083,1.213,0.214v-1.099
	c-0.395-0.147-0.804-0.213-1.395-0.213C36.901,19.635,36.295,19.864,35.853,20.29z"/>
<path fill="#FFFFFF" d="M29.098,31.669h1.263v-7.362h2.672v-1.082h-2.688v-0.688c0-1.213,0.491-1.804,1.475-1.804
	c0.427,0,0.771,0.083,1.23,0.214v-1.099c-0.41-0.147-0.804-0.213-1.394-0.213c-0.771,0-1.394,0.229-1.82,0.655
	c-0.476,0.476-0.737,1.214-0.737,2.181v0.738h-1.164v1.098h1.164V31.669z"/>
<path fill="#FFFFFF" d="M42.185,26.815c0-1.59,1.082-2.656,2.541-2.656c1.492,0,2.345,0.984,2.345,2.559v4.951h1.263v-5.264
	c0-2.016-1.196-3.394-3.247-3.394c-1.459,0-2.344,0.738-2.901,1.656v-1.476h-1.263v8.477h1.263V26.815z"/>
<path fill="#FFFFFF" d="M54.661,23.012c-2.345,0-4.066,1.968-4.066,4.428c0,2.639,1.901,4.426,4.229,4.426
	c1.607,0,2.64-0.639,3.492-1.59L57.53,29.57c-0.689,0.722-1.509,1.196-2.673,1.196c-1.492,0-2.804-1.032-2.984-2.819h6.723
	c0.017-0.197,0.017-0.328,0.017-0.443C58.612,25.013,57.169,23.012,54.661,23.012z M51.873,26.931
	c0.181-1.64,1.295-2.854,2.755-2.854c1.673,0,2.558,1.312,2.705,2.854H51.873z"/>
<path fill="#FFFFFF" d="M65.091,23.012c-1.459,0-2.345,0.738-2.902,1.656v-1.476h-1.263v8.477h1.263v-4.854
	c0-1.59,1.082-2.656,2.542-2.656c1.491,0,2.344,0.984,2.344,2.559v4.951h1.263v-5.264C68.337,24.39,67.141,23.012,65.091,23.012z"/>
<path fill="#FFFFFF" d="M21.811,39.665c-2.443,0-4.131,1.722-4.131,3.902V43.6c0,2.066,1.639,3.559,4,3.559
	c1.59,0,2.623-0.837,3.246-1.837c0.049,2.936-1.345,5.034-3.41,5.034c-1.017,0-1.886-0.41-2.82-1.23l-0.755,1
	c0.968,0.804,2.051,1.41,3.542,1.41c2.837,0,4.771-2.574,4.771-6.214v-0.032c0-2.296-0.558-3.574-1.427-4.443
	C24.09,40.107,23.122,39.665,21.811,39.665z M24.68,43.452c0,1.312-1.099,2.591-2.853,2.591c-1.673,0-2.82-1.049-2.82-2.509v-0.032
	c0-1.427,1.032-2.689,2.755-2.689c1.721,0,2.918,1.148,2.918,2.607V43.452z"/>
<path fill="#FFFFFF" d="M33.472,39.665c-2.951,0-4.87,2.722-4.87,5.936v0.032c0,3.214,1.869,5.902,4.837,5.902
	c2.952,0,4.854-2.722,4.854-5.935v-0.033C38.292,42.354,36.423,39.665,33.472,39.665z M36.948,45.633
	c0,2.509-1.328,4.723-3.477,4.723c-2.147,0-3.525-2.247-3.525-4.755v-0.033c0-2.525,1.345-4.722,3.492-4.722
	c2.132,0,3.51,2.246,3.51,4.755V45.633z"/>
<path fill="#FFFFFF" d="M45.788,42.288v-0.033c0-1.344-1.229-2.491-2.574-2.491c-1.344,0-2.574,1.147-2.574,2.491v0.033
	c0,1.328,1.23,2.492,2.574,2.492C44.559,44.78,45.788,43.616,45.788,42.288z M44.837,42.288c0,0.853-0.688,1.64-1.623,1.64
	c-0.934,0-1.623-0.787-1.623-1.64v-0.033c0-0.852,0.689-1.639,1.623-1.639c0.936,0,1.623,0.787,1.623,1.639V42.288z"/>
<path fill="#FFFFFF" d="M220.449,4.452c-5.012,1.795-11.585,4.227-16.9,6.462c3.113-2.182,7.581-4.632,13.172-7.213
	c0.25-0.116,0.359-0.413,0.244-0.664c-0.116-0.251-0.412-0.359-0.664-0.244c-7.787,3.597-13.446,6.962-16.364,9.732
	c-0.177,0.168-0.206,0.439-0.069,0.643c0.096,0.142,0.253,0.22,0.414,0.22c0.07,0,0.142-0.015,0.208-0.046
	c5.612-2.571,14.136-5.741,20.298-7.948c0.26-0.093,0.395-0.379,0.302-0.64C220.996,4.495,220.711,4.362,220.449,4.452z"/>
<path fill="#FFFFFF" d="M218.853,0h-95.705C119.758,0,117,2.772,117,6.18V159.82c0,3.407,2.758,6.18,6.147,6.18h95.705
	c3.094,0,5.654-2.312,6.079-5.306c0.014-0.075,0.024-0.149,0.034-0.227c0.003-0.024,0.003-0.05,0.005-0.074
	c0.014-0.13,0.029-0.259,0.029-0.394v-0.18V113V6.18C225,2.772,222.242,0,218.853,0z M123.147,165c-0.093,0-0.181-0.022-0.272-0.027
	c0.175,0.017,0.352,0.027,0.53,0.027H123.147z M224,37.902c-5.694,0.717-11.072,0.765-16.087,0.134
	c-0.008-0.021-0.008-0.045-0.019-0.066l-12.884-25.754l0.021-0.016c0.047,0.061,0.053,0.127,0.049,0.149
	c0.007-0.038,0.062-0.135,0.115-0.2c2.848-3.581,5.809-7.039,8.8-10.279l-0.734-0.678c-3.009,3.258-5.985,6.734-8.841,10.325
	c-0.057,0.067-0.105,0.147-0.152,0.229c-0.015,0.005-0.03,0.005-0.045,0.012l-27.481,13.747c-0.145,0.072-0.241,0.19-0.267,0.349
	c-0.114,0.421-1.778,3.355-4.42,4.719c-0.487,0.255-4.963,2.494-9.701,4.866c-14.072,7.043-14.108,7.072-14.185,7.135
	c-0.041,0.027-0.12,0.068-0.224,0.124c-0.477,0.258-1.365,0.737-1.915,1.386c-0.528,0.628-0.372,1.688-0.334,1.883l0.346,1.044
	c-2.849,1.609-2.654,3.223-2.427,3.859c0.374,1.05,1.594,1.779,2.614,1.566c3.383-0.718,17.489-3.556,28.718-5.649
	c-4.341,3.175-16.009,11.713-18.046,13.245c-1.235,0.927-2.517,2.017-2.094,3.226c0.085,0.245,0.215,0.545,0.322,0.781l-1.284,0.838
	c-0.964,0.55-1.225,1.718-0.634,2.839c0.423,0.804,1.221,1.434,2.122,1.434c0.291,0,0.594-0.065,0.896-0.213
	c1.722-0.83,55.467-27.348,60.986-30.07c0.146,0.093,0.316,0.149,0.488,0.154c2.375,0.308,4.854,0.461,7.422,0.461
	c2.854,0,5.82-0.192,8.873-0.571V113h-29.797c-5.232,15.376-4.303,24.195-3.845,28.532l0.053,0.498
	c0.292,2.834-0.242,5.026-1.587,6.517c-1.575,1.745-3.768,1.934-4.637,1.934c-2.433,0-5.332-1.179-5.332-6.793
	c0-3.602,4.024-16.302,10.401-30.688h-19.19c-4.824,14.37-4.988,24.412-4.42,29.931c0.268,2.602-0.217,4.607-1.438,5.961
	c-0.925,1.024-2.277,1.611-3.712,1.611c-0.185,0-0.364-0.01-0.537-0.028c-2.951-0.312-4.326-2.333-4.326-6.363
	c0-3.879,4.493-17.102,10.726-31.111h-18.413c-6.534,17.015-5.671,25.078-5.149,29.957l0.075,0.705
	c0.237,2.312-0.202,4.104-1.308,5.33c-0.86,0.953-2.12,1.5-3.456,1.5c-0.131,0-0.258-0.005-0.381-0.016
	c-2.664-0.221-3.959-2.104-3.959-5.757c0-5.015,6.259-21.14,11.693-31.72H118V6.18c0-2.856,2.31-5.18,5.147-5.18h95.705
	C221.69,1,224,3.323,224,6.18V37.902z M146.216,63.999c-0.003-0.006-0.318-0.652-0.465-1.072c-0.147-0.423,0.408-1.089,1.751-2.096
	c2.388-1.797,18.066-13.26,19.55-14.345c1.389-0.166,3.312-0.407,4.813-0.771c3.477-0.838,3.602-0.857,5.133-1.099l0.126-0.02
	c2.061-0.323,2.968,0.036,3.131,0.479c0.185,0.508-0.395,1.521-1.553,2.223c-0.425,0.257-1.13,0.626-2.022,1.093
	c-0.94,0.492-2.075,1.086-3.282,1.759c-0.695,0.39-1.404,0.874-2.155,1.388c-0.835,0.571-1.699,1.161-2.612,1.667
	c-10.223,5.638-23.886,13.037-24.439,13.279c-0.08,0.027-0.186,0.026-0.278-0.104c0.036-0.254,0.17-0.488,0.455-0.651l1.673-1.092
	C146.251,64.5,146.326,64.226,146.216,63.999z M144.527,67.427c0.476-0.176,15.181-8.158,24.586-13.346
	c0.955-0.528,1.839-1.133,2.693-1.717c0.731-0.5,1.423-0.973,2.078-1.34c1.198-0.668,2.324-1.257,3.259-1.746
	c0.907-0.475,1.625-0.85,2.076-1.123c1.529-0.926,2.359-2.364,1.975-3.421c-0.281-0.77-1.239-1.591-4.226-1.125l-0.126,0.021
	c-1.567,0.246-1.695,0.266-5.213,1.113c-1.469,0.356-3.394,0.595-4.763,0.758c-0.039,0-0.078,0.005-0.116,0.014
	c-0.048,0.006-0.096,0.012-0.142,0.017c-0.611,0.072-1.084,0.129-1.312,0.173c-11.317,2.103-25.835,5.023-29.274,5.753
	c-0.395,0.089-0.989-0.181-1.307-0.625c0.162,0.021,0.346,0.014,0.545-0.034l0.485-0.12c9.637-2.39,32.901-8.007,40.784-8.538
	c3.521-0.238,7.759-0.128,7.961,1.737c0.169,1.529-1.586,3.469-5.074,5.611c-6.783,4.175-32.794,18.188-34.297,18.629
	c-0.359-0.082-0.667-0.348-0.873-0.629C144.345,67.479,144.438,67.457,144.527,67.427z M179.94,50.34
	c3.896-2.393,5.763-4.604,5.545-6.571c-0.131-1.209-0.991-2.721-6.445-2.721c-0.765,0-1.62,0.029-2.576,0.094
	c-7.963,0.537-31.296,6.169-40.958,8.566l-0.475,0.117c-0.099,0.023-0.296,0.069-0.42-0.19c0.281-0.643,1.06-1.316,2.267-1.94
	c0.219-0.113,0.322-0.368,0.245-0.602l-0.459-1.364c-0.045-0.287-0.035-0.805,0.13-1.001c0.427-0.502,1.208-0.924,1.627-1.15
	c0.2-0.108,0.301-0.162,0.312-0.181c0.325-0.187,7.945-4,14.068-7.064c4.948-2.477,9.222-4.614,9.715-4.872
	c2.645-1.365,4.433-4.146,4.852-5.15l26.855-13.434l12.553,25.092c-3.163,1.56-22.199,10.952-38.181,18.834
	C173.472,54.108,177.784,51.667,179.94,50.34z"/>
<path fill="#FFFFFF" d="M138.014,101.698c3.146,0,5.57-3.945,5.148-8.16c-0.653-6.536-5.255-7.737-5.549-15.579
	c0,0-5.009,10.598-5.009,15.896C132.604,98.109,134.867,101.698,138.014,101.698z"/>
<path fill="#FFFFFF" d="M184.188,149.48c2.12,0,5.866-1.156,5.229-7.348c-0.658-6.405-3.391-25.294,21.62-65.143
	c-16.956,21.479-31.181,60.244-31.181,66.697C179.855,148.492,182.068,149.48,184.188,149.48z"/>
<path fill="#FFFFFF" d="M160.063,149.48c2.01,0.213,5.146-1.015,4.588-6.447c-0.578-5.621-1.235-23.156,13.46-51.064
	c-10.924,18.652-21.479,46.479-21.479,52.143C156.633,148.326,158.214,149.285,160.063,149.48z"/>
<path fill="#FFFFFF" d="M137.81,149.48c1.702,0.142,4.562-0.899,4.066-5.716c-0.512-4.984-1.89-13.531,5.784-32.78
	c-5.89,10.715-12.893,28.715-12.893,33.735C134.768,148.457,136.166,149.344,137.81,149.48z"/>
</svg>
