<svg xmlns="http://www.w3.org/2000/svg" width="134" height="134" viewBox="0 0 134 134">
  <defs>
    <style>
      .cls-1 {
        fill: #fff;
        fill-rule: evenodd;
      }
    </style>
  </defs>
  <path id="Form_4" data-name="Form 4" class="cls-1" d="M513.766,2860h4.467v26.8h-4.467V2860Zm42.434,67H583v4.47H556.2V2927ZM449,2927h26.8v4.47H449V2927Zm95.028-28.96,18.95-18.94,3.158,3.15-18.95,18.95Zm-78.166-15.79,3.158-3.15,18.951,18.95-3.159,3.15Zm72.473,22.01a33.245,33.245,0,0,0-26.16-8.31,33.475,33.475,0,0,0-15.9,60.33,16.021,16.021,0,0,1,6.323,13.02v11.3a6.688,6.688,0,0,0,2.794,5.42,5.516,5.516,0,0,0-.561,2.4,5.586,5.586,0,0,0,5.583,5.58h11.167a5.585,5.585,0,0,0,5.583-5.58,5.516,5.516,0,0,0-.561-2.4,6.686,6.686,0,0,0,2.794-5.42v-11.23a16.184,16.184,0,0,1,6.358-13.12A33.467,33.467,0,0,0,538.335,2904.26Zm-16.752,85.27H510.416a1.115,1.115,0,1,1,0-2.23h11.167A1.115,1.115,0,1,1,521.583,2989.53Zm3.35-8.93a2.233,2.233,0,0,1-2.233,2.23H509.3a2.235,2.235,0,0,1-2.234-2.23v-6.7h17.867v6.7Zm8.189-27.96a20.67,20.67,0,0,0-8.189,16.73l-17.867.06v-0.13a20.5,20.5,0,0,0-8.159-16.63,29.016,29.016,0,0,1,13.761-52.29,29.045,29.045,0,0,1,32.365,28.85A29.1,29.1,0,0,1,533.122,2952.64ZM516,2906.9a22.359,22.359,0,0,0-22.334,22.33,2.234,2.234,0,1,0,4.467,0A17.882,17.882,0,0,1,516,2911.37,2.235,2.235,0,0,0,516,2906.9Z" transform="translate(-449 -2860)"/>
</svg>
