<svg xmlns="http://www.w3.org/2000/svg" xmlns:xlink="http://www.w3.org/1999/xlink" viewBox="0 0 180.54 180.54"><defs><style>.cls-1{fill:url(#linear-gradient);}.cls-2{fill:#fff;}.cls-3{fill:url(#Neues_Verlaufsfeld_1);}</style><linearGradient id="linear-gradient" x1="16.32" y1="38.49" x2="164.23" y2="142.05" gradientUnits="userSpaceOnUse"><stop offset="0" stop-color="#702281"/><stop offset="0.29" stop-color="#6c217e"/><stop offset="0.59" stop-color="#5f1d77"/><stop offset="0.89" stop-color="#4b166a"/><stop offset="1" stop-color="#411364"/></linearGradient><linearGradient id="Neues_Verlaufsfeld_1" x1="4.73" y1="45.32" x2="175.83" y2="45.32" gradientUnits="userSpaceOnUse"><stop offset="0" stop-color="#fff"/><stop offset="0.09" stop-color="#cfcfcf"/><stop offset="0.15" stop-color="#b2b2b2"/><stop offset="0.23" stop-color="#ccc"/><stop offset="0.41" stop-color="#fff"/><stop offset="0.42" stop-color="#fcfcfc"/><stop offset="0.52" stop-color="#c9c9c8"/><stop offset="0.6" stop-color="#a9a9a8"/><stop offset="0.64" stop-color="#9d9d9c"/><stop offset="0.76" stop-color="#cececd"/><stop offset="0.87" stop-color="#fff"/><stop offset="1" stop-color="#dadada"/></linearGradient></defs><title>Element 1</title><g id="Ebene_2" data-name="Ebene 2"><g id="überlackierbar"><path class="cls-1" d="M180.54,90.27A90.27,90.27,0,1,1,90.27,0a90.26,90.26,0,0,1,90.27,90.27"/><path class="cls-2" d="M170,94.66a79.89,79.89,0,0,1-159.53,0H4.73a85.66,85.66,0,0,0,171.09,0Z"/><path class="cls-3" d="M89.59,4.62A85.75,85.75,0,0,0,4.73,86H10.5a79.89,79.89,0,0,1,159.55,0h5.78A85.77,85.77,0,0,0,91,4.62Z"/><path class="cls-2" d="M37.43,121.11v2.18H35.74V107.22h1.69v7a5.12,5.12,0,0,1,4.36-2.53,5.55,5.55,0,0,1,5.43,5.9v0a5.57,5.57,0,0,1-5.43,5.92A5.15,5.15,0,0,1,37.43,121.11Zm8.06-3.48v0a4.09,4.09,0,0,0-4-4.4,4.24,4.24,0,0,0-4.11,4.38v0a4.23,4.23,0,0,0,4.11,4.4C43.68,122,45.49,120.38,45.49,117.63Z"/><path class="cls-2" d="M49.42,117.63v0a5.61,5.61,0,0,1,5.46-5.92c3.37,0,5.3,2.68,5.3,6a4.87,4.87,0,0,1,0,.55h-9a4,4,0,0,0,4,3.85,4.69,4.69,0,0,0,3.59-1.61l1.06,1a5.9,5.9,0,0,1-4.69,2.13A5.66,5.66,0,0,1,49.42,117.63Zm9-.66c-.18-2.07-1.37-3.87-3.63-3.87-2,0-3.48,1.65-3.7,3.87Z"/><path class="cls-2" d="M62,121.83l.86-1.21a6.6,6.6,0,0,0,3.93,1.46c1.37,0,2.36-.71,2.36-1.81v0c0-1.15-1.34-1.59-2.84-2-1.78-.51-3.76-1.13-3.76-3.22v0c0-2,1.63-3.26,3.87-3.26A7.75,7.75,0,0,1,70.5,113l-.77,1.27a6.41,6.41,0,0,0-3.36-1.1c-1.35,0-2.2.71-2.2,1.65v0c0,1.08,1.4,1.49,2.92,2,1.76.53,3.65,1.21,3.65,3.26v0c0,2.15-1.78,3.41-4,3.41A7.78,7.78,0,0,1,62,121.83Z"/><path class="cls-2" d="M74,120.27v-6.86H72.46v-1.5H74v-3.43h1.7v3.43h3.61v1.5H75.74v6.64a1.68,1.68,0,0,0,1.91,1.89,3.62,3.62,0,0,0,1.65-.39V123a4.21,4.21,0,0,1-2,.48A2.9,2.9,0,0,1,74,120.27Z"/><path class="cls-2" d="M81.26,120v0c0-2.4,2-3.67,4.86-3.67a11.92,11.92,0,0,1,3.5.48v-.39c0-2-1.25-3.11-3.39-3.11a7.81,7.81,0,0,0-3.45.84l-.51-1.39a9.46,9.46,0,0,1,4.14-.94A5,5,0,0,1,90.08,113a4.49,4.49,0,0,1,1.17,3.32v7H89.62v-1.72a5,5,0,0,1-4.11,2C83.4,123.53,81.26,122.32,81.26,120Zm8.38-.88V118a11.87,11.87,0,0,0-3.34-.48c-2.13,0-3.32.93-3.32,2.36v0c0,1.43,1.32,2.27,2.86,2.27C87.93,122.19,89.64,120.91,89.64,119.11Zm-6-11h2v2.09h-2Zm3.85,0h2v2.09h-2Z"/><path class="cls-2" d="M95.12,120.27v-6.86H93.54v-1.5h1.58v-3.43h1.7v3.43h3.61v1.5H96.82v6.64a1.68,1.68,0,0,0,1.91,1.89,3.62,3.62,0,0,0,1.65-.39V123a4.21,4.21,0,0,1-2,.48A2.9,2.9,0,0,1,95.12,120.27Z"/><path class="cls-2" d="M103.24,107.55h1.94v1.87h-1.94Zm.11,4.36h1.7v11.38h-1.7Z"/><path class="cls-2" d="M108.63,125.27l.77-1.32a7.31,7.31,0,0,0,4.38,1.45c2.51,0,4.14-1.39,4.14-4.05V120a5.4,5.4,0,0,1-4.47,2.4,5.27,5.27,0,0,1-5.35-5.33v0a5.29,5.29,0,0,1,5.35-5.37A5.34,5.34,0,0,1,117.9,114v-2h1.69v9.4a5.47,5.47,0,0,1-1.45,4,6,6,0,0,1-4.34,1.52A9,9,0,0,1,108.63,125.27Zm9.33-8.21v0a4,4,0,0,0-4.18-3.85,3.76,3.76,0,0,0-3.94,3.82V117a3.85,3.85,0,0,0,3.94,3.87A4,4,0,0,0,118,117.06Z"/><path class="cls-2" d="M122.45,117.63v0a5.61,5.61,0,0,1,5.46-5.92c3.36,0,5.3,2.68,5.3,6a4.87,4.87,0,0,1,0,.55h-9a4,4,0,0,0,4,3.85,4.72,4.72,0,0,0,3.59-1.61l1.05,1a5.88,5.88,0,0,1-4.68,2.13A5.65,5.65,0,0,1,122.45,117.63Zm9-.66c-.17-2.07-1.36-3.87-3.63-3.87-2,0-3.48,1.65-3.69,3.87Z"/><path class="cls-2" d="M136,111.91h1.69v2a4.32,4.32,0,0,1,3.9-2.22c2.75,0,4.35,1.85,4.35,4.55v7.07h-1.69v-6.65c0-2.11-1.14-3.43-3.15-3.43a3.35,3.35,0,0,0-3.41,3.56v6.52H136Z"/><path class="cls-2" d="M62.05,92.59a10.25,10.25,0,0,1-3,3.47,14.08,14.08,0,0,1-4.58,2.17A21,21,0,0,1,48.7,99,20.34,20.34,0,0,1,43,98.2,14.58,14.58,0,0,1,38.38,96a10.58,10.58,0,0,1-3-3.42,9.19,9.19,0,0,1-1.1-4.47,9.32,9.32,0,0,1,1.53-5.59A11.19,11.19,0,0,1,40.31,79a10.93,10.93,0,0,1-3.48-3.26,8.81,8.81,0,0,1-1.28-5,9.1,9.1,0,0,1,.93-4,9.81,9.81,0,0,1,2.68-3.29,13.59,13.59,0,0,1,4.14-2.19,18.56,18.56,0,0,1,10.78,0,13.52,13.52,0,0,1,4.17,2.19,9.66,9.66,0,0,1,2.67,3.29,9.77,9.77,0,0,1-.34,9A11,11,0,0,1,57.1,79a13.46,13.46,0,0,1,4.47,3.5,8.48,8.48,0,0,1,1.57,5.38A9.85,9.85,0,0,1,62.05,92.59ZM53.36,84a8.33,8.33,0,0,0-4.66-1.19A8.28,8.28,0,0,0,44.05,84a3.87,3.87,0,0,0-1.82,3.43,4.07,4.07,0,0,0,1.71,3.35,7.57,7.57,0,0,0,4.76,1.33,7.55,7.55,0,0,0,4.76-1.33,4.08,4.08,0,0,0,1.72-3.35A3.87,3.87,0,0,0,53.36,84Zm-.7-15.38a5.53,5.53,0,0,0-4-1.33,5.54,5.54,0,0,0-4,1.31,4,4,0,0,0-1.39,3A4.29,4.29,0,0,0,44.8,75a5.59,5.59,0,0,0,3.9,1.3A5.65,5.65,0,0,0,52.61,75a4.3,4.3,0,0,0,0-6.38Z"/><path class="cls-2" d="M100,87.32a19.12,19.12,0,0,1-3.4,6.15,15.81,15.81,0,0,1-5.27,4.12,16.43,16.43,0,0,1-13.63,0,15.21,15.21,0,0,1-5.25-4.09,19,19,0,0,1-3.34-6.12,24,24,0,0,1-1.18-7.62,23.4,23.4,0,0,1,1.21-7.62A18.84,18.84,0,0,1,72.5,66a15.81,15.81,0,0,1,5.27-4.12,15.34,15.34,0,0,1,6.82-1.5,15.6,15.6,0,0,1,6.82,1.47,15.3,15.3,0,0,1,5.24,4.09A18.76,18.76,0,0,1,100,72.08a25,25,0,0,1,0,15.24ZM92.13,75a12.46,12.46,0,0,0-1.66-3.8,7.94,7.94,0,0,0-2.59-2.51,6.85,6.85,0,0,0-6.77,0,8.09,8.09,0,0,0-2.56,2.46,11.69,11.69,0,0,0-1.63,3.77,18.88,18.88,0,0,0-.57,4.76,18.42,18.42,0,0,0,.59,4.76,12.82,12.82,0,0,0,1.66,3.8,8.14,8.14,0,0,0,2.59,2.51,6.85,6.85,0,0,0,6.77,0,8,8,0,0,0,2.57-2.49,12.57,12.57,0,0,0,1.63-3.77,19,19,0,0,0,.56-4.73A18.42,18.42,0,0,0,92.13,75Z"/><path class="cls-2" d="M123.45,73.87a9.68,9.68,0,0,1-1.87,3,8.64,8.64,0,0,1-2.89,2,9.09,9.09,0,0,1-3.72.75,8.82,8.82,0,0,1-3.69-.75,8.61,8.61,0,0,1-2.86-2,8.84,8.84,0,0,1-1.85-3,10.85,10.85,0,0,1-.64-3.72,10.38,10.38,0,0,1,.67-3.74,9.42,9.42,0,0,1,1.87-3.08,8.71,8.71,0,0,1,2.89-2.06,9.18,9.18,0,0,1,3.72-.74,9,9,0,0,1,3.69.74,8.89,8.89,0,0,1,2.86,2,8.67,8.67,0,0,1,1.84,3,11,11,0,0,1,0,7.49ZM116,98.44h-6.37L137,61h6.37Zm1.5-31.58A3,3,0,0,0,115,65.44a2.84,2.84,0,0,0-2.57,1.39,6.13,6.13,0,0,0-.85,3.27,5.83,5.83,0,0,0,1,3.34,3,3,0,0,0,2.57,1.42,2.82,2.82,0,0,0,2.56-1.39,6.13,6.13,0,0,0,.86-3.27A5.83,5.83,0,0,0,117.54,66.86ZM146.45,93a9.41,9.41,0,0,1-1.88,3,8.53,8.53,0,0,1-2.88,2.06,9.09,9.09,0,0,1-3.72.75,8.79,8.79,0,0,1-8.4-5.8,10.61,10.61,0,0,1-.64-3.72,10.34,10.34,0,0,1,.67-3.74,9.42,9.42,0,0,1,1.87-3.08,8.61,8.61,0,0,1,2.89-2.06,9,9,0,0,1,3.72-.75,8.88,8.88,0,0,1,3.69.75,9.13,9.13,0,0,1,2.86,2,9,9,0,0,1,1.84,3,11.09,11.09,0,0,1,0,7.48Zm-5.91-7A3,3,0,0,0,138,84.59,2.82,2.82,0,0,0,135.4,86a6.12,6.12,0,0,0-.86,3.26,5.84,5.84,0,0,0,1,3.35A3,3,0,0,0,138.08,94a2.8,2.8,0,0,0,2.56-1.39,6.07,6.07,0,0,0,.86-3.26A5.81,5.81,0,0,0,140.54,86Z"/></g></g></svg>