<svg xmlns="http://www.w3.org/2000/svg" xmlns:xlink="http://www.w3.org/1999/xlink" viewBox="0 0 180.54 180.54"><defs><style>.cls-1{fill:url(#linear-gradient);}.cls-2{fill:#fff;}.cls-3{fill:url(#Neues_Verlaufsfeld_1);}</style><linearGradient id="linear-gradient" x1="16.32" y1="38.49" x2="164.23" y2="142.05" gradientUnits="userSpaceOnUse"><stop offset="0" stop-color="#702281"/><stop offset="0.29" stop-color="#6c217e"/><stop offset="0.59" stop-color="#5f1d77"/><stop offset="0.89" stop-color="#4b166a"/><stop offset="1" stop-color="#411364"/></linearGradient><linearGradient id="Neues_Verlaufsfeld_1" x1="4.73" y1="45.32" x2="175.83" y2="45.32" gradientUnits="userSpaceOnUse"><stop offset="0" stop-color="#fff"/><stop offset="0.09" stop-color="#cfcfcf"/><stop offset="0.15" stop-color="#b2b2b2"/><stop offset="0.23" stop-color="#ccc"/><stop offset="0.41" stop-color="#fff"/><stop offset="0.42" stop-color="#fcfcfc"/><stop offset="0.52" stop-color="#c9c9c8"/><stop offset="0.6" stop-color="#a9a9a8"/><stop offset="0.64" stop-color="#9d9d9c"/><stop offset="0.76" stop-color="#cececd"/><stop offset="0.87" stop-color="#fff"/><stop offset="1" stop-color="#dadada"/></linearGradient></defs><title>Element 1</title><g id="Ebene_2" data-name="Ebene 2"><g id="überlackierbar"><path class="cls-1" d="M180.54,90.27A90.27,90.27,0,1,1,90.27,0a90.26,90.26,0,0,1,90.27,90.27"/><path class="cls-2" d="M170,94.66a79.89,79.89,0,0,1-159.53,0H4.73a85.66,85.66,0,0,0,171.09,0Z"/><path class="cls-3" d="M89.59,4.62A85.75,85.75,0,0,0,4.73,86H10.5a79.89,79.89,0,0,1,159.55,0h5.78A85.77,85.77,0,0,0,91,4.62Z"/><path class="cls-2" d="M102.81,103.3l-.32-.21.12-.36a5.3,5.3,0,0,1,4.85-3.27h46.82V92.7H107.46c-7.06,0-11.8,5.52-11.8,13.74v.92l.84.38c6.11,2.83,13.4,8.59,13.4,20.06A21.88,21.88,0,0,1,88,149.66c-12.41,0-22.51-9.8-22.51-21.86,0-9.08,4.74-16,14.09-20.72l.8-.4v-.89c0-7.83-5-13.09-12.45-13.09H26.62v6.76H68a6.22,6.22,0,0,1,5.19,3.23l.23.42-.43.25A27.9,27.9,0,0,0,58.77,127.8c0,15.78,13.13,28.62,29.27,28.62a28.66,28.66,0,0,0,28.63-28.62C116.67,118.08,111.62,109.15,102.81,103.3Z"/><path class="cls-2" d="M93.54,117.84C89.2,65.45,113.4,37.11,113.4,37.11c-28.57,20.63-32.09,63.5-32.29,80.8a12.56,12.56,0,1,0,12.43-.07Z"/><path class="cls-2" d="M76.35,87.25V76.36a1.34,1.34,0,1,0-2.67,0V84L60.89,71.25A1.34,1.34,0,0,0,59,73.15L71.76,85.92H64.1a1.32,1.32,0,0,0-1.33,1.34,1.39,1.39,0,0,0,.39,1,1.31,1.31,0,0,0,1,.39H75.05a1.36,1.36,0,0,0,1-.39A1.71,1.71,0,0,0,76.35,87.25Z"/><path class="cls-2" d="M101,88.24a1.38,1.38,0,0,0,1,.39h10.93a1.32,1.32,0,0,0,1-.39,1.39,1.39,0,0,0,.39-1,1.33,1.33,0,0,0-1.34-1.34H105.2L118,73.15a1.34,1.34,0,0,0-1.9-1.9L103.29,84V76.36a1.34,1.34,0,0,0-2.68,0V87.25A1.71,1.71,0,0,0,101,88.24Z"/></g></g></svg>