<svg xmlns="http://www.w3.org/2000/svg" xmlns:xlink="http://www.w3.org/1999/xlink" viewBox="0 0 180.55 180.54"><defs><style>.cls-1{fill:url(#linear-gradient);}.cls-2{fill:#fff;}.cls-3{fill:url(#Neues_Verlaufsfeld_1);}</style><linearGradient id="linear-gradient" x1="16.32" y1="38.49" x2="164.23" y2="142.05" gradientUnits="userSpaceOnUse"><stop offset="0" stop-color="#702281"/><stop offset="0.29" stop-color="#6c217e"/><stop offset="0.59" stop-color="#5f1d77"/><stop offset="0.89" stop-color="#4b166a"/><stop offset="1" stop-color="#411364"/></linearGradient><linearGradient id="Neues_Verlaufsfeld_1" x1="4.73" y1="45.32" x2="175.83" y2="45.32" gradientUnits="userSpaceOnUse"><stop offset="0" stop-color="#fff"/><stop offset="0.09" stop-color="#cfcfcf"/><stop offset="0.15" stop-color="#b2b2b2"/><stop offset="0.23" stop-color="#ccc"/><stop offset="0.41" stop-color="#fff"/><stop offset="0.42" stop-color="#fcfcfc"/><stop offset="0.52" stop-color="#c9c9c8"/><stop offset="0.6" stop-color="#a9a9a8"/><stop offset="0.64" stop-color="#9d9d9c"/><stop offset="0.76" stop-color="#cececd"/><stop offset="0.87" stop-color="#fff"/><stop offset="1" stop-color="#dadada"/></linearGradient></defs><title>Element 7</title><g id="Ebene_2" data-name="Ebene 2"><g id="überlackierbar"><path class="cls-1" d="M180.55,90.27A90.28,90.28,0,1,1,90.27,0a90.27,90.27,0,0,1,90.28,90.27"/><path class="cls-2" d="M170,94.66a79.89,79.89,0,0,1-159.53,0H4.73a85.66,85.66,0,0,0,171.09,0Z"/><path class="cls-3" d="M89.59,4.62A85.75,85.75,0,0,0,4.73,86H10.5a79.89,79.89,0,0,1,159.55,0h5.78A85.77,85.77,0,0,0,91,4.62Z"/><path class="cls-2" d="M135.16,94.8c.07-11-1.84-22.81-6.13-31.27a45.46,45.46,0,0,0-6.56-11c-6.82-8.18-19-11.89-30.66-11.16-11.63-.73-23.84,3-30.65,11.16a45.15,45.15,0,0,0-6.56,11C50.31,72,48.4,83.79,48.46,94.8c0,2,.08,3.93.22,5.82.94,13.07,4.76,23.8,10.7,24.43-.19-.32-.38-.65-.56-1a10.86,10.86,0,0,0,5.68,1.46c-1.09,0-1.9-1.46-2.5-3.49,1.83,1.36,4.32,1.86,8.92,2.28-.34-.48-.65-.95-1-1.42a7.82,7.82,0,0,0,3.81.46c-7.3-8.76-8.14-14.46-10.34-25.6C75.14,93,89.78,88.55,94,74.93c.26,5-.86,12.94-3.24,17.31,9.82,0,14.71-17,16.1-24.52,6.24,7.84,9.66,22.42,8.41,32.33,1-1.74,1.91-3.06,2.78-4.35a4.14,4.14,0,0,1,.33,1.31l1.87.75c-2.2,11.14-3,16.84-10.34,25.6a7.81,7.81,0,0,0,3.81-.46c-.32.47-.62.94-1,1.42,4.6-.42,7.09-.92,8.93-2.28-.61,2-1.42,3.49-2.51,3.49a10.86,10.86,0,0,0,5.68-1.46c-.18.33-.37.66-.56,1,5.94-.63,9.76-11.36,10.7-24.43Q135.17,97.79,135.16,94.8Z"/></g></g></svg>