<svg xmlns="http://www.w3.org/2000/svg" xmlns:xlink="http://www.w3.org/1999/xlink" viewBox="0 0 180.54 180.54"><defs><style>.cls-1{fill:url(#linear-gradient);}.cls-2{fill:#fff;}.cls-3{fill:url(#Neues_Verlaufsfeld_1);}</style><linearGradient id="linear-gradient" x1="16.32" y1="38.49" x2="164.23" y2="142.05" gradientUnits="userSpaceOnUse"><stop offset="0" stop-color="#702281"/><stop offset="0.29" stop-color="#6c217e"/><stop offset="0.59" stop-color="#5f1d77"/><stop offset="0.89" stop-color="#4b166a"/><stop offset="1" stop-color="#411364"/></linearGradient><linearGradient id="Neues_Verlaufsfeld_1" x1="4.73" y1="45.32" x2="175.83" y2="45.32" gradientUnits="userSpaceOnUse"><stop offset="0" stop-color="#fff"/><stop offset="0.09" stop-color="#cfcfcf"/><stop offset="0.15" stop-color="#b2b2b2"/><stop offset="0.23" stop-color="#ccc"/><stop offset="0.41" stop-color="#fff"/><stop offset="0.42" stop-color="#fcfcfc"/><stop offset="0.52" stop-color="#c9c9c8"/><stop offset="0.6" stop-color="#a9a9a8"/><stop offset="0.64" stop-color="#9d9d9c"/><stop offset="0.76" stop-color="#cececd"/><stop offset="0.87" stop-color="#fff"/><stop offset="1" stop-color="#dadada"/></linearGradient></defs><title>Element 4</title><g id="Ebene_2" data-name="Ebene 2"><g id="überlackierbar"><path class="cls-1" d="M180.54,90.27A90.27,90.27,0,1,1,90.27,0a90.26,90.26,0,0,1,90.27,90.27"/><path class="cls-2" d="M170,94.66a79.89,79.89,0,0,1-159.53,0H4.73a85.66,85.66,0,0,0,171.09,0Z"/><path class="cls-3" d="M89.59,4.62A85.75,85.75,0,0,0,4.73,86H10.5a79.89,79.89,0,0,1,159.55,0h5.78A85.77,85.77,0,0,0,91,4.62Z"/><path class="cls-2" d="M84.73,81.74A25.69,25.69,0,1,0,54.52,107v4H48.74a4.54,4.54,0,0,0,0,9.07h5.78v4.66a4.53,4.53,0,0,0,9.06,0V120h5.78a4.54,4.54,0,0,0,0-9.07H63.58v-4A25.79,25.79,0,0,0,84.73,81.74ZM59,65.11A16.63,16.63,0,1,1,42.42,81.74,16.65,16.65,0,0,1,59,65.11Z"/><path class="cls-2" d="M145.65,58.27H129.53a4.53,4.53,0,0,0,0,9.06h5.18l-6,6a25.64,25.64,0,0,0-32.82,2.9,25.69,25.69,0,1,0,39.23,3.51l6-6v5.17a4.53,4.53,0,0,0,9.06,0V62.8A4.54,4.54,0,0,0,145.65,58.27ZM114.09,111a16.63,16.63,0,1,1,11.75-4.87A16.53,16.53,0,0,1,114.09,111Z"/></g></g></svg>