<svg xmlns="http://www.w3.org/2000/svg" xmlns:xlink="http://www.w3.org/1999/xlink" viewBox="0 0 180.54 180.54"><defs><style>.cls-1{fill:url(#linear-gradient);}.cls-2{fill:#fff;}.cls-3{fill:url(#Neues_Verlaufsfeld_1);}.cls-4{fill:#691f83;}</style><linearGradient id="linear-gradient" x1="16.32" y1="38.49" x2="164.23" y2="142.05" gradientUnits="userSpaceOnUse"><stop offset="0" stop-color="#702281"/><stop offset="0.29" stop-color="#6c217e"/><stop offset="0.59" stop-color="#5f1d77"/><stop offset="0.89" stop-color="#4b166a"/><stop offset="1" stop-color="#411364"/></linearGradient><linearGradient id="Neues_Verlaufsfeld_1" x1="4.73" y1="45.32" x2="175.83" y2="45.32" gradientUnits="userSpaceOnUse"><stop offset="0" stop-color="#fff"/><stop offset="0.09" stop-color="#cfcfcf"/><stop offset="0.15" stop-color="#b2b2b2"/><stop offset="0.23" stop-color="#ccc"/><stop offset="0.41" stop-color="#fff"/><stop offset="0.42" stop-color="#fcfcfc"/><stop offset="0.52" stop-color="#c9c9c8"/><stop offset="0.6" stop-color="#a9a9a8"/><stop offset="0.64" stop-color="#9d9d9c"/><stop offset="0.76" stop-color="#cececd"/><stop offset="0.87" stop-color="#fff"/><stop offset="1" stop-color="#dadada"/></linearGradient></defs><title>Element 2</title><g id="Ebene_2" data-name="Ebene 2"><g id="überlackierbar"><path class="cls-1" d="M180.54,90.27A90.27,90.27,0,1,1,90.27,0a90.26,90.26,0,0,1,90.27,90.27"/><path class="cls-2" d="M170,94.66a79.89,79.89,0,0,1-159.53,0H4.73a85.66,85.66,0,0,0,171.09,0Z"/><path class="cls-3" d="M89.59,4.62A85.75,85.75,0,0,0,4.73,86H10.5a79.89,79.89,0,0,1,159.55,0h5.78A85.77,85.77,0,0,0,91,4.62Z"/><path class="cls-2" d="M73.55,45.68V56.57a3.25,3.25,0,1,1-6.49,0V45.68A3.25,3.25,0,1,1,73.55,45.68Z"/><path class="cls-2" d="M120,51.12h-4.67v5.45c0,7.26-11.15,7.26-11.15,0V51.12H75.88v5.45c0,7.26-11.15,7.26-11.15,0V51.12H60.06a6.42,6.42,0,0,0-6.48,6.49v51.6a6.58,6.58,0,0,0,6.48,6.48H120a6.58,6.58,0,0,0,6.48-6.48V57.61A6.42,6.42,0,0,0,120,51.12Z"/><path class="cls-2" d="M113,45.68V56.57a3.24,3.24,0,1,1-6.48,0V45.68A3.24,3.24,0,1,1,113,45.68Z"/><path class="cls-4" d="M75.62,65.49H81v36H73.22v-28L67,75l-1.63-6.43Z"/><path class="cls-4" d="M105.48,101.48,100,93l-5.51,8.53H86.34l9.59-13.89L86.69,74.12H95l5.11,8,5.15-8h8.12l-9.24,13.32,9.65,14Z"/><path class="cls-2" d="M56.37,140.27v-6.86H54.78v-1.5h1.59v-3.43h1.69v3.43h3.61v1.5H58.06v6.64A1.68,1.68,0,0,0,60,141.94a3.65,3.65,0,0,0,1.65-.39V143a4.28,4.28,0,0,1-2.05.48A2.89,2.89,0,0,1,56.37,140.27Z"/><path class="cls-2" d="M63.58,140v-.05c0-2.4,2-3.67,4.87-3.67a12,12,0,0,1,3.5.48v-.39c0-2.05-1.26-3.11-3.39-3.11a7.85,7.85,0,0,0-3.46.84l-.5-1.39a9.38,9.38,0,0,1,4.13-.94A5,5,0,0,1,72.41,133a4.49,4.49,0,0,1,1.16,3.32v7H72v-1.72a5,5,0,0,1-4.12,2C65.72,143.53,63.58,142.32,63.58,140Zm8.39-.88V138a12,12,0,0,0-3.35-.48c-2.13,0-3.32.93-3.32,2.36v0c0,1.43,1.32,2.27,2.86,2.27C70.25,142.19,72,140.91,72,139.11Zm-6-11h2v2.09H66Zm3.85,0h2v2.09h-2Z"/><path class="cls-2" d="M76.83,145.27,77.6,144A7.31,7.31,0,0,0,82,145.4c2.51,0,4.14-1.39,4.14-4.05V140a5.42,5.42,0,0,1-4.47,2.4,5.27,5.27,0,0,1-5.35-5.33v0A5.38,5.38,0,0,1,86.09,134v-2.05h1.7v9.4a5.44,5.44,0,0,1-1.46,4A6,6,0,0,1,82,146.85,9,9,0,0,1,76.83,145.27Zm9.33-8.21v0A4,4,0,0,0,82,133.17,3.76,3.76,0,0,0,78,137v0A3.85,3.85,0,0,0,82,140.91,4,4,0,0,0,86.16,137.06Z"/><path class="cls-2" d="M91.5,127.22h1.7v16.07H91.5Z"/><path class="cls-2" d="M97,127.55H98.9v1.87H97Zm.11,4.36h1.7v11.38h-1.7Z"/><path class="cls-2" d="M101.78,137.65v0a5.93,5.93,0,0,1,10.39-3.92L111,134.88a4.56,4.56,0,0,0-3.45-1.71,4.19,4.19,0,0,0-4.07,4.4v0A4.25,4.25,0,0,0,107.7,142a4.71,4.71,0,0,0,3.48-1.69l1.07,1a5.88,5.88,0,0,1-10.47-3.7Z"/><path class="cls-2" d="M114.83,127.22h1.69v6.67a4.32,4.32,0,0,1,3.9-2.22c2.75,0,4.35,1.85,4.35,4.55v7.07h-1.69v-6.65c0-2.11-1.15-3.43-3.15-3.43a3.34,3.34,0,0,0-3.41,3.56v6.52h-1.69Z"/></g></g></svg>