<svg xmlns="http://www.w3.org/2000/svg" xmlns:xlink="http://www.w3.org/1999/xlink" viewBox="0 0 180.55 180.54"><defs><style>.cls-1{fill:url(#linear-gradient);}.cls-2{fill:#fff;}.cls-3{fill:url(#Neues_Verlaufsfeld_1);}</style><linearGradient id="linear-gradient" x1="16.32" y1="38.49" x2="164.23" y2="142.05" gradientUnits="userSpaceOnUse"><stop offset="0" stop-color="#702281"/><stop offset="0.29" stop-color="#6c217e"/><stop offset="0.59" stop-color="#5f1d77"/><stop offset="0.89" stop-color="#4b166a"/><stop offset="1" stop-color="#411364"/></linearGradient><linearGradient id="Neues_Verlaufsfeld_1" x1="4.73" y1="45.32" x2="175.83" y2="45.32" gradientUnits="userSpaceOnUse"><stop offset="0" stop-color="#fff"/><stop offset="0.09" stop-color="#cfcfcf"/><stop offset="0.15" stop-color="#b2b2b2"/><stop offset="0.23" stop-color="#ccc"/><stop offset="0.41" stop-color="#fff"/><stop offset="0.42" stop-color="#fcfcfc"/><stop offset="0.52" stop-color="#c9c9c8"/><stop offset="0.6" stop-color="#a9a9a8"/><stop offset="0.64" stop-color="#9d9d9c"/><stop offset="0.76" stop-color="#cececd"/><stop offset="0.87" stop-color="#fff"/><stop offset="1" stop-color="#dadada"/></linearGradient></defs><title>Element 6</title><g id="Ebene_2" data-name="Ebene 2"><g id="überlackierbar"><path class="cls-1" d="M180.55,90.27A90.28,90.28,0,1,1,90.27,0a90.27,90.27,0,0,1,90.28,90.27"/><path class="cls-2" d="M67.46,102.2a16.34,16.34,0,0,1-.89-1.47c-.3-.59.38-1.67,2.14-3.41,3.13-3.09,23.76-22.91,25.71-24.78a68.11,68.11,0,0,0,6.88-2.07,72.85,72.85,0,0,1,7.27-2.62l.18,0c3-.88,4.34-.53,4.67.08s-.28,2.3-1.83,3.55c-.57.46-1.53,1.14-2.74,2s-2.81,2-4.44,3.21c-.94.71-1.88,1.55-2.87,2.45s-2.26,2-3.49,3C84.24,92.28,65.75,105.77,65,106.23a.35.35,0,0,1-.43-.1,1.28,1.28,0,0,1,.54-1l2.23-1.92A.75.75,0,0,0,67.46,102.2ZM114,75.63c5.22-4.26,7.51-7.86,6.81-10.69-.43-1.74-2-3.77-10-2.7-1.11.15-2.36.36-3.74.64C95.59,65.24,62.64,78.05,49,83.45l-.67.26a.47.47,0,0,1-.65-.19,7.13,7.13,0,0,1,2.93-3.28.74.74,0,0,0,.24-.93l-.94-1.9a2.34,2.34,0,0,1,0-1.48,8.8,8.8,0,0,1,2.15-2,2.87,2.87,0,0,0,.42-.33c.44-.33,10.81-7.4,19.14-13.08,6.74-4.59,12.56-8.55,13.23-9A17.6,17.6,0,0,0,90.91,43l36.56-24.9,8.88,1.53,27.3,28.88c-4.31,2.9-43.17,24.1-64.94,38.75C105.3,82.4,111.11,78,114,75.63Z"/><path class="cls-2" d="M74.55,128.68l-9.81-17-9.8,17a11.33,11.33,0,0,0,9.8,17h0A11.34,11.34,0,0,0,74.55,128.68Zm-9.32,13.6a1,1,0,0,1,0-2,5.41,5.41,0,0,0,5.43-5.42,1,1,0,0,1,2,0A7.39,7.39,0,0,1,65.23,142.28Z"/><path class="cls-2" d="M170,94.66a79.89,79.89,0,0,1-159.53,0H4.73a85.66,85.66,0,0,0,171.09,0Z"/><path class="cls-3" d="M89.59,4.62A85.75,85.75,0,0,0,4.73,86H10.5a79.89,79.89,0,0,1,159.55,0h5.78A85.77,85.77,0,0,0,91,4.62Z"/></g></g></svg>