<svg id="Gruppe_4" data-name="Gruppe 4" xmlns="http://www.w3.org/2000/svg" width="510" height="322" viewBox="0 0 510 322">
  <defs>
    <style>
      .cls-1 {
        fill: #691f83;
      }

      .cls-2 {
        fill: #fff;
        fill-rule: evenodd;
      }
    </style>
  </defs>
  <rect id="Rechteck_1_Kopie_11" data-name="Rechteck 1 Kopie 11" class="cls-1" width="510" height="322"/>
  <path id="Form_4" data-name="Form 4" class="cls-2" d="M604.861,2749.03v-0.59l10.218-1.46a16.2,16.2,0,0,0,13.666-13.68l1.857-12.99a3.235,3.235,0,0,0-2.738-3.65,3.458,3.458,0,0,0-.909,0l-12.982,1.86a16.2,16.2,0,0,0-13.667,13.68l-0.683,4.78a15.507,15.507,0,0,0-10.87-4.23,3.225,3.225,0,0,0,0,6.45,10.853,10.853,0,0,1,9.665,7.04v2.79a54.775,54.775,0,0,0-51.387,51.41h44.35a9.639,9.639,0,0,1,.594,3.23,60.627,60.627,0,0,1-19.136,44.48c-0.449.43-.937,0.8-1.4,1.21A54.755,54.755,0,1,0,604.861,2749.03Zm35.437,57.86a3.22,3.22,0,0,1-3.222-3.22,35.483,35.483,0,0,0-35.437-35.46,3.225,3.225,0,0,1,0-6.45,41.942,41.942,0,0,1,41.88,41.91A3.219,3.219,0,0,1,640.3,2806.89Zm-54.767,0a54.865,54.865,0,0,1-109.532,0h12.925a41.733,41.733,0,0,0,12.113,26.35,0.216,0.216,0,0,0,.034.05c0.015,0.02.039,0.02,0.056,0.04a42,42,0,0,0,59.276,0c0.016-.02.04-0.02,0.056-0.04s0.019-.03.034-0.05a41.735,41.735,0,0,0,12.114-26.35h12.924Zm-77.5,24,19.5-19.45v27.52A35.383,35.383,0,0,1,508.031,2830.89Zm-4.556-4.54a35.282,35.282,0,0,1-8.105-19.46h27.609Zm50.025,4.54a35.383,35.383,0,0,1-19.5,8.07v-27.52Zm4.556-4.54-19.5-19.46h27.608a35.282,35.282,0,0,1-8.1,19.46h0Z" transform="translate(-321 -2642)"/>
</svg>
