<?xml version="1.0" encoding="utf-8"?>
<!-- Generator: Adobe Illustrator 24.0.3, SVG Export Plug-In . SVG Version: 6.00 Build 0)  -->
<svg version="1.1" id="Gruppe_5" xmlns="http://www.w3.org/2000/svg" xmlns:xlink="http://www.w3.org/1999/xlink" x="0px" y="0px"
	 viewBox="0 0 376.5 436.1" style="enable-background:new 0 0 376.5 436.1;" xml:space="preserve">
<style type="text/css">
	.st0{fill-rule:evenodd;clip-rule:evenodd;fill:#FFFFFF;}
	.st1{fill:#FFFFFF;}
	.st2{fill:none;}
</style>
<title>zyklus-mobil</title>
<path id="Ruhephase" class="st0" d="M245.6,436h1.6v-3.2h2l2.2,3.2h1.9l-2.4-3.4c1.3-0.3,2.2-1.4,2.1-2.8l0,0c0-0.7-0.2-1.5-0.8-2
	c-0.7-0.6-1.7-1-2.6-0.9h-4L245.6,436L245.6,436z M247.2,431.4v-3h2.3c1.2,0,1.9,0.5,1.9,1.5l0,0c0,0.9-0.8,1.6-1.7,1.5c0,0,0,0,0,0
	h-0.2L247.2,431.4z M260,436.1c2.4,0,3.9-1.4,3.9-4.1v-5.2h-1.6v5.2c0,1.7-0.9,2.5-2.3,2.5s-2.3-0.9-2.3-2.6v-5.2h-1.6v5.2
	C256.1,434.8,257.6,436.1,260,436.1L260,436.1z M267.4,436h1.6v-3.8h4.3v3.9h1.6v-9.1h-1.6v3.8h-4.3v-3.8h-1.6L267.4,436L267.4,436z
	 M278.6,436h6.8v-1.4h-5.2v-2.4h4.6v-1.4h-4.6v-2.4h5.1v-1.4h-6.8V436z M288.6,436h1.6v-2.9h1.8c2,0,3.6-1.1,3.6-3.1l0,0
	c0-1.8-1.3-3-3.5-3h-3.6L288.6,436L288.6,436z M290.2,431.6v-3.3h1.9c1.2,0,2,0.6,2,1.6l0,0c0,0.9-0.8,1.7-1.8,1.6h-0.2L290.2,431.6
	z M298.6,436h1.6v-3.8h4.4v3.9h1.6v-9.1h-1.6v3.8h-4.4v-3.8h-1.6V436L298.6,436z M309,436h1.6l0.9-2.2h4.3l0.9,2.2h1.7l-4-9.2H313
	L309,436z M312.1,432.4l1.6-3.6l1.6,3.6H312.1z M324.4,436.1c1.9,0,3.2-1,3.2-2.7l0,0c0-1.5-1-2.2-2.9-2.7c-1.8-0.4-2.2-0.7-2.2-1.4
	l0,0c0.1-0.7,0.7-1.2,1.4-1.1h0.1c0.9,0,1.8,0.4,2.5,0.9l0.9-1.2c-0.9-0.8-2.1-1.2-3.3-1.1c-1.8,0-3.1,1.1-3.1,2.6l0,0
	c0,1.7,1.1,2.2,3,2.7c1.7,0.4,2.1,0.7,2.1,1.4l0,0c0,0.7-0.6,1.1-1.6,1.1c-1.1,0-2.1-0.4-2.9-1.2l-1,1.1
	C321.5,435.6,322.9,436.1,324.4,436.1L324.4,436.1z M330.8,436h6.8v-1.4h-5.2v-2.4h4.6v-1.4h-4.6v-2.4h5.1v-1.4h-6.8L330.8,436
	L330.8,436z"/>
<path id="Haarausfall" class="st0" d="M142.3,321.7h1.6v-3.8h4.4v3.8h1.6v-9.1h-1.6v3.8h-4.4v-3.8h-1.6V321.7z M152.7,321.7h1.6
	l0.9-2.2h4.3l0.9,2.2h1.7l-4-9.2h-1.5L152.7,321.7z M155.8,318.1l1.6-3.6l1.6,3.6H155.8z M164.1,321.7h1.6l0.9-2.2h4.3l0.9,2.2h1.7
	l-4-9.2h-1.5L164.1,321.7z M167.2,318.1l1.6-3.6l1.6,3.6H167.2z M176.4,321.7h1.6v-3.2h2l2.2,3.2h1.9l-2.4-3.5
	c1.3-0.3,2.2-1.4,2.1-2.8l0,0c0-0.7-0.2-1.5-0.8-2c-0.7-0.6-1.7-1-2.6-0.9h-4L176.4,321.7L176.4,321.7z M178,317.1v-3h2.3
	c1.2,0,1.9,0.5,1.9,1.5l0,0c0,0.9-0.8,1.6-1.7,1.5c0,0,0,0,0,0h-0.2L178,317.1z M186.3,321.7h1.7l0.9-2.2h4.3l0.9,2.2h1.7l-4-9.2
	h-1.5L186.3,321.7z M189.5,318.1l1.6-3.6l1.6,3.6H189.5z M202.1,321.8c2.4,0,3.9-1.4,3.9-4.1v-5.2h-1.6v5.2c0,1.7-0.9,2.5-2.3,2.5
	s-2.3-0.9-2.3-2.6v-5.2h-1.6v5.2C198.2,320.5,199.7,321.8,202.1,321.8L202.1,321.8z M212.7,321.8c1.9,0,3.2-1,3.2-2.7l0,0
	c0-1.5-1-2.2-2.9-2.7c-1.8-0.4-2.2-0.7-2.2-1.4l0,0c0.1-0.7,0.7-1.2,1.4-1.1h0.1c0.9,0,1.8,0.4,2.5,0.9l0.9-1.2
	c-0.9-0.8-2.1-1.2-3.3-1.1c-1.8,0-3.1,1.1-3.1,2.6l0,0c0,1.7,1.1,2.2,3,2.7c1.7,0.4,2.1,0.7,2.1,1.4l0,0c0,0.7-0.6,1.1-1.6,1.1
	c-1.1,0-2.1-0.4-2.9-1.2l-1,1.1C209.9,321.3,211.2,321.8,212.7,321.8L212.7,321.8z M219.1,321.7h1.6V318h4.6v-1.5h-4.6v-2.5h5.2
	v-1.5h-6.8V321.7L219.1,321.7z M227.1,321.7h1.6l0.9-2.2h4.3l0.9,2.2h1.7l-4-9.2h-1.5L227.1,321.7z M230.3,318.1l1.6-3.6l1.6,3.6
	H230.3z M239.5,321.7h6.4v-1.5h-4.8v-7.7h-1.6V321.7L239.5,321.7z M248.8,321.7h6.4v-1.5h-4.8v-7.7h-1.6V321.7L248.8,321.7z"/>
<path id="Rückkehr_zur_Wachstumsphase" class="st0" d="M8.5,420h1.6v-3.2h2l2.2,3.2h1.9l-2.5-3.5c1.3-0.3,2.2-1.4,2.2-2.8l0,0
	c0-0.7-0.2-1.5-0.8-2c-0.7-0.6-1.7-1-2.6-0.9H8.5V420z M10.1,415.4v-3.1h2.3c1.2,0,1.9,0.5,1.9,1.5l0,0c0,0.9-0.8,1.6-1.7,1.5
	c0,0,0,0,0,0h-0.2L10.1,415.4z M23.5,410.2h1.6v-1.5h-1.6L23.5,410.2z M20.8,410.2h1.6v-1.5h-1.6L20.8,410.2z M22.9,420.2
	c2.4,0,3.9-1.4,3.9-4.1v-5.2h-1.6v5.2c0,1.7-0.9,2.5-2.3,2.5s-2.3-0.9-2.3-2.6v-5.2h-1.6v5.2C19.1,418.8,20.6,420.1,22.9,420.2
	L22.9,420.2z M34.6,420.2c1.4,0,2.8-0.5,3.7-1.6l-1-1c-0.7,0.7-1.6,1.2-2.6,1.2c-1.7,0-3-1.4-3-3.1c0,0,0,0,0,0v-0.1
	c-0.1-1.7,1.2-3.1,2.9-3.2c0,0,0,0,0,0h0.1c1,0,1.9,0.4,2.5,1.1l1-1.2c-0.9-1-2.2-1.5-3.6-1.4c-2.5,0-4.6,2-4.6,4.5v0.2
	c-0.1,2.5,1.9,4.6,4.5,4.7c0,0,0,0,0,0L34.6,420.2z M41.2,420h1.6v-2.6l1.4-1.5l3.1,4.1h2l-4-5.2l3.8-3.9h-2l-4.3,4.6v-4.6h-1.6
	L41.2,420L41.2,420z M52,420h1.6v-2.6l1.4-1.5l3.1,4.1h2l-4-5.2l3.8-3.9h-2l-4.3,4.6v-4.6H52V420z M62.7,420h6.8v-1.4h-5.2v-2.5h4.6
	v-1.4h-4.6v-2.4h5.2v-1.4h-6.8L62.7,420L62.7,420z M72.7,420h1.6v-3.8h4.3v3.8h1.6v-9.1h-1.6v3.8h-4.3v-3.8h-1.6L72.7,420L72.7,420z
	 M83.9,420h1.6v-3.2h2l2.2,3.2h1.9l-2.5-3.5c1.3-0.3,2.2-1.4,2.2-2.8l0,0c0-0.7-0.2-1.5-0.8-2c-0.7-0.6-1.6-1-2.6-0.9h-4.1L83.9,420
	L83.9,420z M85.5,415.4v-3.1h2.3c1.2,0,1.9,0.5,1.9,1.5l0,0c0,0.9-0.8,1.6-1.7,1.5c0,0,0,0,0,0h-0.2L85.5,415.4z M99.5,420h7.5v-1.4
	h-5.4l5.4-6.5v-1.2h-7.3v1.4h5.2l-5.4,6.5L99.5,420L99.5,420z M114,420.1c2.4,0,3.9-1.4,3.9-4.1v-5.2h-1.6v5.2
	c0,1.7-0.9,2.5-2.3,2.5s-2.3-0.9-2.3-2.6v-5.2h-1.6v5.2C110.1,418.8,111.6,420.1,114,420.1L114,420.1z M121.4,420h1.6v-3.2h2
	l2.2,3.2h1.9l-2.5-3.5c1.3-0.3,2.2-1.4,2.2-2.8l0,0c0-0.7-0.2-1.5-0.8-2c-0.7-0.6-1.7-1-2.6-0.9h-4.1L121.4,420L121.4,420z
	 M123,415.4v-3.1h2.3c1.2,0,1.9,0.5,1.9,1.5l0,0c0,0.9-0.8,1.6-1.7,1.5h-0.2L123,415.4z M11.1,436.1h1.4l2.2-6.5l2.2,6.5h1.4
	l3.1-9.2h-1.7l-2.2,6.7l-2.2-6.8h-1.4l-2.2,6.8l-2.2-6.7H8L11.1,436.1z M22.5,436h1.6l0.9-2.2h4.3l0.9,2.2H32l-4-9.2h-1.5L22.5,436z
	 M25.7,432.4l1.6-3.6l1.6,3.6H25.7z M38.5,436.1c1.4,0,2.8-0.5,3.7-1.6l-1-1c-0.7,0.7-1.6,1.2-2.6,1.2c-1.7,0-3-1.4-3-3.1
	c0,0,0,0,0,0c0,0,0-0.1,0-0.1l0,0c-0.1-1.7,1.2-3.1,2.9-3.2c0,0,0,0,0,0h0.1c1,0,1.9,0.4,2.5,1.1l1-1.2c-0.9-1-2.2-1.5-3.6-1.4
	c-2.5,0-4.6,2-4.7,4.5v0.2c-0.1,2.5,2,4.6,4.5,4.7L38.5,436.1L38.5,436.1z M45.2,436h1.6v-3.8h4.3v3.8h1.6v-9.1h-1.6v3.8h-4.3v-3.8
	h-1.6C45.2,426.9,45.2,436,45.2,436z M59.6,436.1c1.9,0,3.2-1,3.2-2.7l0,0c0-1.5-1-2.2-2.9-2.7c-1.8-0.4-2.2-0.7-2.2-1.4l0,0
	c0.1-0.7,0.7-1.2,1.4-1.1c0,0,0,0,0,0h0.1c0.9,0,1.8,0.4,2.5,0.9l0.9-1.2c-0.9-0.8-2.1-1.2-3.3-1.1c-1.8,0-3.1,1.1-3.1,2.6l0,0
	c0,1.7,1.1,2.2,3,2.7c1.7,0.4,2,0.7,2,1.4l0,0c0,0.7-0.6,1.1-1.6,1.1c-1.1,0-2.1-0.4-2.9-1.2l-1,1.1
	C56.7,435.6,58.1,436.1,59.6,436.1L59.6,436.1z M68,436h1.6v-7.6h2.9v-1.5h-7.3v1.5H68V436z M79.2,436.1c2.4,0,3.9-1.4,3.9-4.1v-5.2
	h-1.6v5.2c0,1.7-0.9,2.5-2.3,2.5s-2.3-0.9-2.3-2.6v-5.2h-1.6v5.2C75.3,434.8,76.8,436.1,79.2,436.1L79.2,436.1z M86.6,436h1.6v-6.5
	l2.8,4.3h0.1l2.9-4.3v6.5h1.6v-9.1h-1.7l-2.8,4.3l-2.8-4.3h-1.7L86.6,436L86.6,436z M102.4,436.1c1.9,0,3.2-1,3.2-2.7l0,0
	c0-1.5-1-2.2-2.9-2.7c-1.8-0.4-2.2-0.7-2.2-1.4l0,0c0.1-0.7,0.7-1.2,1.4-1.1c0,0,0,0,0,0h0.1c0.9,0,1.8,0.4,2.5,0.9l0.9-1.2
	c-0.9-0.8-2.1-1.2-3.3-1.1c-1.8,0-3.1,1.1-3.1,2.6l0,0c0,1.7,1.1,2.2,3,2.7c1.7,0.4,2.1,0.7,2.1,1.4l0,0c0,0.7-0.6,1.1-1.6,1.1
	c-1.1,0-2.1-0.4-2.9-1.2l-1,1.1C99.6,435.6,100.9,436.1,102.4,436.1L102.4,436.1z M108.8,436h1.6v-2.9h1.8c2,0,3.6-1.1,3.6-3.1l0,0
	c0-1.8-1.3-3-3.5-3h-3.6V436z M110.4,431.6v-3.3h1.9c1.2,0,2,0.6,2,1.6l0,0c0,0.9-0.8,1.7-1.8,1.6c0,0,0,0,0,0L110.4,431.6
	L110.4,431.6z M118.8,436h1.6v-3.8h4.3v3.8h1.6v-9.1h-1.6v3.8h-4.3v-3.8h-1.6V436z M129.2,436h1.6l0.9-2.2h4.3l0.9,2.2h1.7l-4-9.2
	h-1.5L129.2,436z M132.4,432.4l1.6-3.6l1.6,3.6H132.4z M144.6,436.1c1.9,0,3.2-1,3.2-2.7l0,0c0-1.5-1-2.2-2.9-2.7
	c-1.8-0.4-2.2-0.7-2.2-1.4l0,0c0.1-0.7,0.7-1.2,1.4-1.1c0,0,0,0,0,0h0.1c0.9,0,1.8,0.4,2.5,0.9l0.9-1.2c-0.9-0.8-2.1-1.2-3.3-1.1
	c-1.8,0-3.1,1.1-3.1,2.6l0,0c0,1.7,1.1,2.2,3,2.7c1.7,0.4,2.1,0.7,2.1,1.4l0,0c0,0.7-0.6,1.1-1.6,1.1c-1.1,0-2.1-0.4-2.9-1.2l-1,1.1
	C141.8,435.6,143.1,436.1,144.6,436.1L144.6,436.1z M151,436h6.8v-1.4h-5.2v-2.5h4.6v-1.4h-4.6v-2.4h5.1v-1.4H151L151,436z"/>
<path id="Übergangsphase" class="st0" d="M211.9,1.5h1.6V0h-1.6V1.5z M209.2,1.5h1.6V0h-1.6V1.5z M211.4,11.5
	c2.4,0,3.9-1.4,3.9-4.1V2.2h-1.6v5.2c0,1.7-0.9,2.5-2.3,2.5s-2.3-0.9-2.3-2.6V2.2h-1.6v5.2C207.5,10.1,209,11.4,211.4,11.5
	L211.4,11.5z M218.8,11.3h4.2c2,0,3.4-0.9,3.4-2.5l0,0c0-1.1-0.8-2-1.8-2.2c0.8-0.3,1.3-1.1,1.3-2l0,0c0-0.6-0.2-1.2-0.6-1.6
	c-0.7-0.6-1.5-0.9-2.4-0.8h-4.1L218.8,11.3L218.8,11.3z M224.3,4.8c0,0.8-0.7,1.2-1.7,1.2h-2.2V3.6h2.3
	C223.7,3.6,224.3,4.1,224.3,4.8L224.3,4.8L224.3,4.8z M224.8,8.6L224.8,8.6c0,0.8-0.7,1.2-1.8,1.2h-2.6V7.4h2.5
	C224.2,7.4,224.8,7.8,224.8,8.6L224.8,8.6z M229.5,11.3h6.8V9.9h-5.2V7.4h4.6V6h-4.6V3.6h5.1V2.2h-6.8V11.3L229.5,11.3z M239.5,11.3
	h1.6V8.1h2l2.2,3.2h1.9l-2.5-3.4c1.3-0.3,2.2-1.4,2.2-2.8l0,0c0-0.7-0.2-1.5-0.8-2c-0.7-0.6-1.7-1-2.6-0.9h-4.1V11.3L239.5,11.3z
	 M241.1,6.7V3.6h2.3c1.2,0,1.9,0.5,1.9,1.5l0,0c0,0.9-0.8,1.6-1.7,1.5c0,0,0,0,0,0h-0.2L241.1,6.7z M254.5,11.5
	c1.4,0,2.7-0.5,3.8-1.4V6.2h-3.9v1.4h2.3v1.7c-0.6,0.5-1.4,0.7-2.2,0.7c-1.7,0.1-3-1.2-3.1-2.9c0,0,0-0.1,0-0.1c0-0.1,0-0.2,0-0.3
	l0,0c-0.1-1.7,1.2-3.1,2.9-3.2c0,0,0,0,0,0l0,0c0.9,0,1.9,0.3,2.6,1l1-1.2C257,2.4,255.7,2,254.5,2c-2.6,0-4.7,2-4.7,4.6
	c0,0,0,0,0,0v0.2c-0.1,2.5,1.8,4.6,4.3,4.7c0,0,0,0,0,0C254.2,11.4,254.4,11.4,254.5,11.5L254.5,11.5z M260.9,11.3h1.6l0.9-2.2h4.3
	l0.9,2.2h1.7l-4-9.2h-1.5L260.9,11.3z M264,7.7l1.6-3.7l1.6,3.6L264,7.7L264,7.7z M273.2,11.3h1.6V4.8l5,6.5h1.3V2.2h-1.6v6.3
	l-4.8-6.3h-1.5L273.2,11.3L273.2,11.3z M289.1,11.4c1.4,0,2.7-0.5,3.8-1.4V6.2H289v1.4h2.3v1.7c-0.6,0.5-1.4,0.7-2.2,0.7
	c-1.7,0.1-3-1.2-3.1-2.9c0,0,0-0.1,0-0.1c0-0.1,0-0.2,0-0.3l0,0C286,5,287.3,3.6,289,3.5c0,0,0,0,0,0l0,0c0.9,0,1.9,0.3,2.5,1l1-1.2
	c-0.9-0.9-2.2-1.3-3.5-1.3c-2.6,0-4.7,2-4.7,4.6c0,0,0,0,0,0v0.2c-0.1,2.5,1.8,4.6,4.3,4.7c0,0,0,0,0,0
	C288.9,11.4,289,11.4,289.1,11.4L289.1,11.4z M299.4,11.4c1.9,0,3.2-1,3.2-2.7l0,0c0-1.5-1-2.2-2.9-2.7c-1.8-0.4-2.2-0.7-2.2-1.4
	l0,0c0.1-0.7,0.7-1.2,1.4-1.1c0,0,0,0,0,0h0.1c0.9,0,1.8,0.4,2.5,0.9l0.9-1.2c-0.9-0.8-2.1-1.2-3.3-1.2c-1.8,0-3.1,1.1-3.1,2.6l0,0
	c0,1.7,1.1,2.2,3,2.7c1.7,0.4,2.1,0.7,2.1,1.4l0,0c0,0.7-0.6,1.1-1.6,1.1c-1.1,0-2.1-0.4-2.9-1.2l-1,1.1
	C296.6,10.9,298,11.4,299.4,11.4L299.4,11.4z M305.9,11.3h1.6V8.4h1.8c2,0,3.6-1.1,3.6-3.1l0,0c0-1.8-1.3-3-3.5-3h-3.6V11.3
	L305.9,11.3z M307.5,6.9V3.6h1.9c1.2,0,2,0.6,2,1.6l0,0c0,0.9-0.8,1.7-1.8,1.6c0,0,0,0,0,0L307.5,6.9L307.5,6.9z M315.9,11.3h1.6
	V7.5h4.3v3.8h1.6V2.2h-1.6V6h-4.3V2.2h-1.6L315.9,11.3L315.9,11.3z M326.3,11.3h1.6l0.9-2.2h4.3l0.9,2.2h1.7l-4-9.2h-1.5L326.3,11.3
	z M329.4,7.7L331,4l1.6,3.6L329.4,7.7z M341.6,11.4c1.9,0,3.2-1,3.2-2.7l0,0c0-1.5-1-2.2-2.9-2.7c-1.8-0.4-2.2-0.7-2.2-1.4l0,0
	c0.1-0.7,0.7-1.2,1.4-1.1c0,0,0,0,0,0h0.1c0.9,0,1.8,0.4,2.5,0.9l0.9-1.2c-0.9-0.8-2.1-1.2-3.3-1.2c-1.8,0-3.1,1.1-3.1,2.6l0,0
	c0,1.7,1.1,2.2,3,2.7c1.7,0.4,2,0.7,2,1.4l0,0c0,0.7-0.6,1.1-1.6,1.1c-1.1,0-2.1-0.4-2.9-1.2l-1,1.1
	C338.8,10.9,340.2,11.5,341.6,11.4L341.6,11.4z M348.1,11.3h6.8V9.9h-5.2V7.4h4.6V6h-4.6V3.6h5.1V2.2h-6.8L348.1,11.3L348.1,11.3z"
	/>
<path id="Wachstumsphase" class="st0" d="M3.4,11.4h1.4L7,4.9l2.2,6.5h1.4l3.2-9.2h-1.7L10,9L7.7,2.2H6.4L4.2,9L2,2.2H0.2L3.4,11.4z
	 M14.8,11.3h1.6l0.9-2.2h4.3l0.9,2.2h1.7l-4-9.2h-1.5L14.8,11.3z M18,7.7l1.6-3.6l1.6,3.6H18z M30.8,11.5c1.4,0,2.8-0.5,3.7-1.6
	l-1-1c-0.7,0.7-1.6,1.2-2.6,1.2c-1.7,0-3-1.4-3-3.1c0,0,0,0,0,0c0,0,0-0.1,0-0.1l0,0c-0.1-1.7,1.2-3.1,2.9-3.2c0,0,0,0,0,0h0.1
	c1,0,1.9,0.4,2.5,1.1l1-1.2c-0.9-1-2.2-1.5-3.6-1.4c-2.5-0.1-4.6,2-4.7,4.5c0,0,0,0,0,0v0.2c-0.1,2.5,1.9,4.6,4.5,4.7c0,0,0,0,0,0
	L30.8,11.5z M37.5,11.4h1.6V7.5h4.3v3.8H45V2.2h-1.6V6h-4.3V2.2h-1.6L37.5,11.4L37.5,11.4z M51.8,11.5c1.9,0,3.2-1,3.2-2.7l0,0
	c0-1.5-1-2.2-2.9-2.7C50.4,5.7,50,5.4,50,4.7l0,0c0.1-0.7,0.7-1.2,1.4-1.1c0,0,0,0,0,0h0.1c0.9,0,1.8,0.4,2.5,0.9l0.8-1.2
	c-0.9-0.8-2.1-1.2-3.3-1.1c-1.8,0-3.1,1.1-3.1,2.6l0,0c0,1.7,1.1,2.2,3,2.7c1.7,0.4,2,0.7,2,1.4l0,0c0,0.7-0.6,1.1-1.6,1.1
	c-1.1,0-2.1-0.4-2.9-1.2l-1,1.1c1,0.9,2.4,1.5,3.8,1.5H51.8z M60.3,11.4h1.6V3.7h2.9V2.2h-7.4v1.5h2.9V11.4L60.3,11.4z M71.5,11.5
	c2.4,0,3.9-1.4,3.9-4.1V2.2h-1.6v5.2c0,1.7-0.9,2.5-2.3,2.5s-2.3-0.9-2.3-2.6V2.2h-1.6v5.2C67.7,10.1,69.2,11.5,71.5,11.5L71.5,11.5
	z M78.9,11.4h1.6V4.8l2.8,4.3l0,0l2.9-4.3v6.5h1.6V2.2h-1.6l-2.8,4.3l-2.8-4.3H79L78.9,11.4L78.9,11.4z M94.7,11.5
	c1.9,0,3.2-1,3.2-2.7l0,0c0-1.5-1-2.2-2.9-2.7c-1.8-0.4-2.2-0.7-2.2-1.4l0,0c0-0.7,0.6-1.2,1.3-1.2c0,0,0,0,0,0h0.1
	c0.9,0,1.8,0.4,2.5,0.9l0.9-1.2c-0.9-0.8-2.1-1.2-3.3-1.1c-1.8,0-3.1,1.1-3.1,2.6l0,0c0,1.7,1.1,2.2,3,2.7c1.7,0.4,2.1,0.7,2.1,1.4
	l0,0c0,0.7-0.6,1.1-1.6,1.1c-1.1,0-2.1-0.4-2.9-1.2l-1,1.1c1,0.9,2.4,1.5,3.8,1.5L94.7,11.5z M101.2,11.4h1.6v-3h1.8
	c2,0,3.6-1.1,3.6-3.1l0,0c0-1.8-1.3-3-3.4-3h-3.6L101.2,11.4L101.2,11.4z M102.8,7V3.7h1.9c1.2,0,2,0.6,2,1.6l0,0
	c0,0.9-0.8,1.7-1.8,1.6h-0.2L102.8,7z M111.1,11.4h1.6V7.5h4.3v3.8h1.6V2.2h-1.6V6h-4.3V2.2h-1.6L111.1,11.4L111.1,11.4z
	 M121.5,11.4h1.6l0.9-2.2h4.3l0.9,2.2h1.7l-4-9.2h-1.5L121.5,11.4z M124.7,7.7l1.6-3.7l1.6,3.7H124.7z M136.9,11.5
	c1.9,0,3.2-1,3.2-2.7l0,0c0-1.5-1-2.2-2.9-2.7c-1.8-0.4-2.2-0.7-2.2-1.4l0,0c0.1-0.7,0.7-1.2,1.4-1.1c0,0,0,0,0,0h0.1
	c0.9,0,1.8,0.4,2.5,0.9l0.9-1.2c-0.9-0.8-2.1-1.2-3.3-1.1c-1.8,0-3.1,1.1-3.1,2.6l0,0c0,1.7,1.1,2.2,3,2.7c1.7,0.4,2,0.7,2,1.4l0,0
	c0,0.7-0.6,1.1-1.6,1.1c-1.1,0-2.1-0.4-2.9-1.2l-1,1.1c1,0.9,2.4,1.5,3.8,1.5H136.9z M143.3,11.4h6.8V9.9h-5.2V7.5h4.6V6h-4.6V3.7
	h5.1V2.2h-6.7L143.3,11.4L143.3,11.4z"/>
<rect id="Rechteck_11" x="190.3" y="332.6" class="st1" width="3" height="31"/>
<circle class="st2" cx="196" cy="218.2" r="159.9"/>
<path class="st1" d="M45.2,166.2c-0.4-0.1-0.8-0.1-1.1,0.1c-0.4,0.2-0.7,0.6-0.8,1.1c-0.2,0.4-0.2,0.9,0,1.3
	c0.2,0.4,0.5,0.6,0.8,0.8c0.4,0.1,0.8,0.1,1.2-0.1c0.4-0.2,0.7-0.6,0.8-1.1c0.1-0.4,0.1-0.9,0-1.3C45.9,166.6,45.5,166.3,45.2,166.2
	z"/>
<path class="st1" d="M306.2,332.8L306.2,332.8c-0.4-0.4-0.9-0.7-1.4-0.7c-0.3,0-0.5,0-0.8,0.1c-0.3,0.1-0.5,0.2-0.7,0.4
	c-0.2,0.2-0.4,0.4-0.5,0.7c-0.1,0.2-0.1,0.5-0.1,0.7c0,0.3,0.1,0.5,0.2,0.7c0.1,0.2,0.3,0.5,0.5,0.7l0,0c0.2,0.2,0.4,0.4,0.6,0.5
	c0.2,0.1,0.5,0.2,0.8,0.2c0.3,0,0.5,0,0.8-0.1c0.3-0.1,0.5-0.2,0.7-0.4c0.2-0.2,0.4-0.4,0.5-0.7c0.1-0.2,0.1-0.5,0.1-0.8
	c0-0.3-0.1-0.5-0.2-0.7C306.5,333.2,306.4,333,306.2,332.8z"/>
<path class="st1" d="M53.6,147.4l-0.3-0.2c-0.2,0.1-0.3,0.3-0.5,0.5c-0.2,0.2-0.3,0.4-0.4,0.6c-0.2,0.3-0.3,0.7-0.2,1.1
	c0,0.3,0.2,0.6,0.5,0.7l0,0c0.2,0.1,0.5,0.1,0.8,0c0.3-0.2,0.5-0.4,0.6-0.7c0.2-0.4,0.3-0.8,0.2-1.3C54.2,147.8,54,147.5,53.6,147.4
	z"/>
<path class="st1" d="M278.1,355.1c0.3,0.3,0.6,0.6,1,0.7c0.4,0.1,0.8,0,1.2-0.2c0.4-0.2,0.6-0.5,0.7-1c0.1-0.4,0-0.9-0.1-1.3
	L278.1,355.1z"/>
<path class="st1" d="M291.6,344.3c0.1-0.3,0.1-0.6-0.1-0.9l0,0c-0.2-0.2-0.4-0.3-0.7-0.4c-0.3,0-0.6,0.1-0.8,0.3
	c-0.4,0.2-0.6,0.6-0.8,1c-0.1,0.3,0,0.7,0.2,1l0.2,0.3c0.2,0,0.4-0.1,0.6-0.2c0.2-0.1,0.4-0.2,0.6-0.4
	C291.3,344.9,291.5,344.6,291.6,344.3z"/>
<path class="st1" d="M322.8,120.8c-0.3,0.1-0.5,0.2-0.7,0.4l0,0c-0.2,0.2-0.4,0.4-0.6,0.6c-0.1,0.2-0.2,0.5-0.3,0.7
	c-0.1,0.3-0.1,0.5,0,0.8c0.1,0.3,0.2,0.5,0.4,0.8c0.2,0.2,0.4,0.4,0.6,0.6c0.2,0.1,0.5,0.2,0.7,0.2c0.3,0,0.5,0,0.8-0.1
	c0.3-0.1,0.5-0.2,0.7-0.4l0,0c0.2-0.2,0.4-0.4,0.5-0.6c0.1-0.2,0.2-0.5,0.3-0.7c0.1-0.3,0.1-0.5,0-0.8c-0.1-0.3-0.2-0.5-0.3-0.7
	c-0.2-0.2-0.4-0.4-0.6-0.6c-0.2-0.1-0.5-0.2-0.7-0.2C323.3,120.7,323.1,120.7,322.8,120.8z"/>
<polygon class="st1" points="321.9,315.3 324.4,317.2 323.5,313.2 "/>
<path class="st1" d="M336.9,143.1l1.5,2.9c0.4-0.2,0.7-0.6,0.8-1c0.1-0.4,0.1-0.8-0.1-1.2c-0.2-0.4-0.5-0.7-0.9-0.8
	C337.7,143,337.3,143,336.9,143.1z"/>
<path class="st1" d="M64.3,126.2c-0.4-0.2-0.8-0.3-1.2-0.2c-0.4,0.1-0.8,0.3-1,0.6c-0.2,0.3-0.3,0.7-0.3,1.2
	c0.1,0.4,0.3,0.8,0.7,1.1L64.3,126.2z"/>
<path class="st1" d="M128.8,228.8v-8.3h-8.4v8.3h-4.6V208h4.6v8.2h8.4V208h4.6v20.8L128.8,228.8z"/>
<path class="st1" d="M147.2,228.8v-1.7c-0.6,0.6-1.2,1.1-2,1.5c-0.9,0.4-1.9,0.6-2.8,0.6c-0.7,0-1.4-0.1-2.1-0.3
	c-0.6-0.2-1.2-0.5-1.7-0.9c-0.5-0.4-0.9-0.9-1.2-1.5c-0.3-0.7-0.5-1.4-0.4-2.1v-0.1c0-0.8,0.1-1.6,0.5-2.3c0.3-0.6,0.8-1.2,1.3-1.6
	c0.6-0.4,1.3-0.8,2-0.9c0.8-0.2,1.7-0.3,2.6-0.3c0.7,0,1.4,0.1,2.1,0.2c0.6,0.1,1.2,0.3,1.8,0.5v-0.3c0.1-0.8-0.3-1.6-0.9-2.2
	c-0.7-0.6-1.6-0.8-2.6-0.8c-0.8,0-1.6,0.1-2.3,0.2c-0.7,0.2-1.4,0.4-2.1,0.6l-1.1-3.4c0.9-0.4,1.8-0.7,2.7-0.9
	c1.1-0.3,2.3-0.4,3.4-0.4c2.5,0,4.3,0.6,5.4,1.8c1.2,1.4,1.8,3.2,1.7,5v9.2L147.2,228.8z M147.3,222.4c-0.4-0.2-0.9-0.3-1.3-0.4
	c-0.5-0.1-1-0.2-1.6-0.2c-0.8,0-1.6,0.2-2.3,0.6c-0.5,0.4-0.9,1-0.8,1.6v0.1c0,0.6,0.2,1.1,0.7,1.4c0.5,0.3,1.1,0.5,1.8,0.5
	c0.9,0,1.8-0.2,2.6-0.8c0.6-0.5,1-1.2,1-2L147.3,222.4z"/>
<path class="st1" d="M164.8,228.8v-1.7c-0.6,0.6-1.2,1.1-2,1.5c-0.9,0.4-1.9,0.6-2.8,0.6c-0.7,0-1.4-0.1-2.1-0.3
	c-0.6-0.2-1.2-0.5-1.7-0.9c-0.5-0.4-0.9-0.9-1.2-1.5c-0.3-0.7-0.4-1.4-0.4-2.1v-0.1c0-0.8,0.1-1.6,0.5-2.3c0.3-0.6,0.8-1.2,1.3-1.6
	c0.6-0.4,1.3-0.8,2-0.9c0.8-0.2,1.7-0.3,2.6-0.3c0.7,0,1.4,0.1,2.1,0.2c0.6,0.1,1.2,0.3,1.8,0.5v-0.3c0.1-0.8-0.3-1.6-0.9-2.2
	c-0.7-0.5-1.6-0.8-2.6-0.8c-0.8,0-1.5,0.1-2.3,0.2c-0.7,0.2-1.4,0.4-2.1,0.6l-1.1-3.4c0.9-0.4,1.8-0.7,2.7-0.9
	c1.1-0.3,2.3-0.4,3.4-0.4c2.5,0,4.3,0.6,5.4,1.8c1.2,1.4,1.8,3.2,1.7,5v9.2L164.8,228.8z M164.8,222.4c-0.9-0.4-1.9-0.6-2.9-0.6
	c-0.8,0-1.6,0.2-2.3,0.6c-0.5,0.4-0.9,1-0.8,1.6v0.1c0,0.6,0.2,1.1,0.7,1.4c0.5,0.4,1.2,0.5,1.8,0.5c0.9,0,1.8-0.2,2.6-0.8
	c0.6-0.5,1-1.2,1-2L164.8,222.4z"/>
<path class="st1" d="M182.4,217.3c-1.3-0.1-2.6,0.4-3.6,1.4c-1,1.2-1.4,2.7-1.3,4.2v5.9H173v-15.9h4.5v3.2c0.4-1,1-1.9,1.9-2.6
	c0.9-0.7,2.1-1,3.2-0.9v4.7H182.4z"/>
<path class="st1" d="M184.9,228.8v-3.2l8.2-9.1h-8v-3.6h13.6v3.2l-8.3,9.1h8.3v3.6H184.9z"/>
<path class="st1" d="M211.2,229.2c-0.3,0.7-0.6,1.4-0.9,2.1c-0.3,0.5-0.7,1-1.1,1.4c-0.4,0.3-0.9,0.6-1.4,0.8
	c-0.6,0.2-1.2,0.2-1.8,0.2c-0.7,0-1.5-0.1-2.2-0.3c-0.6-0.2-1.2-0.5-1.8-0.8l1.5-3.3c0.3,0.2,0.7,0.3,1,0.4c0.3,0.1,0.7,0.2,1,0.2
	c0.3,0,0.7-0.1,0.9-0.2c0.3-0.2,0.5-0.5,0.6-0.8l-6.2-16h4.8l3.6,10.8l3.5-10.8h4.7L211.2,229.2z"/>
<path class="st1" d="M230.2,228.8l-4.2-6.5l-1.6,1.7v4.8H220v-21.7h4.5v11.6l5.3-5.8h5.4l-6.1,6.3l6.3,9.6L230.2,228.8z"/>
<path class="st1" d="M237.8,228.8v-21.7h4.5v21.7H237.8z"/>
<path class="st1" d="M256.5,228.8v-2.3c-0.3,0.4-0.5,0.7-0.9,1c-0.3,0.3-0.6,0.6-1,0.8c-0.4,0.2-0.8,0.4-1.2,0.6
	c-0.5,0.1-1,0.2-1.5,0.2c-1.5,0.1-3-0.5-4-1.6c-1-1.2-1.5-2.8-1.4-4.3v-10.3h4.6v8.9c-0.1,0.9,0.2,1.7,0.7,2.4
	c0.5,0.6,1.2,0.9,2,0.8c0.8,0,1.5-0.3,2.1-0.8c0.6-0.7,0.8-1.5,0.8-2.4v-8.9h4.5v15.9H256.5z"/>
<path class="st1" d="M276.3,226.3c-0.3,0.6-0.7,1.2-1.3,1.6c-0.6,0.4-1.3,0.8-2,0.9c-0.8,0.2-1.6,0.3-2.4,0.3
	c-1.2,0-2.3-0.2-3.5-0.6c-1.2-0.4-2.4-1-3.4-1.8l1.9-3c0.8,0.6,1.7,1.1,2.6,1.4c0.8,0.3,1.6,0.5,2.4,0.5c0.5,0,1-0.1,1.4-0.3
	c0.3-0.2,0.5-0.5,0.5-0.9v-0.1c0-0.2-0.1-0.5-0.3-0.6c-0.2-0.2-0.5-0.3-0.7-0.5c-0.3-0.1-0.7-0.3-1.1-0.4l-1.2-0.4
	c-0.6-0.2-1.1-0.4-1.7-0.6c-0.6-0.2-1.1-0.5-1.5-0.9c-0.5-0.4-0.8-0.8-1.1-1.4c-0.3-0.6-0.5-1.3-0.4-2v-0.1c0-0.7,0.1-1.5,0.5-2.1
	c0.3-0.6,0.7-1.2,1.2-1.6c0.5-0.5,1.2-0.8,1.8-1c0.7-0.2,1.5-0.3,2.3-0.3c1,0,2.1,0.2,3.1,0.5c1,0.3,2,0.8,2.9,1.4l-1.7,3.1
	c-0.7-0.4-1.5-0.8-2.3-1.1c-0.6-0.2-1.3-0.4-2-0.4c-0.4,0-0.9,0.1-1.2,0.3c-0.3,0.2-0.4,0.5-0.4,0.8v0.1c0,0.2,0.1,0.4,0.3,0.6
	c0.2,0.2,0.5,0.3,0.7,0.5c0.3,0.2,0.7,0.3,1,0.4c0.4,0.1,0.8,0.3,1.2,0.4c0.5,0.2,1.1,0.4,1.7,0.6c0.6,0.2,1.1,0.5,1.5,0.9
	c0.5,0.4,0.8,0.8,1.1,1.3c0.3,0.6,0.5,1.2,0.4,1.9v0.2C276.7,224.8,276.6,225.6,276.3,226.3z"/>
<path class="st1" d="M364.1,152.4l-10.9,26.9l-5.5-2.2l0,0l-21.5-8.8c6.1,15.9,9.3,32.8,9.2,49.9c0,76.8-62.5,139.3-139.3,139.3
	c-11,0-22-1.3-32.7-3.9l-22.9,14l16.4,26.7c12.9,2.9,26.1,4.3,39.3,4.4c99.5,0,180.5-81,180.5-180.5
	C376.5,195.7,372.3,173.4,364.1,152.4z M282.9,354.7c-0.2,1-0.8,1.9-1.7,2.4c-0.5,0.3-1,0.5-1.6,0.6c-0.5,0.1-1,0-1.5-0.2
	c-0.5-0.2-0.9-0.4-1.3-0.8c-0.4-0.4-0.7-0.8-1-1.2l0,0l-0.1-0.2c0-0.1-0.1-0.1-0.1-0.2l4.5-2.8c-0.3-0.3-0.7-0.5-1.1-0.6
	c-0.4,0-0.9,0.1-1.2,0.3c-0.3,0.2-0.5,0.4-0.7,0.7c-0.2,0.3-0.3,0.6-0.4,1l-1.6-0.3c0.1-0.6,0.3-1.1,0.6-1.6
	c0.3-0.5,0.8-0.9,1.3-1.3c0.5-0.3,1-0.5,1.5-0.6c0.5-0.1,1-0.1,1.5,0c0.5,0.1,0.9,0.3,1.4,0.6c0.4,0.3,0.8,0.7,1.1,1.2l0,0
	c0.3,0.4,0.5,0.9,0.6,1.4C283,353.7,283,354.2,282.9,354.7z M288.1,354.8l-1.1-1.6l-1.5,1l-1-1.5l1.5-1l-1.9-2.7
	c-0.1-0.3-0.5-0.5-0.8-0.3c-0.1,0-0.1,0.1-0.2,0.1c-0.3,0.2-0.6,0.5-0.7,0.8l-1-1.4c0.1-0.2,0.3-0.5,0.4-0.7c0.4-0.5,0.9-0.8,1.5-1
	c0.2-0.1,0.5-0.1,0.8-0.1c0.3,0,0.5,0.2,0.8,0.3c0.3,0.2,0.6,0.5,0.8,0.8l2,3l0.8-0.5l1,1.5l-0.7,0.5l1.1,1.6L288.1,354.8z
	 M294.7,347.5c-0.4,0.4-0.8,0.8-1.2,1.1c-1.1,1.2-3,1.2-4.1,0.1c-0.2-0.2-0.4-0.4-0.5-0.7l-2.6-3.5l1.7-1.2l0.5,0.6
	c0-0.4,0.1-0.8,0.3-1.1c0.2-0.4,0.5-0.7,0.9-1c0.3-0.2,0.6-0.4,0.9-0.5c0.3-0.1,0.6-0.2,0.9-0.1c0.3,0,0.6,0.1,0.9,0.2
	c0.3,0.2,0.6,0.4,0.8,0.7l0,0c0.2,0.3,0.4,0.6,0.5,1c0.1,0.3,0,0.7-0.1,1c-0.1,0.3-0.3,0.7-0.5,0.9c-0.3,0.3-0.6,0.6-0.9,0.9
	c-0.3,0.2-0.6,0.4-0.9,0.5c-0.3,0.1-0.5,0.2-0.8,0.3l0.1,0.1c0.2,0.3,0.6,0.6,1,0.6c0.4,0,0.9-0.2,1.2-0.4c0.3-0.2,0.6-0.5,0.8-0.8
	c0.2-0.3,0.4-0.5,0.6-0.8l1.4,1C295.3,346.8,295,347.2,294.7,347.5L294.7,347.5z M301.3,342.3l-0.7-0.8c0,0.2,0,0.4,0,0.6
	c0,0.2-0.1,0.4-0.1,0.6c-0.1,0.2-0.2,0.4-0.3,0.6c-0.1,0.2-0.3,0.4-0.5,0.5c-0.5,0.5-1.2,0.7-1.9,0.6c-0.7-0.1-1.4-0.6-1.8-1.1
	l-3.1-3.8l1.6-1.4l2.7,3.2c0.2,0.3,0.6,0.6,1,0.7c0.4,0,0.7-0.1,1-0.3c0.3-0.2,0.5-0.6,0.5-0.9c0-0.4-0.2-0.8-0.5-1.1l-2.7-3.2
	l1.6-1.4l4.9,5.8L301.3,342.3z M308.4,335.6c-0.5,1-1.3,1.8-2.4,2.2c-0.5,0.2-1,0.3-1.5,0.3c-0.5,0-1-0.1-1.5-0.3
	c-0.5-0.2-0.9-0.5-1.3-0.9l0,0c-0.4-0.4-0.6-0.8-0.8-1.3c-0.2-0.5-0.3-1-0.2-1.5c0-0.5,0.1-1,0.4-1.5c0.2-0.5,0.6-1,1-1.3
	c0.4-0.4,0.9-0.7,1.4-0.9c0.5-0.2,1-0.3,1.5-0.3c1,0,2,0.5,2.8,1.2l0,0c0.4,0.4,0.6,0.8,0.8,1.3c0.2,0.5,0.3,1,0.2,1.5
	C308.8,334.7,308.6,335.2,308.4,335.6L308.4,335.6z M318.7,328.6l-4.8-0.9l1.3,4.7l-1.6,1.7l-7.3-6.7l1.5-1.6l4.7,4.4l-1.2-4.9l0,0
	l4.9,0.8l-4.7-4.4l1.5-1.6l7.3,6.7L318.7,328.6z M325.5,320.6l-4.8-3.6l-0.8,1l-1.4-1.1l0.8-1.1l-1.7-1.3l1.3-1.6l1.7,1.3l2.9-3.9
	l1.4,0.6l1.7,8.1L325.5,320.6z M329.4,307.5l-1.7-1.1l3.2-5.1l1.7,1.1L329.4,307.5z M341.9,295.2c-0.1,0.4-0.2,0.8-0.4,1.1
	c-0.2,0.4-0.5,0.8-0.9,1.2c-0.3,0.3-0.7,0.5-1,0.7c-0.4,0.1-0.8,0.2-1.2,0.1c-0.4,0-0.8-0.2-1.2-0.4c-0.3-0.2-0.6-0.4-0.9-0.7
	c-0.2-0.3-0.4-0.5-0.6-0.9c-0.2-0.4-0.3-0.7-0.4-1.1c-0.1-0.4-0.2-0.9-0.3-1.5l-0.4-2l-2,3.8l-1.7-0.9l3.4-6.5l1.5,0.8l0.9,4.2
	c0.1,0.4,0.2,0.7,0.2,1c0.1,0.3,0.2,0.5,0.3,0.7c0.1,0.2,0.2,0.4,0.3,0.5c0.1,0.1,0.3,0.3,0.5,0.3c0.3,0.2,0.7,0.2,1,0.1
	c0.3-0.1,0.6-0.4,0.7-0.7c0.2-0.3,0.2-0.7,0.2-1.1c-0.1-0.5-0.2-0.9-0.4-1.4l1.8-0.8c0.2,0.3,0.3,0.7,0.4,1.1c0.1,0.3,0.2,0.7,0.2,1
	C342,294.5,342,294.8,341.9,295.2L341.9,295.2z"/>
<path class="st1" d="M137.2,362.6L137.2,362.6l18.1-11.1c-57.1-17.4-98.7-70.6-98.7-133.3c0-76.8,62.5-139.3,139.3-139.3
	c21,0,41.6,4.7,60.5,13.8l31.4-4.6l-4-27.5c-26.9-15-57.1-22.9-87.9-22.9c-99.5,0-180.5,81-180.5,180.5c0,83.1,56.4,153.2,133,174.1
	l-16.3-26.6L137.2,362.6z M60,127c0.1-0.5,0.3-1,0.6-1.4c0.3-0.5,0.7-0.9,1.2-1.2c0.4-0.2,0.9-0.4,1.4-0.4c0.5,0,1,0,1.5,0.2
	c0.5,0.2,1,0.4,1.4,0.7l0,0l0.2,0.2l0.2,0.2l-3,4.4c0.4,0.2,0.9,0.2,1.3,0.1c0.4-0.1,0.8-0.4,1-0.8c0.2-0.3,0.3-0.6,0.4-0.9
	c0.1-0.3,0.1-0.7,0-1l1.6-0.4c0.2,0.5,0.2,1.1,0.1,1.7c-0.1,0.6-0.3,1.2-0.7,1.7c-0.3,0.4-0.6,0.8-1.1,1.1c-0.4,0.3-0.9,0.5-1.4,0.6
	c-0.5,0.1-1,0.1-1.5,0c-0.5-0.1-1-0.3-1.5-0.6l0,0c-0.4-0.3-0.8-0.7-1.1-1.1c-0.3-0.4-0.5-0.9-0.6-1.3C59.9,128,59.9,127.5,60,127z
	 M56.7,131.8l1.3,0.8c-0.3-0.4-0.5-0.9-0.6-1.4c-0.1-0.5,0.1-1.1,0.4-1.5l1.9,1.2l-0.1,0.1c-0.4,0.5-0.5,1.2-0.3,1.8
	c0.3,0.7,0.7,1.2,1.4,1.6l2.4,1.5l-1.1,1.9l-6.4-4L56.7,131.8z M49.8,138.2l3.3,1.9c-0.1-0.2-0.1-0.4-0.2-0.6
	c-0.1-0.2-0.1-0.4-0.1-0.6c0-0.5,0.1-0.9,0.3-1.3c0.3-0.6,0.9-1.1,1.6-1.3c0.7-0.1,1.5,0,2.1,0.4l4.3,2.4l-1.1,1.9l-3.6-2.1
	c-0.3-0.2-0.8-0.3-1.2-0.3c-0.4,0.1-0.6,0.3-0.8,0.6c-0.2,0.3-0.2,0.7-0.2,1c0.2,0.4,0.4,0.7,0.8,0.9l3.7,2.1l-1.1,1.9l-9-5.1
	L49.8,138.2z M41.1,196.3l-1.7-0.3l-2.1-3.7c-0.2-0.3-0.4-0.6-0.5-0.9c-0.1-0.2-0.3-0.4-0.5-0.6c-0.1-0.2-0.3-0.3-0.5-0.4
	c-0.2-0.1-0.4-0.2-0.5-0.2c-0.3-0.1-0.7,0-1,0.2c-0.3,0.2-0.4,0.6-0.5,0.9c-0.1,0.4,0,0.7,0.2,1.1c0.2,0.4,0.5,0.8,0.8,1.1l-1.5,1.4
	c-0.3-0.3-0.5-0.6-0.8-0.9c-0.2-0.3-0.4-0.6-0.5-0.9c-0.1-0.3-0.2-0.7-0.2-1c0-0.4,0-0.8,0.1-1.2c0.1-0.5,0.2-0.9,0.5-1.4
	c0.2-0.4,0.5-0.7,0.8-0.9c0.3-0.2,0.7-0.4,1.1-0.5c0.4-0.1,0.9-0.1,1.3,0c0.7,0.1,1.4,0.5,1.9,1c0.3,0.2,0.5,0.5,0.7,0.8
	c0.2,0.4,0.5,0.8,0.7,1.3l1,1.8l0.7-4.2l1.9,0.3L41.1,196.3z M38.2,182.4l1.5-5.9l1.9,0.5l-1.4,6L38.2,182.4z M47.8,168.8
	c-0.2,0.6-0.4,1.1-0.8,1.5c-0.3,0.4-0.7,0.7-1.1,0.9c-0.5,0.2-1,0.4-1.6,0.4c-0.8,0-1.6-0.2-2.3-0.4c-0.7-0.2-1.3-0.5-1.9-0.9
	c-0.5-0.3-1-0.8-1.4-1.3c-0.3-0.5-0.6-1-0.7-1.6c-0.1-0.7,0-1.4,0.2-2c0.1-0.3,0.2-0.6,0.4-0.9c0.1-0.2,0.3-0.5,0.4-0.7
	c0.2-0.2,0.4-0.4,0.5-0.6c0.2-0.2,0.4-0.3,0.7-0.5l1.2,1.6c-0.2,0.1-0.3,0.2-0.5,0.3c-0.1,0.1-0.3,0.2-0.4,0.4
	c-0.1,0.1-0.2,0.3-0.3,0.4c-0.1,0.2-0.2,0.3-0.2,0.5c-0.1,0.3-0.1,0.6-0.1,0.8c0,0.3,0.1,0.5,0.3,0.7c0.2,0.2,0.3,0.4,0.6,0.6
	c0.3,0.2,0.5,0.3,0.8,0.5c-0.1-0.3-0.1-0.6-0.1-0.9c0-0.4,0-0.8,0.2-1.2c0.1-0.4,0.4-0.9,0.6-1.2c0.2-0.3,0.6-0.6,0.9-0.9
	c0.4-0.2,0.7-0.3,1.2-0.4c1-0.1,1.9,0.3,2.6,0.9c0.3,0.3,0.6,0.7,0.8,1.1c0.2,0.4,0.3,0.9,0.3,1.4C48,167.8,48,168.3,47.8,168.8
	L47.8,168.8z M52,157.6c-0.2,0.6-0.6,1.2-1.2,1.6c-0.4,0.4-0.9,0.6-1.5,0.8l-0.9-1.9c0.4-0.1,0.7-0.3,1-0.5c0.3-0.2,0.5-0.5,0.6-0.8
	c0.2-0.3,0.2-0.7,0-1.1c-0.2-0.4-0.6-0.7-1-0.8l-5.8-2.5l0.9-2.1l6,2.5c0.5,0.2,0.9,0.5,1.3,0.9c0.3,0.3,0.6,0.7,0.7,1.1
	c0.2,0.4,0.2,0.8,0.2,1.3C52.4,156.7,52.2,157.1,52,157.6z M55.5,149.4c0,0.5-0.1,0.9-0.4,1.3c-0.1,0.3-0.3,0.6-0.6,0.8
	c-0.2,0.2-0.5,0.4-0.8,0.5c-0.3,0.1-0.6,0.2-0.9,0.2c-0.3,0-0.7-0.1-1-0.3l0,0c-0.3-0.2-0.6-0.4-0.9-0.7c-0.2-0.3-0.3-0.6-0.4-0.9
	c-0.1-0.4-0.1-0.7,0-1.1c0.1-0.4,0.2-0.8,0.4-1.2c0.1-0.3,0.3-0.6,0.5-0.9c0.2-0.2,0.4-0.4,0.6-0.6l-0.1-0.1
	c-0.3-0.2-0.7-0.2-1.1-0.1c-0.4,0.2-0.7,0.5-0.8,0.9c-0.2,0.3-0.3,0.7-0.4,1c-0.1,0.3-0.1,0.7-0.2,1l-1.7-0.2c0-0.4,0.1-0.9,0.2-1.3
	c0.1-0.5,0.3-1.1,0.6-1.6c0.4-1.6,2.1-2.5,3.6-2c0.3,0.1,0.6,0.2,0.8,0.4l3.9,1.9l-0.9,1.9l-0.7-0.4C55.4,148.6,55.5,149,55.5,149.4
	L55.5,149.4z"/>
<path class="st1" d="M288.8,94L288.8,94l-23.4,3.4c25.2,14.6,45.3,36.6,57.4,63.1l27,11l10.9-26.9c-14.9-33.2-39.4-61.1-70.3-80.2
	l4.2,28.7L288.8,94z M343.8,150l-1,0.4c0.2,0,0.4,0.1,0.6,0.2c0.2,0.1,0.4,0.2,0.6,0.3c1,0.7,1.4,2,1,3.1c-0.3,0.7-0.9,1.2-1.6,1.4
	l-4.5,2l-0.9-2l3.8-1.7c0.4-0.1,0.7-0.4,0.9-0.8c0.3-0.7-0.1-1.5-0.8-1.8c-0.4-0.1-0.8-0.1-1.2,0.1l-3.8,1.7l-0.9-2l6.9-3.1
	L343.8,150z M339.6,141.8c0.4,0.3,0.8,0.7,1,1.2c0.3,0.5,0.4,1,0.5,1.6c0,0.5-0.1,1-0.3,1.4c-0.2,0.4-0.5,0.9-0.9,1.2
	c-0.4,0.4-0.8,0.7-1.3,0.9l0,0l-0.2,0.1l-0.2,0.1l-2.4-4.7c-0.4,0.3-0.6,0.6-0.7,1.1c-0.1,0.4,0,0.9,0.2,1.2
	c0.2,0.3,0.4,0.6,0.6,0.8c0.3,0.2,0.6,0.4,0.9,0.5l-0.4,1.6c-0.6-0.1-1.1-0.3-1.5-0.7c-0.5-0.4-0.9-0.9-1.1-1.4
	c-0.3-0.5-0.4-1-0.5-1.5c-0.1-0.5,0-1,0.1-1.5c0.2-0.5,0.4-0.9,0.7-1.3c0.4-0.4,0.8-0.8,1.3-1l0,0c0.5-0.2,1-0.4,1.5-0.4
	c0.5-0.1,1,0,1.5,0.1C338.8,141.3,339.2,141.5,339.6,141.8L339.6,141.8z M337.8,132.7l-3.3,1.9l0.6,0.1c0.2,0,0.4,0.1,0.6,0.2
	c0.2,0.1,0.4,0.2,0.5,0.4c0.2,0.2,0.3,0.4,0.5,0.6c0.4,0.6,0.5,1.3,0.3,2c-0.3,0.7-0.8,1.3-1.4,1.6l-4.2,2.5l-1.1-1.9l3.6-2.1
	c0.4-0.2,0.7-0.5,0.8-0.9c0.1-0.3,0-0.7-0.1-1c-0.2-0.3-0.5-0.6-0.8-0.6c-0.4-0.1-0.8,0-1.2,0.3l-3.6,2.1l-1.1-1.9l8.9-5.2
	L337.8,132.7z M329.4,126.4c0.5,0.1,1,0.3,1.4,0.6c0.5,0.3,0.8,0.7,1.1,1.2c0.7,0.9,0.9,2.1,0.6,3.2l-1.9-0.3c0.1-0.3,0.1-0.7,0.1-1
	c0-0.3-0.2-0.7-0.4-0.9c-0.1-0.2-0.3-0.4-0.5-0.5c-0.2-0.1-0.4-0.2-0.7-0.2c-0.3,0-0.5,0-0.8,0c-0.3,0.1-0.5,0.2-0.7,0.3l0,0
	c-0.2,0.2-0.4,0.3-0.6,0.6c-0.2,0.2-0.3,0.4-0.3,0.7c0,0.2,0,0.5,0,0.8c0,0.3,0.1,0.5,0.3,0.8c0.2,0.3,0.4,0.5,0.7,0.7
	c0.3,0.2,0.6,0.3,0.9,0.4l-0.4,1.7c-0.5-0.1-1-0.2-1.5-0.5c-0.6-0.3-1-0.8-1.3-1.3c-0.3-0.4-0.5-1-0.6-1.5c-0.2-1,0-2,0.6-2.9
	c0.3-0.4,0.7-0.8,1.1-1.1l0,0c0.4-0.3,0.9-0.5,1.4-0.6C328.4,126.3,328.9,126.3,329.4,126.4L329.4,126.4z M325.2,119.2
	c1,0.6,1.7,1.5,2,2.6c0.1,0.5,0.2,1,0.1,1.5c-0.1,1-0.7,2-1.5,2.6l0,0c-0.4,0.3-0.9,0.5-1.4,0.7c-0.5,0.1-1,0.1-1.5,0.1
	c-0.5-0.1-1-0.3-1.5-0.5c-1-0.6-1.7-1.5-2-2.6c-0.1-0.5-0.2-1-0.1-1.5c0.1-0.5,0.2-1,0.5-1.4c0.2-0.5,0.6-0.8,1-1.2l0,0
	c0.4-0.3,0.9-0.5,1.4-0.7c0.5-0.1,1-0.1,1.5-0.1C324.3,118.8,324.8,119,325.2,119.2L325.2,119.2z M314.9,103.2l1.5,1.8l-3.7,5.9
	l6.5-2.8l1.2,1.4l-3.6,6.1l6.4-2.9l1.5,1.7l-9.7,4l-1.2-1.4l3.4-5.9l-6.3,2.6l-1.2-1.4L314.9,103.2z M299.5,99.9l4.2,0.3h1
	c0.3,0,0.5,0,0.8-0.1c0.2,0,0.4-0.1,0.6-0.2c0.2-0.1,0.3-0.2,0.5-0.3c0.3-0.3,0.4-0.6,0.4-1c0-0.3-0.2-0.7-0.5-0.9
	c-0.3-0.3-0.6-0.4-1-0.5c-0.5,0-0.9,0-1.4,0.1l-0.3-1.9c0.4-0.1,0.8-0.1,1.1-0.1c0.3,0,0.7,0,1,0.1c0.3,0.1,0.7,0.2,1,0.3
	c0.4,0.2,0.7,0.4,1,0.7c0.4,0.3,0.7,0.7,0.9,1.1c0.2,0.4,0.3,0.8,0.4,1.2c0,0.4,0,0.8-0.2,1.2c-0.1,0.4-0.4,0.8-0.7,1.1
	c-0.2,0.3-0.5,0.5-0.9,0.7c-0.3,0.2-0.6,0.3-1,0.3c-0.4,0.1-0.8,0.1-1.2,0.1c-0.4,0-0.9,0-1.5-0.1l-2-0.2l3.2,2.9l-1.3,1.4l-5.4-5
	L299.5,99.9z"/>
<rect id="Rechteck_11-2" x="333.5" y="327.2" class="st1" width="3" height="92.8"/>
<rect id="Rechteck_11-3" x="39.5" y="301.3" class="st1" width="3" height="103.6"/>
<rect id="Rechteck_11-4" x="335" y="20.3" class="st1" width="3" height="90.2"/>
<rect id="Rechteck_11-5" x="40.8" y="20.3" class="st1" width="3" height="107.6"/>
</svg>
