<svg id="Gruppe_5" data-name="Gruppe 5" xmlns="http://www.w3.org/2000/svg" viewBox="0 0 659.97 414.76"><defs><style>.cls-1,.cls-2{fill:#fff;}.cls-1{fill-rule:evenodd;}.cls-3{fill:none;}</style></defs><title>zyklus-desktop</title><path id="Ruhephase" class="cls-1" d="M512.68,314.61h1.6v-3.17h2l2.24,3.17h1.9L518,311.17a2.74,2.74,0,0,0,2.16-2.76v0a2.77,2.77,0,0,0-.76-2,3.69,3.69,0,0,0-2.62-.91h-4.06v9.1Zm1.6-4.58V307h2.33c1.18,0,1.88.53,1.88,1.51v0a1.61,1.61,0,0,1-1.67,1.55l-.2,0Zm12.83,4.73c2.38,0,3.91-1.37,3.91-4.08v-5.17h-1.6v5.24c0,1.68-.87,2.53-2.28,2.53s-2.3-.9-2.3-2.59v-5.18h-1.6v5.24c0,2.64,1.5,4,3.87,4Zm7.41-.15h1.6v-3.83h4.34v3.83h1.6v-9.1h-1.6v3.79h-4.34v-3.78h-1.6v9.1Zm11.18,0h6.81v-1.43H547.3v-2.44h4.56v-1.43H547.3v-2.37h5.15v-1.43H545.7Zm10,0h1.6v-2.92h1.81c2,0,3.64-1.07,3.64-3.11v0c0-1.84-1.33-3.05-3.46-3.05h-3.59v9.1Zm1.6-4.36V307h1.86c1.2,0,2,.56,2,1.63v0a1.7,1.7,0,0,1-1.78,1.64h-2Zm8.39,4.36h1.6v-3.83h4.34v3.83h1.6v-9.1h-1.6v3.79H567.3v-3.78h-1.6v9.1Zm10.4,0h1.63l.94-2.2H583l.92,2.2h1.69l-4-9.16H580.1Zm3.15-3.61,1.56-3.64,1.58,3.64Zm12.22,3.74c1.91,0,3.25-1,3.25-2.71v0c0-1.51-1-2.2-2.91-2.67-1.75-.41-2.17-.72-2.17-1.43v0a1.25,1.25,0,0,1,1.4-1.09h.09a4.09,4.09,0,0,1,2.47.94l.85-1.21a5,5,0,0,0-3.3-1.15c-1.8,0-3.1,1.08-3.1,2.64v0c0,1.67,1.09,2.25,3,2.71,1.69.39,2,.75,2,1.4v0c0,.68-.62,1.15-1.61,1.15a4.25,4.25,0,0,1-2.88-1.19l-1,1.15a5.59,5.59,0,0,0,3.79,1.45Zm6.44-.13h6.82v-1.43h-5.22v-2.44h4.57v-1.43h-4.57v-2.37h5.15v-1.43h-6.75v9.1Z"/><path id="Haarausfall" class="cls-1" d="M269.38,414.61H271v-3.83h4.35v3.83h1.6v-9.1h-1.6v3.79H271v-3.78h-1.6v9.1Zm10.4,0h1.65l.93-2.2h4.3l.92,2.2h1.69l-4-9.16h-1.48Zm3.16-3.61,1.56-3.64,1.57,3.64Zm8.23,3.61h1.64l.93-2.2H298l.93,2.2h1.69l-4-9.16h-1.48Zm3.16-3.61,1.56-3.64,1.57,3.64Zm9.19,3.61h1.6v-3.17h2l2.23,3.17h1.9l-2.45-3.44a2.73,2.73,0,0,0,2.15-2.76v0a2.76,2.76,0,0,0-.75-2,3.72,3.72,0,0,0-2.63-.91h-4v9.1Zm1.6-4.59v-3h2.32c1.19,0,1.89.53,1.89,1.51v0a1.61,1.61,0,0,1-1.68,1.54.62.62,0,0,1-.19,0Zm8.32,4.59h1.63l.94-2.2h4.3l.92,2.2h1.69l-4-9.16h-1.48ZM316.6,411l1.56-3.64,1.57,3.64Zm12.6,3.76c2.38,0,3.91-1.37,3.91-4.09v-5.16h-1.6v5.24c0,1.68-.87,2.52-2.29,2.52s-2.3-.9-2.3-2.58v-5.18h-1.6v5.24c0,2.64,1.51,4,3.88,4Zm10.59,0c1.91,0,3.25-1,3.25-2.71v0c0-1.51-1-2.2-2.91-2.67-1.75-.41-2.17-.72-2.17-1.43v0a1.25,1.25,0,0,1,1.4-1.09h.08a4.06,4.06,0,0,1,2.47.94l.86-1.21a5,5,0,0,0-3.3-1.15c-1.81,0-3.11,1.08-3.11,2.64v0c0,1.67,1.1,2.25,3,2.71,1.69.39,2.06.75,2.06,1.4v0c0,.68-.63,1.15-1.62,1.15a4.22,4.22,0,0,1-2.87-1.19l-1,1.15a5.59,5.59,0,0,0,3.79,1.45Zm6.44-.13h1.6v-3.7h4.59v-1.46h-4.59V407H353v-1.46h-6.77v9.1Zm8,0h1.63l.94-2.2h4.3l.92,2.2h1.69l-4-9.16h-1.48Zm3.15-3.61,1.56-3.64,1.58,3.64Zm9.19,3.61H373v-1.45h-4.79v-7.65h-1.6v9.1Zm9.35,0h6.38v-1.45h-4.78v-7.65h-1.6v9.1Z"/><path id="Rückkehr_zur_Wachstumsphase" data-name="Rückkehr zur Wachstumsphase" class="cls-1" d="M29.55,299.67h1.6V296.5h2l2.24,3.17h1.9l-2.46-3.45A2.72,2.72,0,0,0,37,293.47v0a2.79,2.79,0,0,0-.76-2,3.6,3.6,0,0,0-2.62-.91H29.55Zm1.6-4.59V292h2.33c1.18,0,1.88.54,1.88,1.51v0a1.61,1.61,0,0,1-1.67,1.54l-.2,0Zm13.38-5.25h1.61v-1.46H44.53Zm-2.68,0h1.62v-1.46H41.85Zm2.13,10c2.38,0,3.91-1.36,3.91-4.08v-5.16h-1.6v5.24c0,1.67-.87,2.52-2.28,2.52s-2.3-.9-2.3-2.59v-5.17h-1.6v5.24c0,2.64,1.5,4,3.87,4Zm11.64,0a4.66,4.66,0,0,0,3.69-1.61l-1-1a3.53,3.53,0,0,1-2.61,1.17,3.06,3.06,0,0,1-3-3.13s0-.06,0-.09v0a3.06,3.06,0,0,1,2.91-3.21h.09A3.65,3.65,0,0,1,58.22,293l1-1.18a4.75,4.75,0,0,0-3.56-1.42A4.6,4.6,0,0,0,51,294.92v.22a4.57,4.57,0,0,0,4.47,4.68h.16Zm6.66-.15h1.6V297l1.42-1.46,3.11,4.1h2l-4-5.18,3.8-3.92h-2l-4.33,4.58v-4.58h-1.6v9.1Zm10.74,0h1.6V297L76,295.57l3.11,4.1H81.1l-4-5.18,3.8-3.92H79l-4.33,4.58v-4.58H73v9.1Zm10.74,0h6.81v-1.43H85.36v-2.45h4.56v-1.43H85.36V292h5.15v-1.43H83.76v9.1Zm10,0h1.6v-3.84h4.34v3.84h1.6v-9.1h-1.6v3.78H95.37v-3.78h-1.6v9.1Zm11.18,0h1.6V296.5h2l2.24,3.17h1.9l-2.46-3.45a2.72,2.72,0,0,0,2.16-2.75v0a2.75,2.75,0,0,0-.76-2,3.6,3.6,0,0,0-2.62-.91H105v9.1Zm1.6-4.59V292h2.33c1.18,0,1.88.54,1.88,1.51v0a1.61,1.61,0,0,1-1.67,1.54l-.2,0Zm14,4.59H128v-1.42h-5.38l5.38-6.5v-1.18h-7.3V292h5.2l-5.36,6.5v1.18Zm14.48.14c2.38,0,3.91-1.36,3.91-4.08v-5.16h-1.6v5.24c0,1.67-.87,2.52-2.29,2.52s-2.3-.9-2.3-2.59v-5.17h-1.6v5.24c0,2.64,1.51,4,3.88,4Zm7.41-.14H144V296.5h2l2.23,3.17h1.9l-2.45-3.45a2.71,2.71,0,0,0,2.15-2.75v0a2.74,2.74,0,0,0-.75-2,3.63,3.63,0,0,0-2.63-.91h-4.05v9.1Zm1.6-4.59V292h2.32c1.19,0,1.89.54,1.89,1.51v0a1.61,1.61,0,0,1-1.68,1.54l-.19,0ZM3.17,315.73H4.55l2.24-6.54L9,315.73h1.39l3.16-9.16H11.9l-2.18,6.74-2.23-6.77H6.14L3.9,313.31l-2.17-6.74H0Zm11.39-.06H16.2l.93-2.2h4.3l.93,2.2h1.69l-4-9.17H18.57Zm3.16-3.62,1.56-3.64,1.57,3.64Zm12.84,3.77a4.68,4.68,0,0,0,3.7-1.61l-1-1a3.57,3.57,0,0,1-2.61,1.17,3.06,3.06,0,0,1-3-3.13.28.28,0,0,1,0-.09v0a3.06,3.06,0,0,1,2.91-3.21h.09A3.61,3.61,0,0,1,33.16,309l1-1.18a4.77,4.77,0,0,0-3.57-1.42,4.6,4.6,0,0,0-4.69,4.51v.22a4.57,4.57,0,0,0,4.47,4.68Zm6.67-.15h1.6v-3.84h4.34v3.84h1.6v-9.1h-1.6v3.78H38.83v-3.78h-1.6v9.1Zm14.37.13c1.91,0,3.25-1,3.25-2.72v0c0-1.51-1-2.2-2.91-2.66-1.76-.42-2.18-.73-2.18-1.43v0a1.26,1.26,0,0,1,1.41-1.09h.08a4.22,4.22,0,0,1,2.47.94l.85-1.21a5,5,0,0,0-3.3-1.14c-1.8,0-3.1,1.07-3.1,2.63v0c0,1.68,1.09,2.25,3,2.72,1.69.39,2,.74,2,1.39v0c0,.68-.62,1.15-1.61,1.15a4.24,4.24,0,0,1-2.87-1.18l-1,1.14a5.66,5.66,0,0,0,3.8,1.46Zm8.47-.13h1.62v-7.62h2.88v-1.48H57.19v1.48h2.88v7.62Zm11.22.14c2.38,0,3.92-1.37,3.92-4.08v-5.16H73.6v5.24c0,1.67-.87,2.52-2.28,2.52s-2.3-.9-2.3-2.59v-5.17h-1.6v5.24c0,2.64,1.51,4,3.87,4Zm7.41-.14h1.58v-6.5l2.84,4.26h0l2.88-4.29v6.53h1.6v-9.1H86l-2.77,4.3-2.77-4.3h-1.7v9.1Zm15.77.13c1.91,0,3.25-1,3.25-2.72v0c0-1.51-1-2.2-2.91-2.66-1.76-.42-2.17-.73-2.17-1.43v0a1.25,1.25,0,0,1,1.4-1.09h.08a4.22,4.22,0,0,1,2.47.94l.86-1.21a5,5,0,0,0-3.3-1.14c-1.81,0-3.11,1.07-3.11,2.63v0c0,1.68,1.09,2.25,3,2.72,1.69.39,2.05.74,2.05,1.39v0c0,.68-.62,1.15-1.61,1.15a4.26,4.26,0,0,1-2.87-1.18l-1,1.14a5.63,5.63,0,0,0,3.79,1.46Zm6.44-.13h1.6v-2.93h1.8c2,0,3.64-1.06,3.64-3.1v0c0-1.83-1.32-3-3.45-3h-3.59v9.1Zm1.6-4.37V308h1.86c1.2,0,2,.56,2,1.63v0a1.73,1.73,0,0,1-1.79,1.65l-.17,0Zm8.38,4.37h1.6v-3.84h4.34v3.84h1.6v-9.1h-1.6v3.78h-4.34v-3.78h-1.6v9.1Zm10.4,0h1.64l.94-2.2h4.3l.92,2.2h1.69l-4-9.17H125.3Zm3.16-3.62,1.56-3.64,1.57,3.64Zm12.22,3.75c1.91,0,3.25-1,3.25-2.72v0c0-1.51-1-2.2-2.91-2.66-1.76-.42-2.17-.73-2.17-1.43v0a1.25,1.25,0,0,1,1.4-1.09h.08a4.22,4.22,0,0,1,2.47.94l.86-1.21a5,5,0,0,0-3.3-1.14c-1.81,0-3.11,1.07-3.11,2.63v0c0,1.68,1.09,2.25,3,2.72,1.69.39,2,.74,2,1.39v0c0,.68-.62,1.15-1.61,1.15a4.26,4.26,0,0,1-2.87-1.18l-1,1.14a5.63,5.63,0,0,0,3.79,1.46Zm6.43-.13h6.82v-1.43H144.7v-2.45h4.57v-1.43H144.7V308h5.15v-1.43H143.1Z"/><path id="Übergangsphase" class="cls-1" d="M517,44.77h1.61V43.32H517Zm-2.68,0h1.62V43.32h-1.62Zm2.13,10c2.38,0,3.91-1.37,3.91-4.08V45.51h-1.6v5.24c0,1.68-.87,2.53-2.28,2.53s-2.3-.9-2.3-2.59V45.51h-1.6v5.24C512.54,53.39,514,54.76,516.41,54.76Zm7.41-.15H528c2,0,3.37-.87,3.37-2.5v0a2.22,2.22,0,0,0-1.81-2.21,2.15,2.15,0,0,0,1.3-2v0a2,2,0,0,0-.61-1.5,3.24,3.24,0,0,0-2.38-.81h-4.07v9.1Zm5.47-6.5c0,.84-.68,1.24-1.71,1.24h-2.19V46.93h2.3c1,0,1.6.44,1.6,1.16v0Zm.51,3.81v0c0,.82-.66,1.25-1.75,1.25h-2.66V50.7h2.54c1.26,0,1.87.46,1.87,1.22Zm4.71,2.69h6.81V53.18h-5.21V50.74h4.56V49.31h-4.56V46.94h5.14V45.51h-6.74v9.1Zm10,0h1.6V51.44h2l2.23,3.17h1.9l-2.45-3.44A2.73,2.73,0,0,0,552,48.41v0a2.76,2.76,0,0,0-.75-2,3.72,3.72,0,0,0-2.63-.91h-4.05v9.1Zm1.6-4.58V47h2.32c1.19,0,1.89.53,1.89,1.51v0a1.63,1.63,0,0,1-1.68,1.55l-.19,0Zm13.41,4.74a5.76,5.76,0,0,0,3.8-1.42V49.53h-3.87v1.39h2.33v1.7a3.73,3.73,0,0,1-2.2.69,3,3,0,0,1-3.11-3c0-.1,0-.19,0-.28v0a3.09,3.09,0,0,1,2.94-3.22h0a3.58,3.58,0,0,1,2.55,1l1-1.21a4.89,4.89,0,0,0-3.5-1.23,4.63,4.63,0,0,0-4.7,4.57v.16a4.51,4.51,0,0,0,4.34,4.68Zm6.4-.16h1.64l.94-2.2h4.3l.92,2.2h1.69l-4-9.16h-1.48ZM569.09,51l1.56-3.64L572.23,51Zm9.19,3.61h1.57V48.14l5,6.47h1.34v-9.1h-1.57v6.3l-4.88-6.3h-1.48v9.1Zm15.88.16a5.76,5.76,0,0,0,3.8-1.42V49.53h-3.87v1.39h2.32v1.7a3.68,3.68,0,0,1-2.2.69,3.05,3.05,0,0,1-3.1-3,2.44,2.44,0,0,1,0-.27v0a3.08,3.08,0,0,1,2.94-3.21h0a3.6,3.6,0,0,1,2.55,1l1-1.21a4.93,4.93,0,0,0-3.5-1.24,4.64,4.64,0,0,0-4.69,4.58v.16a4.51,4.51,0,0,0,4.34,4.68Zm10.36,0c1.92,0,3.26-1,3.26-2.71v0c0-1.51-1-2.2-2.92-2.67-1.75-.41-2.17-.72-2.17-1.43v0a1.25,1.25,0,0,1,1.4-1.09h.08a4,4,0,0,1,2.47.94l.86-1.21a5,5,0,0,0-3.3-1.15c-1.8,0-3.1,1.08-3.1,2.64v0c0,1.67,1.09,2.25,3,2.71,1.69.39,2.06.75,2.06,1.4v0c0,.68-.63,1.15-1.61,1.15a4.25,4.25,0,0,1-2.88-1.19l-1,1.15a5.6,5.6,0,0,0,3.8,1.45Zm6.44-.13h1.6V51.69h1.81c2,0,3.64-1.07,3.64-3.11v0c0-1.84-1.33-3.05-3.46-3.05H611v9.1Zm1.6-4.36V47h1.86c1.2,0,2,.56,2,1.62v0a1.71,1.71,0,0,1-1.78,1.64h-2Zm8.38,4.36h1.6V50.78h4.35v3.83h1.6v-9.1h-1.6V49.3h-4.35V45.52h-1.6v9.1Zm10.4,0H633l.94-2.2h4.3l.92,2.2h1.69l-4-9.16h-1.48ZM634.5,51l1.56-3.64L637.64,51Zm12.22,3.74c1.91,0,3.25-1,3.25-2.71v0c0-1.51-1-2.2-2.91-2.67-1.75-.41-2.17-.72-2.17-1.43v0a1.25,1.25,0,0,1,1.4-1.09h.08a4.06,4.06,0,0,1,2.47.94l.86-1.21a5,5,0,0,0-3.3-1.15c-1.81,0-3.11,1.08-3.11,2.64v0c0,1.67,1.1,2.25,3,2.71,1.69.39,2.06.75,2.06,1.4v0c0,.68-.63,1.15-1.62,1.15a4.22,4.22,0,0,1-2.87-1.19l-1,1.15a5.6,5.6,0,0,0,3.8,1.45Zm6.44-.13H660V53.18h-5.21V50.74h4.57V49.31h-4.57V46.94h5.15V45.51h-6.75v9.1Z"/><path id="Wachstumsphase" class="cls-1" d="M4,54.68H5.42l2.23-6.54,2.24,6.54h1.39l3.16-9.17H12.76l-2.17,6.75L8.35,45.49H7L4.77,52.26,2.6,45.51H.87Zm11.39-.07h1.63l.94-2.2h4.3l.92,2.2h1.69l-4-9.16H19.43ZM18.59,51l1.56-3.64L21.72,51Zm12.84,3.77a4.71,4.71,0,0,0,3.69-1.61l-1-1a3.54,3.54,0,0,1-2.61,1.17,3.07,3.07,0,0,1-3-3.13V50a3.06,3.06,0,0,1,2.91-3.21h.09A3.63,3.63,0,0,1,34,48l1-1.18a4.71,4.71,0,0,0-3.56-1.42,4.59,4.59,0,0,0-4.69,4.5v.23a4.57,4.57,0,0,0,4.47,4.68Zm6.67-.16h1.6V50.78H44v3.83h1.6v-9.1H44V49.3H39.7V45.52H38.1v9.1Zm14.36.13c1.91,0,3.25-1,3.25-2.71v0c0-1.51-1-2.2-2.91-2.67-1.75-.41-2.17-.72-2.17-1.43v0A1.25,1.25,0,0,1,52,46.79h.08a4.06,4.06,0,0,1,2.47.94l.86-1.21a5,5,0,0,0-3.3-1.15C50.33,45.38,49,46.46,49,48v0c0,1.67,1.1,2.25,3,2.71,1.69.39,2.06.75,2.06,1.4v0c0,.68-.63,1.15-1.62,1.15a4.22,4.22,0,0,1-2.87-1.19l-1,1.15a5.59,5.59,0,0,0,3.79,1.45Zm8.48-.13h1.61V47h2.89V45.52H58.05V47h2.89v7.62Zm11.22.15c2.38,0,3.91-1.37,3.91-4.09V45.51h-1.6v5.24c0,1.68-.87,2.52-2.29,2.52s-2.3-.9-2.3-2.58V45.51h-1.6v5.24c0,2.64,1.51,4,3.88,4Zm7.41-.15h1.57v-6.5L84,52.38H84l2.87-4.29v6.52h1.6v-9.1h-1.7L84,49.81l-2.76-4.3h-1.7v9.1Zm15.77.13c1.91,0,3.25-1,3.25-2.71v0c0-1.51-1-2.2-2.91-2.67-1.76-.41-2.18-.72-2.18-1.43v0a1.26,1.26,0,0,1,1.41-1.09H95a4.09,4.09,0,0,1,2.47.94l.85-1.21A5,5,0,0,0,95,45.38c-1.8,0-3.1,1.08-3.1,2.64v0c0,1.67,1.09,2.25,3,2.71,1.69.39,2,.75,2,1.4v0c0,.68-.62,1.15-1.61,1.15a4.22,4.22,0,0,1-2.87-1.19l-1,1.15a5.62,5.62,0,0,0,3.8,1.45Zm6.43-.13h1.6V51.69h1.81c2,0,3.64-1.07,3.64-3.11v0c0-1.84-1.33-3.05-3.46-3.05h-3.59v9.1Zm1.6-4.36V47h1.86c1.2,0,2,.56,2,1.62v0a1.7,1.7,0,0,1-1.78,1.64h-2Zm8.39,4.36h1.6V50.78h4.34v3.83h1.6v-9.1h-1.6V49.3h-4.34V45.52h-1.6v9.1Zm10.4,0h1.64l.93-2.2H129l.92,2.2h1.69l-4-9.16h-1.48ZM125.32,51l1.56-3.64L128.45,51Zm12.22,3.74c1.91,0,3.25-1,3.25-2.71v0c0-1.51-1-2.2-2.92-2.67-1.75-.41-2.17-.72-2.17-1.43v0a1.26,1.26,0,0,1,1.4-1.09h.08a4,4,0,0,1,2.47.94l.86-1.21a5,5,0,0,0-3.3-1.15c-1.8,0-3.1,1.08-3.1,2.64v0c0,1.67,1.09,2.25,3,2.71,1.69.39,2.06.75,2.06,1.4v0c0,.68-.63,1.15-1.61,1.15a4.25,4.25,0,0,1-2.88-1.19l-1,1.15a5.6,5.6,0,0,0,3.8,1.45Zm6.43-.13h6.81V53.18h-5.21V50.74h4.56V49.31h-4.56V46.94h5.15V45.51H144v9.1Z"/><rect id="Rechteck_11" data-name="Rechteck 11" class="cls-2" x="325.03" y="360" width="3" height="31"/><circle class="cls-3" cx="329.61" cy="180.5" r="159.92" transform="translate(-31.09 285.94) rotate(-45)"/><path class="cls-2" d="M178.8,128.5a1.35,1.35,0,0,0-1.13.11,1.8,1.8,0,0,0-.79,1.08,1.75,1.75,0,0,0,0,1.31,1.31,1.31,0,0,0,.84.75,1.35,1.35,0,0,0,1.16-.1,1.82,1.82,0,0,0,.8-1.07,1.76,1.76,0,0,0,0-1.32A1.39,1.39,0,0,0,178.8,128.5Z"/><path class="cls-2" d="M439.82,295.07l0,0a2.15,2.15,0,0,0-.65-.48,1.82,1.82,0,0,0-.75-.2,2,2,0,0,0-.77.09,1.79,1.79,0,0,0-.71.44,1.92,1.92,0,0,0-.49.68,1.74,1.74,0,0,0-.14.74,2,2,0,0,0,.16.75,2.63,2.63,0,0,0,.45.67l0,0a2.11,2.11,0,0,0,.65.48,2,2,0,0,0,.75.21,2.26,2.26,0,0,0,.78-.1,1.9,1.9,0,0,0,.7-.43,2,2,0,0,0,.49-.69,1.74,1.74,0,0,0,.14-.74,2,2,0,0,0-.16-.75A2.63,2.63,0,0,0,439.82,295.07Z"/><path class="cls-2" d="M187.27,109.67l-.35-.16a3.43,3.43,0,0,0-.46.47,3,3,0,0,0-.39.63,2,2,0,0,0-.24,1.1.9.9,0,0,0,.52.69h0a.77.77,0,0,0,.75,0,1.35,1.35,0,0,0,.59-.65,2,2,0,0,0,.21-1.26A1.22,1.22,0,0,0,187.27,109.67Z"/><path class="cls-2" d="M411.73,317.37a2.1,2.1,0,0,0,1,.72,1.39,1.39,0,0,0,1.16-.19,1.44,1.44,0,0,0,.7-.95,2.17,2.17,0,0,0-.15-1.28Z"/><path class="cls-2" d="M425.28,306.58a.85.85,0,0,0-.15-.86v0a.81.81,0,0,0-.67-.34,1.36,1.36,0,0,0-.82.31,1.92,1.92,0,0,0-.76,1,1.15,1.15,0,0,0,.21,1l.23.31a3.3,3.3,0,0,0,.62-.22,2.84,2.84,0,0,0,.64-.38A1.85,1.85,0,0,0,425.28,306.58Z"/><path class="cls-2" d="M456.47,83.05a2.46,2.46,0,0,0-.72.37h0a2.4,2.4,0,0,0-.56.59,2,2,0,0,0-.28.73,2,2,0,0,0,0,.78,2,2,0,0,0,.35.75,1.91,1.91,0,0,0,.62.56,1.78,1.78,0,0,0,.73.23,1.82,1.82,0,0,0,.76-.08,2.46,2.46,0,0,0,.72-.37l0,0a2,2,0,0,0,.55-.58,2,2,0,0,0,.29-.73,2,2,0,0,0-.35-1.53,1.93,1.93,0,0,0-.63-.56,1.74,1.74,0,0,0-.72-.23A2,2,0,0,0,456.47,83.05Z"/><polygon class="cls-2" points="455.54 277.58 457.99 279.44 457.13 275.49 455.54 277.58"/><path class="cls-2" d="M470.5,105.42l1.48,2.87a2,2,0,0,0,.8-1,1.39,1.39,0,0,0-.1-1.17,1.43,1.43,0,0,0-.89-.77A2.13,2.13,0,0,0,470.5,105.42Z"/><path class="cls-2" d="M197.89,88.46a2.06,2.06,0,0,0-1.25-.24,1.41,1.41,0,0,0-1,.65A1.44,1.44,0,0,0,195.4,90a2.24,2.24,0,0,0,.66,1.11Z"/><path class="cls-2" d="M262.38,191.1v-8.35H254v8.35h-4.58V170.3H254v8.23h8.43V170.3H267v20.8Z"/><path class="cls-2" d="M280.8,191.1v-1.72a6.25,6.25,0,0,1-2,1.47,6.62,6.62,0,0,1-2.82.55,7,7,0,0,1-2.12-.32,4.85,4.85,0,0,1-1.74-.93,4.41,4.41,0,0,1-1.17-1.53,4.81,4.81,0,0,1-.44-2.1v-.06a4.91,4.91,0,0,1,.48-2.25,4.41,4.41,0,0,1,1.32-1.58,6,6,0,0,1,2-.93,10,10,0,0,1,2.6-.32,11.14,11.14,0,0,1,2.13.18,13.06,13.06,0,0,1,1.76.48v-.27a2.7,2.7,0,0,0-.86-2.17,3.82,3.82,0,0,0-2.55-.74,10.66,10.66,0,0,0-2.31.22,15.34,15.34,0,0,0-2.09.64l-1.13-3.45a18.36,18.36,0,0,1,2.74-.92,14.75,14.75,0,0,1,3.44-.35q3.72,0,5.41,1.81a7.1,7.1,0,0,1,1.69,5.05v9.24Zm.09-6.42a6.59,6.59,0,0,0-1.32-.43,7,7,0,0,0-1.56-.16,4.1,4.1,0,0,0-2.29.56,1.87,1.87,0,0,0-.83,1.64v.05a1.67,1.67,0,0,0,.69,1.43,2.89,2.89,0,0,0,1.78.51,4,4,0,0,0,2.57-.78,2.45,2.45,0,0,0,1-2Z"/><path class="cls-2" d="M298.39,191.1v-1.72a6.36,6.36,0,0,1-2,1.47,6.62,6.62,0,0,1-2.82.55,7.08,7.08,0,0,1-2.13-.32,4.89,4.89,0,0,1-1.73-.93,4.56,4.56,0,0,1-1.18-1.53,5,5,0,0,1-.43-2.1v-.06a4.91,4.91,0,0,1,.48-2.25,4.21,4.21,0,0,1,1.32-1.58,5.87,5.87,0,0,1,2-.93,10,10,0,0,1,2.6-.32,11,11,0,0,1,2.12.18,12.8,12.8,0,0,1,1.77.48v-.27a2.73,2.73,0,0,0-.86-2.17,3.85,3.85,0,0,0-2.56-.74,10.56,10.56,0,0,0-2.3.22,15.34,15.34,0,0,0-2.09.64l-1.13-3.45a18.63,18.63,0,0,1,2.73-.92,14.84,14.84,0,0,1,3.45-.35c2.47,0,4.28.6,5.41,1.81a7.15,7.15,0,0,1,1.69,5.05v9.24Zm.09-6.42a7,7,0,0,0-2.88-.59,4.1,4.1,0,0,0-2.29.56,1.87,1.87,0,0,0-.83,1.64v.05a1.68,1.68,0,0,0,.68,1.43,2.92,2.92,0,0,0,1.79.51,4,4,0,0,0,2.57-.78,2.45,2.45,0,0,0,1-2Z"/><path class="cls-2" d="M316,179.6a4.65,4.65,0,0,0-3.55,1.37,6,6,0,0,0-1.29,4.25v5.88h-4.52V175.17h4.52v3.21a6.54,6.54,0,0,1,1.87-2.61,4.57,4.57,0,0,1,3.21-.89v4.72Z"/><path class="cls-2" d="M318.53,191.1v-3.18l8.23-9.09h-8v-3.66h13.58v3.18l-8.26,9.09h8.26v3.66Z"/><path class="cls-2" d="M344.82,191.48a11.93,11.93,0,0,1-.94,2.07,5.86,5.86,0,0,1-1.12,1.38,3.69,3.69,0,0,1-1.38.77,6,6,0,0,1-1.78.24,7.32,7.32,0,0,1-2.2-.3,7.92,7.92,0,0,1-1.81-.8l1.51-3.27a5.06,5.06,0,0,0,1,.45,2.94,2.94,0,0,0,1,.18A1.7,1.7,0,0,0,340,192a2,2,0,0,0,.64-.81l-6.24-16h4.78L342.78,186l3.47-10.85H351Z"/><path class="cls-2" d="M363.87,191.1l-4.16-6.51-1.57,1.67v4.84h-4.52V169.41h4.52V181l5.28-5.8h5.41l-6.06,6.27L369,191.1Z"/><path class="cls-2" d="M371.42,191.1V169.41h4.51V191.1Z"/><path class="cls-2" d="M390.13,191.1v-2.28a8.68,8.68,0,0,1-.85,1,5.52,5.52,0,0,1-1,.83,5.09,5.09,0,0,1-1.25.57,5.21,5.21,0,0,1-1.54.21,5.09,5.09,0,0,1-4-1.58,6.26,6.26,0,0,1-1.41-4.34V175.17h4.52V184a3.54,3.54,0,0,0,.71,2.41,2.55,2.55,0,0,0,2,.82,2.68,2.68,0,0,0,2.06-.82,3.4,3.4,0,0,0,.76-2.41v-8.87h4.52V191.1Z"/><path class="cls-2" d="M409.9,188.56a4.26,4.26,0,0,1-1.29,1.59,5.78,5.78,0,0,1-1.95.93,8.74,8.74,0,0,1-2.39.32,11.13,11.13,0,0,1-6.83-2.41l1.93-3a10.63,10.63,0,0,0,2.6,1.42,7,7,0,0,0,2.42.48,2.51,2.51,0,0,0,1.44-.33,1,1,0,0,0,.46-.86v-.06a.87.87,0,0,0-.26-.62,2.35,2.35,0,0,0-.73-.46,10.72,10.72,0,0,0-1.06-.37l-1.24-.39a15.92,15.92,0,0,1-1.68-.58,5.79,5.79,0,0,1-1.53-.89,4.45,4.45,0,0,1-1.12-1.35,4.2,4.2,0,0,1-.43-2V180a4.68,4.68,0,0,1,1.71-3.75,5.41,5.41,0,0,1,1.84-1,7.88,7.88,0,0,1,2.27-.32,10.15,10.15,0,0,1,3.08.49,11.11,11.11,0,0,1,2.87,1.35l-1.73,3.12a14.06,14.06,0,0,0-2.31-1.09,6.31,6.31,0,0,0-2-.4,2.11,2.11,0,0,0-1.25.31,1,1,0,0,0-.42.79v.06a.77.77,0,0,0,.27.58,3.13,3.13,0,0,0,.71.48c.3.14.64.29,1,.43s.79.27,1.23.41,1.12.39,1.69.64a7,7,0,0,1,1.55.91,4.57,4.57,0,0,1,1.13,1.3,3.79,3.79,0,0,1,.44,1.88v.06A5.27,5.27,0,0,1,409.9,188.56Z"/><path class="cls-2" d="M497.71,114.74l-10.94,26.88-5.53-2.25h0l-21.54-8.77A138.62,138.62,0,0,1,469,180.5c0,76.83-62.51,139.33-139.34,139.33a139.06,139.06,0,0,1-32.73-3.89L274,330l16.38,26.7A180.83,180.83,0,0,0,329.61,361c99.53,0,180.5-81,180.5-180.5A179.62,179.62,0,0,0,497.71,114.74ZM416.52,317a3.65,3.65,0,0,1-.56,1.34,3.72,3.72,0,0,1-1.13,1.06,3.67,3.67,0,0,1-1.57.57,3.21,3.21,0,0,1-1.45-.18,3.61,3.61,0,0,1-1.27-.76,5.32,5.32,0,0,1-1-1.2v0l-.14-.23a2.67,2.67,0,0,0-.12-.24l4.48-2.77a1.79,1.79,0,0,0-1.12-.6,2,2,0,0,0-1.23.31,2.56,2.56,0,0,0-.72.66,3.37,3.37,0,0,0-.43,1l-1.62-.29a3.81,3.81,0,0,1,.56-1.56,4.14,4.14,0,0,1,1.33-1.26,4.36,4.36,0,0,1,1.49-.58,3.56,3.56,0,0,1,1.49,0,3.68,3.68,0,0,1,1.35.62,4.09,4.09,0,0,1,1.09,1.2v0a4.42,4.42,0,0,1,.57,1.44A4.09,4.09,0,0,1,416.52,317Zm5.16.11-1.09-1.6-1.47,1-1-1.52,1.47-1-1.82-2.67a.63.63,0,0,0-1-.22,2.29,2.29,0,0,0-.73.82l-1-1.42a3.56,3.56,0,0,1,2-1.73,1.5,1.5,0,0,1,.78-.08,1.76,1.76,0,0,1,.77.32,3.32,3.32,0,0,1,.75.81l2,3,.75-.51,1,1.51-.74.51,1.09,1.6Zm6.67-7.28a7.09,7.09,0,0,1-1.21,1.12,3.42,3.42,0,0,1-2.57.85,3.39,3.39,0,0,1-2.08-1.44l-2.63-3.51,1.66-1.25.49.66a2.88,2.88,0,0,1,.33-1.13,3.08,3.08,0,0,1,.92-1,3.31,3.31,0,0,1,.9-.49,2.3,2.3,0,0,1,.92-.14,2.16,2.16,0,0,1,.89.25,2.37,2.37,0,0,1,.76.67v0a2.36,2.36,0,0,1,.47,1,2,2,0,0,1-.06,1,2.78,2.78,0,0,1-.5.94,5.31,5.31,0,0,1-.9.86,4.67,4.67,0,0,1-.86.53,4.94,4.94,0,0,1-.8.32l.07.11a1.31,1.31,0,0,0,.95.58,1.85,1.85,0,0,0,1.18-.45,5,5,0,0,0,.81-.74,8.32,8.32,0,0,0,.62-.84l1.41,1A10.36,10.36,0,0,1,428.35,309.8Zm6.58-5.21-.7-.83a4.16,4.16,0,0,1,0,.61,2.54,2.54,0,0,1-.12.61,2.44,2.44,0,0,1-.28.59,2.52,2.52,0,0,1-.5.55,2.41,2.41,0,0,1-1.93.64,2.92,2.92,0,0,1-1.84-1.14l-3.15-3.76,1.65-1.38,2.7,3.23a1.69,1.69,0,0,0,1,.66,1.2,1.2,0,0,0,1-.32,1.22,1.22,0,0,0,.5-.92,1.61,1.61,0,0,0-.46-1.12l-2.7-3.22,1.64-1.38,4.86,5.8Zm7.1-6.66a4.47,4.47,0,0,1-2.37,2.24,3.81,3.81,0,0,1-1.51.28,3.88,3.88,0,0,1-2.75-1.22l0,0a3.7,3.7,0,0,1-.82-1.33,3.78,3.78,0,0,1-.23-1.49,4,4,0,0,1,.36-1.51,4.31,4.31,0,0,1,1-1.35,4.27,4.27,0,0,1,1.39-.89,3.84,3.84,0,0,1,1.51-.28,3.74,3.74,0,0,1,1.47.32,3.64,3.64,0,0,1,1.28.9l0,0a3.87,3.87,0,0,1,1.05,2.83A4,4,0,0,1,442,297.93Zm10.26-7-4.84-.93,1.31,4.74-1.59,1.72-7.26-6.7,1.46-1.58,4.74,4.38-1.21-4.91,0,0,4.94.82-4.7-4.35,1.45-1.58,7.26,6.71Zm6.82-8-4.83-3.66-.8,1.06-1.4-1.07.8-1.05-1.7-1.29,1.26-1.66,1.69,1.29,2.92-3.84,1.44.65,1.73,8.11ZM463,269.71l-1.69-1.08,3.25-5.09,1.69,1.08Zm12.49-12.28a4.43,4.43,0,0,1-.43,1.11,4.35,4.35,0,0,1-.85,1.15,3.3,3.3,0,0,1-1.05.66,2.62,2.62,0,0,1-1.18.15,3.15,3.15,0,0,1-1.21-.38,3.39,3.39,0,0,1-.91-.66,3,3,0,0,1-.59-.85,5.44,5.44,0,0,1-.39-1.12c-.11-.43-.2-.91-.3-1.45l-.35-2-2,3.81-1.66-.87L468,250.5l1.52.8.85,4.16c.08.4.16.74.23,1a4.47,4.47,0,0,0,.27.74,2.49,2.49,0,0,0,.33.51,1.92,1.92,0,0,0,.47.35,1.26,1.26,0,0,0,1,.12,1.45,1.45,0,0,0,.73-.7,1.71,1.71,0,0,0,.19-1.06,5.48,5.48,0,0,0-.43-1.34l1.8-.78a8.37,8.37,0,0,1,.44,1.07,4,4,0,0,1,.19,1A3.32,3.32,0,0,1,475.51,257.43Z"/><path class="cls-2" d="M270.85,324.9h0L289,313.79c-57.07-17.44-98.7-70.59-98.7-133.29,0-76.83,62.5-139.34,139.33-139.34A138.48,138.48,0,0,1,390.1,55l31.44-4.62-4-27.5A179.36,179.36,0,0,0,329.61,0c-99.53,0-180.5,81-180.5,180.5,0,83.09,56.44,153.23,133,174.14L265.76,328ZM193.64,89.33a3.43,3.43,0,0,1,.6-1.43,3.56,3.56,0,0,1,1.2-1.16,3.28,3.28,0,0,1,1.4-.44,3.72,3.72,0,0,1,1.47.18,5.69,5.69,0,0,1,1.4.69l0,0,.22.16a2.3,2.3,0,0,1,.2.17l-3,4.34a1.86,1.86,0,0,0,1.28.1,1.92,1.92,0,0,0,1-.79,2.4,2.4,0,0,0,.39-.89,3.38,3.38,0,0,0,0-1.06l1.59-.4a3.88,3.88,0,0,1,.12,1.66,4.12,4.12,0,0,1-.7,1.69,4.54,4.54,0,0,1-1.13,1.14,3.53,3.53,0,0,1-1.37.58,3.69,3.69,0,0,1-1.48,0,4,4,0,0,1-1.48-.65h0a4.38,4.38,0,0,1-1.1-1.09,3.92,3.92,0,0,1-.6-1.34A3.54,3.54,0,0,1,193.64,89.33Zm-3.3,4.81,1.29.8a3.17,3.17,0,0,1-.58-1.41,2.14,2.14,0,0,1,.44-1.52l1.91,1.18-.06.1a2.19,2.19,0,0,0-.34,1.77,2.89,2.89,0,0,0,1.39,1.59l2.38,1.47-1.13,1.82-6.43-4Zm-6.94,6.42,3.32,1.89a5.66,5.66,0,0,1-.2-.58,3.09,3.09,0,0,1-.1-.62,2.38,2.38,0,0,1,.34-1.33,2.39,2.39,0,0,1,1.59-1.28,3,3,0,0,1,2.12.43l4.26,2.42-1.06,1.87L190,101.28a1.7,1.7,0,0,0-1.17-.27,1.18,1.18,0,0,0-.81.64,1.31,1.31,0,0,0-.15,1,1.63,1.63,0,0,0,.82.88l3.66,2.08-1.06,1.87-9-5.09Zm-8.66,58.11-1.7-.28-2.12-3.68c-.2-.35-.38-.65-.54-.89a5,5,0,0,0-.49-.62,2.28,2.28,0,0,0-.48-.38,1.55,1.55,0,0,0-.55-.18,1.22,1.22,0,0,0-1,.2,1.47,1.47,0,0,0-.48.9,1.67,1.67,0,0,0,.16,1.06,5.44,5.44,0,0,0,.83,1.15l-1.46,1.3a8.13,8.13,0,0,1-.75-.87,4.5,4.5,0,0,1-.51-.9,3.32,3.32,0,0,1-.24-1,5,5,0,0,1,.06-1.19,4.44,4.44,0,0,1,.45-1.36,3.1,3.1,0,0,1,.78-1,2.65,2.65,0,0,1,1.07-.51,3.41,3.41,0,0,1,1.28,0,3.57,3.57,0,0,1,1.06.34,3.36,3.36,0,0,1,.84.63,5.26,5.26,0,0,1,.72.94c.23.37.48.8.74,1.28l1,1.79.69-4.25,1.86.31Zm-2.9-13.91,1.45-5.87,1.94.48-1.44,5.87Zm9.61-13.66a4.56,4.56,0,0,1-.78,1.48,3.52,3.52,0,0,1-1.13.89,3.77,3.77,0,0,1-1.6.36,7,7,0,0,1-2.33-.44,8.48,8.48,0,0,1-1.94-.92,5,5,0,0,1-1.37-1.3,3.73,3.73,0,0,1-.66-1.65,4.2,4.2,0,0,1,.21-2,5.29,5.29,0,0,1,.37-.86,4.29,4.29,0,0,1,.44-.69,5.8,5.8,0,0,1,.55-.56,6.42,6.42,0,0,1,.65-.48l1.22,1.61-.46.34a2.6,2.6,0,0,0-.38.36,2.69,2.69,0,0,0-.31.44,2.91,2.91,0,0,0-.24.53,1.7,1.7,0,0,0-.09.82,1.85,1.85,0,0,0,.27.72,2.3,2.3,0,0,0,.57.6,4.21,4.21,0,0,0,.8.47,5.05,5.05,0,0,1-.14-.93,3,3,0,0,1,.19-1.21,4.08,4.08,0,0,1,.63-1.23,3.12,3.12,0,0,1,.92-.86,2.65,2.65,0,0,1,1.16-.38,3.13,3.13,0,0,1,1.39.18,3.27,3.27,0,0,1,1.22.71,3.43,3.43,0,0,1,.79,1.1,3.51,3.51,0,0,1,.29,1.35A4.44,4.44,0,0,1,181.45,131.1Zm4.21-11.24a4,4,0,0,1-1.16,1.62,4.52,4.52,0,0,1-1.47.77l-.86-1.85a4.05,4.05,0,0,0,1-.5,1.83,1.83,0,0,0,.62-.78,1.22,1.22,0,0,0,0-1,1.81,1.81,0,0,0-1-.82l-5.85-2.5.87-2.05,6,2.54a4.28,4.28,0,0,1,1.34.85,3,3,0,0,1,.74,1.09,2.85,2.85,0,0,1,.17,1.28A4.09,4.09,0,0,1,185.66,119.86Zm3.46-8.18a3.05,3.05,0,0,1-.36,1.32,3.36,3.36,0,0,1-.57.84,2.5,2.5,0,0,1-.76.55,2.3,2.3,0,0,1-.9.18,2.34,2.34,0,0,1-1-.25l0,0a2.41,2.41,0,0,1-.87-.67,2.15,2.15,0,0,1-.39-.89,2.92,2.92,0,0,1,0-1.06,5,5,0,0,1,.41-1.18,5.13,5.13,0,0,1,.52-.86,6.15,6.15,0,0,1,.57-.66l-.11-.06a1.33,1.33,0,0,0-1.11-.08,1.82,1.82,0,0,0-.85.93,5.08,5.08,0,0,0-.38,1,7.63,7.63,0,0,0-.17,1l-1.7-.24a9.19,9.19,0,0,1,.17-1.36,7,7,0,0,1,.57-1.54,2.94,2.94,0,0,1,4.41-1.6l3.94,1.93-.91,1.86-.73-.35A3.17,3.17,0,0,1,189.12,111.68Z"/><path class="cls-2" d="M422.41,56.3h0L399,59.73a140.3,140.3,0,0,1,57.43,63.09l27.05,11L494.43,107A181.59,181.59,0,0,0,424.1,26.78l4.22,28.65Zm55,56.06-1,.44c.19,0,.39.11.58.18a3.25,3.25,0,0,1,.56.28,2.2,2.2,0,0,1,.48.44,2.37,2.37,0,0,1,.4.62,2.45,2.45,0,0,1,.09,2,2.94,2.94,0,0,1-1.61,1.45l-4.47,2-.87-2,3.84-1.72a1.76,1.76,0,0,0,.91-.78,1.21,1.21,0,0,0,0-1,1.26,1.26,0,0,0-.76-.74,1.57,1.57,0,0,0-1.19.14l-3.84,1.72-.88-2,6.91-3.09Zm-4.22-8.21a3.61,3.61,0,0,1,1,1.2,3.67,3.67,0,0,1,.45,1.61,3.34,3.34,0,0,1-.28,1.44,3.74,3.74,0,0,1-.86,1.2,5.33,5.33,0,0,1-1.27.91h0l-.24.12-.25.1-2.41-4.68a1.85,1.85,0,0,0-.69,1.08,1.93,1.93,0,0,0,.22,1.24,2.51,2.51,0,0,0,.6.77,3.38,3.38,0,0,0,.93.51l-.4,1.59a3.87,3.87,0,0,1-1.52-.68,4,4,0,0,1-1.15-1.43,4.18,4.18,0,0,1-.47-1.52,3.55,3.55,0,0,1,.14-1.49,3.88,3.88,0,0,1,.72-1.3,4.12,4.12,0,0,1,1.27-1h0a4.18,4.18,0,0,1,2.95-.35A3.47,3.47,0,0,1,473.24,104.15ZM471.43,95l-3.29,1.93a4.21,4.21,0,0,1,.6.11,3.14,3.14,0,0,1,.58.22,2.78,2.78,0,0,1,.54.38,2.48,2.48,0,0,1,.45.58,2.42,2.42,0,0,1,.32,2,3,3,0,0,1-1.44,1.62L465,104.34l-1.09-1.85,3.63-2.13a1.7,1.7,0,0,0,.82-.88,1.19,1.19,0,0,0-.15-1,1.29,1.29,0,0,0-.83-.65,1.59,1.59,0,0,0-1.17.27l-3.63,2.13-1.09-1.85,8.89-5.21ZM463,88.74a3.92,3.92,0,0,1,1.39.58,4.23,4.23,0,0,1,1.15,1.16,4.18,4.18,0,0,1,.69,1.67,4.05,4.05,0,0,1-.09,1.55l-1.9-.31a3.34,3.34,0,0,0,.09-1,1.85,1.85,0,0,0-.35-.93,1.7,1.7,0,0,0-.54-.53,1.82,1.82,0,0,0-.69-.23,2,2,0,0,0-.76,0,2.31,2.31,0,0,0-.74.33h0a2.38,2.38,0,0,0-.61.57,2,2,0,0,0-.34.69,1.88,1.88,0,0,0,0,.75,2,2,0,0,0,.3.75,1.83,1.83,0,0,0,.7.66,3.91,3.91,0,0,0,.93.34l-.37,1.75a4.69,4.69,0,0,1-1.52-.5A3.8,3.8,0,0,1,459,94.8a4,4,0,0,1-.61-1.48,4,4,0,0,1,0-1.5,3.88,3.88,0,0,1,.59-1.37,3.94,3.94,0,0,1,1.1-1.09h0a3.94,3.94,0,0,1,1.44-.6A4,4,0,0,1,463,88.74Zm-4.15-7.19a4.45,4.45,0,0,1,1.95,2.61,3.86,3.86,0,0,1,.1,1.54,3.68,3.68,0,0,1-.48,1.42,3.89,3.89,0,0,1-1.05,1.17h0a3.81,3.81,0,0,1-1.41.67,3.71,3.71,0,0,1-1.52,0,4.17,4.17,0,0,1-1.45-.53,4.38,4.38,0,0,1-1.23-1.13,4.15,4.15,0,0,1-.72-1.48,4.06,4.06,0,0,1-.11-1.54,3.91,3.91,0,0,1,1.53-2.59h0A3.78,3.78,0,0,1,457.4,81,4.17,4.17,0,0,1,458.85,81.55ZM448.56,65.46l1.54,1.75-3.68,6,6.51-2.76,1.23,1.4-3.59,6.09L457,75l1.5,1.71-9.71,4-1.25-1.43,3.39-5.94L444.55,76l-1.24-1.42Zm-15.4-3.28,4.24.25c.4,0,.75,0,1.05,0a4.52,4.52,0,0,0,.78-.07,2.32,2.32,0,0,0,.58-.19,1.87,1.87,0,0,0,.45-.36,1.21,1.21,0,0,0,.38-1,1.37,1.37,0,0,0-.48-.89,1.79,1.79,0,0,0-1-.46,5.94,5.94,0,0,0-1.41.06l-.28-1.93a8.12,8.12,0,0,1,1.14-.15,5,5,0,0,1,1,.07,3.69,3.69,0,0,1,1,.36,4.75,4.75,0,0,1,1,.7,4,4,0,0,1,.89,1.13,3,3,0,0,1,.37,1.18,2.6,2.6,0,0,1-.16,1.17,3.16,3.16,0,0,1-.68,1.08,3.43,3.43,0,0,1-.87.7,3.19,3.19,0,0,1-1,.36,5.44,5.44,0,0,1-1.18.09l-1.48-.09-2-.18L438.64,67l-1.27,1.38-5.38-5Z"/></svg>